<?xml version="1.0" encoding="utf-8"?>
<!-- Generator: Adobe Illustrator 22.1.0, SVG Export Plug-In . SVG Version: 6.00 Build 0)  -->
<svg version="1.1" id="レイヤー_1" xmlns="http://www.w3.org/2000/svg" xmlns:xlink="http://www.w3.org/1999/xlink" x="0px"
	 y="0px" viewBox="0 0 92 31" style="enable-background:new 0 0 92 31;" xml:space="preserve">
<style type="text/css">
	.st0{enable-background:new    ;}
	.st1{fill:#412820;}
</style>
<g id="header__logo" transform="translate(-595 -747)">
	<g class="st0">
		<path class="st1" d="M599.1,752.4c0,0.1,0,0.2,0,0.2c-0.1,0-0.2,0.1-0.2,0.2s-0.1,0.3-0.1,0.6s-0.1,0.9-0.2,1.9s-0.1,1.6-0.1,2.1
			v2.1l0,5.1c0,0.8,0,1.6,0,2.6s0.1,1.5,0.1,1.7s0.1,0.3,0.2,0.4c0,0.5-0.2,0.8-0.4,0.8l-0.2,0c0,0-0.1,0-0.2,0.1s-0.2,0.1-0.4,0.1
			c-0.2,0-0.3-0.1-0.4-0.2s-0.2-0.3-0.2-0.5c0-0.1,0-0.1,0.1-0.2c0.2,0,0.3-1.5,0.3-4.4l-0.1-6.8l0.1-3.7l-0.1-0.6
			c-0.1-0.4-0.1-0.8-0.1-1.1c0-0.2,0-0.3,0.1-0.5c0.6-0.3,1-0.4,1.2-0.4c0.1,0,0.2,0,0.3,0.1s0.2,0.3,0.3,0.5
			C599.1,752.2,599.1,752.3,599.1,752.4L599.1,752.4z M605.1,760.6c0,0-0.1,0-0.2,0c-0.1,0-0.2,0-0.3,0s-0.4,0.3-0.9,0.8l-1.6,1.5
			c-0.5,0.5-0.9,0.9-1.2,1.2c-0.2,0.3-0.4,0.5-0.4,0.5c0,0.1,0.4,0.4,1.2,0.9l1.9,1.3c0.6,0.4,1.1,0.7,1.5,0.9s0.8,0.3,1.1,0.3
			c0.2,0,0.4,0.2,0.7,0.5c0.1,0.2,0.2,0.3,0.2,0.5c0,0.2-0.1,0.3-0.3,0.4s-0.3,0.2-0.3,0.3c-0.1,0.3-0.3,0.5-0.6,0.5
			c-0.1,0-0.2,0-0.3,0v0c0-0.1-0.1-0.2-0.4-0.5c-0.3-0.2-0.7-0.6-1.3-1c-0.6-0.4-1.5-1-2.8-1.8s-1.9-1.2-2-1.2l-0.3,0
			c0-0.6,0.2-1.1,0.7-1.5c0.3-0.1,0.5-0.2,0.7-0.5c0,0,0,0,0.1,0c0.1,0,0.1-0.1,0.3-0.2s0.3-0.4,0.7-0.7c0.4-0.4,0.7-0.7,0.9-0.9
			c0.2-0.3,0.4-0.5,0.6-0.8l0.5-0.6c0.1-0.2,0.2-0.4,0.4-0.7c0.1,0,0.3-0.1,0.5-0.3c0.2-0.2,0.4-0.3,0.6-0.3h0.1
			c0,0,0.1,0.1,0.2,0.1h0.1c0.2,0.1,0.3,0.3,0.3,0.6C605.4,760.1,605.3,760.4,605.1,760.6z"/>
		<path class="st1" d="M616,763.7c0,0.1-0.1,0.1-0.2,0.3s-0.2,0.2-0.2,0.3s-0.1,0.3-0.1,0.7s0,0.9,0,1.6l0,1.6c0,0.1,0,0.2-0.1,0.2
			c0,0.1,0,0.2,0,0.4c0,0.3,0,0.7,0.1,1.1l0.1,0.6l0,0.6l0,0.5c-0.6,0.6-1,0.8-1.3,0.8c0,0-0.1,0-0.2-0.1s-0.2-0.1-0.3-0.1h-0.1
			c-0.1-0.2-0.1-0.4-0.1-0.6c0-0.4,0.1-0.8,0.3-1.1c0.1-0.1,0.2-0.2,0.2-0.3s0.1-0.3,0.1-0.7c0-0.4,0-0.7-0.1-0.7c0,0-0.1,0-0.1,0
			s-0.2,0-0.3,0h-0.1c-0.1,0.1-0.2,0.1-0.2,0.2c-0.1,0-0.6,0.2-1.5,0.5c-0.5,0.2-0.9,0.2-1.3,0.2c-0.5,0-0.9-0.1-1.2-0.2
			s-0.7-0.3-0.9-0.5s-0.4-0.4-0.5-0.5s-0.1-0.4-0.1-0.8l0-0.3v-0.1c0-0.8,0.6-1.6,1.8-2.5s2.3-1.4,3.4-1.6c0.3,0,0.5-0.1,0.7-0.1
			s0.3-0.1,0.4-0.3s0.2-0.4,0.2-0.8c0-1.4-0.7-2.3-2.2-2.8c0,0-0.1,0-0.2-0.1s-0.2-0.1-0.2-0.1c-0.8,0-1.4,0-1.9,0.1
			c-0.3,0.3-0.6,0.5-0.9,0.5c-0.3,0-0.4-0.1-0.4-0.3c0,0,0.1-0.2,0.2-0.5s0.4-0.5,0.8-0.5c0.5-0.3,1.4-0.4,2.7-0.4
			c1,0,1.9,0.4,2.4,1.2s0.9,2,0.9,3.5v0.2c0.1,0.1,0.2,0.2,0.3,0.2S616,763.5,616,763.7L616,763.7z M613.7,767.8
			c0.5-0.7,0.7-1.3,0.7-1.8c0-0.3-0.1-0.7-0.2-1s-0.5-0.6-1-0.6c-0.9,0-1.7,0.2-2.2,0.7h-0.3c-1.2,0.7-1.8,1.4-1.8,2.1
			c0,0.5,0.2,1,0.7,1.3s1.1,0.5,1.7,0.5c0.2,0,0.5-0.1,1-0.2s0.9-0.4,1.3-0.8V767.8z"/>
		<path class="st1" d="M624.9,759.8c0.5-0.1,0.9-0.1,1.3-0.1c2.1,0,3.2,1.3,3.2,4c0,1.5-0.2,3.2-0.7,5.1c-0.2,0.8-0.3,1.4-0.3,1.7
			c0,0.1,0,0.1,0,0.2c-0.1,0.5-0.4,0.7-0.9,0.7c-0.3,0-0.5-0.1-0.8-0.2s-0.3-0.3-0.3-0.5c0-0.3,0.2-0.6,0.5-1s0.6-1.1,0.9-2.2
			s0.4-2.2,0.4-3.4c0-2.3-0.9-3.5-2.8-3.5c-0.7,0-1.4,0.2-2.1,0.5s-1,0.6-1.1,1c-0.1,0.1-0.2,0.2-0.3,0.2c-0.1,0.1-0.2,0.1-0.2,0.2
			s-0.1,0.6-0.1,1.8s-0.1,2-0.1,2.6v0.6c0,0.3,0,0.6,0.1,0.8s0.1,0.4,0.1,0.4l0,0.4c0,0.3,0,0.5-0.1,0.6s-0.2,0.2-0.3,0.2h0
			l-0.1,0.2c-0.1,0-0.2,0-0.2,0c-0.1,0-0.2,0.1-0.4,0.2h-0.1c-0.1,0-0.2-0.1-0.4-0.3c-0.3,0-0.4-0.1-0.4-0.3c0-0.2,0.1-0.3,0.2-0.4
			c0.1,0,0.2-0.5,0.4-1.5s0.2-2.3,0.2-3.9c0-2-0.2-3.2-0.5-3.5l0-0.2c0-0.3,0.2-0.5,0.5-0.6c0.1,0,0.3-0.1,0.4-0.3s0.2-0.3,0.4-0.3
			h0c0.2,0,0.3-0.1,0.4-0.1s0.2-0.1,0.2-0.1c0.1,0,0.2,0.2,0.2,0.5c0,0.2,0,0.5-0.1,0.8s-0.1,0.5-0.1,0.6c0,0.1,0,0.2,0.1,0.3
			s0.2,0.1,0.3,0.1h0.1c0.2-0.2,0.3-0.3,0.4-0.3h0c0.8,0,1.3-0.2,1.7-0.5c0.1,0,0.2,0,0.3,0s0.2,0,0.2,0
			C624.8,759.9,624.9,759.9,624.9,759.8z"/>
		<path class="st1" d="M640.1,763.7c0,0.1-0.1,0.1-0.2,0.3s-0.2,0.2-0.2,0.3s-0.1,0.3-0.1,0.7s0,0.9,0,1.6l0,1.6
			c0,0.1,0,0.2-0.1,0.2c0,0.1,0,0.2,0,0.4c0,0.3,0,0.7,0.1,1.1l0.1,0.6l0,0.6l0,0.5c-0.6,0.6-1,0.8-1.3,0.8c0,0-0.1,0-0.2-0.1
			s-0.2-0.1-0.3-0.1h-0.1c-0.1-0.2-0.1-0.4-0.1-0.6c0-0.4,0.1-0.8,0.3-1.1c0.1-0.1,0.2-0.2,0.2-0.3s0.1-0.3,0.1-0.7
			c0-0.4,0-0.7-0.1-0.7c0,0-0.1,0-0.1,0s-0.2,0-0.3,0h-0.1c-0.1,0.1-0.2,0.1-0.2,0.2c-0.1,0-0.6,0.2-1.5,0.5
			c-0.5,0.2-0.9,0.2-1.3,0.2c-0.5,0-0.9-0.1-1.2-0.2s-0.7-0.3-0.9-0.5s-0.4-0.4-0.5-0.5s-0.1-0.4-0.1-0.8l0-0.3v-0.1
			c0-0.8,0.6-1.6,1.8-2.5s2.3-1.4,3.4-1.6c0.3,0,0.5-0.1,0.7-0.1s0.3-0.1,0.4-0.3s0.2-0.4,0.2-0.8c0-1.4-0.7-2.3-2.2-2.8
			c0,0-0.1,0-0.2-0.1s-0.2-0.1-0.2-0.1c-0.8,0-1.4,0-1.9,0.1c-0.3,0.3-0.6,0.5-0.9,0.5c-0.3,0-0.4-0.1-0.4-0.3c0,0,0.1-0.2,0.2-0.5
			s0.4-0.5,0.8-0.5c0.5-0.3,1.4-0.4,2.7-0.4c1,0,1.9,0.4,2.4,1.2s0.9,2,0.9,3.5v0.2c0.1,0.1,0.2,0.2,0.3,0.2
			S640.1,763.5,640.1,763.7L640.1,763.7z M637.8,767.8c0.5-0.7,0.7-1.3,0.7-1.8c0-0.3-0.1-0.7-0.2-1s-0.5-0.6-1-0.6
			c-0.9,0-1.7,0.2-2.2,0.7h-0.3c-1.2,0.7-1.8,1.4-1.8,2.1c0,0.5,0.2,1,0.7,1.3s1.1,0.5,1.7,0.5c0.2,0,0.5-0.1,1-0.2s0.9-0.4,1.3-0.8
			V767.8z"/>
		<path class="st1" d="M649,759.8c0.5-0.1,0.9-0.1,1.3-0.1c2.1,0,3.2,1.3,3.2,4c0,1.5-0.2,3.2-0.7,5.1c-0.2,0.8-0.3,1.4-0.3,1.7
			c0,0.1,0,0.1,0,0.2c-0.1,0.5-0.4,0.7-0.9,0.7c-0.3,0-0.5-0.1-0.8-0.2s-0.3-0.3-0.3-0.5c0-0.3,0.2-0.6,0.5-1s0.6-1.1,0.9-2.2
			s0.4-2.2,0.4-3.4c0-2.3-0.9-3.5-2.8-3.5c-0.7,0-1.4,0.2-2.1,0.5s-1,0.6-1.1,1c-0.1,0.1-0.2,0.2-0.3,0.2c-0.1,0.1-0.2,0.1-0.2,0.2
			s-0.1,0.6-0.1,1.8s-0.1,2-0.1,2.6v0.6c0,0.3,0,0.6,0.1,0.8s0.1,0.4,0.1,0.4l0,0.4c0,0.3,0,0.5-0.1,0.6s-0.2,0.2-0.3,0.2h0
			l-0.1,0.2c-0.1,0-0.2,0-0.2,0c-0.1,0-0.2,0.1-0.4,0.2h-0.1c-0.1,0-0.2-0.1-0.4-0.3c-0.3,0-0.4-0.1-0.4-0.3c0-0.2,0.1-0.3,0.2-0.4
			c0.1,0,0.2-0.5,0.4-1.5s0.2-2.3,0.2-3.9c0-2-0.2-3.2-0.5-3.5l0-0.2c0-0.3,0.2-0.5,0.5-0.6c0.1,0,0.3-0.1,0.4-0.3s0.2-0.3,0.4-0.3
			h0c0.2,0,0.3-0.1,0.4-0.1s0.2-0.1,0.2-0.1c0.1,0,0.2,0.2,0.2,0.5c0,0.2,0,0.5-0.1,0.8s-0.1,0.5-0.1,0.6c0,0.1,0,0.2,0.1,0.3
			s0.2,0.1,0.3,0.1h0.1c0.2-0.2,0.3-0.3,0.4-0.3h0c0.8,0,1.3-0.2,1.7-0.5c0.1,0,0.2,0,0.3,0s0.2,0,0.2,0
			C648.8,759.9,648.9,759.9,649,759.8z"/>
		<path class="st1" d="M656.9,762.8c1.2-2.3,3.4-3.5,6.6-3.5c0.5,0,0.9,0,1.3,0.1s0.7,0.1,1.1,0.3c0.3,0.1,0.6,0.3,0.9,0.5
			s0.6,0.5,0.8,0.8s0.5,0.7,0.8,1.1c0.1,0.2,0.2,0.7,0.2,1.5c0,1.8-0.6,3.3-1.8,4.6c-1.2,1.3-2.7,1.9-4.5,1.9h-0.1
			c-0.4-0.1-0.6-0.1-0.6-0.1c0,0-0.1,0-0.1,0c-0.1,0.1-0.3,0.2-0.7,0.2c-0.6,0-1.2-0.2-2-0.5c-0.8-0.3-1.4-0.8-1.9-1.5
			s-0.7-1.3-0.7-2.1c0-0.3,0-0.6,0-0.8c0-0.3,0.1-0.5,0.1-0.8s0.1-0.5,0.2-0.7l0.3-0.7V762.8z M667.2,764.7v-0.3
			c0-1.3-0.4-2.3-1.2-3.1s-1.9-1.2-3.2-1.2c-0.3,0-0.6,0-0.8,0.1s-0.4,0.1-0.4,0.1s-0.1,0.1-0.2,0.2s-0.2,0.2-0.2,0.3s-0.1,0-0.2,0
			l-0.6-0.1c-0.1,0-0.1,0.1-0.2,0.2c-0.6,0-1.2,0.5-1.7,1.3s-0.8,1.7-0.8,2.6c0,0.2,0,0.6,0.1,1.2s0.3,1.2,0.7,1.6
			c0.4,0.4,0.9,0.8,1.5,1.1c0.6,0.3,1.1,0.4,1.4,0.4c0.1,0,0.2,0,0.3,0l0.1,0h0.5c1,0,1.8-0.2,2.1-0.5c0,0,0.1,0,0.1,0
			c0,0,0.1,0,0.2,0.1c0.9-0.7,1.5-1.5,1.9-2.3S667.2,765,667.2,764.7z"/>
		<path class="st1" d="M673.7,769.3c-0.1,0.2-0.1,0.4-0.2,0.5s-0.2,0.1-0.4,0.1c-0.1,0.1-0.2,0.1-0.3,0.1c-0.1,0-0.1,0-0.2-0.1
			c-0.1,0.1-0.2,0.2-0.4,0.3c-0.6-0.2-0.9-0.4-0.9-0.7v0c0.1,0,0.2-0.1,0.2-0.3v-0.2l0-0.4c0-0.1,0-0.2,0.1-0.6
			c0.1-0.8,0.2-1.9,0.2-3.4v-2.4l0-0.9l0-0.8l-0.1-2.7l0.1-1.9l-0.1-2.4v-0.5c-0.1-0.3-0.2-0.5-0.2-0.8l0-0.5c0-0.1,0-0.1-0.1-0.2
			c0-0.4,0.1-0.8,0.2-1s0.3-0.4,0.5-0.6s0.4-0.2,0.6-0.2c0.3,0,0.6,0.3,0.9,1c-0.2,0.2-0.3,0.5-0.4,0.7s-0.2,0.5-0.2,1l0,1.3l0,3.4
			l0,4.6l0,5.2l0,0.2c0,0.1,0,0.2-0.1,0.2c0.1,0.1,0.2,0.3,0.2,0.7s0.1,0.7,0.2,0.8S673.6,769.3,673.7,769.3z"/>
		<path class="st1" d="M684.4,763.7c0,0.1-0.1,0.1-0.2,0.3s-0.2,0.2-0.2,0.3s-0.1,0.3-0.1,0.7s0,0.9,0,1.6l0,1.6
			c0,0.1,0,0.2-0.1,0.2c0,0.1,0,0.2,0,0.4c0,0.3,0,0.7,0.1,1.1l0.1,0.6l0,0.6l0,0.5c-0.6,0.6-1,0.8-1.3,0.8c0,0-0.1,0-0.2-0.1
			s-0.2-0.1-0.3-0.1h-0.1c-0.1-0.2-0.1-0.4-0.1-0.6c0-0.4,0.1-0.8,0.3-1.1c0.1-0.1,0.2-0.2,0.2-0.3s0.1-0.3,0.1-0.7
			c0-0.4,0-0.7-0.1-0.7c0,0-0.1,0-0.1,0s-0.2,0-0.3,0H682c-0.1,0.1-0.2,0.1-0.2,0.2c-0.1,0-0.6,0.2-1.5,0.5
			c-0.5,0.2-0.9,0.2-1.3,0.2c-0.5,0-0.9-0.1-1.2-0.2s-0.7-0.3-0.9-0.5s-0.4-0.4-0.5-0.5s-0.1-0.4-0.1-0.8l0-0.3v-0.1
			c0-0.8,0.6-1.6,1.8-2.5s2.3-1.4,3.4-1.6c0.3,0,0.5-0.1,0.7-0.1s0.3-0.1,0.4-0.3s0.2-0.4,0.2-0.8c0-1.4-0.7-2.3-2.2-2.8
			c0,0-0.1,0-0.2-0.1s-0.2-0.1-0.2-0.1c-0.8,0-1.4,0-1.9,0.1c-0.3,0.3-0.6,0.5-0.9,0.5c-0.3,0-0.4-0.1-0.4-0.3c0,0,0.1-0.2,0.2-0.5
			s0.4-0.5,0.8-0.5c0.5-0.3,1.4-0.4,2.7-0.4c1,0,1.9,0.4,2.4,1.2s0.9,2,0.9,3.5v0.2c0.1,0.1,0.2,0.2,0.3,0.2
			S684.4,763.5,684.4,763.7L684.4,763.7z M682.1,767.8c0.5-0.7,0.7-1.3,0.7-1.8c0-0.3-0.1-0.7-0.2-1s-0.5-0.6-1-0.6
			c-0.9,0-1.7,0.2-2.2,0.7h-0.3c-1.2,0.7-1.8,1.4-1.8,2.1c0,0.5,0.2,1,0.7,1.3s1.1,0.5,1.7,0.5c0.2,0,0.5-0.1,1-0.2s0.9-0.4,1.3-0.8
			V767.8z"/>
	</g>
</g>
</svg>
