<?xml version="1.0" encoding="utf-8"?>
<!-- Generator: Adobe Illustrator 22.1.0, SVG Export Plug-In . SVG Version: 6.00 Build 0)  -->
<svg version="1.1" id="レイヤー_1" xmlns="http://www.w3.org/2000/svg" xmlns:xlink="http://www.w3.org/1999/xlink" x="0px"
	 y="0px" viewBox="0 0 36.9 19.8" style="enable-background:new 0 0 36.9 19.8;" xml:space="preserve">
<style type="text/css">
	.st0{fill:#412820;}
</style>
<g>
	<path class="st0" d="M6.1,5.3C6,5.2,5.9,5.1,5.8,5C5.6,4.8,5.4,4.8,5.2,4.8c-0.8,0-1.5,0.2-2,0.6C2.8,5.7,2.5,6.2,2.5,6.8
		c0,0.7,0.7,1.4,2.1,2.1c0.1,0,0.2,0,0.3,0c0.1,0,0.3,0.2,0.6,0.4c0.3,0.3,0.5,0.5,0.7,0.8c0.2,0.2,0.3,0.4,0.3,0.7s0.1,0.5,0.1,0.7
		c0,1-0.2,1.8-0.7,2.3c-0.5,0.5-1.3,1-2.5,1.5c-0.1,0-0.1,0-0.2,0c-0.1,0-0.2,0-0.4,0.1s-0.5,0.1-1.1,0.1c-0.2,0-0.3-0.1-0.4-0.2
		c-0.1-0.2-0.1-0.4-0.1-0.7c0-0.1,0-0.2,0.1-0.3h0.1c0.1,0,0.3,0.1,0.4,0.2c0.3,0.1,0.5,0.1,0.6,0.1c0.1,0,0.3,0,0.7-0.1
		c0.4-0.1,0.8-0.2,1.2-0.4c0.4-0.2,0.7-0.4,0.8-0.6c0.1-0.2,0.3-0.4,0.4-0.6c0.1-0.2,0.2-0.5,0.2-0.8c0-0.5-0.1-0.9-0.4-1.4
		c-0.3-0.4-0.6-0.7-0.9-0.7v0c0-0.1-0.1-0.2-0.4-0.3C3.3,9.2,2.6,8.8,2.3,8.4C1.9,8,1.7,7.5,1.7,6.9c0-0.2,0-0.4,0.1-0.7
		C1.9,6.1,2,5.9,2.1,5.7c0.1-0.2,0.3-0.4,0.4-0.5C2.7,5,2.9,4.8,3.2,4.6c0.3-0.2,0.5-0.2,0.6-0.2H4c0,0,0.1-0.1,0.2-0.2
		c0.1,0,0.3-0.1,0.5-0.1C4.8,4,4.9,4,5,4C5,4,5.1,4,5.1,4.1c0.1,0,0.3,0,0.4,0h0.2c0.2,0,0.4,0,0.6,0.1c0.1,0.1,0.2,0.2,0.2,0.4
		c0,0.2,0,0.3-0.1,0.5C6.3,5.2,6.2,5.2,6.1,5.3z"/>
	<path class="st0" d="M10,1.6c0.1,0,0.1-0.1,0.2-0.1c0.1,0,0.2,0,0.3,0l0.3-0.1c0.2,0,0.3,0.2,0.3,0.5c0,0.1,0,0.2,0,0.4
		c-0.1,0.3-0.1,0.6-0.1,1l0,1.2l0,1.8c0,1.1,0,1.7,0.1,1.9c0.1,0.2,0.2,0.3,0.3,0.3c0.1,0,0.2-0.1,0.4-0.2s0.4-0.2,0.6-0.3
		c0.1-0.1,0.3-0.1,0.5-0.2c0.2-0.1,0.3-0.1,0.5-0.1l0.4,0c0.1,0,0.3,0,0.4,0h0.1c0.4,0.1,0.7,0.3,1,0.5c0.2,0.2,0.4,0.6,0.4,0.9
		c0.1,0.4,0.1,1,0.1,1.9c0,0.7-0.1,1.3-0.3,2.1c-0.2,0.7-0.3,1.1-0.3,1.2v0.1c0,0.1,0,0.2,0.1,0.3s0.1,0.2,0.1,0.3
		c-0.1,0.3-0.3,0.4-0.5,0.4h-0.1c0,0-0.1,0-0.2,0c-0.1,0-0.1,0-0.1,0c0,0-0.1,0-0.2-0.1C14.1,15,14,14.9,14,14.8c0,0,0-0.1,0.1-0.2
		c0.2-0.4,0.4-1.1,0.6-1.8s0.3-1.5,0.3-2.2V10c0-0.5-0.1-1-0.4-1.3c-0.3-0.3-0.6-0.5-1.1-0.5c-0.2,0-0.5,0.1-0.9,0.2
		c-0.4,0.1-0.6,0.3-0.6,0.4c-0.1,0-0.2,0-0.3,0.1C11.5,8.9,11.4,9,11.4,9c0,0-0.1,0.1-0.1,0.1c0,0.1,0,0.1,0,0.1c-0.1,0-0.1,0-0.1,0
		c0,0-0.1,0-0.1,0.1c0,0.1,0,0.1,0,0.2c0,0.1,0,0.4-0.1,1c0,0.6,0,1.1,0,1.4c0,0.3,0,0.6,0,1l0,0.4v0c0,0.1,0,0.2,0.1,0.3
		s0.1,0.3,0.1,0.3c0,0,0,0.1,0,0.1c0,0.1,0,0.1,0,0.2v0h0c0.1,0,0.1,0.1,0.1,0.2c0,0,0,0-0.1,0.1c-0.1,0-0.2,0.1-0.3,0.1
		s-0.2,0.1-0.2,0.1c-0.1,0-0.2-0.1-0.3-0.2c-0.2,0-0.4,0-0.5-0.1c-0.1,0-0.2-0.1-0.2-0.2c0-0.1,0-0.1,0-0.1s0,0,0-0.1s0,0,0-0.1
		s0-0.1,0-0.1c0,0,0-0.1,0.1-0.1c0.3-0.6,0.4-1.2,0.4-2l0-1.5c0-0.2,0-0.4,0-0.5C9.9,9.7,9.8,9.5,9.8,9.3c0-0.2,0.1-0.5,0.4-0.8
		c0-0.6,0-1.3,0-2.4c0-2.6-0.1-3.9-0.4-3.9c0-0.1,0-0.2,0-0.2C9.7,1.8,9.8,1.6,10,1.6z"/>
	<path class="st0" d="M19,10c0.8-1.5,2.3-2.3,4.4-2.3c0.3,0,0.6,0,0.9,0.1c0.3,0,0.5,0.1,0.7,0.2c0.2,0.1,0.4,0.2,0.6,0.3
		c0.2,0.1,0.4,0.3,0.5,0.5c0.2,0.2,0.3,0.5,0.5,0.8c0.1,0.2,0.1,0.5,0.1,1c0,1.2-0.4,2.2-1.2,3.1c-0.8,0.8-1.8,1.3-3,1.3h-0.1
		c-0.2-0.1-0.4-0.1-0.4-0.1c0,0,0,0,0,0c0,0.1-0.2,0.1-0.5,0.1c-0.4,0-0.8-0.1-1.3-0.3c-0.5-0.2-0.9-0.5-1.2-1
		c-0.3-0.4-0.5-0.9-0.5-1.4c0-0.2,0-0.4,0-0.6c0-0.2,0-0.4,0.1-0.5s0.1-0.3,0.1-0.5l0.2-0.4V10z M25.9,11.3v-0.2
		c0-0.9-0.3-1.6-0.8-2.1c-0.5-0.5-1.3-0.8-2.2-0.8c-0.2,0-0.4,0-0.6,0.1c-0.2,0-0.3,0.1-0.3,0.1c0,0-0.1,0.1-0.1,0.2
		c-0.1,0.1-0.1,0.2-0.1,0.2c0,0-0.1,0-0.1,0l-0.4,0c-0.1,0-0.1,0-0.1,0.1c-0.4,0-0.8,0.3-1.1,0.9c-0.3,0.6-0.5,1.1-0.5,1.7
		c0,0.1,0,0.4,0.1,0.8c0.1,0.4,0.2,0.8,0.5,1c0.3,0.3,0.6,0.5,1,0.7c0.4,0.2,0.7,0.3,0.9,0.3c0.1,0,0.1,0,0.2,0l0.1,0h0.3
		c0.7,0,1.2-0.1,1.4-0.3c0,0,0,0,0,0c0,0,0.1,0,0.1,0c0.6-0.5,1-1,1.3-1.6C25.8,11.8,25.9,11.5,25.9,11.3z"/>
	<path class="st0" d="M30.7,8c1-0.3,1.6-0.5,1.9-0.6c0.3-0.1,0.5-0.1,0.5-0.1c0.2,0,0.5,0.1,1,0.3S34.9,8,35,8c0,0,0.1,0.2,0.3,0.4
		c0.3,0.3,0.5,0.8,0.5,1.5c0,0.5-0.2,1.1-0.5,1.7s-0.7,1-1.1,1.3c-0.1,0.1-0.1,0.1-0.1,0.2c-0.6,0.5-1,0.8-1.2,0.9l-0.2,0.1
		c-0.2,0.2-0.4,0.4-0.5,0.4c0,0-0.1,0-0.1,0c-0.3,0.2-0.4,0.3-0.6,0.4S31.2,14.9,31,15S30.7,15,30.7,15s-0.1,0.1-0.1,0.3
		s0,0.4,0,0.8c0,0.6,0,1.2,0.1,1.7s0.1,0.8,0.1,0.9s0.1,0.1,0.1,0.2s0.1,0.1,0.1,0.1c0,0,0,0.1-0.1,0.1s-0.1,0.1-0.2,0.1
		s-0.1,0.1-0.1,0.1c0,0,0,0,0,0c-0.2,0.1-0.5,0.2-0.6,0.2c-0.1,0-0.1,0-0.2-0.1s-0.1-0.1-0.1-0.2c0-0.1,0-0.3,0.1-0.5
		s0.1-0.3,0.1-0.4l0-0.3l0.1-2.2c0-0.3,0-0.6,0-0.7s-0.1-0.3-0.2-0.4l0.1-0.4l0-0.1c0-0.1,0-0.1,0.1-0.2s0.1-0.2,0.1-0.4l0-0.4V13
		c0-0.1,0.1-0.3,0.1-0.5v-1c0-0.1,0-0.2,0-0.4c0-0.2,0-0.3,0-0.5c0-0.5,0-0.9,0-1.1c0-0.2-0.1-0.3-0.2-0.3c0,0-0.1,0-0.2,0.1
		s-0.2,0.1-0.3,0.1l-0.1,0l-0.2-0.2c0.1-0.1,0.2-0.2,0.5-0.4s0.4-0.3,0.4-0.4c0,0,0-0.1,0-0.2c0-0.1,0-0.2,0-0.2l0-0.1
		c0,0,0-0.1-0.1-0.2l0-0.3c0-0.2,0-0.3,0.1-0.4c0.1-0.1,0.2-0.1,0.4-0.2c0.2,0,0.3-0.1,0.3-0.1h0.2c0.1,0,0.2,0.1,0.2,0.2l-0.1,0.2
		c0,0.2-0.1,0.3-0.1,0.4l0,0.2L30.7,8C30.6,8,30.7,8,30.7,8z M30.8,13.9C31,14,31.3,14,31.6,14c0.1,0,0.3,0,0.4,0s0.3-0.1,0.6-0.3
		c0.3-0.2,0.6-0.4,0.9-0.6c0.1-0.1,0.3-0.2,0.4-0.3c0.1-0.1,0.3-0.4,0.6-0.8c0.1-0.2,0.2-0.5,0.3-0.8c0.1-0.3,0.1-0.6,0.1-0.8
		c0-0.2,0-0.4-0.1-0.8s-0.3-0.6-0.5-0.9c-0.3-0.2-0.4-0.3-0.5-0.3h0c-0.1,0-0.3,0-0.4-0.1h-0.3l-0.5,0c-0.6,0-1.1,0.1-1.4,0.3
		S30.6,9,30.6,9.6l0,0.7l0,3.3c0,0.1,0,0.1,0.1,0.1S30.8,13.8,30.8,13.9z"/>
</g>
</svg>
