<svg xmlns="http://www.w3.org/2000/svg" viewBox="0 0 12.081 12.137">
  <defs>
    <style>
      .cls-1 {
        fill: #412820;
      }
    </style>
  </defs>
  <g id="ico_feature" transform="translate(-639.671 -3672.593)">
    <path id="パス_1" data-name="パス 1" class="cls-1" d="M8.4,1.3c.2.4.6,1.2,1,2.2C7.6,3,7.8,4.3,7.6,5.2c-.5,2-1.1,3.9-3.7,4.1-2,.1-2.9-.5-2.6-2.5A4.342,4.342,0,0,0,.5,3.5C.1,2.9-.2,1.6.1,1.2A3.486,3.486,0,0,1,2.5,0c.7-.1,1.4.4,2.2.5C5.8.7,6.9,1,8.4,1.3ZM6.3,4.6A3.5,3.5,0,0,0,2.4,1.2C1.2,1.3,1,2,1.6,2.9a2.581,2.581,0,0,0,.9.9c1.1.7,1.9,1.4.7,2.7a1.1,1.1,0,0,0,.1,1.1,1.376,1.376,0,0,0,1.1.1A2.755,2.755,0,0,0,6.3,4.6Z" transform="translate(651.731 3675.95) rotate(111)"/>
  </g>
</svg>
