<?xml version="1.0" encoding="utf-8"?>
<!-- Generator: Adobe Illustrator 22.1.0, SVG Export Plug-In . SVG Version: 6.00 Build 0)  -->
<svg version="1.1" id="レイヤー_1" xmlns="http://www.w3.org/2000/svg" xmlns:xlink="http://www.w3.org/1999/xlink" x="0px"
	 y="0px" viewBox="0 0 268.5 73" style="enable-background:new 0 0 268.5 73;" xml:space="preserve">
<style type="text/css">
	.st0{enable-background:new    ;}
	.st1{fill:#B29D93;}
</style>
<g id="ttl_about" transform="translate(-507.078 -1488)">
	<g class="st0">
		<path class="st1" d="M580.3,1504.1c1.5,5,6.1,15.8,13.8,32.5c1,1.5,1.6,2.9,1.6,3.9c0,0.3-0.1,0.5-0.3,0.7
			c-0.2,0.2-0.8,0.5-1.9,0.8c-1.1,0.3-1.8,0.6-2.2,0.7c-0.3-0.3-0.4-0.6-0.4-1c0-0.3,0-0.6,0.1-0.9l0.1-0.4c0-0.6-0.3-1.8-0.9-3.7
			c-0.6-1.9-1.6-4.3-3.1-7.2c-0.1-0.1-0.3-0.3-0.5-0.6c-0.2-0.3-0.5-0.5-1.2-0.5c-0.3,0-0.7,0.2-1,0.5c-0.1-0.1-0.4-0.3-1.1-0.4
			l-0.8-0.2h-0.8c-1.9,0-3.1,0.1-3.9,0.3c-0.7,0.2-1.1,0.3-1.1,0.3c-0.3,0-0.5-0.1-0.6-0.4c-1.1,0.3-2,0.4-2.5,0.4
			c-0.5-0.1-1.1-0.1-1.6-0.1c-1.2,0-2.3,0.1-3.3,0.4c-1,0.3-1.7,0.4-2,0.4c-0.3,0-0.6,0.2-0.9,0.7l-0.4-0.3
			c-1.9,3.8-3.2,6.9-4.2,9.1c-0.1,1.4-0.4,2.5-0.9,3.5s-0.9,1.4-1.3,1.4h-0.1c-0.6-0.3-1.9-0.6-3.8-0.9c-0.3-0.1-0.4-0.2-0.4-0.5
			c0-0.6,0.3-1.2,1-1.7s1-0.9,1.1-1.2c0.6-1.1,1.1-1.9,1.6-2.4c0.7-0.8,1.5-2.1,2.5-3.9s1.8-3,2.5-3.6c0-0.8,0.9-2.5,2.6-5.2
			c1.7-2.6,3.2-5.1,4.5-7.4c1.3-2.3,2-3.6,2.1-3.7c2.5-3.6,3.8-6.1,3.8-7.4v-0.1c0.4,0,0.6-0.1,0.6-0.3v-0.3c0-0.7,0.4-1.4,1.3-2.2
			l0.4,0.2c0.5-0.6,0.8-0.9,1.1-0.9c0.3,0,0.5,0.2,0.5,0.7C580.4,1503.6,580.4,1503.9,580.3,1504.1z M581.6,1526.6
			c0.5-0.1,1-0.2,1.6-0.2c1.3-0.2,1.9-0.6,1.9-1.1c0,0-1.1-2.7-3.2-8.1c-2.1-5.4-3.5-8-4.2-8c-0.5,0-1.3,1.3-2.7,3.8
			c-1.3,2.5-2.8,5.1-4.4,7.8c-1.6,2.7-2.5,4.3-2.5,4.9c0,0.4,0.3,0.7,0.8,0.8c0.5,0.1,0.9,0.2,1,0.2l0.5-0.1c0.3,0,0.7,0,1.3,0.1
			c0.5,0.1,0.9,0.1,1.1,0.1c0.4,0,1.2-0.1,2.1-0.2c1-0.1,1.6-0.2,1.9-0.2c0.3,0,0.6,0,0.9,0.1c0.4,0.1,0.6,0.1,0.7,0.1
			c0.3,0,0.4-0.1,0.5-0.4c0.5,0.1,0.9,0.2,1.2,0.2l0.8-0.1C581.3,1526.5,581.5,1526.5,581.6,1526.6z"/>
		<path class="st1" d="M610.6,1517.1c0.1-0.3,0.6-0.5,1.4-0.6c0.8-0.2,1.5-0.2,2-0.2l4.2,0.3c1.4,0.1,2.7,0.4,3.9,0.9
			c1.2,0.5,2.4,1.2,3.6,2.1c0.9,0.7,1.6,1.7,2.1,3.1c0.5,1.4,0.8,2.7,0.8,4.1c0,4.2-2.1,7.7-6.3,10.4c-0.1,0.1-0.3,0.2-0.4,0.5
			c-0.1,0.2-0.2,0.3-0.3,0.4c-0.4,0.3-0.7,0.5-1,0.6c-0.3,0.1-0.7,0.3-1.1,0.5c-0.5,0.2-1,0.3-1.7,0.5c-0.6,0.1-1.3,0.3-2.1,0.4
			c-0.1,0-0.3,0.1-0.6,0.3c-0.2,0.2-0.4,0.2-0.5,0.2c-0.1,0-0.1,0-0.2-0.1c-0.2,0-1.3,0.4-3.3,1.2l-0.3-0.4c-0.6,0.1-1,0.4-1.3,0.9
			c0,0.3-0.2,0.6-0.6,0.8c-0.4,0.2-0.9,0.4-1.4,0.4c-0.4,0-0.7-0.1-0.8-0.3c-0.2-0.2-0.5-0.3-0.9-0.3c-0.1,0-0.3,0-0.7,0.1v-0.1
			c0-0.2-0.1-0.5-0.2-0.8s-0.2-0.5-0.2-0.6c0-0.2,0.3-0.5,0.8-0.9c0.5-0.4,0.8-0.7,0.8-0.9v-0.1c0.5-5.2,0.7-10.3,0.7-15.4
			c0-9.6-0.3-16.5-0.8-20.7c-0.4-0.5-0.6-0.9-0.6-1.1l0.1-0.6c0-0.1,0-0.5-0.1-1c-0.1-0.5-0.1-1-0.1-1.4c0-0.6,0.2-1,0.7-1.1
			c0.5-0.1,0.8-0.2,1.1-0.2c0.3-0.1,0.5-0.1,0.5-0.1c0.1,0,0.3,0,0.5,0.1s0.4,0.1,0.5,0.1c0.1,0,0.6,0.3,1.4,0.9
			c0.2,0.8,0.3,1.3,0.3,1.6c0,0.2,0,0.3-0.1,0.4c0,0.1-0.1,0.2-0.2,0.5c-0.7,2-1.1,5.2-1.1,9.4c0,2.4,0.1,4.1,0.2,5
			c0.2,0.9,0.4,1.3,0.8,1.3H610.6z M610.1,1519.6c-0.3,7.9-0.5,12.9-0.5,15c0,1.8,0.3,3,0.8,3.6c0.5,0.6,1.4,0.9,2.7,0.9
			c1.2,0,2.7-0.3,4.5-0.8c1.8-0.5,3.3-1.5,4.8-2.8c1.4-1.4,2.4-2.7,2.9-3.9c0.5-1.2,0.7-2.5,0.7-3.8c0-2.2-1-4.2-3-5.8
			c-2-1.6-4.1-2.4-6.3-2.4h-1l-2-0.1c-0.8,0-1.5,0.2-2.1,0.7c-0.3-0.4-0.6-0.7-1-0.7C610.4,1519.4,610.2,1519.5,610.1,1519.6z"/>
		<path class="st1" d="M637.6,1525.1c2.8-5.4,8-8.1,15.3-8.1c1.1,0,2.2,0.1,3.1,0.2c0.9,0.1,1.7,0.3,2.5,0.6s1.5,0.7,2.1,1.2
			c0.7,0.5,1.3,1.1,1.9,1.8c0.6,0.7,1.2,1.6,1.8,2.6c0.3,0.5,0.5,1.7,0.5,3.6c0,4.2-1.4,7.7-4.3,10.7c-2.8,2.9-6.3,4.4-10.5,4.4
			h-0.2c-0.9-0.2-1.3-0.3-1.4-0.3c-0.1,0-0.1,0-0.2,0.1c-0.2,0.3-0.7,0.4-1.7,0.4c-1.3,0-2.8-0.4-4.6-1.1s-3.2-1.9-4.3-3.4
			s-1.7-3.1-1.7-4.8c0-0.7,0-1.3,0.1-2c0.1-0.6,0.2-1.3,0.3-1.9c0.1-0.6,0.3-1.2,0.5-1.7l0.7-1.6V1525.1z M661.6,1529.6v-0.7
			c0-3-1-5.5-2.9-7.3c-1.9-1.9-4.4-2.8-7.6-2.8c-0.7,0-1.3,0.1-1.9,0.2c-0.6,0.2-0.9,0.3-1,0.3c-0.1,0-0.3,0.2-0.5,0.6
			c-0.2,0.3-0.4,0.5-0.5,0.6c-0.1,0.1-0.2,0.1-0.4,0.1l-1.4-0.2c-0.2,0-0.3,0.2-0.4,0.5c-1.4,0.1-2.7,1.1-3.9,3.1
			c-1.2,2-1.8,4-1.8,6.1c0,0.5,0.1,1.4,0.3,2.9c0.2,1.5,0.7,2.7,1.7,3.6c0.9,1,2.1,1.8,3.5,2.5c1.4,0.7,2.5,1,3.3,1
			c0.2,0,0.4,0,0.7-0.1l0.2-0.1h1.1c2.4,0,4.1-0.4,5-1.1c0.1-0.1,0.1-0.1,0.2-0.1c0.1,0,0.3,0.1,0.5,0.2c2-1.7,3.5-3.6,4.5-5.5
			C661.2,1531.5,661.6,1530.3,661.6,1529.6z"/>
		<path class="st1" d="M693.3,1517c0.3-0.2,0.8-0.4,1.3-0.5l1.7-0.4h0.2c0.4,0,0.5,0.5,0.5,1.4l-0.9,3c-0.3,1-0.5,1.9-0.6,2.8
			c-0.1,0.9-0.2,1.8-0.2,2.6c0,0.8,0.1,1.7,0.2,2.7c0.1,0.9,0.5,1.7,1,2.4c0,0.1,0.1,0.2,0.1,0.4c0,0.2-0.2,0.5-0.5,0.9
			c-0.3,0.4-0.5,1-0.5,1.8c0,0.4,0.1,1.1,0.2,2s0.2,1.5,0.2,1.7c0,0.2,0.1,0.4,0.4,0.6s0.4,0.3,0.4,0.4c0,0.1-0.1,0.3-0.4,0.4
			c-0.1,0.9-0.1,1.4-0.1,1.6c0,0.7,0.1,1,0.3,1.1c-1.3,0.5-2.2,0.8-2.8,0.8c-0.7,0-1.1-0.3-1.1-0.9c0-0.2,0.1-0.4,0.2-0.8
			c-0.1-0.1-0.1-0.3-0.1-0.4c0-0.3,0-0.6,0.2-0.8c0.1-0.2,0.2-0.4,0.2-0.6c0-0.4-0.1-0.9-0.2-1.5s-0.4-1-1-1c-0.4,0-1.2,0.5-2.4,1.6
			c-1.7,1.5-3.3,2.6-4.6,3.3c-0.6,0.2-0.9,0.4-1.1,0.6c-2.6,0.4-3.9,0.6-4,0.6c-0.5,0-1-0.3-1.8-0.8s-1.3-1-1.8-1.5
			c-0.4-0.5-0.8-1.3-1.2-2.4s-0.5-2.3-0.5-3.6c0-0.6,0.2-2.6,0.7-6s0.8-5.9,1.1-7.4c0.3-1.5,0.4-2.3,0.4-2.3c0-0.1-0.1-0.4-0.2-0.7
			l-0.2-0.4v-0.1c0-0.1,0.1-0.2,0.3-0.3c0.2-0.1,0.5-0.2,1-0.5c0.5-0.3,0.9-0.4,1.2-0.4c0.1,0,0.4,0.1,0.8,0.2
			c0.4,0.1,0.7,0.2,1,0.2h0.2c0.3,0.3,0.6,0.6,0.7,0.8l-0.6,0.7c-1,0.9-1.7,2.4-2,4.2l-0.9,5.9c-0.3,2-0.5,3.5-0.5,4.4
			c0,2.6,0.5,4.4,1.5,5.6c1,1.2,2,1.8,2.9,1.8l0.5-0.1l0.8,0.1c0.3,0,0.8-0.2,1.6-0.6s2-1.1,3.5-2.2s2.5-1.8,2.8-2.4
			c0.3-0.5,0.6-1.1,0.9-1.9c0.3-0.8,0.4-1.7,0.6-2.7c0.1-1,0.2-2.1,0.2-3.3c0-3.1-0.1-5.1-0.2-6.2s-0.4-1.7-0.7-1.9
			c-0.2-0.2-0.4-0.7-0.4-1.4c0.3-0.1,0.5-0.2,0.6-0.3s0.2-0.1,0.3-0.1C692.8,1516.7,693.1,1516.8,693.3,1517z"/>
		<path class="st1" d="M720.9,1517.9c0,0.1,0.1,0.2,0.3,0.3c0.2,0.1,0.3,0.1,0.3,0.1h0.3c0.6,0,1.1,0.1,1.6,0.4
			c0.4,0.3,0.7,0.6,0.7,0.9c0,0.4-0.3,0.7-0.8,1.1l-0.3-0.4c-0.3,0.5-0.7,0.7-1.3,0.8l-0.2-0.3l-0.3,0.1c-0.8-0.4-1.6-0.5-2.5-0.5
			l-2.6,0.1c-0.4,0-0.9,0-1.6-0.1c-0.5,3.5-0.7,6.3-0.7,8.4c0,0.7,0,1.6,0.1,2.6s0.2,1.8,0.5,2.4c0.2,0.6,0.5,1.2,0.7,1.7
			c0.2,0.5,0.6,1.1,1.2,1.6c0.6,0.5,1.1,0.9,1.6,1.1c0.5,0.2,0.9,0.5,1.3,0.9c0.4,0.4,1.3,0.6,2.8,0.6h0.5c0.3,0.3,0.5,0.5,0.5,0.7
			c0,0.2-0.1,0.5-0.4,0.9c-0.3,0.4-0.5,0.8-0.6,1.1c-0.2,0.3-0.4,0.6-0.8,1h-0.1c-0.1,0-0.2-0.1-0.2-0.2c-0.6,0-1.2-0.1-1.7-0.2
			c0,0,0,0.1-0.1,0.1c0,0-0.1-0.1-0.3-0.2c-0.1-0.1-0.3-0.2-0.4-0.2c-0.1-0.3-0.4-0.5-0.8-0.7c-0.8-0.3-1.6-0.7-2.3-1.3
			c-0.7-0.6-1.4-1.4-2.2-2.4c-0.7-1-1.2-2-1.4-2.9c-0.2-0.9-0.3-1.9-0.5-3.2c-0.1-1.2-0.2-2.5-0.2-4c0-2.4,0.2-5,0.5-7.8l-0.6-0.2
			l-0.2,0.4h-0.4l-0.1-0.4c-4.2-0.2-6.3-0.6-6.3-1.2c0-0.2,0.1-0.4,0.4-0.6c0.3-0.2,1-0.3,2.3-0.3h1.1l1.1-0.3
			c0.4-0.1,0.8-0.3,1.2-0.5c0.4-0.2,0.8-0.5,1.1-0.9c0.3-0.3,0.6-1.6,0.8-3.6c0.2-1.3,0.2-2.6,0.2-4.1v-1.1c0-0.3,0.1-0.8,0.4-1.5
			c0.3-0.6,0.6-1.1,0.9-1.5c0.4-0.4,0.6-0.5,0.8-0.5c0.4,0,0.7,0.1,1.1,0.2c0.4,0.1,0.6,0.2,0.7,0.3s0.1,0.2,0.2,0.4
			c0.1,0.2,0.2,0.4,0.3,0.5v0.1c0,0.1-0.1,0.1-0.2,0.2c-0.1,0-0.2,0.1-0.3,0.1c0,0-0.1,0.1-0.1,0.1c0,0-0.2,0.5-0.4,1.5
			c-0.2,0.9-0.4,1.9-0.6,2.8c-0.2,0.9-0.3,1.9-0.4,2.8c-0.1,0.9-0.1,1.8-0.1,2.7c0,1.3,0.1,2,0.2,2.2s0.3,0.2,0.5,0.2
			c0.1,0,0.3-0.1,0.7-0.2c0.4-0.1,0.7-0.2,1-0.2c0.2,0,0.3,0,0.4,0.1l0.3,0.7c0.1,0,0.3,0.1,0.4,0.1c0.2,0,0.6-0.1,1.2-0.4
			S720.5,1518,720.9,1517.9z"/>
	</g>
	<path id="パス_6" class="st1" d="M529.7,1529.8c-2,0.4-3.9,0.6-5.8,1c-2.6,0.3-5.3,0.6-8,1.1c-3.7,0.8-6-0.7-7.8-3.4
		c-0.5-1-0.4-3.4,0.4-4.2c2.3-2.3,4.7-2.8,8-1.1c2,1,4.4,0.9,6.4,1.7c2.5,0.9,4.6,2.2,7.1,3.3L529.7,1529.8z M510.2,1526.2
		c2.7,3.7,6.5,3.6,12,0.7C518.2,1526.5,514.2,1526.4,510.2,1526.2z"/>
	<path id="パス_7" class="st1" d="M767.1,1523.5c4.1-0.6,7-1.3,7.7,2.8c0.7,2.9-1.4,5.8-5.1,5.9c-4.9,0.1-10.2,0.7-14.6-2.4
		c-0.8-0.6-1-1.7-1.3-2.6c0.9-0.1,1.9-0.1,2.8-0.2c1.2-0.1,2.5-0.3,3.6-0.6C762.7,1525.4,765.6,1524,767.1,1523.5z M763.4,1528.1
		l0.3,1.6c2.2,0,4.5-0.1,6.7-0.4c0.7-0.1,0.9-1.8,1.5-2.6c-0.8-0.3-1.8-1.1-2.5-0.8C767.3,1526.4,765.3,1527.1,763.4,1528.1z"/>
</g>
</svg>
