<?xml version="1.0" encoding="utf-8"?>
<!-- Generator: Adobe Illustrator 22.1.0, SVG Export Plug-In . SVG Version: 6.00 Build 0)  -->
<svg version="1.1" id="レイヤー_1" xmlns="http://www.w3.org/2000/svg" xmlns:xlink="http://www.w3.org/1999/xlink" x="0px"
	 y="0px" viewBox="0 0 350 73" style="enable-background:new 0 0 350 73;" xml:space="preserve">
<style type="text/css">
	.st0{fill:#B29D93;}
</style>
<g>
	<path class="st0" d="M53.2,53.5c-1.8-0.2-2.6-0.5-2.6-1.1c0-0.2,0.1-0.4,0.2-0.6c0.1-0.2,0.2-0.5,0.3-0.8c0.1-0.3,0.2-1.3,0.4-3
		c0.1-1.7,0.3-4.4,0.4-7.9c0.1-3.5,0.2-7.3,0.2-11.3l-0.4-9v-0.1c0-0.1-0.1-0.4-0.2-0.6c-0.2-0.3-0.2-0.5-0.2-0.6
		c0-0.1,0.2-0.4,0.5-1.1c0.3-0.7,0.9-1.1,1.6-1.3c0.8-0.2,1.2-0.3,1.3-0.3c0.2,0,0.3,0.1,0.4,0.3c0.1,0.2,0.2,0.3,0.3,0.4
		c0.4,0.3,0.5,0.8,0.5,1.6c0,0.1,0,0.3-0.1,0.6c-0.5,3-0.7,6.4-0.7,10.1l0.1,2.1l-0.2,11.3c0,3.4,0.2,5.9,0.7,7.4
		c0.5,1.5,0.7,2.6,0.7,3.2c0,0.3-0.3,0.5-0.8,0.7s-1,0.3-1.3,0.3h-0.2C53.5,53.8,53.3,53.7,53.2,53.5z"/>
	<path class="st0" d="M81.9,29.7c1.2-0.2,2.2-0.3,3-0.3c5,0,7.4,3.1,7.4,9.3c0,3.4-0.6,7.4-1.7,11.9c-0.5,2-0.8,3.3-0.8,3.9
		c0,0.1,0,0.3,0.1,0.4c-0.2,1.1-0.9,1.7-2,1.7c-0.7,0-1.3-0.2-1.8-0.5c-0.5-0.4-0.8-0.7-0.8-1.1c0-0.6,0.4-1.3,1.1-2.2
		c0.8-0.9,1.5-2.6,2.1-5.2c0.6-2.6,1-5.2,1-7.8c0-5.4-2.2-8.1-6.6-8.1c-1.7,0-3.4,0.4-4.9,1.1c-1.5,0.7-2.4,1.5-2.6,2.4
		c-0.2,0.2-0.4,0.4-0.7,0.5c-0.3,0.1-0.5,0.3-0.5,0.4c0,0.1-0.1,1.5-0.3,4.1c-0.1,2.6-0.2,4.6-0.2,6v1.3c0,0.7,0.1,1.3,0.3,1.9
		c0.2,0.6,0.3,0.9,0.3,1l-0.1,1c0,0.6-0.1,1.1-0.3,1.4c-0.2,0.4-0.5,0.5-0.8,0.5h-0.1L73,53.6c-0.2-0.1-0.4-0.1-0.5-0.1
		c-0.3,0-0.6,0.1-1,0.4h-0.1c-0.2,0-0.5-0.2-0.9-0.7c-0.6,0-0.9-0.2-0.9-0.7c0-0.4,0.1-0.7,0.4-1c0.2,0,0.5-1.2,0.8-3.6
		c0.3-2.4,0.5-5.4,0.5-9.1c0-4.8-0.4-7.5-1.2-8.2L70,30.1c0-0.7,0.4-1.2,1.2-1.4c0.3-0.1,0.6-0.3,0.9-0.7c0.3-0.4,0.5-0.6,0.8-0.6
		H73c0.4-0.1,0.7-0.1,0.9-0.3c0.3-0.1,0.4-0.2,0.5-0.2c0.3,0,0.4,0.4,0.4,1.1c0,0.5-0.1,1.2-0.3,1.9c-0.2,0.7-0.3,1.1-0.3,1.3
		c0,0.3,0.1,0.5,0.3,0.7c0.2,0.2,0.4,0.3,0.7,0.3h0.2c0.5-0.5,0.8-0.7,0.8-0.7h0.1c1.8,0,3.1-0.4,4-1.1c0.2,0,0.4,0,0.6-0.1
		c0.2,0,0.4-0.1,0.5-0.1C81.6,29.9,81.9,29.8,81.9,29.7z"/>
	<path class="st0" d="M115.1,39.4c1.4,1.3,2.1,2.8,2.1,4.6c0,2.3-0.7,4.4-2.1,6.3c-1.4,1.9-3.3,3-5.5,3.4c-0.5,0-1.2,0-2.1,0.1
		c-0.7,0.3-1.4,0.4-2.1,0.4c-1,0-1.8-0.2-2.3-0.6c-0.6-0.4-0.8-1.2-0.8-2.4c0-0.3,0-0.6,0.1-0.8h0.2c0.4,0,0.7,0.1,1,0.3
		s0.5,0.3,0.6,0.3l0.2-0.1c0.6,0.6,1.7,0.9,3.1,0.9c1.4,0,2.7-0.3,3.8-0.8c1.1-0.5,2-1.3,2.6-2.5c0.6-1.2,0.8-2.2,0.8-3.1
		c0-1.4-0.5-2.5-1.5-3.4c-1-0.9-3.3-1.9-7-3c-0.5-0.1-0.9-0.2-1.1-0.4l-1.3-1.1c-0.7-0.6-1.1-1.1-1.3-1.7l-0.3-0.8
		c0-2.9,0.8-4.9,2.5-6.1c1.7-1.2,4.5-1.8,8.6-1.8l1.5,0.1c0.1,0,0.3,0,0.5-0.1c0.3,0.3,0.4,0.7,0.4,1.2c0,0.6-0.1,1.2-0.3,1.7
		c-0.2,0.5-0.4,0.9-0.6,0.9c-0.2-0.3-0.4-0.6-0.6-0.7h-0.1c-0.1,0-0.1,0-0.2,0.1c-0.1,0.1-0.2,0.1-0.2,0.1c-0.9-1-1.9-1.4-3.2-1.4
		c-2.5,0-4.1,0.5-4.9,1.4c-0.8,0.9-1.2,2-1.2,3.1c0,1.7,1.3,2.8,4,3.4c1.9,0.5,3.5,1,4.7,1.5C114.5,38.9,115.1,39.2,115.1,39.4z"/>
	<path class="st0" d="M138.8,29.3c0,0.1,0.1,0.2,0.3,0.3c0.2,0.1,0.3,0.1,0.3,0.1h0.3c0.6,0,1.1,0.1,1.6,0.4
		c0.4,0.3,0.7,0.6,0.7,0.9c0,0.4-0.3,0.7-0.8,1.1l-0.3-0.4c-0.3,0.5-0.7,0.7-1.3,0.8l-0.2-0.3l-0.3,0.1c-0.8-0.4-1.6-0.5-2.5-0.5
		l-2.6,0.1c-0.4,0-0.9,0-1.6-0.1c-0.5,3.5-0.7,6.3-0.7,8.4c0,0.7,0,1.6,0.1,2.6c0.1,1,0.2,1.8,0.5,2.4c0.2,0.6,0.5,1.2,0.7,1.7
		c0.2,0.5,0.6,1.1,1.2,1.6c0.6,0.5,1.1,0.9,1.6,1.1c0.5,0.2,0.9,0.5,1.3,0.9c0.4,0.4,1.3,0.6,2.8,0.6h0.5c0.3,0.3,0.5,0.5,0.5,0.7
		c0,0.2-0.1,0.5-0.4,0.9c-0.3,0.4-0.5,0.8-0.6,1.1c-0.2,0.3-0.4,0.6-0.8,1h-0.1c-0.1,0-0.2-0.1-0.2-0.2c-0.6,0-1.2-0.1-1.7-0.2
		c0,0,0,0.1-0.1,0.1c0,0-0.1,0-0.3-0.2s-0.3-0.2-0.4-0.2c-0.1-0.3-0.4-0.5-0.8-0.7c-0.8-0.3-1.6-0.7-2.3-1.3
		c-0.7-0.6-1.4-1.4-2.2-2.4c-0.7-1-1.2-2-1.4-2.9s-0.3-1.9-0.5-3.2c-0.1-1.2-0.2-2.6-0.2-4c0-2.4,0.2-5,0.5-7.8l-0.6-0.2l-0.2,0.4
		h-0.4l-0.1-0.4c-4.2-0.2-6.3-0.6-6.3-1.2c0-0.2,0.1-0.4,0.4-0.6c0.3-0.2,1-0.3,2.3-0.3h1.1l1.1-0.3c0.4-0.1,0.8-0.3,1.2-0.5
		c0.4-0.2,0.8-0.5,1.1-0.9c0.3-0.3,0.6-1.6,0.8-3.6c0.2-1.3,0.2-2.6,0.2-4.1v-1.1c0-0.3,0.1-0.8,0.4-1.5c0.3-0.6,0.6-1.1,0.9-1.5
		c0.4-0.4,0.6-0.5,0.8-0.5c0.4,0,0.7,0.1,1.1,0.2c0.4,0.1,0.6,0.2,0.7,0.3s0.1,0.2,0.2,0.4c0.1,0.2,0.2,0.4,0.3,0.5v0.1
		c0,0.1-0.1,0.1-0.2,0.2c-0.1,0-0.2,0.1-0.3,0.1c0,0-0.1,0.1-0.1,0.1c0,0-0.2,0.5-0.4,1.5c-0.2,0.9-0.4,1.9-0.6,2.8
		c-0.2,0.9-0.3,1.9-0.4,2.8c-0.1,0.9-0.1,1.8-0.1,2.7c0,1.3,0.1,2,0.2,2.2s0.3,0.2,0.5,0.2c0.1,0,0.3-0.1,0.7-0.2
		c0.4-0.1,0.7-0.2,1-0.2c0.2,0,0.3,0,0.4,0.1l0.3,0.7c0.1,0,0.3,0.1,0.4,0.1c0.2,0,0.6-0.1,1.2-0.4S138.3,29.4,138.8,29.3z"/>
	<path class="st0" d="M166.3,38.6c0,0.1-0.1,0.3-0.4,0.6c-0.2,0.3-0.4,0.5-0.5,0.7c-0.1,0.2-0.2,0.7-0.2,1.6
		c-0.1,0.9-0.1,2.1-0.1,3.8l0.1,3.7c0,0.2-0.1,0.4-0.2,0.5c0,0.2-0.1,0.5-0.1,1c0,0.7,0.1,1.5,0.3,2.6l0.3,1.4l-0.1,1.3l0.1,1.2
		c-1.3,1.3-2.3,2-2.9,2c-0.1,0-0.3-0.1-0.5-0.2c-0.3-0.1-0.5-0.2-0.7-0.2h-0.2c-0.1-0.5-0.2-1-0.2-1.4c0-0.9,0.2-1.8,0.6-2.6
		c0.2-0.3,0.4-0.5,0.5-0.6c0.1-0.1,0.2-0.7,0.2-1.6c0-1-0.1-1.6-0.3-1.6c0,0-0.2,0-0.3,0.1c-0.2,0.1-0.4,0.1-0.6,0.1h-0.2
		c-0.2,0.1-0.4,0.3-0.4,0.6c-0.2,0-1.4,0.4-3.6,1.2c-1.1,0.4-2.1,0.5-3.1,0.5c-1.1,0-2-0.1-2.9-0.4c-0.9-0.3-1.6-0.7-2.2-1.3
		c-0.6-0.6-1-1-1.1-1.2c-0.2-0.3-0.3-0.9-0.3-1.8l0.1-0.7v-0.2c0-1.8,1.4-3.7,4.3-5.7c2.8-2,5.5-3.2,7.9-3.6
		c0.7-0.1,1.2-0.2,1.5-0.3c0.4-0.1,0.7-0.3,0.9-0.6s0.4-0.9,0.4-1.9c0-3.2-1.7-5.5-5.1-6.6c-0.1,0-0.3-0.1-0.5-0.2s-0.4-0.2-0.5-0.2
		c-1.8,0-3.2,0.1-4.4,0.2c-0.7,0.7-1.4,1.1-2.2,1.1c-0.6,0-0.9-0.2-0.9-0.6c0,0,0.1-0.4,0.4-1.2c0.3-0.8,0.9-1.1,1.9-1.1
		c1.1-0.6,3.2-0.9,6.3-0.9c2.4,0,4.3,0.9,5.7,2.8c1.3,1.9,2,4.6,2,8.1v0.4c0.1,0.2,0.4,0.4,0.8,0.5
		C166.1,38.2,166.3,38.3,166.3,38.6L166.3,38.6z M160.9,48.3c1.1-1.5,1.7-2.9,1.7-4.2c0-0.7-0.2-1.6-0.6-2.4
		c-0.4-0.9-1.1-1.3-2.2-1.3c-2.2,0-3.9,0.5-5.2,1.6h-0.7c-2.8,1.5-4.2,3.2-4.2,4.9c0,1.2,0.6,2.2,1.7,3.1c1.2,0.8,2.5,1.2,4,1.2
		c0.4,0,1.2-0.2,2.3-0.5c1.1-0.3,2.2-1,3.1-1.9V48.3z"/>
	<path class="st0" d="M197.5,26.6c-0.4,2-0.6,5.2-0.6,9.7c0,1.5,0.1,3.7,0.2,6.9s0.2,5.9,0.2,8.3c0,4.6-0.4,8.2-1.3,10.9
		c-0.9,2.7-1.6,4.1-2.2,4.1l-0.2-0.1c-0.5,1.3-1.7,2.3-3.6,2.7c-1.9,0.5-3.3,0.7-4.2,0.7c-0.4,0-0.9-0.1-1.6-0.2s-1.2-0.2-1.6-0.2
		c-0.4,0-0.6,0-0.8,0.1c-0.3,0.3-0.5,0.4-0.8,0.4c-0.2,0-0.4-0.1-0.5-0.3c-0.2,0.2-0.4,0.3-0.8,0.3l-0.5-0.1c-0.1,0-0.2,0-0.4,0.1
		s-0.3,0.1-0.4,0.1c-0.2,0-0.4-0.1-0.7-0.3c-0.3-0.2-0.4-0.6-0.4-1.2c0-0.3,0-0.7,0.1-1.1c0.1-0.5,0.1-0.8,0.1-0.9v-0.6
		c0-0.2,0.1-0.5,0.4-0.8h0.2c0.4,0,1,0.2,1.8,0.7c2,1.1,3.9,1.7,6,1.7c1.6,0,2.8-0.3,3.7-1c1.1-0.1,1.7-0.4,1.8-1.1
		c0.3-0.1,0.9-1.1,1.6-2.8c0.8-1.7,1.2-4.4,1.2-7.9v-0.8c-0.3-0.5-0.8-0.7-1.4-0.7c-0.4,0-0.8,0.1-1.3,0.2c-0.5,0.1-1,0.2-1.5,0.2
		c-0.8,0-1.9-0.1-3.5-0.3c-1.5-0.2-2.7-0.4-3.6-0.6c-0.9-0.2-1.9-0.7-3.2-1.5c-1.2-0.7-2.1-1.5-2.7-2.3c-0.5-0.8-1-1.7-1.3-2.7
		c-0.3-1-0.5-2.1-0.5-3.2c0-2.1,0.6-4.1,1.7-5.9c1.1-1.8,2.8-3.4,4.9-4.7c0.2-0.1,0.3-0.2,0.5-0.4c0.4-0.6,1.8-1.2,4.2-1.8l3.2-0.8
		h0.1c0.2,0,1.3-0.4,3.3-1.1l0.4,0.5c0.1-0.3,0.2-0.9,0.2-1.9v-1.2h0.5C196.2,25.6,197.2,25.9,197.5,26.6z M192.2,49.5
		c0.1,0.2,0.2,0.3,0.6,0.3c1,0,1.6-1.2,1.6-3.6l-0.5-12.6l0.1-0.9c0-1.3-0.9-1.9-2.6-1.9c-1.3,0-2.8,0.2-4.6,0.7
		c-1.8,0.5-3.4,1.4-4.9,2.7c-1.4,1.4-2.4,2.7-2.9,4c-0.5,1.3-0.8,2.5-0.8,3.8c0,1.6,0.5,3.1,1.6,4.4c1.1,1.3,2.4,2.3,4,3
		c1.6,0.7,3.8,1.1,6.8,1.1c0.2,0,0.4,0,0.6-0.1C191.5,50.4,191.8,50.1,192.2,49.5z"/>
	<path class="st0" d="M224.5,32.2c0,0.2-0.1,0.5-0.4,0.9c-0.3,0.4-0.4,0.8-0.5,1.2c-0.1,0.4-0.3,0.8-0.7,1.1h-0.7
		c-0.9-0.6-1.7-0.8-2.1-0.8c-0.3,0-0.9,0.2-1.6,0.6c-0.7,0.4-1.5,1.1-2.2,2c-0.7,1-1.1,1.7-1.3,2.3c-0.1,0.6-0.4,1.3-0.9,2v0.9
		c-0.3,0.9-0.5,1.5-0.4,2s0.1,0.7,0.1,0.9c0,0.2,0,0.4-0.1,0.6c-0.2,0.2-0.3,0.4-0.3,0.7c0,0.5,0.1,1.3,0.3,2.4s0.5,2,0.9,2.6v0.2
		c0,0.8-0.3,1.2-1,1.2l-0.5,0.5c-0.5,0-0.9,0.1-1.5,0.1c-0.7,0-1.3-0.1-1.8-0.3v-0.1c0-0.5,0.2-1.2,0.5-2.2c0.3-0.9,0.5-1.7,0.5-2.2
		l0.2-6.4c0-5-0.3-9.4-0.8-13.2c-0.1-0.4-0.1-0.6-0.1-0.7c0-0.7,0.3-1.2,1-1.6c0.7-0.4,1.2-0.5,1.7-0.5c0.4,0,0.8,0.1,1.2,0.3
		c0,0.1,0.1,0.2,0.2,0.4c0.1,0.2,0.2,0.3,0.2,0.4v0.3c0,0.3-0.2,0.9-0.5,1.8c-0.3,0.9-0.5,2.2-0.5,3.6l0.1,3.4v0.5
		c0,0.3,0.2,0.5,0.7,0.6c0.8-1.7,1.7-3,2.7-4c1.1-1,2.4-1.7,4-2.1c1.6-0.4,2.6-0.7,3-0.7c0.5,0.3,0.7,0.6,0.7,0.9V32.2z"/>
	<path class="st0" d="M248.4,38.6c0,0.1-0.1,0.3-0.4,0.6c-0.2,0.3-0.4,0.5-0.5,0.7c-0.1,0.2-0.2,0.7-0.2,1.6
		c-0.1,0.9-0.1,2.1-0.1,3.8l0.1,3.7c0,0.2-0.1,0.4-0.2,0.5c0,0.2-0.1,0.5-0.1,1c0,0.7,0.1,1.5,0.3,2.6l0.3,1.4l-0.1,1.3l0.1,1.2
		c-1.3,1.3-2.3,2-2.9,2c-0.1,0-0.3-0.1-0.5-0.2c-0.3-0.1-0.5-0.2-0.7-0.2h-0.2c-0.1-0.5-0.2-1-0.2-1.4c0-0.9,0.2-1.8,0.6-2.6
		c0.2-0.3,0.4-0.5,0.5-0.6c0.1-0.1,0.2-0.7,0.2-1.6c0-1-0.1-1.6-0.3-1.6c0,0-0.2,0-0.3,0.1c-0.2,0.1-0.4,0.1-0.6,0.1h-0.2
		c-0.2,0.1-0.4,0.3-0.4,0.6c-0.2,0-1.4,0.4-3.6,1.2c-1.1,0.4-2.1,0.5-3.1,0.5c-1.1,0-2-0.1-2.9-0.4c-0.9-0.3-1.6-0.7-2.2-1.3
		c-0.6-0.6-1-1-1.1-1.2c-0.2-0.3-0.3-0.9-0.3-1.8l0.1-0.7v-0.2c0-1.8,1.4-3.7,4.3-5.7c2.8-2,5.5-3.2,7.9-3.6
		c0.7-0.1,1.2-0.2,1.5-0.3c0.4-0.1,0.7-0.3,0.9-0.6s0.4-0.9,0.4-1.9c0-3.2-1.7-5.5-5.1-6.6c-0.1,0-0.3-0.1-0.5-0.2s-0.4-0.2-0.5-0.2
		c-1.8,0-3.2,0.1-4.4,0.2c-0.7,0.7-1.4,1.1-2.2,1.1c-0.6,0-0.9-0.2-0.9-0.6c0,0,0.1-0.4,0.4-1.2c0.3-0.8,0.9-1.1,1.9-1.1
		c1.1-0.6,3.2-0.9,6.3-0.9c2.4,0,4.3,0.9,5.7,2.8c1.3,1.9,2,4.6,2,8.1v0.4c0.1,0.2,0.4,0.4,0.8,0.5
		C248.2,38.2,248.4,38.3,248.4,38.6L248.4,38.6z M243,48.3c1.1-1.5,1.7-2.9,1.7-4.2c0-0.7-0.2-1.6-0.6-2.4c-0.4-0.9-1.1-1.3-2.2-1.3
		c-2.2,0-3.9,0.5-5.2,1.6H236c-2.8,1.5-4.2,3.2-4.2,4.9c0,1.2,0.6,2.2,1.7,3.1c1.2,0.8,2.5,1.2,4,1.2c0.4,0,1.2-0.2,2.3-0.5
		c1.1-0.3,2.2-1,3.1-1.9V48.3z"/>
	<path class="st0" d="M288,29.1c0.6,0,1.3-0.2,2.2-0.4l1.2-0.3c2.8,0,4.9,0.7,6.2,2.2c1.3,1.5,2,3.8,2,6.9c0,1.7-0.2,3.4-0.5,5.3
		c-0.3,1.9-0.9,3.9-1.7,6.2c-0.8,2.3-1.2,3.7-1.2,4.2c0,0.1,0,0.2,0.1,0.3c-0.2,0.6-0.4,1.4-0.6,2.2l-1.6,0.2l-0.6-0.1L293,56
		c-0.3,0-0.7-0.1-1.2-0.4c0-1.4,0.3-2.3,0.7-2.6c-0.1-0.2-0.2-0.3-0.2-0.4v-0.2c0.2-0.2,0.5-0.3,0.7-0.3c2.4-4.7,3.6-8.8,3.6-12.3
		c0-1.7-0.2-3.2-0.6-4.6c-0.4-1.4-0.8-2.3-1.1-2.9c-0.3-0.5-0.9-0.9-1.7-1.2c-0.8-0.3-1.7-0.4-2.7-0.4c-0.8,0-2,0.4-3.6,1.1
		l-3.7,1.8c-0.9,0.4-1.4,1-1.4,1.6c0,0.1,0,0.2,0.1,0.5c-0.3,0.1-0.5,0.2-0.7,0.3c-0.5,3.9-0.7,7.2-0.7,9.8l0.1,6.1
		c0,0.5-0.1,0.9-0.4,1.2c-1.1,0.2-1.9,0.6-2.2,1.1c-0.4-0.3-0.7-0.4-0.9-0.4c-0.5-0.2-0.7-0.9-0.7-2.1v-0.4c0.5-1.3,0.9-2.7,1.2-4.2
		c0.3-1.5,0.4-3.5,0.4-6c0-0.9-0.1-1.9-0.2-2.9l-0.2-1.3v-0.5c0-0.5-0.1-1-0.2-1.5c-0.1-0.5-0.3-1-0.6-1.4c-0.3-0.5-0.6-0.9-1.1-1.4
		c-0.5-0.5-0.9-0.8-1.3-1c-0.4-0.2-1-0.3-1.7-0.3c-0.4,0-0.8,0-1.1,0.1c-0.4,0.1-0.7,0.2-1,0.4c-0.4,0.2-0.9,0.5-1.7,0.8
		c-0.9,0.3-1.5,0.6-2.1,0.9c-0.6,0.3-1.1,0.7-1.5,1.1c-0.4,0.4-0.7,0.9-1,1.4c-0.2,0.5-0.4,1.2-0.5,2c-0.1,0.7-0.2,1.7-0.2,2.8
		l0.3,7.7c0,1.7,0.2,2.9,0.6,3.6c-0.3,0.8-0.7,1.4-1.2,1.8s-0.9,0.5-1.2,0.5h-0.1c-0.2,0-0.4-0.1-0.6-0.3l-0.3,0.2
		c-0.2-0.2-0.3-0.5-0.3-0.8c0.2-0.3,0.3-0.7,0.3-1.3c0-0.2,0-0.6-0.1-1.2c-0.1-0.6-0.1-1-0.1-1.3v-0.3c0-0.1,0.1-1.1,0.2-3
		c0.1-2,0.2-4.7,0.2-8.2c0-0.4-0.4-0.8-1.1-1.2c-0.1-0.3-0.2-0.5-0.2-0.6c0-0.1,0.1-0.4,0.2-0.7l-0.3-0.2c0.2-0.3,0.5-0.6,0.8-0.9
		c0.3-0.3,0.5-0.5,0.6-0.6c0.1-0.1,0.1-0.3,0.1-0.6c0-0.3-0.2-0.8-0.5-1.4s-0.4-1-0.4-1.1s0.1-0.3,0.1-0.4c0-0.1,0.1-0.4,0.4-0.8
		c0.3-0.4,0.5-0.8,0.7-1.2h0.5c0.1-0.1,0.3-0.3,0.4-0.5c0.2-0.2,0.4-0.4,0.6-0.4c0.4,0,0.8,0.2,1.2,0.6c0.4,0.4,0.6,0.9,0.6,1.4
		c0,0.3,0,0.5-0.1,0.6c-0.3,0.5-0.4,0.9-0.4,1.3c0,0.8,0.2,1.2,0.5,1.2c0,0,0.3-0.1,0.8-0.4c0.5-0.3,1.2-0.6,2-0.9
		c0.8-0.3,1.6-0.6,2.2-0.9c0.7-0.3,1-0.5,1.1-0.5l0.9,0.1c0.1,0,0.3,0,0.4-0.1c0.4-0.3,1.2-0.5,2.4-0.5c0.8,0,1.7,0.2,2.6,0.7
		c0.9,0.5,1.6,1.2,2,2.1c0.2,0.4,0.4,0.7,0.7,0.9s0.6,0.3,0.8,0.3c0.1,0,0.1,0,0.1-0.1c0,0,0-0.1-0.1-0.1c0.1-0.1,0.5-0.3,1.1-0.7
		c0.6-0.4,1.2-0.7,1.8-0.8c0.3-0.6,1.4-1.1,3.4-1.4L288,29.1z"/>
</g>
<path class="st0" d="M16.7,48.3c-0.6-0.3-1.2-0.6-1.8-0.8c-11.1-4.5-11.3-6-2.7-14.1c2.6-2.4,4.8-2.7,7.4-0.6c1.6,1.4,3.1,3,4.5,4.7
	c1.9,2.3,3.2,4.8,1.2,7.7C23.2,48.1,20.2,49,16.7,48.3z M9.9,41.2c2.4,1.3,4.2,2.9,6.1,3.2c2,0.3,4.3-0.5,6.5-0.9
	c-0.5-1.9-0.8-4-1.7-5.7c-0.8-1.4-2.4-2.2-4-3.6C14.4,36.7,12.3,38.7,9.9,41.2z"/>
<path class="st0" d="M324.9,42.7c2.4-1.7,4.6-3.2,6.8-4.8c3.2-2.2,6.8-1.5,8.9,1.9c1.7,2.7,0.7,5.6-2.7,7.7
	C334.1,49.8,330.2,48.8,324.9,42.7z M338,44.2c0.1-0.6,0.2-1.3,0.3-1.9c-1.6-0.7-3.1-1.8-4.7-1.8c-0.9,0-1.7,2-2.6,3
	c0.3,0.5,0.5,1,0.8,1.5C333.9,44.7,336,44.4,338,44.2z"/>
</svg>
