<?xml version="1.0" encoding="utf-8"?>
<!-- Generator: Adobe Illustrator 22.1.0, SVG Export Plug-In . SVG Version: 6.00 Build 0)  -->
<svg version="1.1" id="レイヤー_1" xmlns="http://www.w3.org/2000/svg" xmlns:xlink="http://www.w3.org/1999/xlink" x="0px"
	 y="0px" viewBox="0 0 286.1 73" style="enable-background:new 0 0 286.1 73;" xml:space="preserve">
<style type="text/css">
	.st0{enable-background:new    ;}
	.st1{fill:#B29D93;}
</style>
<g id="ttl_lineup" transform="translate(-499.301 -3993)">
	<g class="st0">
		<path class="st1" d="M570.6,4044.1c0.3,0.4,0.5,0.9,0.5,1.4c0,0.7-0.1,1.3-0.3,1.6c-0.2,0.3-0.5,0.5-0.7,0.5
			c-0.2,0-0.7-0.1-1.3-0.2c-0.6-0.1-0.9-0.3-0.9-0.5l-0.2,0.4h-0.2c-0.2,0-0.3-0.1-0.5-0.3c-0.2-0.2-0.3-0.4-0.3-0.4
			c-1.3,0.2-2.7,0.3-4.3,0.3H557c-0.7,0-1.8,0-3.2,0.1c-0.5,0.4-0.8,0.6-0.9,0.6h-0.1c-0.5-0.3-1.2-0.5-2.1-0.5l-0.9,0.1
			c-0.1,0.1-0.3,0.2-0.4,0.4c-0.3-0.3-0.5-0.7-0.5-1.1c0-0.3,0.1-0.7,0.2-1.2c0.3-0.5,0.4-1.4,0.4-2.7v-0.7c0.3-2.1,0.5-5,0.5-8.6
			l-0.1-10.1c0-0.5,0-1.1,0.1-1.9c0.1-0.8,0.1-1.4,0.1-1.7l0.1-3.1c0-1-0.1-2-0.4-3.1s-0.4-1.8-0.5-2.1l-0.4-0.4v-0.2
			c0-1.2,0.7-1.9,2-1.9c1,0,1.8,0.2,2.5,0.7c0.7,0.5,1,1.1,1,1.8c-0.7,1-1.1,2.5-1.1,4.5l0.1,2.5c0,0.5-0.1,1.3-0.2,2.4
			s-0.2,1.8-0.2,2.3c0,0.3,0,0.9,0.1,1.6c0.1,0.8,0.1,1.4,0.1,1.8l-0.1,3.6v4.9l-0.3,5.7c0,1.3,0.2,2.5,0.6,3.4
			c0.4,0,0.9,0.1,1.4,0.1c0.1,0.2,1,0.3,2.7,0.5c1.8,0.1,3,0.2,3.8,0.2c2.1,0,3.7-0.2,4.8-0.7c0.1,0.1,0.1,0.1,0.2,0.1
			c0.1,0,0.3-0.1,0.7-0.2s0.7-0.2,1-0.2l0.7,0.1H570.6z"/>
		<path class="st1" d="M584.4,4046.8c0,0.1-0.4,0.3-1.2,0.6c-0.8,0.3-1.3,0.5-1.5,0.5h-0.2c-0.2,0-0.4,0-0.7,0.1
			c-0.3,0.1-0.5,0.1-0.6,0.1c-0.3,0-0.7-0.1-0.9-0.4s-0.4-0.4-0.4-0.6c0-0.4,0.1-1,0.2-1.8c0.1-0.8,0.4-1.4,0.7-1.8
			c0.1-1.1,0.2-3.3,0.2-6.4l-0.2-9.9l0.1-1.7c0-0.2-0.2-0.5-0.5-1s-0.5-1.1-0.5-1.8c0-0.4,0.1-0.7,0.3-0.9c0.2-0.2,0.8-0.4,1.6-0.8
			l1.6-0.7c0.1,0,0.2-0.1,0.3-0.1c0.5,0,0.7,0.7,0.7,2.1c0,0.8-0.1,2.9-0.4,6.2c-0.3,3.4-0.4,6.1-0.4,8.2c0,1.2,0,2.3,0.1,3.3
			c0.1,1,0.1,1.8,0.2,2.4c0.1,0.5,0.2,1,0.5,1.5c0.5,0.9,0.8,1.8,0.8,2.6C584.3,4046.8,584.4,4046.8,584.4,4046.8z M583.2,4012
			c0.3,0.2,0.8,0.5,1.4,0.8c0.7,0.3,1,0.7,1,1.1c0,0.4-0.2,0.8-0.7,1.3c-0.5,0.4-0.9,0.7-1.4,0.7c-0.5,0-1.1-0.3-1.7-0.9
			c-0.6-0.6-0.9-0.9-0.9-1c0-0.3,0.3-0.7,0.8-1.2C582.1,4012.2,582.6,4012,583.2,4012L583.2,4012z"/>
		<path class="st1" d="M609,4023.3c1.2-0.2,2.2-0.3,3-0.3c5,0,7.4,3.1,7.4,9.3c0,3.4-0.6,7.4-1.7,11.9c-0.5,2-0.8,3.3-0.8,3.9
			c0,0.1,0,0.3,0.1,0.4c-0.2,1.1-0.9,1.7-2,1.7c-0.7,0-1.3-0.2-1.8-0.5c-0.5-0.4-0.8-0.7-0.8-1.1c0-0.6,0.4-1.3,1.1-2.2
			s1.5-2.6,2.1-5.2c0.6-2.6,1-5.2,1-7.8c0-5.4-2.2-8.1-6.6-8.1c-1.7,0-3.4,0.4-4.9,1.1c-1.5,0.7-2.4,1.5-2.6,2.4
			c-0.2,0.2-0.4,0.4-0.7,0.5c-0.3,0.1-0.5,0.3-0.5,0.4c0,0.1-0.1,1.5-0.3,4.1c-0.1,2.6-0.2,4.6-0.2,6v1.3c0,0.7,0.1,1.3,0.3,1.9
			c0.2,0.6,0.3,0.9,0.3,1l-0.1,1c0,0.6-0.1,1.1-0.3,1.4c-0.2,0.4-0.5,0.5-0.8,0.5h-0.1l-0.2,0.4c-0.2-0.1-0.4-0.1-0.5-0.1
			c-0.3,0-0.6,0.1-1,0.4h-0.1c-0.2,0-0.5-0.2-0.9-0.7c-0.6,0-0.9-0.2-0.9-0.7c0-0.4,0.1-0.7,0.4-1c0.2,0,0.5-1.2,0.8-3.6
			c0.3-2.4,0.5-5.4,0.5-9.1c0-4.8-0.4-7.5-1.2-8.2l-0.1-0.5c0-0.7,0.4-1.2,1.2-1.4c0.3-0.1,0.6-0.3,0.9-0.7c0.3-0.4,0.5-0.6,0.8-0.6
			h0.1c0.4-0.1,0.7-0.1,0.9-0.3c0.3-0.1,0.4-0.2,0.5-0.2c0.3,0,0.4,0.4,0.4,1.1c0,0.5-0.1,1.2-0.3,1.9c-0.2,0.7-0.3,1.1-0.3,1.3
			c0,0.3,0.1,0.5,0.3,0.7c0.2,0.2,0.4,0.3,0.7,0.3h0.2c0.5-0.5,0.8-0.7,0.8-0.7h0.1c1.8,0,3.1-0.4,4-1.1c0.2,0,0.4,0,0.6-0.1
			c0.2,0,0.4-0.1,0.5-0.1C608.7,4023.5,608.9,4023.4,609,4023.3z"/>
		<path class="st1" d="M650.7,4029.5c0.1,0.1,0.2,0.4,0.2,0.6c0,0.5-0.1,0.9-0.4,1.2c0,0,0.1,0.1,0.1,0.2c0,0.3-0.4,0.4-1.2,0.4H649
			c-0.1,0-0.2,0.1-0.3,0.2c-0.1,0.1-0.2,0.2-0.2,0.2c0,0-0.1-0.1-0.3-0.2s-0.4-0.2-0.7-0.2l-0.3-0.3c-0.4,0.1-0.8,0.2-1.2,0.2
			c-0.3,0-0.7,0-1.2-0.1c-0.5-0.1-0.9-0.1-1.1-0.1c-0.2,0-0.6,0.1-1.3,0.2c-0.6,0.1-1.2,0.2-1.7,0.2l-2.7-0.1
			c-1.4,0-2.7,0.1-3.9,0.4c-0.2,0.1-0.4,0.2-0.7,0.2c-0.3,0-0.5,0.2-0.5,0.4s-0.2,0.4-0.6,0.6c-0.2,0.7-0.3,1.4-0.3,2
			c0,0.5,0.1,1.4,0.4,2.7c0.3,1.3,0.6,2.3,1.1,2.8c0.1,0.1,0.9,0.7,2.4,1.8c0.9,0.7,1.9,1.2,3,1.6c1.1,0.4,2.3,0.5,3.8,0.5
			c0.6,0,1.3,0,2.1-0.1l1.1-0.1h1.8c0.2,0,0.5-0.2,1-0.5s1-0.5,1.5-0.6c0.2,0.5,0.3,1,0.3,1.3c0,0.9-0.3,1.6-0.8,2.2s-1.1,1-1.8,1
			l-0.6-0.1l-1.7,0.1h-1.5c-0.7,0-2.4-0.3-5.1-0.9c-2.7-0.6-4.7-1.3-6-2.3c-1.3-0.9-2.2-2.2-2.8-3.7s-0.9-3-0.9-4.4
			c0-1.9,0.4-3.8,1.1-5.8c0.7-2,1.6-3.5,2.5-4.6c0.9-1.1,2.3-2.2,4.2-3.4c0.2-0.1,0.5-0.3,0.8-0.6c0.4-0.3,0.7-0.4,1.1-0.4l0.9,0.1
			c0.4-0.3,1.1-0.5,2.1-0.6c1-0.2,1.8-0.3,2.4-0.3c1.1,0,2.3,0.4,3.7,1.2s2.1,2.5,2.4,5.1c0.1,0.5,0.1,0.8,0.2,1.1
			c0.1,0.3,0.2,0.4,0.2,0.5C650.8,4029.3,650.8,4029.4,650.7,4029.5z M639.5,4023.5c-0.1,0.2-0.6,0.5-1.6,0.9
			c-0.5,0.3-0.9,0.7-1.3,1.1c-0.4,0.4-0.8,0.9-1.2,1.4c-0.4,0.5-0.8,0.9-1.1,1.3s-0.5,0.7-0.7,0.9s-0.2,0.4-0.2,0.5
			c0,0.2,0.1,0.3,0.4,0.4l0.4,0.1h2l9.5-0.4c1.2,0,1.8-0.5,1.8-1.6c0-1.1-0.2-2.1-0.7-3s-1.6-1.5-3.5-2c-0.2,0-0.5,0-0.9-0.1
			c-0.4,0-0.7-0.1-0.9-0.1C641.3,4023.1,640.7,4023.2,639.5,4023.5z"/>
		<path class="st1" d="M697.1,4022c0.3-0.2,0.8-0.4,1.3-0.5l1.7-0.4h0.2c0.4,0,0.5,0.5,0.5,1.4l-0.9,3c-0.3,1-0.5,1.9-0.6,2.8
			c-0.1,0.9-0.2,1.8-0.2,2.6c0,0.8,0.1,1.7,0.2,2.7c0.1,0.9,0.5,1.7,1,2.4c0,0.1,0.1,0.2,0.1,0.4c0,0.2-0.2,0.5-0.5,0.9
			c-0.3,0.4-0.5,1-0.5,1.8c0,0.4,0.1,1.1,0.2,2s0.2,1.5,0.2,1.7c0,0.2,0.1,0.4,0.4,0.6s0.4,0.3,0.4,0.4c0,0.1-0.1,0.3-0.4,0.4
			c-0.1,0.9-0.1,1.4-0.1,1.6c0,0.7,0.1,1,0.3,1.1c-1.3,0.5-2.2,0.8-2.8,0.8c-0.7,0-1.1-0.3-1.1-0.9c0-0.2,0.1-0.4,0.2-0.8
			c-0.1-0.1-0.1-0.3-0.1-0.4c0-0.3,0-0.6,0.2-0.8c0.1-0.2,0.2-0.4,0.2-0.6c0-0.4-0.1-0.9-0.2-1.5s-0.4-1-1-1c-0.4,0-1.2,0.5-2.4,1.6
			c-1.7,1.5-3.3,2.6-4.6,3.3c-0.6,0.2-0.9,0.4-1.1,0.6c-2.6,0.4-3.9,0.6-4,0.6c-0.5,0-1-0.3-1.8-0.8s-1.3-1-1.8-1.5
			c-0.4-0.5-0.8-1.3-1.2-2.4s-0.5-2.3-0.5-3.6c0-0.6,0.2-2.6,0.7-6s0.8-5.9,1.1-7.4c0.3-1.5,0.4-2.3,0.4-2.3c0-0.1-0.1-0.4-0.2-0.7
			l-0.2-0.4v-0.1c0-0.1,0.1-0.2,0.3-0.3c0.2-0.1,0.5-0.2,1-0.5c0.5-0.3,0.9-0.4,1.2-0.4c0.1,0,0.4,0.1,0.8,0.2
			c0.4,0.1,0.7,0.2,1,0.2h0.2c0.3,0.3,0.6,0.6,0.7,0.8l-0.6,0.7c-1,0.9-1.7,2.4-2,4.2l-0.9,5.9c-0.3,2-0.5,3.5-0.5,4.4
			c0,2.6,0.5,4.4,1.5,5.6c1,1.2,2,1.8,2.9,1.8l0.5-0.1l0.8,0.1c0.3,0,0.8-0.2,1.6-0.6s2-1.1,3.5-2.2s2.5-1.8,2.8-2.4
			c0.3-0.5,0.6-1.1,0.9-1.9c0.3-0.8,0.4-1.7,0.6-2.7c0.1-1,0.2-2.1,0.2-3.3c0-3.1-0.1-5.1-0.2-6.2s-0.4-1.7-0.7-1.9
			c-0.2-0.2-0.4-0.7-0.4-1.4c0.3-0.1,0.5-0.2,0.6-0.3s0.2-0.1,0.3-0.1C696.6,4021.7,696.8,4021.8,697.1,4022z"/>
		<path class="st1" d="M717,4023.3c3.4-1.2,5.6-1.9,6.6-2.1c1.1-0.2,1.7-0.3,1.9-0.3c0.5,0,1.7,0.3,3.5,1s2.7,1.1,2.9,1.4
			c0.1,0.1,0.4,0.6,1.1,1.4c1.1,1.1,1.7,2.9,1.7,5.1c0,1.9-0.5,3.9-1.6,5.9c-1.1,2-2.4,3.5-3.9,4.4c-0.2,0.3-0.4,0.5-0.4,0.7
			c-2.2,1.8-3.6,2.9-4.3,3.2l-0.7,0.3c-0.8,0.8-1.4,1.2-1.7,1.2c-0.2,0-0.3,0-0.4-0.1c-0.9,0.6-1.5,1-2,1.3s-1,0.4-1.7,0.6
			c-0.7,0.1-1.2,0.2-1.3,0.3c-0.2,0.1-0.3,0.4-0.4,1c-0.1,0.6-0.2,1.5-0.2,2.7c0,2.2,0.1,4.2,0.2,5.9c0.1,1.7,0.3,2.7,0.3,3
			c0.1,0.3,0.2,0.5,0.3,0.7c0.1,0.2,0.2,0.4,0.2,0.4c0,0.1-0.1,0.3-0.3,0.4c-0.2,0.1-0.4,0.2-0.6,0.4c-0.2,0.1-0.3,0.2-0.4,0.2
			c0,0-0.1,0-0.1-0.1c-0.9,0.4-1.6,0.6-2.2,0.6c-0.2,0-0.5-0.1-0.8-0.3c-0.3-0.2-0.5-0.5-0.5-0.8c0-0.4,0.1-1,0.4-1.6
			c0.2-0.7,0.4-1.2,0.4-1.5l-0.1-1l0.2-7.5c0-1.2,0-2-0.2-2.5c-0.1-0.5-0.4-1-0.8-1.5l0.2-1.3l-0.1-0.2c0-0.2,0.1-0.4,0.4-0.8
			c0.3-0.3,0.4-0.8,0.4-1.4l-0.1-1.5v-0.6c0.1-0.4,0.2-1,0.2-1.7v-3.5c0-0.3,0-0.9,0.1-1.6c0.1-0.7,0.1-1.2,0.1-1.6
			c0-1.8-0.1-3.1-0.2-3.7c-0.1-0.6-0.3-0.9-0.7-0.9c-0.2,0-0.4,0.1-0.8,0.2s-0.7,0.2-1,0.2l-0.2-0.1l-0.6-0.7
			c0.3-0.4,0.9-0.8,1.8-1.2s1.5-0.9,1.5-1.4c0-0.1,0-0.3-0.1-0.6c-0.1-0.3-0.1-0.5-0.1-0.7l0.1-0.4c0-0.1-0.1-0.4-0.4-0.8l-0.1-1.1
			c0-0.7,0.1-1.2,0.4-1.4c0.3-0.3,0.7-0.5,1.2-0.6c0.5-0.1,0.9-0.3,1.1-0.4h0.8c0.4,0,0.7,0.2,0.7,0.5l-0.2,0.9
			c-0.1,0.6-0.2,1.1-0.2,1.4l0.1,0.7l-0.1,0.9C716.7,4023.1,716.8,4023.2,717,4023.3z M717.2,4043.6c0.9,0.3,1.8,0.5,2.8,0.5
			c0.5,0,0.9,0,1.3-0.1s1-0.4,1.9-0.9s2-1.3,3.3-2.2c0.5-0.3,0.9-0.7,1.4-1.1c0.4-0.4,1.1-1.4,2-2.9c0.4-0.7,0.8-1.6,1.1-2.8
			c0.3-1.2,0.5-2.1,0.5-2.9c0-0.6-0.2-1.5-0.5-2.8s-1-2.3-1.9-3.1c-0.9-0.8-1.5-1.2-1.9-1.2h-0.2c-0.5,0-0.9-0.2-1.3-0.5h-1.1
			l-1.9-0.1c-2.2,0-3.8,0.4-4.8,1.1c-1,0.7-1.5,2-1.5,4l0.1,2.4l-0.2,11.7c0,0.3,0.1,0.4,0.4,0.5
			C717,4043.4,717.2,4043.5,717.2,4043.6z"/>
	</g>
	<path id="パス_8" class="st1" d="M784.8,4040.2c-1.2,0.3-2.3,0.6-3.5,0.8c-1.8,0-3.5-0.1-5.3-0.4c-2.4-0.5-4.2,0.4-6,2.2
		c-2,1.6-4.2,2.9-6.6,3.7c-2.8,1-4.7-0.3-5.7-3c-1.7-4.3,1.3-10.5,5.7-12c2.9-0.9,5.5,1,6.7,2.6c3,4.2,7.2,4,11.5,4.3
		c1.1,0.1,2.1,0.3,3.1,0.5C784.7,4039.3,784.7,4039.7,784.8,4040.2z M767.5,4038.8c0.4-2.2-1-4.3-3.2-4.7c-0.1,0-0.2,0-0.3,0
		c-2-0.1-4,1.9-4.5,4.4c-0.3,2.6,1.1,4.7,3.5,5C765.9,4043.9,767.1,4042.7,767.5,4038.8z"/>
	<path id="パス_9" class="st1" d="M500.4,4034.9c1.6,0.1,2.9-0.2,4.3,0.2c2.2,0.6,4.7,0.1,6.4-1.5c1.1-1,2.4-1.7,3.8-2.2
		c3.5-1.3,8.5,1.2,9.5,4.8c0.2,1.1-0.2,2.3-0.9,3.1c-2.5,2.7-5.9,4.4-9.6,4.8c-2.8,0.2-4.5-0.6-5.3-2.9c-0.6-2.1-2.5-3.5-4.6-3.4
		C502.6,4037.8,500.9,4037.7,500.4,4034.9z M517.1,4034c-3.2-0.5-5.5,0.2-6.4,2.4c-0.4,1.2-0.2,2.5,0.5,3.6c1.2,1.8,3.8,2,6.4,1
		c2-0.7,3.5-1.9,3.3-4.2C520.8,4034.1,518.5,4034.4,517.1,4034L517.1,4034z"/>
</g>
</svg>
