<?xml version="1.0" encoding="utf-8"?>
<!-- Generator: Adobe Illustrator 22.1.0, SVG Export Plug-In . SVG Version: 6.00 Build 0)  -->
<svg version="1.1" id="レイヤー_1" xmlns="http://www.w3.org/2000/svg" xmlns:xlink="http://www.w3.org/1999/xlink" x="0px"
	 y="0px" viewBox="0 0 349.8 73" style="enable-background:new 0 0 349.8 73;" xml:space="preserve">
<style type="text/css">
	.st0{enable-background:new    ;}
	.st1{fill:#FFFFFF;}
</style>
<g id="ttl_message" transform="translate(-161 -4981)">
	<g class="st0">
		<path class="st1" d="M202.2,4995.7c0.3,0.4,0.5,0.7,0.5,1l0,1.1c0,1.8,0.2,4.5,0.5,8.1c0.3,3.6,0.8,7.2,1.3,10.8
			c0.5,3.6,1,6.9,1.5,9.9c0.5,3,0.8,4.7,0.8,5.2c0.1,0.5,0.2,0.9,0.5,1.3c0.3,0.6,0.4,1,0.4,1.2c0,0.3-0.3,0.5-1,0.5h-0.2l-0.6,0.8
			c-0.4,0.1-0.9,0.2-1.5,0.3c-0.6,0.1-1,0.2-1.1,0.3c-0.1,0-0.1-0.1-0.2-0.3c-0.1-0.2-0.1-0.5-0.2-1c-0.1-0.4-0.1-0.9-0.1-1.6
			l-0.2-5.1c0-2.1-0.1-3.4-0.2-4c-0.3-2.1-0.6-4.3-0.9-6.6l-0.6-5.3c-0.4-3.1-0.7-5.3-0.9-6.5c-0.2-1.2-0.6-2-1-2.2
			c-6.9,13.5-10.4,20.5-10.4,21.2c0,0.1,0,0.3,0.1,0.7c-0.2,0.2-0.3,0.5-0.5,0.8c0.2,0.2,0.2,0.4,0.2,0.6c-1.1,1.1-1.8,2.1-2,3
			c-0.3,0.3-0.5,0.4-0.7,0.4c-0.1,0-0.5-0.3-1.2-0.8c-0.6-0.5-1.1-1.3-1.2-2.3c-0.1-0.1-0.2-0.2-0.4-0.3s-0.2-0.3-0.3-0.5
			c-0.1-0.2-0.1-0.4-0.2-0.6l-0.2-0.8c-0.1-0.3-0.1-0.6-0.1-0.9l-1.4-2.9l-2.6-6c-2-4.6-3.5-8-4.5-10c-0.1,0.1-0.3,0.3-0.4,0.4
			c-0.1,0.2-0.3,0.7-0.4,1.6c-0.4,2.3-1,5-1.6,8.1l-1.3,6.6c-0.5,2.4-0.8,4.7-0.9,6.9c0,0.2-0.1,0.6-0.3,1.1
			c-0.2,0.5-0.2,0.9-0.2,1.2c0,0.1,0,0.2,0.1,0.6s0.1,0.7,0.1,1c0,1.3-0.2,2.2-0.7,2.6c-0.3,0-0.7,0.2-1.1,0.4
			c-0.4,0.3-0.6,0.4-0.8,0.4h-0.1c-0.3,0-0.6-0.2-1-0.5s-0.7-0.6-0.8-0.7c1.4-1.5,2.9-7.6,4.5-18.2c0.2-1.5,0.7-3.8,1.5-6.9
			c0.8-3.1,1.1-5.3,1.1-6.7l-0.1-2.4c0-1.3,0.2-2.3,0.6-3c0.4-0.7,0.9-1.1,1.6-1.1c0.9,0,1.5,0.9,1.8,2.6c0.5,0.2,0.7,0.5,0.7,0.9
			c0,0.4,0.1,1.1,0.3,2s0.8,2.5,1.9,4.8l1.6,3.2v1c0.3,1,1.1,2.9,2.5,5.7c1.3,2.8,2.2,4.6,2.7,5.3c0.5,0.7,0.9,1.1,1.3,1.1
			c1.1,0,2.4-2,4-5.9c0.3-0.7,1-2.3,2.1-4.5c1.1-2.3,2-4.2,2.5-5.8s1.2-2.9,1.9-4c0.3-0.5,0.7-1.5,1.2-3c0.5-1.5,1-2.6,1.6-3.3
			c0.6-0.6,1.2-1,1.9-1C201.7,4995.6,201.9,4995.7,202.2,4995.7z"/>
		<path class="st1" d="M237.9,5017.5c0.1,0.1,0.2,0.4,0.2,0.6c0,0.5-0.1,0.9-0.4,1.2c0,0,0.1,0.1,0.1,0.2c0,0.3-0.4,0.4-1.2,0.4
			h-0.4c-0.1,0-0.2,0.1-0.3,0.2c-0.1,0.1-0.2,0.2-0.2,0.2c0,0-0.1-0.1-0.3-0.2c-0.2-0.1-0.4-0.2-0.7-0.2l-0.3-0.3
			c-0.4,0.1-0.8,0.2-1.2,0.2c-0.3,0-0.7,0-1.2-0.1c-0.5-0.1-0.9-0.1-1.1-0.1c-0.2,0-0.6,0.1-1.3,0.2c-0.6,0.1-1.2,0.2-1.7,0.2
			l-2.7-0.1c-1.4,0-2.7,0.1-3.9,0.4c-0.2,0.1-0.4,0.2-0.7,0.2c-0.3,0-0.5,0.2-0.5,0.4s-0.2,0.4-0.6,0.6c-0.2,0.7-0.3,1.4-0.3,2
			c0,0.5,0.1,1.4,0.4,2.7c0.3,1.3,0.6,2.3,1.1,2.8c0.1,0.1,0.9,0.7,2.4,1.8c0.9,0.7,1.9,1.2,3,1.6c1.1,0.4,2.3,0.5,3.8,0.5
			c0.6,0,1.3,0,2.1-0.1l1.1-0.1h1.8c0.2,0,0.5-0.2,1-0.5c0.5-0.3,1-0.5,1.5-0.6c0.2,0.5,0.3,1,0.3,1.3c0,0.9-0.3,1.6-0.8,2.2
			s-1.1,1-1.8,1l-0.6-0.1l-1.7,0.1h-1.5c-0.7,0-2.4-0.3-5.1-0.9c-2.7-0.6-4.7-1.3-6-2.3c-1.3-0.9-2.2-2.2-2.8-3.7s-0.9-3-0.9-4.4
			c0-1.9,0.4-3.8,1.1-5.8c0.7-2,1.6-3.5,2.5-4.6c0.9-1.1,2.3-2.2,4.2-3.4c0.2-0.1,0.5-0.3,0.8-0.6c0.4-0.3,0.7-0.4,1.1-0.4l0.9,0.1
			c0.4-0.3,1.1-0.5,2.1-0.6c1-0.2,1.8-0.3,2.4-0.3c1.1,0,2.3,0.4,3.7,1.2c1.3,0.8,2.1,2.5,2.4,5.1c0.1,0.5,0.1,0.8,0.2,1.1
			c0.1,0.3,0.2,0.4,0.2,0.5C238,5017.3,238,5017.4,237.9,5017.5z M226.7,5011.5c-0.1,0.2-0.6,0.5-1.6,0.9c-0.5,0.3-0.9,0.7-1.3,1.1
			c-0.4,0.4-0.8,0.9-1.2,1.4c-0.4,0.5-0.8,0.9-1.1,1.3s-0.5,0.7-0.7,0.9s-0.2,0.4-0.2,0.5c0,0.2,0.1,0.3,0.4,0.4l0.4,0.1h2l9.5-0.4
			c1.2,0,1.8-0.5,1.8-1.6c0-1.1-0.2-2.1-0.7-3c-0.4-0.8-1.6-1.5-3.5-2c-0.2,0-0.5,0-0.9-0.1c-0.4,0-0.7-0.1-0.9-0.1
			C228.5,5011.1,227.9,5011.2,226.7,5011.5z"/>
		<path class="st1" d="M258.3,5021c1.4,1.3,2.1,2.8,2.1,4.6c0,2.3-0.7,4.4-2.1,6.3c-1.4,1.9-3.3,3-5.5,3.4c-0.5,0-1.2,0-2.1,0.1
			c-0.7,0.3-1.4,0.4-2.1,0.4c-1,0-1.8-0.2-2.3-0.6c-0.6-0.4-0.8-1.2-0.8-2.4c0-0.3,0-0.6,0.1-0.8h0.2c0.4,0,0.7,0.1,1,0.3
			s0.5,0.3,0.6,0.3l0.2-0.1c0.6,0.6,1.7,0.9,3.1,0.9c1.4,0,2.7-0.3,3.8-0.8c1.1-0.5,2-1.3,2.6-2.5c0.6-1.2,0.8-2.2,0.8-3.1
			c0-1.3-0.5-2.5-1.5-3.4c-1-0.9-3.3-1.9-7-3c-0.5-0.1-0.9-0.2-1.1-0.4l-1.3-1.1c-0.7-0.6-1.1-1.1-1.3-1.7l-0.3-0.8
			c0-2.9,0.8-4.9,2.5-6.1c1.7-1.2,4.5-1.8,8.6-1.8l1.5,0.1c0.1,0,0.3,0,0.5-0.1c0.3,0.3,0.4,0.7,0.4,1.2c0,0.6-0.1,1.2-0.3,1.7
			c-0.2,0.5-0.4,0.9-0.6,0.9c-0.2-0.3-0.4-0.6-0.6-0.7h-0.1c-0.1,0-0.1,0-0.2,0.1c-0.1,0.1-0.2,0.1-0.2,0.1c-0.9-1-1.9-1.4-3.2-1.4
			c-2.5,0-4.1,0.5-4.9,1.4c-0.8,0.9-1.2,2-1.2,3.1c0,1.7,1.3,2.8,4,3.4c1.9,0.5,3.5,1,4.7,1.5C257.7,5020.5,258.3,5020.8,258.3,5021
			z"/>
		<path class="st1" d="M280.8,5021c1.4,1.3,2.1,2.8,2.1,4.6c0,2.3-0.7,4.4-2.1,6.3c-1.4,1.9-3.3,3-5.5,3.4c-0.5,0-1.2,0-2.1,0.1
			c-0.7,0.3-1.4,0.4-2.1,0.4c-1,0-1.8-0.2-2.3-0.6c-0.6-0.4-0.8-1.2-0.8-2.4c0-0.3,0-0.6,0.1-0.8h0.2c0.4,0,0.7,0.1,1,0.3
			s0.5,0.3,0.6,0.3l0.2-0.1c0.6,0.6,1.7,0.9,3.1,0.9c1.4,0,2.7-0.3,3.8-0.8c1.1-0.5,2-1.3,2.6-2.5c0.6-1.2,0.8-2.2,0.8-3.1
			c0-1.3-0.5-2.5-1.5-3.4c-1-0.9-3.3-1.9-7-3c-0.5-0.1-0.9-0.2-1.1-0.4l-1.3-1.1c-0.7-0.6-1.1-1.1-1.3-1.7l-0.3-0.8
			c0-2.9,0.8-4.9,2.5-6.1c1.7-1.2,4.5-1.8,8.6-1.8l1.5,0.1c0.1,0,0.3,0,0.5-0.1c0.3,0.3,0.4,0.7,0.4,1.2c0,0.6-0.1,1.2-0.3,1.7
			c-0.2,0.5-0.4,0.9-0.6,0.9c-0.2-0.3-0.4-0.6-0.6-0.7H280c-0.1,0-0.1,0-0.2,0.1c-0.1,0.1-0.2,0.1-0.2,0.1c-0.9-1-1.9-1.4-3.2-1.4
			c-2.5,0-4.1,0.5-4.9,1.4c-0.8,0.9-1.2,2-1.2,3.1c0,1.7,1.3,2.8,4,3.4c1.9,0.5,3.5,1,4.7,1.5C280.2,5020.5,280.8,5020.8,280.8,5021
			z"/>
		<path class="st1" d="M308.9,5020.2c0,0.1-0.1,0.3-0.4,0.6c-0.2,0.3-0.4,0.5-0.5,0.7c-0.1,0.2-0.2,0.7-0.2,1.6
			c-0.1,0.9-0.1,2.1-0.1,3.8l0.1,3.7c0,0.2-0.1,0.4-0.2,0.5c0,0.2-0.1,0.5-0.1,1c0,0.7,0.1,1.5,0.3,2.6l0.3,1.4l-0.1,1.3l0.1,1.2
			c-1.3,1.3-2.3,2-2.9,2c-0.1,0-0.3-0.1-0.5-0.2c-0.3-0.1-0.5-0.2-0.7-0.2h-0.2c-0.1-0.5-0.2-1-0.2-1.4c0-0.9,0.2-1.8,0.6-2.6
			c0.2-0.3,0.4-0.5,0.5-0.6c0.1-0.1,0.2-0.7,0.2-1.6c0-1-0.1-1.6-0.3-1.6c0,0-0.2,0-0.3,0.1c-0.2,0.1-0.4,0.1-0.6,0.1h-0.2
			c-0.2,0.1-0.4,0.3-0.4,0.6c-0.2,0-1.4,0.4-3.6,1.2c-1.1,0.4-2.1,0.5-3.1,0.5c-1.1,0-2-0.1-2.9-0.4c-0.9-0.3-1.6-0.7-2.2-1.3
			c-0.6-0.6-1-1-1.1-1.2c-0.2-0.3-0.3-0.9-0.3-1.8l0.1-0.7v-0.2c0-1.8,1.4-3.7,4.3-5.7c2.8-2,5.5-3.2,7.9-3.6
			c0.7-0.1,1.2-0.2,1.5-0.3c0.4-0.1,0.7-0.3,0.9-0.6s0.4-0.9,0.4-1.9c0-3.2-1.7-5.5-5.1-6.6c-0.1,0-0.3-0.1-0.5-0.2
			s-0.4-0.2-0.5-0.2c-1.8,0-3.2,0.1-4.4,0.2c-0.7,0.7-1.4,1.1-2.2,1.1c-0.6,0-0.9-0.2-0.9-0.6c0,0,0.1-0.4,0.4-1.2
			c0.3-0.8,0.9-1.1,1.9-1.1c1.1-0.6,3.2-0.9,6.3-0.9c2.4,0,4.3,0.9,5.7,2.8c1.3,1.9,2,4.6,2,8.1v0.4c0.1,0.2,0.4,0.4,0.8,0.5
			C308.8,5019.8,308.9,5019.9,308.9,5020.2L308.9,5020.2z M303.6,5029.9c1.1-1.5,1.7-2.9,1.7-4.2c0-0.7-0.2-1.6-0.6-2.4
			c-0.4-0.9-1.1-1.3-2.2-1.3c-2.2,0-3.9,0.5-5.2,1.6h-0.7c-2.8,1.5-4.2,3.2-4.2,4.9c0,1.2,0.6,2.2,1.7,3.1c1.2,0.8,2.5,1.2,4,1.2
			c0.4,0,1.2-0.2,2.3-0.5c1.1-0.3,2.2-1,3.1-1.9V5029.9z"/>
		<path class="st1" d="M340.2,5008.2c-0.4,2-0.6,5.2-0.6,9.7c0,1.5,0.1,3.7,0.2,6.9s0.2,5.9,0.2,8.3c0,4.6-0.4,8.2-1.3,10.9
			c-0.9,2.7-1.6,4.1-2.2,4.1l-0.2-0.1c-0.5,1.3-1.7,2.3-3.6,2.7c-1.9,0.5-3.3,0.7-4.2,0.7c-0.4,0-0.9-0.1-1.6-0.2s-1.2-0.2-1.6-0.2
			c-0.4,0-0.6,0-0.8,0.1c-0.3,0.3-0.5,0.4-0.8,0.4c-0.2,0-0.4-0.1-0.5-0.3c-0.2,0.2-0.4,0.3-0.8,0.3l-0.5-0.1c-0.1,0-0.2,0-0.4,0.1
			s-0.3,0.1-0.4,0.1c-0.2,0-0.4-0.1-0.7-0.3c-0.3-0.2-0.4-0.6-0.4-1.2c0-0.3,0-0.7,0.1-1.1c0.1-0.5,0.1-0.8,0.1-0.9v-0.6
			c0-0.2,0.1-0.5,0.4-0.8h0.2c0.4,0,1,0.2,1.8,0.7c2,1.1,3.9,1.7,6,1.7c1.6,0,2.8-0.3,3.7-1c1.1-0.1,1.7-0.4,1.8-1.1
			c0.3-0.1,0.9-1.1,1.6-2.8c0.8-1.7,1.2-4.4,1.2-7.9v-0.8c-0.3-0.5-0.8-0.7-1.4-0.7c-0.4,0-0.8,0.1-1.3,0.2c-0.5,0.1-1,0.2-1.5,0.2
			c-0.8,0-1.9-0.1-3.5-0.3c-1.5-0.2-2.7-0.4-3.6-0.6c-0.9-0.2-1.9-0.7-3.2-1.5c-1.2-0.7-2.1-1.5-2.7-2.3c-0.5-0.8-1-1.7-1.3-2.7
			c-0.3-1-0.5-2.1-0.5-3.2c0-2.1,0.6-4.1,1.7-5.9c1.1-1.8,2.8-3.4,4.9-4.7c0.2-0.1,0.3-0.2,0.5-0.4c0.4-0.6,1.8-1.2,4.2-1.8l3.2-0.8
			h0.1c0.2,0,1.3-0.4,3.3-1.1l0.4,0.5c0.1-0.3,0.2-0.9,0.2-1.9v-1.2h0.5C338.9,5007.2,339.9,5007.5,340.2,5008.2z M334.9,5031.1
			c0.1,0.2,0.2,0.3,0.6,0.3c1,0,1.6-1.2,1.6-3.6l-0.5-12.6l0.1-0.9c0-1.3-0.9-1.9-2.6-1.9c-1.3,0-2.8,0.2-4.6,0.7
			c-1.8,0.5-3.4,1.4-4.9,2.7c-1.4,1.4-2.4,2.7-2.9,4c-0.5,1.3-0.8,2.5-0.8,3.8c0,1.6,0.5,3.1,1.6,4.4c1.1,1.3,2.4,2.3,4,3
			c1.6,0.7,3.8,1.1,6.8,1.1c0.2,0,0.4,0,0.6-0.1C334.2,5032,334.5,5031.7,334.9,5031.1z"/>
		<path class="st1" d="M371.4,5017.5c0.1,0.1,0.2,0.4,0.2,0.6c0,0.5-0.1,0.9-0.4,1.2c0,0,0.1,0.1,0.1,0.2c0,0.3-0.4,0.4-1.2,0.4
			h-0.4c-0.1,0-0.2,0.1-0.3,0.2c-0.1,0.1-0.2,0.2-0.2,0.2c0,0-0.1-0.1-0.3-0.2c-0.2-0.1-0.4-0.2-0.7-0.2l-0.3-0.3
			c-0.4,0.1-0.8,0.2-1.2,0.2c-0.3,0-0.7,0-1.2-0.1c-0.5-0.1-0.9-0.1-1.1-0.1c-0.2,0-0.6,0.1-1.3,0.2c-0.6,0.1-1.2,0.2-1.7,0.2
			l-2.7-0.1c-1.4,0-2.7,0.1-3.9,0.4c-0.2,0.1-0.4,0.2-0.7,0.2c-0.3,0-0.5,0.2-0.5,0.4s-0.2,0.4-0.6,0.6c-0.2,0.7-0.3,1.4-0.3,2
			c0,0.5,0.1,1.4,0.4,2.7c0.3,1.3,0.6,2.3,1.1,2.8c0.1,0.1,0.9,0.7,2.4,1.8c0.9,0.7,1.9,1.2,3,1.6c1.1,0.4,2.3,0.5,3.8,0.5
			c0.6,0,1.3,0,2.1-0.1l1.1-0.1h1.8c0.2,0,0.5-0.2,1-0.5c0.5-0.3,1-0.5,1.5-0.6c0.2,0.5,0.3,1,0.3,1.3c0,0.9-0.3,1.6-0.8,2.2
			s-1.1,1-1.8,1l-0.6-0.1l-1.7,0.1h-1.5c-0.7,0-2.4-0.3-5.1-0.9c-2.7-0.6-4.7-1.3-6-2.3c-1.3-0.9-2.2-2.2-2.8-3.7s-0.9-3-0.9-4.4
			c0-1.9,0.4-3.8,1.1-5.8c0.7-2,1.6-3.5,2.5-4.6c0.9-1.1,2.3-2.2,4.2-3.4c0.2-0.1,0.5-0.3,0.8-0.6c0.4-0.3,0.7-0.4,1.1-0.4l0.9,0.1
			c0.4-0.3,1.1-0.5,2.1-0.6c1-0.2,1.8-0.3,2.4-0.3c1.1,0,2.3,0.4,3.7,1.2c1.3,0.8,2.1,2.5,2.4,5.1c0.1,0.5,0.1,0.8,0.2,1.1
			c0.1,0.3,0.2,0.4,0.2,0.5C371.5,5017.3,371.5,5017.4,371.4,5017.5z M360.2,5011.5c-0.1,0.2-0.6,0.5-1.6,0.9
			c-0.5,0.3-0.9,0.7-1.3,1.1c-0.4,0.4-0.8,0.9-1.2,1.4c-0.4,0.5-0.8,0.9-1.1,1.3s-0.5,0.7-0.7,0.9s-0.2,0.4-0.2,0.5
			c0,0.2,0.1,0.3,0.4,0.4l0.4,0.1h2l9.5-0.4c1.2,0,1.8-0.5,1.8-1.6c0-1.1-0.2-2.1-0.7-3c-0.4-0.8-1.6-1.5-3.5-2
			c-0.2,0-0.5,0-0.9-0.1c-0.4,0-0.7-0.1-0.9-0.1C362.1,5011.1,361.4,5011.2,360.2,5011.5z"/>
	</g>
	<path id="パス_15" class="st1" d="M435.8,5035c-0.3-1.5-0.8-3-1.5-4.4c-0.9-1.4-1.8-2.8-2.9-4c9.1-0.6,18.1-2.1,26.8-4.3
		c0.6-0.2,1.1-0.5,1.4-1c1.4,0.3,2.7,0.9,3.9,1.8c2.5,2.4,4.9,5,7.1,7.7c0.6,0.7,1,1.5,1.6,2.1c0.9,0.9,2.1,1.7,3.2,0.7
		c0.6-0.7,0.5-2.1,0.5-3.3c-0.1-0.5-0.4-0.9-0.8-1.3c-1.7-2.5-4.1-4.5-6.9-5.7c-2.2-1-4.3-2-6.4-3.2c1.9-0.6,6.8-3.7,8.5-4.3
		c1.8-0.6,3.6-0.9,5.4-1c0.8,0.2,1.7,0.3,2.6,0.2c3.3-0.3,6.6-0.9,9.9-1.2c4.2-0.4,4.1-0.4,5,3.7c1.1,4.8,5,7.2,8.6,10.2
		c1.5-3.3,0-5.8-1.4-8.6c0.5,0.3,1,0.5,1.6,0.7c1,0.5,2.1,1,2.6-0.2c0.2-0.9-0.1-1.9-0.7-2.6c-0.8-1-1.7-2-2.6-2.9
		c2.8,1,5.6,2.1,8.4,3.1c-2.8-2.7-6.5-4.2-10.4-4.2c-2.6-0.2-5.2,0-7.8-0.1c-1.7,0-3.5-0.3-5.5-0.4c0.4-3.8,0.2-7.2-2.8-9.8
		c-3.2,3.5-1.2,7.1-1.1,10.8c-1.5,0.6-2.3,0.6-2.7-1.2c-0.3-1.4-0.7-2.7-1.4-3.9c-0.6-0.6-1.4-1-2.3-0.9c-0.8,0.4-1.3,1.2-1.4,2
		c0.2,1.3,0.6,2.7,1.2,3.9c0,0.1-4.2,1.3-7.6,2.7c-1.4,0.4-2.8,1.1-4,2c-0.7,0.6-1.5,1.2-2.3,1.7c-0.3-3,0.2-5.3,2.2-7.4
		c1.4-1.6,2.4-3.5,2.9-5.5c0.9-2.5,0-4.2-2.8-5.8c-2.4,2.9-1.9,6.5-2.7,9.8c-0.7,3.4-1.6,6.7-2.5,10.2c-7.6,1.8-20.5,4.7-27.6,3.3
		c0.4-0.3,0.9-0.6,1.4-0.7c2.5-1.1,5.1-2.1,7.4-3.3c0.6-0.6,1-1.4,0.9-2.3c0-0.4-1.2-0.9-1.9-1c-5.1,0.3-10.5-0.1-13.7,5.1
		c-3.4-0.2-6.8-1.2-9.7-3.1c1.7-1,3.6-1.6,5.2-2.5c0.7-0.3,1-1.5,1.5-2.2c-0.7-0.4-1.5-1.2-2.2-1.1c-2.6,0.2-5.2,0.6-7.7,1.1
		c-2,0.5-3.8,1.1-4.9,3.3c-0.2,0.6-1.4,0.9-2.3,1.1c-1,0.1-2,0.1-3,0c0.9,2.7,2.7,4.2,5.4,4.2c2.3-0.1,4.6-0.7,6.9-1
		c1.1-0.2,2.1-0.3,3.2-0.2c2.7,0.8,5.3,1.8,7.9,2.8c1.2,4.8,4.2,8.2,7.2,11.6c0.3,0.4,1.2,0.8,1.6,0.5
		C435.2,5036.3,435.8,5035.5,435.8,5035z M475.1,5032.4c-3.6-1.2-3.5-5.1-5.8-6.7C471.6,5027.4,474.5,5028.6,475.1,5032.4z
		 M500.5,5024.5c-2.6-2.3-5.9-4.2-5.7-8.5C497.1,5018.7,500.8,5020.3,500.5,5024.5z M484,5005.5l0.5,6.2
		C482.8,5009.7,482.6,5008.4,484,5005.5z M463.3,5009.6c0.4-2,0.7-4.2,1.1-6.6c1.7,2.5,1.8,2.6-0.5,6.6
		C463.7,5009.6,463.6,5009.5,463.3,5009.6z M411.6,5016.6c2.8-1.9,5.7-1.9,8.7-1.8C417.7,5016,415.2,5018.1,411.6,5016.6z
		 M427.9,5022.2c2.9-4,7.1-3.6,11.2-3.5C435.8,5020.9,432.2,5022.5,427.9,5022.2L427.9,5022.2z M428.5,5027.5
		c0.3-0.2,0.6-0.3,0.9-0.6c1.9,2.2,4.4,4.2,5.2,7.2c-0.3,0.2-0.4,0.3-0.7,0.5C432,5032.2,430.2,5029.8,428.5,5027.5L428.5,5027.5z"
		/>
</g>
</svg>
