<?xml version="1.0" encoding="utf-8"?>
<!-- Generator: Adobe Illustrator 22.1.0, SVG Export Plug-In . SVG Version: 6.00 Build 0)  -->
<svg version="1.1" id="レイヤー_1" xmlns="http://www.w3.org/2000/svg" xmlns:xlink="http://www.w3.org/1999/xlink" x="0px"
	 y="0px" viewBox="0 0 304.3 73" style="enable-background:new 0 0 304.3 73;" xml:space="preserve">
<style type="text/css">
	.st0{enable-background:new    ;}
	.st1{fill:#B29D93;}
</style>
<g id="ttl_member" transform="translate(-292 -4194)">
	<g class="st0">
		<path class="st1" d="M333.2,4208.7c0.3,0.4,0.5,0.7,0.5,1l0,1.1c0,1.8,0.2,4.5,0.5,8.1c0.3,3.6,0.8,7.2,1.3,10.8
			c0.5,3.6,1,6.9,1.5,9.9c0.5,3,0.8,4.7,0.8,5.2c0.1,0.5,0.2,0.9,0.5,1.3c0.3,0.6,0.4,1,0.4,1.2c0,0.3-0.3,0.5-1,0.5h-0.2l-0.6,0.8
			c-0.4,0.1-0.9,0.2-1.5,0.3c-0.6,0.1-1,0.2-1.1,0.3c-0.1,0-0.1-0.1-0.2-0.3c-0.1-0.2-0.1-0.5-0.2-1c-0.1-0.4-0.1-0.9-0.1-1.6
			l-0.2-5.1c0-2.1-0.1-3.4-0.2-4c-0.3-2.1-0.6-4.3-0.9-6.6l-0.6-5.3c-0.4-3.1-0.7-5.3-0.9-6.5c-0.2-1.2-0.6-2-1-2.2
			c-6.9,13.5-10.4,20.5-10.4,21.2c0,0.1,0,0.3,0.1,0.7c-0.2,0.2-0.3,0.5-0.5,0.8c0.2,0.2,0.2,0.4,0.2,0.6c-1.1,1.1-1.8,2.1-2,3
			c-0.3,0.3-0.5,0.4-0.7,0.4c-0.1,0-0.5-0.3-1.2-0.8c-0.6-0.5-1.1-1.3-1.2-2.3c-0.1-0.1-0.2-0.2-0.4-0.3s-0.2-0.3-0.3-0.5
			c-0.1-0.2-0.1-0.4-0.2-0.6l-0.2-0.8c-0.1-0.3-0.1-0.6-0.1-0.9l-1.4-2.9l-2.6-6c-2-4.6-3.5-8-4.5-10c-0.1,0.1-0.3,0.3-0.4,0.4
			c-0.1,0.2-0.3,0.7-0.4,1.6c-0.4,2.3-1,5-1.6,8.1l-1.3,6.6c-0.5,2.4-0.8,4.7-0.9,6.9c0,0.2-0.1,0.6-0.3,1.1
			c-0.2,0.5-0.2,0.9-0.2,1.2c0,0.1,0,0.2,0.1,0.6s0.1,0.7,0.1,1c0,1.3-0.2,2.2-0.7,2.6c-0.3,0-0.7,0.2-1.1,0.4
			c-0.4,0.3-0.6,0.4-0.8,0.4h-0.1c-0.3,0-0.6-0.2-1-0.5s-0.7-0.6-0.8-0.7c1.4-1.5,2.9-7.6,4.5-18.2c0.2-1.5,0.7-3.8,1.5-6.9
			c0.8-3.1,1.1-5.3,1.1-6.7l-0.1-2.4c0-1.3,0.2-2.3,0.6-3c0.4-0.7,0.9-1.1,1.6-1.1c0.9,0,1.5,0.9,1.8,2.6c0.5,0.2,0.7,0.5,0.7,0.9
			c0,0.4,0.1,1.1,0.3,2s0.8,2.5,1.9,4.8l1.6,3.2v1c0.3,1,1.1,2.9,2.5,5.7c1.3,2.8,2.2,4.6,2.7,5.3c0.5,0.7,0.9,1.1,1.3,1.1
			c1.1,0,2.4-2,4-5.9c0.3-0.7,1-2.3,2.1-4.5c1.1-2.3,2-4.2,2.5-5.8s1.2-2.9,1.9-4c0.3-0.5,0.7-1.5,1.2-3c0.5-1.5,1-2.6,1.6-3.3
			c0.6-0.6,1.2-1,1.9-1C332.7,4208.6,332.9,4208.7,333.2,4208.7z"/>
		<path class="st1" d="M368.9,4230.5c0.1,0.1,0.2,0.4,0.2,0.6c0,0.5-0.1,0.9-0.4,1.2c0,0,0.1,0.1,0.1,0.2c0,0.3-0.4,0.4-1.2,0.4
			h-0.4c-0.1,0-0.2,0.1-0.3,0.2c-0.1,0.1-0.2,0.2-0.2,0.2c0,0-0.1-0.1-0.3-0.2c-0.2-0.1-0.4-0.2-0.7-0.2l-0.3-0.3
			c-0.4,0.1-0.8,0.2-1.2,0.2c-0.3,0-0.7,0-1.2-0.1c-0.5-0.1-0.9-0.1-1.1-0.1c-0.2,0-0.6,0.1-1.3,0.2c-0.6,0.1-1.2,0.2-1.7,0.2
			l-2.7-0.1c-1.4,0-2.7,0.1-3.9,0.4c-0.2,0.1-0.4,0.2-0.7,0.2c-0.3,0-0.5,0.2-0.5,0.4s-0.2,0.4-0.6,0.6c-0.2,0.7-0.3,1.4-0.3,2
			c0,0.5,0.1,1.4,0.4,2.7c0.3,1.3,0.6,2.3,1.1,2.8c0.1,0.1,0.9,0.7,2.4,1.8c0.9,0.7,1.9,1.2,3,1.6c1.1,0.4,2.3,0.5,3.8,0.5
			c0.6,0,1.3,0,2.1-0.1l1.1-0.1h1.8c0.2,0,0.5-0.2,1-0.5c0.5-0.3,1-0.5,1.5-0.6c0.2,0.5,0.3,1,0.3,1.3c0,0.9-0.3,1.6-0.8,2.2
			s-1.1,1-1.8,1l-0.6-0.1l-1.7,0.1h-1.5c-0.7,0-2.4-0.3-5.1-0.9c-2.7-0.6-4.7-1.3-6-2.3c-1.3-0.9-2.2-2.2-2.8-3.7s-0.9-3-0.9-4.4
			c0-1.9,0.4-3.8,1.1-5.8c0.7-2,1.6-3.5,2.5-4.6c0.9-1.1,2.3-2.2,4.2-3.4c0.2-0.1,0.5-0.3,0.8-0.6c0.4-0.3,0.7-0.4,1.1-0.4l0.9,0.1
			c0.4-0.3,1.1-0.5,2.1-0.6c1-0.2,1.8-0.3,2.4-0.3c1.1,0,2.3,0.4,3.7,1.2c1.3,0.8,2.1,2.5,2.4,5.1c0.1,0.5,0.1,0.8,0.2,1.1
			c0.1,0.3,0.2,0.4,0.2,0.5C369,4230.3,369,4230.4,368.9,4230.5z M357.7,4224.5c-0.1,0.2-0.6,0.5-1.6,0.9c-0.5,0.3-0.9,0.7-1.3,1.1
			c-0.4,0.4-0.8,0.9-1.2,1.4c-0.4,0.5-0.8,0.9-1.1,1.3s-0.5,0.7-0.7,0.9s-0.2,0.4-0.2,0.5c0,0.2,0.1,0.3,0.4,0.4l0.4,0.1h2l9.5-0.4
			c1.2,0,1.8-0.5,1.8-1.6c0-1.1-0.2-2.1-0.7-3c-0.4-0.8-1.6-1.5-3.5-2c-0.2,0-0.5,0-0.9-0.1c-0.4,0-0.7-0.1-0.9-0.1
			C359.5,4224.1,358.9,4224.2,357.7,4224.5z"/>
		<path class="st1" d="M406.8,4223.7c0.6,0,1.3-0.2,2.2-0.4l1.2-0.3c2.8,0,4.9,0.7,6.2,2.2c1.3,1.5,2,3.8,2,6.9
			c0,1.7-0.2,3.4-0.5,5.3c-0.3,1.9-0.9,3.9-1.7,6.2c-0.8,2.3-1.2,3.7-1.2,4.2c0,0.1,0,0.2,0.1,0.3c-0.2,0.6-0.4,1.4-0.6,2.2
			l-1.6,0.2l-0.6-0.1l-0.5,0.1c-0.3,0-0.7-0.1-1.2-0.4c0-1.4,0.3-2.3,0.7-2.6c-0.1-0.2-0.2-0.3-0.2-0.4v-0.2
			c0.2-0.2,0.5-0.3,0.7-0.3c2.4-4.7,3.6-8.8,3.6-12.3c0-1.7-0.2-3.2-0.6-4.6c-0.4-1.4-0.8-2.3-1.1-2.9c-0.3-0.5-0.9-0.9-1.7-1.2
			c-0.8-0.3-1.7-0.4-2.7-0.4c-0.8,0-2,0.4-3.6,1.1l-3.7,1.8c-0.9,0.4-1.4,1-1.4,1.6c0,0.1,0,0.2,0.1,0.5c-0.3,0.1-0.5,0.2-0.7,0.3
			c-0.5,3.9-0.7,7.2-0.7,9.8l0.1,6.1c0,0.5-0.1,0.9-0.4,1.2c-1.1,0.2-1.9,0.6-2.2,1.1c-0.4-0.3-0.7-0.4-0.9-0.4
			c-0.5-0.2-0.7-0.9-0.7-2.1v-0.4c0.5-1.3,0.9-2.7,1.2-4.2c0.3-1.5,0.4-3.5,0.4-6c0-0.9-0.1-1.9-0.2-2.9l-0.2-1.3v-0.5
			c0-0.5-0.1-1-0.2-1.5c-0.1-0.5-0.3-1-0.6-1.4c-0.3-0.5-0.6-0.9-1.1-1.4c-0.5-0.5-0.9-0.8-1.3-1c-0.4-0.2-1-0.3-1.7-0.3
			c-0.4,0-0.8,0-1.1,0.1c-0.4,0.1-0.7,0.2-1,0.4c-0.4,0.2-0.9,0.5-1.7,0.8c-0.9,0.3-1.5,0.6-2.1,0.9c-0.6,0.3-1.1,0.7-1.5,1.1
			c-0.4,0.4-0.7,0.9-1,1.4c-0.2,0.5-0.4,1.2-0.5,2c-0.1,0.7-0.2,1.7-0.2,2.8l0.3,7.7c0,1.7,0.2,2.9,0.6,3.6
			c-0.3,0.8-0.7,1.4-1.2,1.8s-0.9,0.5-1.2,0.5h-0.1c-0.2,0-0.4-0.1-0.6-0.3l-0.3,0.2c-0.2-0.2-0.3-0.5-0.3-0.8
			c0.2-0.3,0.3-0.7,0.3-1.3c0-0.2,0-0.6-0.1-1.2c-0.1-0.6-0.1-1-0.1-1.3v-0.3c0-0.1,0.1-1.1,0.2-3c0.1-2,0.2-4.7,0.2-8.2
			c0-0.4-0.4-0.8-1.1-1.2c-0.1-0.3-0.2-0.5-0.2-0.6c0-0.1,0.1-0.4,0.2-0.7l-0.3-0.2c0.2-0.3,0.5-0.6,0.8-0.9
			c0.3-0.3,0.5-0.5,0.6-0.6c0.1-0.1,0.1-0.3,0.1-0.6c0-0.3-0.2-0.8-0.5-1.4s-0.4-1-0.4-1.1s0.1-0.3,0.1-0.4c0-0.1,0.1-0.4,0.4-0.8
			c0.3-0.4,0.5-0.8,0.7-1.2h0.5c0.1-0.1,0.3-0.3,0.4-0.5c0.2-0.2,0.4-0.4,0.6-0.4c0.4,0,0.8,0.2,1.2,0.6c0.4,0.4,0.6,0.9,0.6,1.4
			c0,0.3,0,0.5-0.1,0.6c-0.3,0.5-0.4,0.9-0.4,1.3c0,0.8,0.2,1.2,0.5,1.2c0,0,0.3-0.1,0.8-0.4c0.5-0.3,1.2-0.6,2-0.9
			c0.8-0.3,1.6-0.6,2.2-0.9c0.7-0.3,1-0.5,1.1-0.5l0.9,0.1c0.1,0,0.3,0,0.4-0.1c0.4-0.3,1.2-0.5,2.4-0.5c0.8,0,1.7,0.2,2.6,0.7
			c0.9,0.5,1.6,1.2,2,2.1c0.2,0.4,0.4,0.7,0.7,0.9s0.6,0.3,0.8,0.3c0.1,0,0.1,0,0.1-0.1c0,0,0-0.1-0.1-0.1c0.1-0.1,0.5-0.3,1.1-0.7
			c0.6-0.4,1.2-0.7,1.8-0.8c0.3-0.6,1.4-1.1,3.4-1.4L406.8,4223.7z"/>
		<path class="st1" d="M435.9,4223.1c0.1-0.3,0.6-0.5,1.4-0.6c0.8-0.2,1.5-0.2,2-0.2l4.2,0.3c1.4,0.1,2.7,0.4,3.9,0.9
			c1.2,0.5,2.4,1.2,3.6,2.1c0.9,0.7,1.6,1.7,2.1,3.1c0.5,1.4,0.8,2.7,0.8,4.1c0,4.2-2.1,7.7-6.3,10.4c-0.1,0.1-0.3,0.2-0.4,0.5
			c-0.1,0.2-0.2,0.3-0.3,0.4c-0.4,0.3-0.7,0.5-1,0.6c-0.3,0.1-0.7,0.3-1.1,0.5c-0.5,0.2-1,0.3-1.7,0.5c-0.6,0.1-1.3,0.3-2.1,0.4
			c-0.1,0-0.3,0.1-0.6,0.3c-0.2,0.2-0.4,0.2-0.5,0.2c-0.1,0-0.1,0-0.2-0.1c-0.2,0-1.3,0.4-3.3,1.2l-0.3-0.4c-0.6,0.1-1,0.4-1.3,0.9
			c0,0.3-0.2,0.6-0.6,0.8c-0.4,0.2-0.9,0.4-1.4,0.4c-0.4,0-0.7-0.1-0.8-0.3c-0.2-0.2-0.5-0.3-0.9-0.3c-0.1,0-0.3,0-0.7,0.1v-0.1
			c0-0.2-0.1-0.5-0.2-0.8s-0.2-0.5-0.2-0.6c0-0.2,0.3-0.5,0.8-0.9c0.5-0.4,0.8-0.7,0.8-0.9v-0.1c0.5-5.2,0.7-10.3,0.7-15.4
			c0-9.6-0.3-16.5-0.8-20.7c-0.4-0.5-0.6-0.9-0.6-1.1l0.1-0.6c0-0.1,0-0.5-0.1-1c-0.1-0.5-0.1-1-0.1-1.4c0-0.6,0.2-1,0.7-1.1
			c0.5-0.1,0.8-0.2,1.1-0.2c0.3-0.1,0.5-0.1,0.5-0.1c0.1,0,0.3,0,0.5,0.1s0.4,0.1,0.5,0.1c0.1,0,0.6,0.3,1.4,0.9
			c0.2,0.8,0.3,1.3,0.3,1.6c0,0.2,0,0.3-0.1,0.4c0,0.1-0.1,0.2-0.2,0.5c-0.7,2-1.1,5.2-1.1,9.4c0,2.4,0.1,4.1,0.2,5
			c0.2,0.9,0.4,1.3,0.8,1.3H435.9z M435.4,4225.6c-0.3,7.9-0.5,12.9-0.5,15c0,1.8,0.3,3,0.8,3.6c0.5,0.6,1.4,0.9,2.7,0.9
			c1.2,0,2.7-0.3,4.5-0.8c1.8-0.5,3.3-1.5,4.8-2.8c1.4-1.4,2.4-2.7,2.9-3.9c0.5-1.2,0.7-2.5,0.7-3.8c0-2.2-1-4.2-3-5.8
			c-2-1.6-4.1-2.4-6.3-2.4h-1l-2-0.1c-0.8,0-1.5,0.2-2.1,0.7c-0.3-0.4-0.6-0.7-1-0.7C435.7,4225.4,435.5,4225.5,435.4,4225.6z"/>
		<path class="st1" d="M482.7,4230.5c0.1,0.1,0.2,0.4,0.2,0.6c0,0.5-0.1,0.9-0.4,1.2c0,0,0.1,0.1,0.1,0.2c0,0.3-0.4,0.4-1.2,0.4H481
			c-0.1,0-0.2,0.1-0.3,0.2c-0.1,0.1-0.2,0.2-0.2,0.2c0,0-0.1-0.1-0.3-0.2c-0.2-0.1-0.4-0.2-0.7-0.2l-0.3-0.3
			c-0.4,0.1-0.8,0.2-1.2,0.2c-0.3,0-0.7,0-1.2-0.1c-0.5-0.1-0.9-0.1-1.1-0.1c-0.2,0-0.6,0.1-1.3,0.2c-0.6,0.1-1.2,0.2-1.7,0.2
			l-2.7-0.1c-1.4,0-2.7,0.1-3.9,0.4c-0.2,0.1-0.4,0.2-0.7,0.2c-0.3,0-0.5,0.2-0.5,0.4s-0.2,0.4-0.6,0.6c-0.2,0.7-0.3,1.4-0.3,2
			c0,0.5,0.1,1.4,0.4,2.7c0.3,1.3,0.6,2.3,1.1,2.8c0.1,0.1,0.9,0.7,2.4,1.8c0.9,0.7,1.9,1.2,3,1.6c1.1,0.4,2.3,0.5,3.8,0.5
			c0.6,0,1.3,0,2.1-0.1l1.1-0.1h1.8c0.2,0,0.5-0.2,1-0.5c0.5-0.3,1-0.5,1.5-0.6c0.2,0.5,0.3,1,0.3,1.3c0,0.9-0.3,1.6-0.8,2.2
			s-1.1,1-1.8,1l-0.6-0.1l-1.7,0.1h-1.5c-0.7,0-2.4-0.3-5.1-0.9c-2.7-0.6-4.7-1.3-6-2.3c-1.3-0.9-2.2-2.2-2.8-3.7s-0.9-3-0.9-4.4
			c0-1.9,0.4-3.8,1.1-5.8c0.7-2,1.6-3.5,2.5-4.6c0.9-1.1,2.3-2.2,4.2-3.4c0.2-0.1,0.5-0.3,0.8-0.6c0.4-0.3,0.7-0.4,1.1-0.4l0.9,0.1
			c0.4-0.3,1.1-0.5,2.1-0.6c1-0.2,1.8-0.3,2.4-0.3c1.1,0,2.3,0.4,3.7,1.2c1.3,0.8,2.1,2.5,2.4,5.1c0.1,0.5,0.1,0.8,0.2,1.1
			c0.1,0.3,0.2,0.4,0.2,0.5C482.8,4230.3,482.8,4230.4,482.7,4230.5z M471.5,4224.5c-0.1,0.2-0.6,0.5-1.6,0.9
			c-0.5,0.3-0.9,0.7-1.3,1.1c-0.4,0.4-0.8,0.9-1.2,1.4c-0.4,0.5-0.8,0.9-1.1,1.3s-0.5,0.7-0.7,0.9s-0.2,0.4-0.2,0.5
			c0,0.2,0.1,0.3,0.4,0.4l0.4,0.1h2l9.5-0.4c1.2,0,1.8-0.5,1.8-1.6c0-1.1-0.2-2.1-0.7-3c-0.4-0.8-1.6-1.5-3.5-2
			c-0.2,0-0.5,0-0.9-0.1c-0.4,0-0.7-0.1-0.9-0.1C473.4,4224.1,472.7,4224.2,471.5,4224.5z"/>
		<path class="st1" d="M507.5,4226.8c0,0.2-0.1,0.5-0.4,0.9c-0.3,0.4-0.4,0.8-0.5,1.2c-0.1,0.4-0.3,0.8-0.7,1.1h-0.7
			c-0.9-0.6-1.6-0.8-2.1-0.8c-0.3,0-0.9,0.2-1.6,0.6s-1.5,1.1-2.2,2c-0.7,1-1.1,1.7-1.3,2.3c-0.1,0.6-0.4,1.3-0.9,2v0.9
			c-0.3,0.9-0.5,1.5-0.4,2s0.1,0.7,0.1,0.9c0,0.2,0,0.4-0.1,0.6c-0.2,0.2-0.3,0.4-0.3,0.7c0,0.5,0.1,1.3,0.3,2.4s0.5,2,0.9,2.6v0.2
			c0,0.8-0.3,1.2-1,1.2l-0.5,0.5c-0.5,0-0.9,0.1-1.5,0.1c-0.7,0-1.3-0.1-1.8-0.3v-0.1c0-0.5,0.2-1.2,0.5-2.2
			c0.3-0.9,0.5-1.7,0.5-2.2l0.2-6.4c0-5-0.3-9.4-0.8-13.2c-0.1-0.4-0.1-0.6-0.1-0.7c0-0.7,0.3-1.2,1-1.6c0.7-0.4,1.2-0.5,1.7-0.5
			c0.4,0,0.8,0.1,1.2,0.3c0,0.1,0.1,0.2,0.2,0.4c0.1,0.2,0.2,0.3,0.2,0.4v0.3c0,0.3-0.2,0.9-0.5,1.8c-0.3,0.9-0.5,2.2-0.5,3.6
			l0.1,3.4v0.5c0,0.3,0.2,0.5,0.7,0.6c0.8-1.7,1.7-3,2.7-4c1.1-1,2.4-1.7,4-2.1s2.6-0.7,3-0.7c0.5,0.3,0.7,0.6,0.7,0.9V4226.8z"/>
	</g>
	<path id="パス_5" class="st1" d="M577.6,4234.9c-1.9,0.8-4.4,1.1-3.7,4.8c-2-0.9-3.5-1.7-4.8-2.3c-2.2-0.9-4.5-2.2-7.1-0.8
		c-0.3,0.2-0.9-0.1-1.3-0.4c-5.7-4.1-15-4.5-20.7-0.6c-1.7,1.1-3.3,2.4-2.5,4.9c0.1,0.5-0.9,1.2-1.3,1.7c-0.6-0.5-1.8-1.2-1.7-1.5
		c0.4-1.6,0.7-3.6,1.8-4.4c4.8-4.3,10.3-6.3,16.8-4.5c4,1,7.9,2.6,12.2,1.9c5.6-1,7.7-6.6,6-11.4c-0.2-0.6-1.1-0.7-1.9-1.1
		c-0.3,0.9-0.6,1.8-0.7,2.8c-0.1,1.1,0,2.2,0.2,3.2c-0.9,0.1-2.5,0.5-2.8,0.1c-0.5-1-0.7-2.2-0.5-3.3c0-0.8,0.3-1.6,0.9-2.2
		c1.3-1.1,2.7-2.7,4.1-2.8c2.3-0.3,2.7,1.9,3,3.8c0.8,4.6-0.6,8.5-4.2,12c1,0,2.5,0.5,3.3,0.1c2.6-1.7,5.1-3.7,7.6-5.5
		c2-1.5,3.9-3.4,5.9-4.9c0.4-0.3,1.7,0.3,2.5,0.5c-0.6,0.5-1.1,1.2-1.7,1.6c-1,0.7-3,0.1-2.4,2.5c0,0.2-1.4,1-2.6,1.7
		c0.8,0.2,1.3,0.4,1.8,0.6c4.5,0.8,6.2,3,5.3,7.5c-0.6,3.7-5.1,7-8.3,6.4c-2.5-0.5-3.9-3.5-3-6.3c0.4-1,0.7-2.1,1-3.1
		c1.9-0.6,4.3-1.6,5.2,1c0.6,1.7-0.4,3.7-0.6,5.5c0.2,0.1,0.3,0.3,0.4,0.5c1-1.1,2.5-2.2,2.9-3.5c0.6-1.4,0.5-3-0.2-4.3
		c-1-1.1-2.4-1.7-3.8-1.7C581.1,4233.6,579.3,4234.2,577.6,4234.9z"/>
</g>
</svg>
