<?xml version="1.0" encoding="utf-8"?>
<!-- Generator: Adobe Illustrator 22.1.0, SVG Export Plug-In . SVG Version: 6.00 Build 0)  -->
<svg version="1.1" id="レイヤー_1" xmlns="http://www.w3.org/2000/svg" xmlns:xlink="http://www.w3.org/1999/xlink" x="0px"
	 y="0px" viewBox="0 0 334 173" style="enable-background:new 0 0 334 173;" xml:space="preserve">
<style type="text/css">
	.st0{filter:url(#kananola);}
	.st1{enable-background:new    ;}
	.st2{fill:#FFFFFF;}
	.st3{filter:url(#from_Blue_Village);}
</style>
<filter  filterUnits="userSpaceOnUse" height="134" id="kananola" width="334" x="0" y="0">
	<feOffset  dy="5" input="SourceAlpha"></feOffset>
	<feGaussianBlur  result="blur" stdDeviation="5"></feGaussianBlur>
	<feFlood  flood-color="#381f17" flood-opacity="0.502"></feFlood>
	<feComposite  in2="blur" operator="in"></feComposite>
	<feComposite  in="SourceGraphic" operator="over"></feComposite>
</filter>
<filter  filterUnits="userSpaceOnUse" height="69" id="from_Blue_Village" width="248" x="43" y="104">
	<feOffset  dy="5" input="SourceAlpha"></feOffset>
	<feGaussianBlur  result="blur-2" stdDeviation="5"></feGaussianBlur>
	<feFlood  flood-color="#381f17" flood-opacity="0.502"></feFlood>
	<feComposite  in2="blur-2" operator="in"></feComposite>
	<feComposite  in="SourceGraphic" operator="over"></feComposite>
</filter>
<g id="ttl_main" transform="translate(-473.212 -318.273)">
	<g transform="matrix(1, 0, 0, 1, 473.21, 318.27)" class="st0">
		<g class="st1">
			<path class="st2" d="M29.1,28.3c0,0.3,0,0.5-0.1,0.8c-0.3,0.2-0.5,0.4-0.6,0.6c-0.1,0.2-0.2,0.9-0.5,1.9c-0.3,1-0.5,3.1-0.6,6.2
				c-0.2,3.1-0.2,5.4-0.2,6.9v7l-0.1,17c0,2.5,0,5.4,0.1,8.6c0.1,3.2,0.2,5.1,0.4,5.6c0.2,0.6,0.4,1,0.6,1.2
				c-0.1,1.8-0.5,2.7-1.4,2.7L26,86.6c-0.1,0-0.4,0.1-0.8,0.2C24.8,86.9,24.4,87,24,87c-0.5,0-1-0.2-1.3-0.7c-0.4-0.5-0.6-1-0.6-1.8
				c0-0.2,0.1-0.4,0.2-0.7c0.6,0,0.9-4.9,0.9-14.6L23,46.5l0.4-12.3l-0.3-2c-0.2-1.4-0.3-2.6-0.3-3.5c0-0.5,0.1-1.1,0.2-1.7
				c1.9-1,3.2-1.4,3.9-1.4c0.3,0,0.6,0.1,0.9,0.4c0.2,0.3,0.6,0.8,1.1,1.8c0.2,0,0.2,0.1,0.2,0.2V28.3z M48.9,55.7
				c-0.2-0.1-0.4-0.1-0.7-0.1c-0.4,0-0.7,0-0.9,0.1c-0.2,0.1-1.2,1-3,2.8l-5.3,5.1c-1.7,1.7-3,3-3.8,3.9c-0.8,0.9-1.2,1.5-1.2,1.8
				c0,0.4,1.3,1.4,3.9,3l6.3,4.2c2,1.3,3.7,2.3,5,2.9c1.3,0.6,2.6,1,3.8,1.1c0.7,0.1,1.5,0.6,2.3,1.6c0.5,0.5,0.7,1.1,0.7,1.6
				c0,0.6-0.3,1.1-0.9,1.5c-0.6,0.4-1,0.7-1.1,0.8c-0.4,1-1.1,1.5-2,1.5c-0.2,0-0.6-0.1-1-0.2v-0.1c0-0.3-0.4-0.8-1.3-1.6
				c-0.9-0.8-2.4-1.9-4.4-3.4c-2-1.4-5.1-3.4-9.2-6c-4.1-2.6-6.3-3.8-6.5-3.9l-1.1-0.1c0-1.9,0.8-3.6,2.3-5c1-0.2,1.8-0.8,2.3-1.8
				c0.1,0.1,0.2,0.1,0.3,0.1c0.2,0,0.5-0.2,0.8-0.6c0.4-0.4,1.1-1.2,2.3-2.4s2.2-2.2,3-3.1c0.8-0.8,1.5-1.7,2.1-2.6l1.5-2.1
				c0.4-0.6,0.8-1.3,1.2-2.3c0.4,0,1-0.3,1.7-1s1.4-1,2-1h0.2c0.2,0.2,0.4,0.2,0.6,0.2h0.3c0.6,0.4,0.9,1.1,0.9,1.9
				C50,53.9,49.6,54.9,48.9,55.7z"/>
			<path class="st2" d="M85.2,65.9c0,0.2-0.2,0.5-0.5,0.9c-0.4,0.4-0.6,0.7-0.7,1c-0.1,0.3-0.2,1-0.3,2.3c-0.1,1.2-0.1,3.1-0.1,5.5
				l0.2,5.3c0,0.3-0.1,0.5-0.4,0.7c-0.1,0.3-0.1,0.8-0.1,1.4c0,1,0.2,2.2,0.5,3.7l0.4,2.1l-0.1,1.9l0.1,1.7
				c-1.9,1.9-3.3,2.8-4.2,2.8c-0.1,0-0.4-0.1-0.7-0.3c-0.4-0.2-0.7-0.3-1-0.3H78c-0.2-0.7-0.3-1.4-0.3-2c0-1.3,0.3-2.5,0.9-3.7
				c0.3-0.4,0.5-0.7,0.6-0.9c0.1-0.2,0.2-1,0.2-2.3c0-1.5-0.2-2.2-0.5-2.2c-0.1,0-0.2,0.1-0.5,0.2c-0.3,0.1-0.6,0.2-0.9,0.2h-0.3
				c-0.3,0.2-0.5,0.5-0.6,0.8c-0.3,0-2,0.6-5.1,1.8c-1.5,0.5-3,0.8-4.4,0.8c-1.5,0-2.9-0.2-4.1-0.6c-1.2-0.4-2.3-1-3.1-1.8
				c-0.8-0.8-1.4-1.4-1.6-1.8c-0.2-0.4-0.4-1.2-0.4-2.5l0.1-1v-0.3c0-2.6,2-5.3,6.1-8.2c4-2.9,7.8-4.6,11.3-5.2
				c0.9-0.2,1.7-0.3,2.2-0.5c0.5-0.2,1-0.4,1.3-0.8s0.5-1.3,0.5-2.7c0-4.6-2.4-7.8-7.3-9.5c-0.2-0.1-0.4-0.2-0.6-0.3
				s-0.5-0.2-0.7-0.2c-2.5,0-4.6,0.1-6.3,0.3c-0.9,1.1-2,1.6-3.1,1.6c-0.9,0-1.3-0.3-1.3-0.9c0,0,0.2-0.6,0.6-1.7
				c0.4-1.1,1.3-1.6,2.7-1.6c1.6-0.9,4.6-1.3,9-1.3c3.5,0,6.2,1.4,8.1,4.1c1.9,2.7,2.9,6.6,2.9,11.6v0.5c0.2,0.3,0.6,0.6,1.1,0.7
				C84.9,65.2,85.2,65.5,85.2,65.9L85.2,65.9z M77.5,79.7c1.6-2.2,2.5-4.2,2.5-5.9c0-1.1-0.3-2.2-0.8-3.5c-0.5-1.2-1.6-1.9-3.2-1.9
				c-3.1,0-5.6,0.8-7.5,2.3h-1c-4,2.2-6,4.6-6,7c0,1.7,0.8,3.2,2.5,4.4c1.7,1.2,3.6,1.8,5.8,1.8c0.6,0,1.7-0.2,3.3-0.7
				c1.6-0.5,3.1-1.4,4.5-2.8V79.7z"/>
			<path class="st2" d="M114.8,53.1c1.7-0.3,3.1-0.4,4.3-0.4c7.1,0,10.6,4.4,10.6,13.3c0,4.9-0.8,10.6-2.4,17.1
				c-0.7,2.8-1.1,4.6-1.1,5.6c0,0.2,0.1,0.4,0.2,0.6c-0.3,1.6-1.3,2.4-2.9,2.4c-0.9,0-1.8-0.3-2.6-0.8c-0.8-0.5-1.2-1.1-1.2-1.6
				c0-0.9,0.5-1.9,1.6-3.2s2.1-3.8,3-7.5c0.9-3.7,1.4-7.4,1.4-11.2c0-7.7-3.2-11.5-9.5-11.5c-2.5,0-4.8,0.5-7,1.5
				c-2.2,1-3.4,2.1-3.7,3.4c-0.2,0.3-0.6,0.5-1.1,0.8c-0.4,0.2-0.7,0.4-0.7,0.6c-0.1,0.2-0.2,2.1-0.4,5.9c-0.2,3.8-0.3,6.6-0.3,8.6
				v1.8c0,1,0.2,1.8,0.5,2.7c0.3,0.8,0.5,1.3,0.5,1.4l-0.1,1.4c0,0.9-0.2,1.5-0.4,2.1c-0.3,0.5-0.7,0.8-1.2,0.8h-0.2l-0.2,0.5
				c-0.3-0.1-0.5-0.2-0.7-0.2c-0.4,0-0.8,0.2-1.4,0.6h-0.2c-0.3,0-0.7-0.3-1.3-1c-0.9,0-1.3-0.3-1.3-1c0-0.6,0.2-1.1,0.5-1.4
				c0.3,0,0.7-1.7,1.2-5.1c0.4-3.4,0.7-7.8,0.7-13c0-6.8-0.6-10.7-1.7-11.7l-0.1-0.7c0-1,0.6-1.7,1.7-2c0.5-0.1,0.9-0.5,1.3-1.1
				c0.4-0.6,0.8-0.9,1.2-0.9h0.1c0.5-0.1,1-0.2,1.3-0.4c0.4-0.2,0.6-0.3,0.6-0.3c0.4,0,0.5,0.5,0.5,1.5c0,0.8-0.2,1.7-0.5,2.7
				c-0.3,1-0.5,1.6-0.5,1.9c0,0.4,0.1,0.7,0.4,1c0.3,0.3,0.6,0.4,1,0.4h0.2c0.7-0.7,1.1-1.1,1.2-1.1h0.1c2.5,0,4.4-0.5,5.7-1.5
				c0.2,0,0.5-0.1,0.9-0.1c0.3-0.1,0.6-0.1,0.7-0.1C114.4,53.5,114.8,53.2,114.8,53.1z"/>
			<path class="st2" d="M165.5,65.9c0,0.2-0.2,0.5-0.5,0.9c-0.4,0.4-0.6,0.7-0.7,1c-0.1,0.3-0.2,1-0.3,2.3c-0.1,1.2-0.1,3.1-0.1,5.5
				l0.2,5.3c0,0.3-0.1,0.5-0.4,0.7c-0.1,0.3-0.1,0.8-0.1,1.4c0,1,0.2,2.2,0.5,3.7l0.4,2.1l-0.1,1.9l0.1,1.7
				c-1.9,1.9-3.3,2.8-4.2,2.8c-0.1,0-0.4-0.1-0.7-0.3c-0.4-0.2-0.7-0.3-1-0.3h-0.2c-0.2-0.7-0.3-1.4-0.3-2c0-1.3,0.3-2.5,0.9-3.7
				c0.3-0.4,0.5-0.7,0.6-0.9c0.1-0.2,0.2-1,0.2-2.3c0-1.5-0.2-2.2-0.5-2.2c-0.1,0-0.2,0.1-0.5,0.2c-0.3,0.1-0.6,0.2-0.9,0.2h-0.3
				c-0.3,0.2-0.5,0.5-0.6,0.8c-0.3,0-2,0.6-5.1,1.8c-1.5,0.5-3,0.8-4.4,0.8c-1.5,0-2.9-0.2-4.1-0.6c-1.2-0.4-2.3-1-3.1-1.8
				c-0.8-0.8-1.4-1.4-1.6-1.8c-0.2-0.4-0.4-1.2-0.4-2.5l0.1-1v-0.3c0-2.6,2-5.3,6.1-8.2c4-2.9,7.8-4.6,11.3-5.2
				c0.9-0.2,1.7-0.3,2.2-0.5c0.5-0.2,1-0.4,1.3-0.8s0.5-1.3,0.5-2.7c0-4.6-2.4-7.8-7.3-9.5c-0.2-0.1-0.4-0.2-0.6-0.3
				s-0.5-0.2-0.7-0.2c-2.5,0-4.6,0.1-6.3,0.3c-0.9,1.1-2,1.6-3.1,1.6c-0.9,0-1.3-0.3-1.3-0.9c0,0,0.2-0.6,0.6-1.7
				c0.4-1.1,1.3-1.6,2.7-1.6c1.6-0.9,4.6-1.3,9-1.3c3.5,0,6.2,1.4,8.1,4.1c1.9,2.7,2.9,6.6,2.9,11.6v0.5c0.2,0.3,0.6,0.6,1.1,0.7
				C165.2,65.2,165.5,65.5,165.5,65.9L165.5,65.9z M157.8,79.7c1.6-2.2,2.5-4.2,2.5-5.9c0-1.1-0.3-2.2-0.8-3.5
				c-0.5-1.2-1.6-1.9-3.2-1.9c-3.1,0-5.6,0.8-7.5,2.3h-1c-4,2.2-6,4.6-6,7c0,1.7,0.8,3.2,2.5,4.4c1.7,1.2,3.6,1.8,5.8,1.8
				c0.6,0,1.7-0.2,3.3-0.7c1.6-0.5,3.1-1.4,4.5-2.8V79.7z"/>
			<path class="st2" d="M195.1,53.1c1.7-0.3,3.1-0.4,4.3-0.4c7.1,0,10.6,4.4,10.6,13.3c0,4.9-0.8,10.6-2.4,17.1
				c-0.7,2.8-1.1,4.6-1.1,5.6c0,0.2,0.1,0.4,0.2,0.6c-0.3,1.6-1.3,2.4-2.9,2.4c-0.9,0-1.8-0.3-2.6-0.8c-0.8-0.5-1.2-1.1-1.2-1.6
				c0-0.9,0.5-1.9,1.6-3.2s2.1-3.8,3-7.5c0.9-3.7,1.4-7.4,1.4-11.2c0-7.7-3.2-11.5-9.5-11.5c-2.5,0-4.8,0.5-7,1.5
				c-2.2,1-3.4,2.1-3.7,3.4c-0.2,0.3-0.6,0.5-1.1,0.8c-0.4,0.2-0.7,0.4-0.7,0.6c-0.1,0.2-0.2,2.1-0.4,5.9c-0.2,3.8-0.3,6.6-0.3,8.6
				v1.8c0,1,0.2,1.8,0.5,2.7c0.3,0.8,0.5,1.3,0.5,1.4l-0.1,1.4c0,0.9-0.2,1.5-0.4,2.1c-0.3,0.5-0.7,0.8-1.2,0.8h-0.2l-0.2,0.5
				c-0.3-0.1-0.5-0.2-0.7-0.2c-0.4,0-0.8,0.2-1.4,0.6h-0.2c-0.3,0-0.7-0.3-1.3-1c-0.9,0-1.3-0.3-1.3-1c0-0.6,0.2-1.1,0.5-1.4
				c0.3,0,0.7-1.7,1.2-5.1c0.4-3.4,0.7-7.8,0.7-13c0-6.8-0.6-10.7-1.7-11.7l-0.1-0.7c0-1,0.6-1.7,1.7-2c0.5-0.1,0.9-0.5,1.3-1.1
				c0.4-0.6,0.8-0.9,1.2-0.9h0.1c0.5-0.1,1-0.2,1.3-0.4c0.4-0.2,0.6-0.3,0.6-0.3c0.4,0,0.5,0.5,0.5,1.5c0,0.8-0.2,1.7-0.5,2.7
				c-0.3,1-0.5,1.6-0.5,1.9c0,0.4,0.1,0.7,0.4,1c0.3,0.3,0.6,0.4,1,0.4h0.2c0.7-0.7,1.1-1.1,1.2-1.1h0.1c2.5,0,4.4-0.5,5.7-1.5
				c0.2,0,0.5-0.1,0.9-0.1c0.3-0.1,0.6-0.1,0.7-0.1C194.8,53.5,195.1,53.2,195.1,53.1z"/>
			<path class="st2" d="M221.6,62.9c4.1-7.7,11.4-11.6,21.9-11.6c1.6,0,3.1,0.1,4.4,0.3s2.5,0.5,3.6,0.9c1.1,0.4,2.1,1,3,1.7
				s1.8,1.6,2.7,2.6c0.9,1,1.7,2.3,2.6,3.8c0.5,0.8,0.7,2.5,0.7,5.1c0,6-2,11.1-6.1,15.3c-4,4.2-9.1,6.3-15,6.3h-0.3
				c-1.2-0.3-1.9-0.4-2-0.4c-0.1,0-0.2,0-0.2,0.1c-0.2,0.4-1,0.5-2.4,0.5c-1.8,0-4-0.5-6.5-1.6c-2.5-1.1-4.6-2.7-6.2-4.9
				c-1.6-2.2-2.4-4.5-2.4-6.9c0-0.9,0-1.9,0.1-2.8c0.1-0.9,0.2-1.8,0.4-2.7c0.2-0.8,0.4-1.6,0.7-2.4l0.9-2.2V62.9z M256,69.3v-1
				c0-4.3-1.4-7.8-4.1-10.5c-2.7-2.6-6.3-4-10.8-4c-1,0-1.9,0.1-2.8,0.3s-1.4,0.4-1.5,0.4c-0.1,0.1-0.4,0.3-0.7,0.8
				c-0.3,0.5-0.6,0.8-0.7,0.9c-0.1,0.1-0.3,0.1-0.6,0.1l-2-0.2c-0.3,0-0.5,0.2-0.6,0.7c-2,0.2-3.8,1.6-5.6,4.4
				c-1.7,2.8-2.6,5.7-2.6,8.7c0,0.7,0.1,2,0.4,4.1c0.3,2.1,1.1,3.8,2.4,5.2c1.4,1.4,3,2.5,4.9,3.5c1.9,1,3.5,1.5,4.7,1.5
				c0.3,0,0.6,0,0.9-0.1l0.4-0.1h1.6c3.5,0,5.9-0.5,7.1-1.6c0.1-0.1,0.2-0.2,0.2-0.2c0.2,0,0.4,0.1,0.7,0.2c2.9-2.5,5-5.1,6.4-7.8
				C255.3,72.1,256,70.2,256,69.3z"/>
			<path class="st2" d="M277.4,84.8c-0.2,0.8-0.4,1.3-0.6,1.5c-0.2,0.2-0.6,0.3-1.2,0.4c-0.3,0.3-0.6,0.5-0.9,0.5
				c-0.2,0-0.4-0.2-0.7-0.5c-0.3,0.3-0.8,0.6-1.3,0.9c-2-0.6-3-1.3-3-2.2v-0.1c0.4,0,0.6-0.4,0.6-1.1v-0.7l-0.1-1.3
				c0-0.2,0.2-0.8,0.5-1.8c0.4-2.8,0.6-6.5,0.6-11.2v-8l-0.1-3l0.1-2.6l-0.5-9l0.3-6.2l-0.3-8.1v-1.5c-0.3-0.9-0.5-1.8-0.5-2.6
				l0.2-1.7c0-0.2-0.1-0.4-0.3-0.7c0-1.4,0.2-2.5,0.7-3.3c0.5-0.8,1-1.5,1.7-1.9c0.7-0.4,1.3-0.7,2-0.7c1.1,0,2.1,1.1,2.9,3.3
				c-0.6,0.8-1.1,1.5-1.4,2.2c-0.4,0.7-0.5,1.8-0.5,3.3l0.2,4.5l-0.2,11.2l0.1,15.3l-0.2,17.4l0.1,0.7c0,0.4-0.1,0.7-0.3,0.8
				c0.4,0.3,0.6,1.1,0.8,2.4c0.1,1.3,0.4,2.2,0.8,2.8C277.1,84.1,277.3,84.6,277.4,84.8z"/>
			<path class="st2" d="M313.2,65.9c0,0.2-0.2,0.5-0.5,0.9c-0.4,0.4-0.6,0.7-0.7,1c-0.1,0.3-0.2,1-0.3,2.3c-0.1,1.2-0.1,3.1-0.1,5.5
				l0.2,5.3c0,0.3-0.1,0.5-0.4,0.7c-0.1,0.3-0.1,0.8-0.1,1.4c0,1,0.2,2.2,0.5,3.7l0.4,2.1l-0.1,1.9l0.1,1.7
				c-1.9,1.9-3.3,2.8-4.2,2.8c-0.1,0-0.4-0.1-0.7-0.3c-0.4-0.2-0.7-0.3-1-0.3h-0.2c-0.2-0.7-0.3-1.4-0.3-2c0-1.3,0.3-2.5,0.9-3.7
				c0.3-0.4,0.5-0.7,0.6-0.9c0.1-0.2,0.2-1,0.2-2.3c0-1.5-0.2-2.2-0.5-2.2c-0.1,0-0.2,0.1-0.5,0.2c-0.3,0.1-0.6,0.2-0.9,0.2h-0.3
				c-0.3,0.2-0.5,0.5-0.6,0.8c-0.3,0-2,0.6-5.1,1.8c-1.5,0.5-3,0.8-4.4,0.8c-1.5,0-2.9-0.2-4.1-0.6c-1.2-0.4-2.3-1-3.1-1.8
				c-0.8-0.8-1.4-1.4-1.6-1.8c-0.2-0.4-0.4-1.2-0.4-2.5l0.1-1v-0.3c0-2.6,2-5.3,6.1-8.2c4-2.9,7.8-4.6,11.3-5.2
				c0.9-0.2,1.7-0.3,2.2-0.5c0.5-0.2,1-0.4,1.3-0.8s0.5-1.3,0.5-2.7c0-4.6-2.4-7.8-7.3-9.5c-0.2-0.1-0.4-0.2-0.6-0.3
				s-0.5-0.2-0.7-0.2c-2.5,0-4.6,0.1-6.3,0.3c-0.9,1.1-2,1.6-3.1,1.6c-0.9,0-1.3-0.3-1.3-0.9c0,0,0.2-0.6,0.6-1.7
				c0.4-1.1,1.3-1.6,2.7-1.6c1.6-0.9,4.6-1.3,9-1.3c3.5,0,6.2,1.4,8.1,4.1c1.9,2.7,2.9,6.6,2.9,11.6v0.5c0.2,0.3,0.6,0.6,1.1,0.7
				C312.9,65.2,313.2,65.5,313.2,65.9L313.2,65.9z M305.5,79.7c1.6-2.2,2.5-4.2,2.5-5.9c0-1.1-0.3-2.2-0.8-3.5
				c-0.5-1.2-1.6-1.9-3.2-1.9c-3.1,0-5.6,0.8-7.5,2.3h-1c-4,2.2-6,4.6-6,7c0,1.7,0.8,3.2,2.5,4.4c1.7,1.2,3.6,1.8,5.8,1.8
				c0.6,0,1.7-0.2,3.3-0.7c1.6-0.5,3.1-1.4,4.5-2.8V79.7z"/>
		</g>
	</g>
	<g transform="matrix(1, 0, 0, 1, 473.21, 318.27)" class="st3">
		<g class="st1">
			<path class="st2" d="M71.4,116.5c0.2,0,0.4,0.2,0.5,0.4c0.1,0.2,0.2,0.4,0.2,0.6c0,0.3-0.2,0.4-0.5,0.5v0.1
				c0,0.3-0.2,0.5-0.6,0.6c-0.2-0.2-0.4-0.3-0.7-0.3c-0.1,0-0.1,0.1-0.2,0.2c-0.2,0-0.4-0.1-0.5-0.1c-0.4,0-0.7,0.1-0.7,0.3h-0.3
				c-0.6,0-1,0.1-1.2,0.4c-0.1,0-0.3,0.2-0.6,0.4s-0.7,0.4-0.9,0.6c-0.2,0.2-0.5,0.6-0.9,1.1s-0.7,1.2-1,2c-0.3,0.8-0.5,1.5-0.6,2
				c-0.1,0.5-0.2,1.1-0.4,1.8s-0.2,1.1-0.2,1.2c0,0.9,0.3,1.3,0.8,1.3c0.1,0,0.2,0,0.2,0c0.1,0.1,0.2,0.2,0.3,0.2c0,0,0.1,0,0.2,0
				s0.2,0,0.4,0s0.3,0,0.5,0c0.2,0,0.6-0.1,1.2-0.2s1-0.2,1.3-0.2c0.1,0,0.2,0,0.4,0.1c0.2,0,0.3,0.1,0.3,0.2c0,0.1,0.1,0.3,0.1,0.5
				h0c-0.1,0-0.3,0.2-0.5,0.5c0-0.1-0.1-0.1-0.2-0.2c-0.1,0.2-0.2,0.2-0.4,0.2c-0.1,0-0.5,0-1-0.1s-0.9-0.1-1.3-0.1
				c-0.1,0-0.3,0-0.5,0s-0.3,0-0.4,0c-0.1,0-0.2,0-0.4-0.1c-0.1,0-0.2,0.1-0.2,0.1c0,0-0.1,0-0.2-0.1c0,0.1,0,0.1-0.1,0.1l-0.1,0
				c-0.2,0-0.2,1.1-0.2,3.3v1.6c0,1,0.1,2.1,0.2,3.4s0.2,2,0.3,2.1c0,0.1,0.1,0.3,0.3,0.4c0,0.1,0,0.2,0,0.3c0,0.2,0.1,0.4,0.2,0.7
				s0.2,0.5,0.2,0.6v0.1c-0.3,0.2-0.6,0.4-1,0.7c-0.2,0.3-0.4,0.4-0.7,0.4h-0.1c-0.1-0.1-0.2-0.2-0.4-0.4s-0.3-0.3-0.5-0.3l-0.1,0
				c-0.1-0.3-0.2-0.5-0.2-0.6c0-0.1,0.1-0.2,0.3-0.4c0.2-0.2,0.3-0.5,0.3-0.9l0-0.3l0.1-1.4c0-1,0.1-2,0.1-3.1c0-1,0-2.1-0.1-3.2
				s-0.1-1.8-0.1-2.1l0-0.6c0-0.1-0.1-0.2-0.4-0.2c0,0-0.1,0-0.2,0s-0.2,0-0.2,0c-0.1,0-0.2,0-0.2,0c-0.1,0-0.1,0.1-0.1,0.2
				c-0.1-0.1-0.1-0.2-0.2-0.2l-0.3,0c0,0-0.1,0-0.1-0.1v0c0-0.1,0.1-0.3,0.3-0.4s0.4-0.2,0.5-0.3h0.3c0.1-0.1,0.2-0.2,0.2-0.4h0.1
				c0.2,0,0.3-0.1,0.4-0.2c0.1-0.1,0.2-0.5,0.3-1.3c0.1-0.7,0.2-1.3,0.2-1.8c0.3-1.6,0.7-2.9,1.3-4s1.1-1.9,1.5-2.4s1-1,1.7-1.5
				c0.7-0.5,1.2-0.7,1.4-0.7h0.2c0.3-0.3,0.7-0.4,1.1-0.5l0.4-0.3C70.7,116.7,71.3,116.6,71.4,116.5z"/>
			<path class="st2" d="M77.9,131.7c0,0.1-0.1,0.3-0.2,0.5c-0.1,0.2-0.2,0.4-0.3,0.6c0,0.2-0.2,0.4-0.4,0.6h-0.4
				c-0.5-0.3-0.9-0.5-1.1-0.5c-0.2,0-0.5,0.1-0.9,0.3s-0.8,0.6-1.2,1.1c-0.4,0.5-0.6,0.9-0.7,1.2c0,0.3-0.2,0.7-0.5,1.1v0.5
				c-0.2,0.5-0.3,0.8-0.2,1c0,0.2,0,0.4,0,0.5c0,0.1,0,0.2,0,0.3c-0.1,0.1-0.2,0.2-0.2,0.4c0,0.2,0.1,0.7,0.2,1.3s0.3,1.1,0.5,1.4
				v0.1c0,0.4-0.2,0.7-0.5,0.7l-0.3,0.3c-0.2,0-0.5,0-0.8,0c-0.4,0-0.7,0-1-0.1v-0.1c0-0.3,0.1-0.6,0.2-1.2s0.2-0.9,0.2-1.2l0.1-3.4
				c0-2.7-0.1-5-0.4-7.1c0-0.2,0-0.3,0-0.4c0-0.4,0.2-0.7,0.5-0.8s0.7-0.3,0.9-0.3c0.2,0,0.5,0.1,0.7,0.2c0,0,0.1,0.1,0.1,0.2
				s0.1,0.2,0.1,0.2v0.2c0,0.1-0.1,0.5-0.3,1s-0.3,1.2-0.3,1.9l0,1.8v0.3c0,0.1,0.1,0.2,0.4,0.3c0.4-0.9,0.9-1.6,1.5-2.1
				s1.3-0.9,2.1-1.1s1.4-0.4,1.6-0.4c0.3,0.2,0.4,0.3,0.4,0.5V131.7z"/>
			<path class="st2" d="M79.7,134c1.5-2.9,4.3-4.4,8.2-4.4c0.6,0,1.2,0,1.6,0.1s0.9,0.2,1.3,0.3c0.4,0.2,0.8,0.4,1.1,0.6
				c0.4,0.3,0.7,0.6,1,1c0.3,0.4,0.7,0.9,1,1.4c0.2,0.3,0.3,0.9,0.3,1.9c0,2.2-0.8,4.1-2.3,5.7c-1.5,1.6-3.4,2.4-5.6,2.4h-0.1
				c-0.5-0.1-0.7-0.1-0.8-0.1c0,0-0.1,0-0.1,0c-0.1,0.1-0.4,0.2-0.9,0.2c-0.7,0-1.5-0.2-2.5-0.6c-0.9-0.4-1.7-1-2.3-1.8
				s-0.9-1.7-0.9-2.6c0-0.4,0-0.7,0.1-1s0.1-0.7,0.2-1c0.1-0.3,0.2-0.6,0.3-0.9l0.4-0.8V134z M92.7,136.4V136c0-1.6-0.5-2.9-1.5-3.9
				c-1-1-2.4-1.5-4.1-1.5c-0.4,0-0.7,0-1,0.1s-0.5,0.1-0.6,0.2s-0.1,0.1-0.3,0.3c-0.1,0.2-0.2,0.3-0.3,0.3s-0.1,0.1-0.2,0.1
				l-0.7-0.1c-0.1,0-0.2,0.1-0.2,0.3c-0.7,0.1-1.4,0.6-2.1,1.7c-0.7,1-1,2.1-1,3.3c0,0.2,0,0.8,0.1,1.5s0.4,1.4,0.9,2s1.1,1,1.9,1.3
				c0.7,0.4,1.3,0.5,1.8,0.5c0.1,0,0.2,0,0.4,0l0.1,0h0.6c1.3,0,2.2-0.2,2.7-0.6c0,0,0.1-0.1,0.1-0.1c0.1,0,0.2,0,0.3,0.1
				c1.1-0.9,1.9-1.9,2.4-2.9S92.7,136.7,92.7,136.4z"/>
			<path class="st2" d="M112.7,130c0.3,0,0.7-0.1,1.2-0.2l0.6-0.2c1.5,0,2.6,0.4,3.3,1.2c0.7,0.8,1.1,2,1.1,3.7
				c0,0.9-0.1,1.8-0.2,2.8s-0.5,2.1-0.9,3.3s-0.6,2-0.6,2.3c0,0,0,0.1,0,0.1c-0.1,0.3-0.2,0.7-0.3,1.2l-0.9,0.1l-0.3,0l-0.3,0
				c-0.2,0-0.4-0.1-0.6-0.2c0-0.8,0.2-1.2,0.4-1.4c-0.1-0.1-0.1-0.2-0.1-0.2v-0.1c0.1-0.1,0.3-0.2,0.4-0.2c1.3-2.5,1.9-4.7,1.9-6.6
				c0-0.9-0.1-1.7-0.3-2.5s-0.4-1.3-0.6-1.5s-0.5-0.5-0.9-0.7s-0.9-0.2-1.5-0.2c-0.4,0-1.1,0.2-1.9,0.6l-2,0.9
				c-0.5,0.2-0.8,0.5-0.8,0.9c0,0,0,0.1,0.1,0.2c-0.2,0-0.3,0.1-0.4,0.2c-0.2,2.1-0.4,3.9-0.4,5.2l0.1,3.3c0,0.3-0.1,0.5-0.2,0.6
				c-0.6,0.1-1,0.3-1.2,0.6c-0.2-0.1-0.4-0.2-0.5-0.2c-0.3-0.1-0.4-0.5-0.4-1.1v-0.2c0.3-0.7,0.5-1.4,0.6-2.2
				c0.2-0.8,0.2-1.9,0.2-3.2c0-0.5,0-1-0.1-1.6l-0.1-0.7v-0.2c0-0.3,0-0.5-0.1-0.8c-0.1-0.3-0.2-0.5-0.3-0.8s-0.3-0.5-0.6-0.7
				s-0.5-0.4-0.7-0.5s-0.5-0.2-0.9-0.2c-0.2,0-0.4,0-0.6,0.1c-0.2,0-0.4,0.1-0.5,0.2c-0.2,0.1-0.5,0.3-0.9,0.4
				c-0.5,0.2-0.8,0.3-1.1,0.5c-0.3,0.2-0.6,0.4-0.8,0.6c-0.2,0.2-0.4,0.5-0.5,0.8s-0.2,0.6-0.3,1.1c-0.1,0.4-0.1,0.9-0.1,1.5
				l0.2,4.1c0,0.9,0.1,1.5,0.3,1.9c-0.1,0.4-0.4,0.8-0.6,0.9s-0.5,0.3-0.7,0.3H99c-0.1,0-0.2-0.1-0.3-0.2l-0.2,0.1
				c-0.1-0.1-0.1-0.3-0.2-0.4c0.1-0.1,0.1-0.4,0.1-0.7c0-0.1,0-0.3,0-0.7s0-0.6,0-0.7v-0.2c0,0,0-0.6,0.1-1.6s0.1-2.5,0.1-4.4
				c0-0.2-0.2-0.5-0.6-0.7c-0.1-0.1-0.1-0.3-0.1-0.3s0-0.2,0.1-0.4l-0.2-0.1c0.1-0.2,0.2-0.3,0.4-0.5s0.3-0.3,0.3-0.3
				c0-0.1,0.1-0.2,0.1-0.3c0-0.2-0.1-0.4-0.2-0.7c-0.2-0.3-0.2-0.5-0.2-0.6c0-0.1,0-0.2,0-0.2c0-0.1,0.1-0.2,0.2-0.4
				c0.1-0.2,0.3-0.4,0.4-0.6H99c0.1-0.1,0.1-0.2,0.2-0.3c0.1-0.1,0.2-0.2,0.3-0.2c0.2,0,0.4,0.1,0.6,0.3s0.3,0.5,0.3,0.8
				c0,0.1,0,0.2,0,0.3c-0.2,0.3-0.2,0.5-0.2,0.7c0,0.4,0.1,0.7,0.3,0.7c0,0,0.2-0.1,0.5-0.2s0.6-0.3,1.1-0.5s0.8-0.3,1.2-0.5
				s0.6-0.2,0.6-0.2l0.5,0.1c0.1,0,0.1,0,0.2,0c0.2-0.2,0.7-0.3,1.3-0.3c0.4,0,0.9,0.1,1.4,0.4c0.5,0.3,0.8,0.6,1.1,1.1
				c0.1,0.2,0.2,0.4,0.4,0.5c0.2,0.1,0.3,0.2,0.4,0.2c0,0,0.1,0,0.1-0.1c0,0,0,0,0-0.1c0.1,0,0.3-0.2,0.6-0.4s0.6-0.4,1-0.4
				c0.1-0.3,0.7-0.6,1.8-0.8L112.7,130z"/>
			<path class="st2" d="M138.7,131c1.7,0.6,3,1.3,3.7,2.1s1.1,1.9,1.1,3.4c0,2-1,3.7-3,5.2h-0.3c-0.2,0.2-0.4,0.3-0.5,0.5
				c-0.2,0.1-0.3,0.2-0.3,0.2c0,0-0.1,0-0.1-0.1c0,0-0.1,0.1-0.3,0.2s-0.7,0.2-1.4,0.3s-1,0.2-1,0.2c-0.2,0-0.3,0-0.3,0l-0.3,0.3
				l-0.4-0.1c-0.1,0.1-0.3,0.1-0.4,0.1s-0.2,0-0.3-0.1c-0.2,0-0.7,0-1.3,0.1s-1.1,0-1.4,0.1c0.1-0.1,0.1-0.3,0.1-0.6l0-0.5l0.2-1.6
				c0.1-0.5,0.1-1.1,0.1-1.6s0-1.1,0.1-1.6s0-1.1,0-1.8v-1l0.1-5.8c0-1.8-0.1-3.2-0.2-4s-0.2-1.4-0.2-1.6c0-0.6,0.4-0.9,1.1-0.9
				l0.3-0.3c0.3,0.2,0.5,0.3,0.8,0.4c1.8,0.1,3.2,0.3,4.2,0.5c1,0.2,1.7,0.7,2.2,1.3s0.8,1.5,0.8,2.5v0.2
				C141.3,128.3,140.3,129.7,138.7,131z M136.6,142.2c0.1,0,0.2,0,0.4,0c0.6,0,1.3-0.3,2.1-0.8c0.8-0.5,1.5-1.2,2-2.1
				c0.5-0.9,0.7-1.8,0.7-2.8c0-1.2-0.5-2.2-1.5-3c-1-0.9-2.3-1.3-4-1.4c-0.1,0-0.2,0.2-0.4,0.3c-0.3-0.3-0.5-0.4-0.9-0.4
				c-0.6,0-0.9,0.5-0.9,1.5l0,1.2c0,0.2,0,0.6-0.1,0.9s-0.1,0.6-0.1,0.8c0,0.2,0,0.4,0.1,0.8c0,0.4,0.1,0.6,0.1,0.8
				c0,0.3,0,0.6-0.1,1.1c0,0.5-0.1,0.8-0.1,1c0,0.1,0,0.3,0.1,0.6l0.1,0.4l-0.1,0.4c0,0.5,0.3,0.7,0.9,0.7c0.2,0,0.4,0,0.7,0.1
				s0.4,0.1,0.6,0.1L136.6,142.2z M136.5,130.5c0.1,0,0.2,0,0.3,0l0.4,0c0.2,0,0.7-0.4,1.4-1.1c0.7-0.7,1-1.5,1-2.3
				c0-0.3,0-0.6-0.1-0.9s-0.1-0.5-0.3-0.8c-0.1-0.3-0.3-0.5-0.4-0.7s-0.4-0.4-0.6-0.6s-0.4-0.3-0.5-0.3l-1.4-0.4
				c-0.5-0.1-0.8-0.2-0.9-0.2c-0.5,0-0.9,0.2-1.1,0.7c-0.2,0.5-0.2,1.2-0.2,2.4l0.1,3.1c0,0.7,0,1.1,0.1,1.3
				c0.1,0.2,0.2,0.3,0.4,0.3l0.2,0l0.4,0.1c0.2,0,0.4-0.1,0.5-0.3l0.3,0l0.3,0L136.5,130.5z"/>
			<path class="st2" d="M150.3,142.2c-0.1,0.3-0.2,0.5-0.2,0.6s-0.2,0.1-0.5,0.1c-0.1,0.1-0.2,0.2-0.3,0.2c-0.1,0-0.2-0.1-0.2-0.2
				c-0.1,0.1-0.3,0.2-0.5,0.3c-0.8-0.2-1.1-0.5-1.1-0.8v0c0.2,0,0.2-0.1,0.2-0.4v-0.3l0-0.5c0-0.1,0.1-0.3,0.2-0.7
				c0.1-1,0.2-2.4,0.2-4.2v-3l0-1.1l0-1l-0.2-3.4l0.1-2.3l-0.1-3v-0.6c-0.1-0.3-0.2-0.7-0.2-1l0.1-0.6c0-0.1,0-0.2-0.1-0.3
				c0-0.5,0.1-0.9,0.3-1.3c0.2-0.3,0.4-0.5,0.6-0.7s0.5-0.2,0.7-0.2c0.4,0,0.8,0.4,1.1,1.2c-0.2,0.3-0.4,0.6-0.5,0.8
				c-0.1,0.3-0.2,0.7-0.2,1.2l0.1,1.7l-0.1,4.2l0,5.7l-0.1,6.5l0,0.3c0,0.2,0,0.3-0.1,0.3c0.1,0.1,0.2,0.4,0.3,0.9s0.1,0.8,0.3,1.1
				S150.3,142.1,150.3,142.2z"/>
			<path class="st2" d="M165.2,129.6c0.2-0.1,0.4-0.2,0.7-0.3l0.9-0.2h0.1c0.2,0,0.3,0.2,0.3,0.7l-0.5,1.6c-0.2,0.5-0.3,1-0.3,1.5
				s-0.1,0.9-0.1,1.4c0,0.4,0,0.9,0.1,1.4c0.1,0.5,0.2,0.9,0.5,1.3c0,0,0,0.1,0,0.2c0,0.1-0.1,0.3-0.2,0.5c-0.2,0.2-0.2,0.6-0.2,1
				c0,0.2,0,0.6,0.1,1c0.1,0.5,0.1,0.8,0.1,0.9c0,0.1,0.1,0.2,0.2,0.3c0.1,0.1,0.2,0.2,0.2,0.2c0,0.1-0.1,0.1-0.2,0.2
				c0,0.5-0.1,0.8-0.1,0.9c0,0.4,0,0.6,0.1,0.6c-0.7,0.3-1.2,0.4-1.5,0.4c-0.4,0-0.6-0.2-0.6-0.5c0-0.1,0-0.2,0.1-0.4
				c0-0.1,0-0.1,0-0.2c0-0.2,0-0.3,0.1-0.4s0.1-0.2,0.1-0.3c0-0.2,0-0.5-0.1-0.8s-0.2-0.5-0.5-0.5c-0.2,0-0.6,0.3-1.3,0.8
				c-0.9,0.8-1.7,1.4-2.5,1.8c-0.3,0.1-0.5,0.2-0.6,0.3c-1.4,0.2-2.1,0.3-2.2,0.3c-0.2,0-0.6-0.1-0.9-0.4c-0.4-0.3-0.7-0.6-0.9-0.8
				s-0.4-0.7-0.6-1.3c-0.2-0.6-0.3-1.2-0.3-1.9c0-0.3,0.1-1.4,0.4-3.2s0.4-3.2,0.6-4c0.1-0.8,0.2-1.2,0.2-1.3c0-0.1,0-0.2-0.1-0.4
				l-0.1-0.2v-0.1c0-0.1,0-0.1,0.1-0.1c0.1,0,0.3-0.1,0.6-0.2s0.5-0.2,0.6-0.2c0.1,0,0.2,0,0.4,0.1c0.2,0.1,0.4,0.1,0.5,0.1h0.1
				c0.2,0.1,0.3,0.3,0.4,0.5l-0.3,0.4c-0.6,0.5-0.9,1.3-1.1,2.3l-0.5,3.1c-0.2,1.1-0.3,1.9-0.3,2.3c0,1.4,0.3,2.4,0.8,3s1.1,1,1.6,1
				l0.2,0l0.4,0c0.1,0,0.4-0.1,0.9-0.3c0.4-0.2,1.1-0.6,1.9-1.2c0.8-0.6,1.3-1,1.5-1.3s0.3-0.6,0.5-1s0.2-0.9,0.3-1.4
				s0.1-1.1,0.1-1.8c0-1.6,0-2.7-0.1-3.3c-0.1-0.6-0.2-0.9-0.4-1c-0.1-0.1-0.2-0.4-0.2-0.8c0.2-0.1,0.3-0.1,0.3-0.2
				c0.1,0,0.1-0.1,0.2-0.1C164.9,129.5,165,129.5,165.2,129.6z"/>
			<path class="st2" d="M182.1,133.6c0.1,0.1,0.1,0.2,0.1,0.3c0,0.3-0.1,0.5-0.2,0.6c0,0,0,0,0,0.1c0,0.2-0.2,0.2-0.6,0.2h-0.2
				c-0.1,0-0.1,0-0.2,0.1s-0.1,0.1-0.1,0.1c0,0-0.1,0-0.1-0.1s-0.2-0.1-0.4-0.1l-0.2-0.2c-0.2,0.1-0.4,0.1-0.6,0.1
				c-0.2,0-0.4,0-0.7-0.1s-0.5-0.1-0.6-0.1c-0.1,0-0.3,0-0.7,0.1s-0.7,0.1-0.9,0.1l-1.4-0.1c-0.8,0-1.5,0.1-2.1,0.2
				c-0.1,0-0.2,0.1-0.4,0.1s-0.3,0.1-0.3,0.2c0,0.1-0.1,0.2-0.3,0.3c-0.1,0.4-0.1,0.8-0.1,1.1c0,0.3,0.1,0.7,0.2,1.5
				s0.3,1.2,0.6,1.5c0.1,0.1,0.5,0.4,1.3,0.9c0.5,0.4,1,0.7,1.6,0.8c0.6,0.2,1.3,0.3,2,0.3c0.3,0,0.7,0,1.1-0.1l0.6-0.1h1
				c0.1,0,0.3-0.1,0.5-0.3s0.5-0.3,0.8-0.3c0.1,0.3,0.2,0.5,0.2,0.7c0,0.5-0.1,0.9-0.4,1.2s-0.6,0.5-1,0.5l-0.3-0.1l-0.9,0h-0.8
				c-0.4,0-1.3-0.2-2.7-0.5s-2.5-0.7-3.2-1.2s-1.2-1.2-1.5-2c-0.3-0.8-0.5-1.6-0.5-2.3c0-1,0.2-2,0.6-3.1c0.4-1,0.8-1.9,1.3-2.4
				s1.3-1.2,2.3-1.8c0.1,0,0.2-0.1,0.4-0.3s0.4-0.2,0.6-0.2l0.5,0c0.2-0.1,0.6-0.3,1.1-0.3c0.5-0.1,1-0.1,1.3-0.1
				c0.6,0,1.2,0.2,2,0.7s1.1,1.4,1.3,2.8c0,0.2,0.1,0.4,0.1,0.6c0.1,0.2,0.1,0.2,0.1,0.3C182.2,133.5,182.1,133.6,182.1,133.6z
				 M176.1,130.4c-0.1,0.1-0.3,0.2-0.8,0.5c-0.2,0.2-0.5,0.4-0.7,0.6s-0.4,0.5-0.7,0.7c-0.2,0.3-0.4,0.5-0.6,0.7s-0.3,0.4-0.4,0.5
				c-0.1,0.1-0.1,0.2-0.1,0.3c0,0.1,0.1,0.2,0.2,0.2l0.2,0.1h1.1l5.1-0.2c0.7,0,1-0.3,1-0.9c0-0.6-0.1-1.1-0.4-1.6
				c-0.2-0.5-0.9-0.8-1.9-1.1c-0.1,0-0.3,0-0.5,0s-0.4,0-0.5,0C177.1,130.2,176.7,130.3,176.1,130.4z"/>
			<path class="st2" d="M211.5,123.1c-2.3,3.6-4.6,8.1-7.1,13.6l-2.2,4.9v0.2c0,0.4-0.1,0.7-0.4,1.1c-0.2,0.4-0.5,0.6-0.8,0.6
				c-0.2,0.2-0.6,0.3-1.3,0.3c-0.3,0-0.5-0.1-0.5-0.4l-0.7-2.3c-1.1-3.8-2-6.7-2.7-8.7c-0.7-2-1.3-3.6-1.8-4.7
				c-0.5-1.1-0.8-1.7-0.9-1.8v-0.3c-0.6-0.8-0.8-1.2-0.8-1.3c0-0.1,0.1-0.2,0.4-0.3s0.4-0.2,0.5-0.3l0.6-0.4c0.2,0,0.4-0.1,0.5-0.2
				l0.4,0.2c0.1,0.8,0.4,1.7,0.7,2.8l1,3c0.3,1,0.6,1.8,0.8,2.4c0.3,0.9,0.6,1.8,0.8,2.7c0.3,1.1,0.6,2,0.9,2.6l0.6,1.6
				c0.2,0.5,0.4,0.8,0.6,1.1c0.2,0.4,0.5,0.7,0.8,1c0.3-0.2,0.5-0.4,0.8-0.7s0.5-0.7,0.7-1.3l4.3-9.5c0.7-1.6,1.2-2.8,1.5-3.6
				c0.3-0.8,0.5-1.3,0.5-1.6c0-0.1,0-0.1,0-0.1c0-0.6,0.3-1,0.9-1h0.1c0.1,0,0.3-0.1,0.5-0.2c0.2-0.1,0.4-0.2,0.6-0.2
				C211.3,122.4,211.5,122.6,211.5,123.1z"/>
			<path class="st2" d="M216,142.9c0,0.1-0.2,0.2-0.6,0.3s-0.7,0.3-0.8,0.3h-0.1c-0.1,0-0.2,0-0.4,0.1s-0.3,0.1-0.3,0.1
				c-0.2,0-0.4-0.1-0.5-0.2c-0.1-0.1-0.2-0.2-0.2-0.3c0-0.2,0-0.5,0.1-1s0.2-0.8,0.4-1c0.1-0.6,0.1-1.8,0.1-3.4l-0.1-5.3l0-0.9
				c0-0.1-0.1-0.3-0.2-0.5s-0.2-0.6-0.2-1c0-0.2,0.1-0.4,0.2-0.5s0.4-0.2,0.8-0.4l0.8-0.4c0,0,0.1,0,0.2,0c0.2,0,0.4,0.4,0.4,1.1
				c0,0.4-0.1,1.5-0.2,3.3c-0.2,1.8-0.2,3.3-0.2,4.4c0,0.6,0,1.2,0.1,1.8c0,0.6,0.1,1,0.1,1.3s0.1,0.6,0.3,0.8
				c0.3,0.5,0.4,1,0.4,1.4C216,142.9,216,142.9,216,142.9z M215.4,124.3c0.2,0.1,0.4,0.3,0.8,0.4s0.5,0.4,0.5,0.6
				c0,0.2-0.1,0.4-0.4,0.7s-0.5,0.4-0.8,0.4c-0.3,0-0.6-0.2-0.9-0.5s-0.5-0.5-0.5-0.6c0-0.2,0.1-0.4,0.4-0.6
				S215.1,124.3,215.4,124.3L215.4,124.3z"/>
			<path class="st2" d="M223.7,142.2c-0.1,0.3-0.2,0.5-0.2,0.6s-0.2,0.1-0.5,0.1c-0.1,0.1-0.2,0.2-0.3,0.2c-0.1,0-0.2-0.1-0.2-0.2
				c-0.1,0.1-0.3,0.2-0.5,0.3c-0.8-0.2-1.1-0.5-1.1-0.8v0c0.2,0,0.2-0.1,0.2-0.4v-0.3l0-0.5c0-0.1,0.1-0.3,0.2-0.7
				c0.1-1,0.2-2.4,0.2-4.2v-3l0-1.1l0-1l-0.2-3.4l0.1-2.3l-0.1-3v-0.6c-0.1-0.3-0.2-0.7-0.2-1l0.1-0.6c0-0.1,0-0.2-0.1-0.3
				c0-0.5,0.1-0.9,0.3-1.3c0.2-0.3,0.4-0.5,0.6-0.7s0.5-0.2,0.7-0.2c0.4,0,0.8,0.4,1.1,1.2c-0.2,0.3-0.4,0.6-0.5,0.8
				c-0.1,0.3-0.2,0.7-0.2,1.2l0.1,1.7l-0.1,4.2l0,5.7l-0.1,6.5l0,0.3c0,0.2,0,0.3-0.1,0.3c0.1,0.1,0.2,0.4,0.3,0.9s0.1,0.8,0.3,1.1
				S223.6,142.1,223.7,142.2z"/>
			<path class="st2" d="M231.4,142.2c-0.1,0.3-0.2,0.5-0.2,0.6s-0.2,0.1-0.5,0.1c-0.1,0.1-0.2,0.2-0.3,0.2c-0.1,0-0.2-0.1-0.2-0.2
				c-0.1,0.1-0.3,0.2-0.5,0.3c-0.8-0.2-1.1-0.5-1.1-0.8v0c0.2,0,0.2-0.1,0.2-0.4v-0.3l0-0.5c0-0.1,0.1-0.3,0.2-0.7
				c0.1-1,0.2-2.4,0.2-4.2v-3l0-1.1l0-1l-0.2-3.4l0.1-2.3l-0.1-3v-0.6c-0.1-0.3-0.2-0.7-0.2-1l0.1-0.6c0-0.1,0-0.2-0.1-0.3
				c0-0.5,0.1-0.9,0.3-1.3c0.2-0.3,0.4-0.5,0.6-0.7s0.5-0.2,0.7-0.2c0.4,0,0.8,0.4,1.1,1.2c-0.2,0.3-0.4,0.6-0.5,0.8
				c-0.1,0.3-0.2,0.7-0.2,1.2l0.1,1.7l-0.1,4.2l0,5.7l-0.1,6.5l0,0.3c0,0.2,0,0.3-0.1,0.3c0.1,0.1,0.2,0.4,0.3,0.9s0.1,0.8,0.3,1.1
				S231.3,142.1,231.4,142.2z"/>
			<path class="st2" d="M244.7,135.1c0,0.1-0.1,0.2-0.2,0.3s-0.2,0.3-0.3,0.4s-0.1,0.4-0.1,0.9s0,1.1,0,2.1l0.1,2
				c0,0.1,0,0.2-0.1,0.3c0,0.1,0,0.3,0,0.5c0,0.4,0.1,0.8,0.2,1.4l0.2,0.8l0,0.7l0,0.6c-0.7,0.7-1.2,1.1-1.6,1.1c0,0-0.1,0-0.3-0.1
				s-0.3-0.1-0.4-0.1H242c-0.1-0.3-0.1-0.5-0.1-0.7c0-0.5,0.1-0.9,0.3-1.4c0.1-0.1,0.2-0.2,0.2-0.3s0.1-0.4,0.1-0.9
				c0-0.6-0.1-0.8-0.2-0.8c0,0-0.1,0-0.2,0.1s-0.2,0.1-0.3,0.1h-0.1c-0.1,0.1-0.2,0.2-0.2,0.3c-0.1,0-0.8,0.2-1.9,0.7
				c-0.6,0.2-1.1,0.3-1.6,0.3c-0.6,0-1.1-0.1-1.6-0.2s-0.8-0.4-1.2-0.7s-0.5-0.5-0.6-0.7s-0.1-0.5-0.1-1l0-0.4v-0.1
				c0-1,0.8-2,2.3-3.1s2.9-1.7,4.3-1.9c0.4-0.1,0.6-0.1,0.8-0.2c0.2-0.1,0.4-0.2,0.5-0.3s0.2-0.5,0.2-1c0-1.7-0.9-2.9-2.8-3.5
				c-0.1,0-0.1-0.1-0.2-0.1s-0.2-0.1-0.3-0.1c-0.9,0-1.7,0-2.4,0.1c-0.4,0.4-0.7,0.6-1.2,0.6c-0.3,0-0.5-0.1-0.5-0.3
				c0,0,0.1-0.2,0.2-0.6s0.5-0.6,1-0.6c0.6-0.3,1.7-0.5,3.4-0.5c1.3,0,2.3,0.5,3,1.5s1.1,2.5,1.1,4.4v0.2c0.1,0.1,0.2,0.2,0.4,0.3
				S244.7,134.9,244.7,135.1L244.7,135.1z M241.9,140.3c0.6-0.8,0.9-1.6,0.9-2.2c0-0.4-0.1-0.8-0.3-1.3s-0.6-0.7-1.2-0.7
				c-1.2,0-2.1,0.3-2.8,0.9h-0.4c-1.5,0.8-2.3,1.7-2.3,2.6c0,0.7,0.3,1.2,0.9,1.6s1.3,0.7,2.2,0.7c0.2,0,0.6-0.1,1.2-0.3
				s1.2-0.5,1.7-1V140.3z"/>
			<path class="st2" d="M259.7,128.6c-0.2,1.1-0.3,2.8-0.3,5.2c0,0.8,0,2,0.1,3.7s0.1,3.1,0.1,4.4c0,2.4-0.2,4.4-0.7,5.9
				s-0.9,2.2-1.2,2.2l-0.1,0c-0.3,0.7-0.9,1.2-1.9,1.5c-1,0.2-1.8,0.4-2.2,0.4c-0.2,0-0.5,0-0.9-0.1s-0.7-0.1-0.8-0.1
				c-0.2,0-0.3,0-0.4,0c-0.1,0.1-0.3,0.2-0.4,0.2c-0.1,0-0.2,0-0.3-0.1c-0.1,0.1-0.2,0.2-0.5,0.2l-0.3,0c0,0-0.1,0-0.2,0
				s-0.2,0-0.2,0c-0.1,0-0.2-0.1-0.4-0.2s-0.2-0.3-0.2-0.6c0-0.2,0-0.4,0.1-0.6s0.1-0.4,0.1-0.5v-0.3c0-0.1,0.1-0.3,0.2-0.4h0.1
				c0.2,0,0.5,0.1,1,0.4c1,0.6,2.1,0.9,3.2,0.9c0.8,0,1.5-0.2,2-0.5c0.6,0,0.9-0.2,1-0.6c0.2-0.1,0.5-0.6,0.9-1.5
				c0.4-0.9,0.6-2.3,0.6-4.2v-0.4c-0.1-0.3-0.4-0.4-0.8-0.4c-0.2,0-0.4,0-0.7,0.1s-0.5,0.1-0.8,0.1c-0.4,0-1-0.1-1.9-0.2
				c-0.8-0.1-1.5-0.2-1.9-0.3s-1-0.4-1.7-0.8s-1.1-0.8-1.4-1.2s-0.5-0.9-0.7-1.4s-0.3-1.1-0.3-1.7c0-1.1,0.3-2.2,0.9-3.2
				c0.6-1,1.5-1.8,2.6-2.5c0.1,0,0.2-0.1,0.3-0.2c0.2-0.3,1-0.6,2.3-0.9l1.7-0.5h0c0.1,0,0.7-0.2,1.8-0.6l0.2,0.2
				c0.1-0.2,0.1-0.5,0.1-1v-0.7h0.3C259,128.1,259.5,128.3,259.7,128.6z M256.9,140.9c0,0.1,0.1,0.2,0.3,0.2c0.6,0,0.8-0.6,0.8-1.9
				l-0.2-6.7l0.1-0.5c0-0.7-0.5-1-1.4-1c-0.7,0-1.5,0.1-2.5,0.4s-1.8,0.7-2.6,1.5c-0.8,0.7-1.3,1.4-1.6,2.1s-0.4,1.4-0.4,2
				c0,0.9,0.3,1.7,0.9,2.3s1.3,1.2,2.1,1.6s2.1,0.6,3.6,0.6c0.1,0,0.2,0,0.3-0.1S256.6,141.2,256.9,140.9z"/>
			<path class="st2" d="M274.6,133.6c0.1,0.1,0.1,0.2,0.1,0.3c0,0.3-0.1,0.5-0.2,0.6c0,0,0,0,0,0.1c0,0.2-0.2,0.2-0.6,0.2h-0.2
				c-0.1,0-0.1,0-0.2,0.1s-0.1,0.1-0.1,0.1c0,0-0.1,0-0.1-0.1s-0.2-0.1-0.4-0.1l-0.2-0.2c-0.2,0.1-0.4,0.1-0.6,0.1
				c-0.2,0-0.4,0-0.7-0.1s-0.5-0.1-0.6-0.1c-0.1,0-0.3,0-0.7,0.1s-0.7,0.1-0.9,0.1l-1.4-0.1c-0.8,0-1.5,0.1-2.1,0.2
				c-0.1,0-0.2,0.1-0.4,0.1s-0.3,0.1-0.3,0.2c0,0.1-0.1,0.2-0.3,0.3c-0.1,0.4-0.1,0.8-0.1,1.1c0,0.3,0.1,0.7,0.2,1.5
				s0.3,1.2,0.6,1.5c0.1,0.1,0.5,0.4,1.3,0.9c0.5,0.4,1,0.7,1.6,0.8c0.6,0.2,1.3,0.3,2,0.3c0.3,0,0.7,0,1.1-0.1l0.6-0.1h1
				c0.1,0,0.3-0.1,0.5-0.3s0.5-0.3,0.8-0.3c0.1,0.3,0.2,0.5,0.2,0.7c0,0.5-0.1,0.9-0.4,1.2s-0.6,0.5-1,0.5l-0.3-0.1l-0.9,0h-0.8
				c-0.4,0-1.3-0.2-2.7-0.5s-2.5-0.7-3.2-1.2s-1.2-1.2-1.5-2c-0.3-0.8-0.5-1.6-0.5-2.3c0-1,0.2-2,0.6-3.1c0.4-1,0.8-1.9,1.3-2.4
				s1.3-1.2,2.3-1.8c0.1,0,0.2-0.1,0.4-0.3s0.4-0.2,0.6-0.2l0.5,0c0.2-0.1,0.6-0.3,1.1-0.3c0.5-0.1,1-0.1,1.3-0.1
				c0.6,0,1.2,0.2,2,0.7s1.1,1.4,1.3,2.8c0,0.2,0.1,0.4,0.1,0.6c0.1,0.2,0.1,0.2,0.1,0.3C274.7,133.5,274.7,133.6,274.6,133.6z
				 M268.6,130.4c-0.1,0.1-0.3,0.2-0.8,0.5c-0.2,0.2-0.5,0.4-0.7,0.6s-0.4,0.5-0.7,0.7c-0.2,0.3-0.4,0.5-0.6,0.7s-0.3,0.4-0.4,0.5
				c-0.1,0.1-0.1,0.2-0.1,0.3c0,0.1,0.1,0.2,0.2,0.2l0.2,0.1h1.1l5.1-0.2c0.7,0,1-0.3,1-0.9c0-0.6-0.1-1.1-0.4-1.6
				c-0.2-0.5-0.9-0.8-1.9-1.1c-0.1,0-0.3,0-0.5,0s-0.4,0-0.5,0C269.6,130.2,269.2,130.3,268.6,130.4z"/>
		</g>
	</g>
</g>
</svg>
