<?xml version="1.0" encoding="utf-8"?>
<!-- Generator: Adobe Illustrator 22.1.0, SVG Export Plug-In . SVG Version: 6.00 Build 0)  -->
<svg version="1.1" id="レイヤー_1" xmlns="http://www.w3.org/2000/svg" xmlns:xlink="http://www.w3.org/1999/xlink" x="0px"
	 y="0px" viewBox="0 0 292.5 73" style="enable-background:new 0 0 292.5 73;" xml:space="preserve">
<style type="text/css">
	.st0{enable-background:new    ;}
	.st1{fill:#B29D93;}
</style>
<g id="ttl_shop" transform="translate(-494 -5898)">
	<g class="st0">
		<path class="st1" d="M596.4,5918.5c-0.2-0.1-0.6-0.4-1.1-1c-0.5-0.5-1.2-0.8-1.9-0.8c-2.9,0-5.2,0.7-6.9,2c-1.7,1.3-2.5,3-2.5,5.2
			c0,2.3,2.5,4.8,7.5,7.4c0.3,0,0.7,0,1.1,0.1c0.4,0.1,1.1,0.6,2.2,1.6c1,1,1.8,1.9,2.3,2.6c0.5,0.8,0.9,1.6,1.2,2.4
			s0.4,1.6,0.4,2.4c0,3.5-0.8,6.1-2.4,8c-1.6,1.9-4.5,3.6-8.7,5.1c-0.2-0.1-0.4-0.1-0.6-0.1c-0.3,0-0.8,0.2-1.4,0.5
			c-0.6,0.3-1.9,0.5-3.8,0.5c-0.7,0-1.2-0.3-1.5-0.9c-0.3-0.6-0.4-1.4-0.4-2.6c0-0.3,0.1-0.6,0.4-1h0.2c0.5,0,1,0.3,1.5,0.8
			c1.1,0.3,1.8,0.4,2.1,0.4c0.2,0,1.1-0.1,2.6-0.3c1.5-0.2,3-0.6,4.3-1.3c1.4-0.7,2.3-1.3,2.8-1.9c0.5-0.6,1-1.4,1.4-2.2
			c0.5-0.9,0.7-1.9,0.7-3c0-1.7-0.5-3.2-1.5-4.8c-1-1.5-2.1-2.4-3.3-2.6v-0.1c0-0.3-0.4-0.7-1.2-1.2c-3.2-1.5-5.5-2.9-6.7-4.3
			c-1.3-1.4-1.9-3.1-1.9-5.1c0-0.8,0.1-1.5,0.3-2.3c0.2-0.7,0.5-1.5,0.9-2.1c0.4-0.7,0.9-1.3,1.5-1.9c0.6-0.6,1.4-1.2,2.4-1.7
			c1-0.6,1.7-0.9,2.1-0.9h0.8c0.1,0,0.3-0.2,0.6-0.6c0.5,0,1-0.2,1.6-0.4c0.6-0.3,1-0.4,1.1-0.5c0.2,0.1,0.3,0.3,0.4,0.5
			c0.5-0.1,1-0.2,1.6-0.2h0.6c0.8,0,1.5,0.1,1.9,0.3c0.5,0.2,0.7,0.7,0.7,1.4c0,0.6-0.1,1.1-0.4,1.7
			C597,5918.2,596.7,5918.4,596.4,5918.5z"/>
		<path class="st1" d="M609.9,5905.7c0.2-0.1,0.5-0.2,0.8-0.2c0.3,0,0.7-0.1,1-0.2l1-0.2c0.8,0,1.2,0.6,1.2,1.7c0,0.2,0,0.7-0.1,1.4
			c-0.2,1-0.3,2.2-0.3,3.6l0.1,4.1l-0.1,6.2c0,3.7,0.1,6,0.3,6.7c0.2,0.7,0.6,1.1,1.2,1.1c0.2,0,0.7-0.2,1.5-0.7s1.4-0.8,1.9-1
			c0.5-0.3,1.1-0.5,1.7-0.7c0.6-0.2,1.2-0.4,1.8-0.4l1.5-0.2c0.5-0.1,0.9-0.1,1.3-0.1h0.5c1.5,0.3,2.6,0.9,3.3,1.8
			c0.8,0.9,1.3,1.9,1.5,3.2c0.2,1.3,0.3,3.5,0.3,6.6c0,2.3-0.3,4.7-0.9,7.2c-0.6,2.5-0.9,3.9-0.9,4v0.3c0,0.2,0.1,0.6,0.2,1
			s0.2,0.7,0.2,0.9c-0.5,0.9-1.1,1.3-1.9,1.3h-0.5c-0.1,0-0.3,0-0.5,0.1c-0.2,0.1-0.4,0.1-0.4,0.1c-0.1,0-0.4-0.1-0.8-0.4
			c-0.5-0.3-0.7-0.5-0.7-0.8c0-0.1,0.1-0.3,0.3-0.7c0.8-1.6,1.5-3.7,2.1-6.5s0.9-5.3,0.9-7.8v-1.9c0-1.9-0.5-3.4-1.4-4.5
			c-1-1.1-2.2-1.7-3.8-1.7c-0.7,0-1.8,0.2-3.3,0.7c-1.4,0.5-2.2,0.9-2.3,1.3c-0.3,0-0.6,0.1-0.9,0.3c-0.3,0.2-0.6,0.3-0.7,0.4
			c-0.1,0-0.2,0.2-0.3,0.4c-0.1,0.2-0.1,0.4-0.1,0.5c-0.2-0.1-0.4-0.1-0.5-0.1c-0.1,0-0.3,0.1-0.4,0.3c0,0.2,0,0.4-0.1,0.7
			c-0.1,0.3-0.2,1.5-0.3,3.6c-0.1,2.2-0.2,3.8-0.2,4.9c0,1.1,0.1,2.3,0.2,3.4l0.2,1.4v0.1c0,0.2,0.1,0.5,0.2,1.1s0.2,0.9,0.2,1
			c0,0.1,0,0.3-0.1,0.5c-0.1,0.2-0.1,0.4-0.1,0.6v0.1h0.1c0.3,0,0.4,0.2,0.4,0.7c0,0-0.1,0.1-0.2,0.3c-0.4,0.1-0.8,0.2-1.2,0.5
			c-0.4,0.3-0.6,0.4-0.7,0.4c-0.4-0.1-0.7-0.2-0.9-0.6c-0.9,0-1.5-0.1-1.9-0.3c-0.4-0.2-0.5-0.5-0.5-0.9c0-0.2,0-0.4,0.1-0.5
			s0.1-0.1,0.1-0.2c0,0,0-0.1-0.1-0.2c-0.1-0.1-0.1-0.3-0.1-0.4c0-0.1,0.1-0.2,0.2-0.5c1-1.9,1.5-4.2,1.5-6.8l-0.2-5.4
			c0-0.8,0-1.4,0.1-1.8c-0.7-0.3-1.1-0.8-1.1-1.5c0-0.8,0.4-1.7,1.3-2.8c0-2,0.1-4.7,0.1-8.3c0-9.1-0.5-13.7-1.4-13.6
			c-0.1-0.3-0.2-0.5-0.2-0.8C609.1,5906.2,609.4,5905.7,609.9,5905.7z"/>
		<path class="st1" d="M641.7,5935.1c2.8-5.4,8-8.1,15.3-8.1c1.1,0,2.2,0.1,3.1,0.2c0.9,0.1,1.7,0.3,2.5,0.6s1.5,0.7,2.1,1.2
			c0.7,0.5,1.3,1.1,1.9,1.8c0.6,0.7,1.2,1.6,1.8,2.6c0.3,0.5,0.5,1.7,0.5,3.6c0,4.2-1.4,7.7-4.3,10.7s-6.3,4.4-10.5,4.4H654
			c-0.9-0.2-1.3-0.3-1.4-0.3c-0.1,0-0.1,0-0.2,0.1c-0.2,0.3-0.7,0.4-1.7,0.4c-1.3,0-2.8-0.4-4.6-1.1s-3.2-1.9-4.3-3.4
			s-1.7-3.1-1.7-4.8c0-0.7,0-1.3,0.1-2c0.1-0.6,0.2-1.3,0.3-1.9c0.1-0.6,0.3-1.2,0.5-1.7l0.7-1.6V5935.1z M665.8,5939.6v-0.7
			c0-3-1-5.5-2.9-7.3s-4.4-2.8-7.6-2.8c-0.7,0-1.3,0.1-1.9,0.2c-0.6,0.2-0.9,0.3-1,0.3s-0.3,0.2-0.5,0.6c-0.2,0.3-0.4,0.5-0.5,0.6
			c-0.1,0.1-0.2,0.1-0.4,0.1l-1.4-0.2c-0.2,0-0.3,0.2-0.4,0.5c-1.4,0.1-2.7,1.1-3.9,3.1s-1.8,4-1.8,6.1c0,0.5,0.1,1.4,0.3,2.9
			c0.2,1.5,0.7,2.7,1.7,3.6c0.9,1,2.1,1.8,3.5,2.5s2.5,1,3.3,1c0.2,0,0.4,0,0.7-0.1l0.2-0.1h1.1c2.4,0,4.1-0.4,5-1.1
			c0.1-0.1,0.1-0.1,0.2-0.1c0.1,0,0.3,0.1,0.5,0.2c2-1.7,3.5-3.6,4.5-5.5C665.3,5941.5,665.8,5940.3,665.8,5939.6z"/>
		<path class="st1" d="M682.7,5928.3c3.4-1.2,5.6-1.9,6.6-2.1c1.1-0.2,1.7-0.3,1.9-0.3c0.5,0,1.7,0.3,3.5,1c1.8,0.7,2.7,1.1,2.9,1.4
			c0.1,0.1,0.4,0.6,1.1,1.4c1.1,1.1,1.7,2.9,1.7,5.1c0,1.9-0.5,3.9-1.6,5.9c-1.1,2-2.4,3.5-3.9,4.4c-0.2,0.3-0.4,0.5-0.4,0.7
			c-2.2,1.8-3.6,2.9-4.3,3.2l-0.7,0.3c-0.8,0.8-1.4,1.2-1.7,1.2c-0.2,0-0.3,0-0.4-0.1c-0.9,0.6-1.5,1-2,1.3s-1,0.4-1.7,0.6
			c-0.7,0.1-1.2,0.2-1.3,0.3c-0.2,0.1-0.3,0.4-0.4,1c-0.1,0.6-0.2,1.5-0.2,2.7c0,2.2,0.1,4.2,0.2,5.9c0.1,1.7,0.3,2.7,0.3,3
			c0.1,0.3,0.2,0.5,0.3,0.7c0.1,0.2,0.2,0.4,0.2,0.4c0,0.1-0.1,0.3-0.3,0.4c-0.2,0.1-0.4,0.2-0.6,0.4c-0.2,0.1-0.3,0.2-0.4,0.2
			c0,0-0.1,0-0.1-0.1c-0.9,0.4-1.6,0.6-2.2,0.6c-0.2,0-0.5-0.1-0.8-0.3c-0.3-0.2-0.5-0.5-0.5-0.8c0-0.4,0.1-1,0.4-1.6
			c0.2-0.7,0.4-1.2,0.4-1.5l-0.1-1l0.2-7.5c0-1.2-0.1-2-0.2-2.5c-0.1-0.5-0.4-1-0.8-1.5l0.2-1.3l-0.1-0.2c0-0.2,0.1-0.4,0.4-0.8
			c0.3-0.3,0.4-0.8,0.4-1.4l-0.1-1.5v-0.6c0.1-0.4,0.2-1,0.2-1.7v-3.5c0-0.3,0-0.9,0.1-1.6c0.1-0.7,0.1-1.2,0.1-1.6
			c0-1.8-0.1-3.1-0.2-3.7c-0.1-0.6-0.3-0.9-0.7-0.9c-0.2,0-0.4,0.1-0.8,0.2c-0.4,0.1-0.7,0.2-1,0.2l-0.2-0.1l-0.6-0.7
			c0.3-0.4,0.9-0.8,1.8-1.2c1-0.5,1.5-0.9,1.5-1.4c0-0.1,0-0.3-0.1-0.6c-0.1-0.3-0.1-0.5-0.1-0.7l0.1-0.4c0-0.1-0.1-0.4-0.4-0.8
			l-0.1-1.1c0-0.7,0.1-1.2,0.4-1.4c0.3-0.3,0.7-0.5,1.2-0.6c0.5-0.1,0.9-0.3,1.1-0.4h0.8c0.4,0,0.7,0.2,0.7,0.5l-0.2,0.9
			c-0.1,0.6-0.2,1.1-0.2,1.4l0.1,0.7l-0.1,0.9C682.3,5928.1,682.4,5928.2,682.7,5928.3z M682.8,5948.6c0.9,0.3,1.8,0.5,2.8,0.5
			c0.5,0,0.9,0,1.3-0.1c0.4-0.1,1-0.4,1.9-0.9c0.9-0.6,2-1.3,3.3-2.2c0.5-0.3,0.9-0.7,1.4-1.1c0.4-0.4,1.1-1.4,2-2.9
			c0.4-0.7,0.8-1.6,1.1-2.8c0.3-1.2,0.5-2.1,0.5-2.9c0-0.6-0.2-1.5-0.5-2.8c-0.3-1.2-1-2.3-1.9-3.1c-0.9-0.8-1.5-1.2-1.9-1.2h-0.2
			c-0.5,0-0.9-0.2-1.3-0.5h-1.1l-1.9-0.1c-2.2,0-3.8,0.4-4.8,1.1c-1,0.7-1.5,2-1.5,4l0.1,2.4l-0.2,11.7c0,0.3,0.1,0.4,0.4,0.5
			C682.6,5948.4,682.8,5948.5,682.8,5948.6z"/>
	</g>
	<path id="パス_10" class="st1" d="M527.2,5942.4c-1.7-3-1.7-6.3,1.1-8.7c1.1-0.9,4.4-0.9,4.8,0c1.2,1.8,1.7,4,1.3,6.1
		C534.2,5942.1,532.4,5942.6,527.2,5942.4z"/>
	<path id="パス_13" class="st1" d="M753.3,5932.3c1.7,3,1.7,6.3-1.1,8.7c-1.1,0.9-4.4,0.9-4.8,0c-1.2-1.8-1.7-4-1.3-6.1
		C746.4,5932.5,748.1,5932,753.3,5932.3z"/>
	<path id="パス_11" class="st1" d="M506.4,5940.5c-0.1,0.2-0.3,0.4-0.5,0.5c-3.1,1.5-6.4,2.7-9.6,0.7c-2-1.5-2.9-9.8-1.6-12.4
		c1.1-2.2,4.7-2.9,8.9-2.4c2.7,0.5,2.9,2.4,2.9,4.5V5940.5z M497.1,5929.9c0.5,3.6,0.9,6.7,1.5,10.2c2-0.5,3.3-0.7,4.9-1.3
		c-0.2-3.1-0.4-5.8-0.5-8.9H497.1z"/>
	<path id="パス_12" class="st1" d="M774.1,5933.1c0.1-0.2,0.3-0.4,0.5-0.5c3.1-1.5,6.4-2.7,9.6-0.7c2,1.5,2.9,9.8,1.6,12.4
		c-1.1,2.2-4.7,2.9-8.9,2.4c-2.7-0.5-2.9-2.4-2.9-4.5V5933.1z M783.4,5943.7c-0.5-3.6-0.9-6.7-1.5-10.2c-2,0.5-3.3,0.7-4.9,1.3
		c0.2,3.1,0.4,5.8,0.5,8.9H783.4z"/>
</g>
</svg>
