<?xml version="1.0" encoding="utf-8"?>
<!-- Generator: Adobe Illustrator 22.1.0, SVG Export Plug-In . SVG Version: 6.00 Build 0)  -->
<svg version="1.1" id="レイヤー_1" xmlns="http://www.w3.org/2000/svg" xmlns:xlink="http://www.w3.org/1999/xlink" x="0px"
	 y="0px" viewBox="0 0 190 31" style="enable-background:new 0 0 190 31;" xml:space="preserve">
<style type="text/css">
	.st0{enable-background:new    ;}
	.st1{fill:#412820;}
</style>
<g id="ttl_office" transform="translate(-444 -4491)">
	<g class="st0">
		<path class="st1" d="M448.1,4496.4c0,0.1,0,0.2,0,0.2c-0.1,0-0.2,0.1-0.2,0.2s-0.1,0.3-0.1,0.6s-0.1,0.9-0.2,1.9s-0.1,1.6-0.1,2.1
			v2.1l0,5.1c0,0.8,0,1.6,0,2.6s0.1,1.5,0.1,1.7s0.1,0.3,0.2,0.4c0,0.5-0.2,0.8-0.4,0.8l-0.2,0c0,0-0.1,0-0.2,0.1s-0.2,0.1-0.4,0.1
			c-0.2,0-0.3-0.1-0.4-0.2s-0.2-0.3-0.2-0.5c0-0.1,0-0.1,0.1-0.2c0.2,0,0.3-1.5,0.3-4.4l-0.1-6.8l0.1-3.7l-0.1-0.6
			c-0.1-0.4-0.1-0.8-0.1-1.1c0-0.2,0-0.3,0.1-0.5c0.6-0.3,1-0.4,1.2-0.4c0.1,0,0.2,0,0.3,0.1s0.2,0.3,0.3,0.5
			C448.1,4496.2,448.1,4496.3,448.1,4496.4L448.1,4496.4z M454.1,4504.6c0,0-0.1,0-0.2,0c-0.1,0-0.2,0-0.3,0s-0.4,0.3-0.9,0.8
			l-1.6,1.5c-0.5,0.5-0.9,0.9-1.2,1.2c-0.2,0.3-0.4,0.5-0.4,0.5c0,0.1,0.4,0.4,1.2,0.9l1.9,1.3c0.6,0.4,1.1,0.7,1.5,0.9
			s0.8,0.3,1.1,0.3c0.2,0,0.4,0.2,0.7,0.5c0.1,0.2,0.2,0.3,0.2,0.5c0,0.2-0.1,0.3-0.3,0.4s-0.3,0.2-0.3,0.3
			c-0.1,0.3-0.3,0.5-0.6,0.5c-0.1,0-0.2,0-0.3,0v0c0-0.1-0.1-0.2-0.4-0.5c-0.3-0.2-0.7-0.6-1.3-1c-0.6-0.4-1.5-1-2.8-1.8
			s-1.9-1.2-2-1.2l-0.3,0c0-0.6,0.2-1.1,0.7-1.5c0.3-0.1,0.5-0.2,0.7-0.5c0,0,0,0,0.1,0c0.1,0,0.1-0.1,0.3-0.2s0.3-0.4,0.7-0.7
			c0.4-0.4,0.7-0.7,0.9-0.9c0.2-0.3,0.4-0.5,0.6-0.8l0.5-0.6c0.1-0.2,0.2-0.4,0.4-0.7c0.1,0,0.3-0.1,0.5-0.3
			c0.2-0.2,0.4-0.3,0.6-0.3h0.1c0,0,0.1,0.1,0.2,0.1h0.1c0.2,0.1,0.3,0.3,0.3,0.6C454.4,4504.1,454.3,4504.4,454.1,4504.6z"/>
		<path class="st1" d="M465,4507.7c0,0.1-0.1,0.1-0.2,0.3s-0.2,0.2-0.2,0.3s-0.1,0.3-0.1,0.7s0,0.9,0,1.6l0,1.6c0,0.1,0,0.2-0.1,0.2
			c0,0.1,0,0.2,0,0.4c0,0.3,0,0.7,0.1,1.1l0.1,0.6l0,0.6l0,0.5c-0.6,0.6-1,0.8-1.3,0.8c0,0-0.1,0-0.2-0.1s-0.2-0.1-0.3-0.1h-0.1
			c-0.1-0.2-0.1-0.4-0.1-0.6c0-0.4,0.1-0.8,0.3-1.1c0.1-0.1,0.2-0.2,0.2-0.3s0.1-0.3,0.1-0.7c0-0.4,0-0.7-0.1-0.7c0,0-0.1,0-0.1,0
			s-0.2,0-0.3,0h-0.1c-0.1,0.1-0.2,0.1-0.2,0.2c-0.1,0-0.6,0.2-1.5,0.5c-0.5,0.2-0.9,0.2-1.3,0.2c-0.5,0-0.9-0.1-1.2-0.2
			s-0.7-0.3-0.9-0.5s-0.4-0.4-0.5-0.5s-0.1-0.4-0.1-0.8l0-0.3v-0.1c0-0.8,0.6-1.6,1.8-2.5s2.3-1.4,3.4-1.6c0.3,0,0.5-0.1,0.7-0.1
			s0.3-0.1,0.4-0.3s0.2-0.4,0.2-0.8c0-1.4-0.7-2.3-2.2-2.8c0,0-0.1,0-0.2-0.1s-0.2-0.1-0.2-0.1c-0.8,0-1.4,0-1.9,0.1
			c-0.3,0.3-0.6,0.5-0.9,0.5c-0.3,0-0.4-0.1-0.4-0.3c0,0,0.1-0.2,0.2-0.5s0.4-0.5,0.8-0.5c0.5-0.3,1.4-0.4,2.7-0.4
			c1,0,1.9,0.4,2.4,1.2s0.9,2,0.9,3.5v0.2c0.1,0.1,0.2,0.2,0.3,0.2S465,4507.5,465,4507.7L465,4507.7z M462.7,4511.8
			c0.5-0.7,0.7-1.3,0.7-1.8c0-0.3-0.1-0.7-0.2-1s-0.5-0.6-1-0.6c-0.9,0-1.7,0.2-2.2,0.7h-0.3c-1.2,0.7-1.8,1.4-1.8,2.1
			c0,0.5,0.2,1,0.7,1.3s1.1,0.5,1.7,0.5c0.2,0,0.5-0.1,1-0.2s0.9-0.4,1.3-0.8V4511.8z"/>
		<path class="st1" d="M473.9,4503.8c0.5-0.1,0.9-0.1,1.3-0.1c2.1,0,3.2,1.3,3.2,4c0,1.5-0.2,3.2-0.7,5.1c-0.2,0.8-0.3,1.4-0.3,1.7
			c0,0.1,0,0.1,0,0.2c-0.1,0.5-0.4,0.7-0.9,0.7c-0.3,0-0.5-0.1-0.8-0.2s-0.3-0.3-0.3-0.5c0-0.3,0.2-0.6,0.5-1s0.6-1.1,0.9-2.2
			s0.4-2.2,0.4-3.4c0-2.3-0.9-3.5-2.8-3.5c-0.7,0-1.4,0.2-2.1,0.5s-1,0.6-1.1,1c-0.1,0.1-0.2,0.2-0.3,0.2c-0.1,0.1-0.2,0.1-0.2,0.2
			s-0.1,0.6-0.1,1.8s-0.1,2-0.1,2.6v0.6c0,0.3,0,0.6,0.1,0.8s0.1,0.4,0.1,0.4l0,0.4c0,0.3,0,0.5-0.1,0.6s-0.2,0.2-0.3,0.2h0
			l-0.1,0.2c-0.1,0-0.2,0-0.2,0c-0.1,0-0.2,0.1-0.4,0.2h-0.1c-0.1,0-0.2-0.1-0.4-0.3c-0.3,0-0.4-0.1-0.4-0.3c0-0.2,0.1-0.3,0.2-0.4
			c0.1,0,0.2-0.5,0.4-1.5s0.2-2.3,0.2-3.9c0-2-0.2-3.2-0.5-3.5l0-0.2c0-0.3,0.2-0.5,0.5-0.6c0.1,0,0.3-0.1,0.4-0.3s0.2-0.3,0.4-0.3
			h0c0.2,0,0.3-0.1,0.4-0.1s0.2-0.1,0.2-0.1c0.1,0,0.2,0.2,0.2,0.5c0,0.2,0,0.5-0.1,0.8s-0.1,0.5-0.1,0.6c0,0.1,0,0.2,0.1,0.3
			s0.2,0.1,0.3,0.1h0.1c0.2-0.2,0.3-0.3,0.4-0.3h0c0.8,0,1.3-0.2,1.7-0.5c0.1,0,0.2,0,0.3,0s0.2,0,0.2,0
			C473.8,4503.9,473.9,4503.9,473.9,4503.8z"/>
		<path class="st1" d="M489.1,4507.7c0,0.1-0.1,0.1-0.2,0.3s-0.2,0.2-0.2,0.3s-0.1,0.3-0.1,0.7s0,0.9,0,1.6l0,1.6
			c0,0.1,0,0.2-0.1,0.2c0,0.1,0,0.2,0,0.4c0,0.3,0,0.7,0.1,1.1l0.1,0.6l0,0.6l0,0.5c-0.6,0.6-1,0.8-1.3,0.8c0,0-0.1,0-0.2-0.1
			s-0.2-0.1-0.3-0.1h-0.1c-0.1-0.2-0.1-0.4-0.1-0.6c0-0.4,0.1-0.8,0.3-1.1c0.1-0.1,0.2-0.2,0.2-0.3s0.1-0.3,0.1-0.7
			c0-0.4,0-0.7-0.1-0.7c0,0-0.1,0-0.1,0s-0.2,0-0.3,0h-0.1c-0.1,0.1-0.2,0.1-0.2,0.2c-0.1,0-0.6,0.2-1.5,0.5
			c-0.5,0.2-0.9,0.2-1.3,0.2c-0.5,0-0.9-0.1-1.2-0.2s-0.7-0.3-0.9-0.5s-0.4-0.4-0.5-0.5s-0.1-0.4-0.1-0.8l0-0.3v-0.1
			c0-0.8,0.6-1.6,1.8-2.5s2.3-1.4,3.4-1.6c0.3,0,0.5-0.1,0.7-0.1s0.3-0.1,0.4-0.3s0.2-0.4,0.2-0.8c0-1.4-0.7-2.3-2.2-2.8
			c0,0-0.1,0-0.2-0.1s-0.2-0.1-0.2-0.1c-0.8,0-1.4,0-1.9,0.1c-0.3,0.3-0.6,0.5-0.9,0.5c-0.3,0-0.4-0.1-0.4-0.3c0,0,0.1-0.2,0.2-0.5
			s0.4-0.5,0.8-0.5c0.5-0.3,1.4-0.4,2.7-0.4c1,0,1.9,0.4,2.4,1.2s0.9,2,0.9,3.5v0.2c0.1,0.1,0.2,0.2,0.3,0.2
			S489.1,4507.5,489.1,4507.7L489.1,4507.7z M486.8,4511.8c0.5-0.7,0.7-1.3,0.7-1.8c0-0.3-0.1-0.7-0.2-1s-0.5-0.6-1-0.6
			c-0.9,0-1.7,0.2-2.2,0.7h-0.3c-1.2,0.7-1.8,1.4-1.8,2.1c0,0.5,0.2,1,0.7,1.3s1.1,0.5,1.7,0.5c0.2,0,0.5-0.1,1-0.2s0.9-0.4,1.3-0.8
			V4511.8z"/>
		<path class="st1" d="M498,4503.8c0.5-0.1,0.9-0.1,1.3-0.1c2.1,0,3.2,1.3,3.2,4c0,1.5-0.2,3.2-0.7,5.1c-0.2,0.8-0.3,1.4-0.3,1.7
			c0,0.1,0,0.1,0,0.2c-0.1,0.5-0.4,0.7-0.9,0.7c-0.3,0-0.5-0.1-0.8-0.2s-0.3-0.3-0.3-0.5c0-0.3,0.2-0.6,0.5-1s0.6-1.1,0.9-2.2
			s0.4-2.2,0.4-3.4c0-2.3-0.9-3.5-2.8-3.5c-0.7,0-1.4,0.2-2.1,0.5s-1,0.6-1.1,1c-0.1,0.1-0.2,0.2-0.3,0.2c-0.1,0.1-0.2,0.1-0.2,0.2
			s-0.1,0.6-0.1,1.8s-0.1,2-0.1,2.6v0.6c0,0.3,0,0.6,0.1,0.8s0.1,0.4,0.1,0.4l0,0.4c0,0.3,0,0.5-0.1,0.6s-0.2,0.2-0.3,0.2h0
			l-0.1,0.2c-0.1,0-0.2,0-0.2,0c-0.1,0-0.2,0.1-0.4,0.2h-0.1c-0.1,0-0.2-0.1-0.4-0.3c-0.3,0-0.4-0.1-0.4-0.3c0-0.2,0.1-0.3,0.2-0.4
			c0.1,0,0.2-0.5,0.4-1.5s0.2-2.3,0.2-3.9c0-2-0.2-3.2-0.5-3.5l0-0.2c0-0.3,0.2-0.5,0.5-0.6c0.1,0,0.3-0.1,0.4-0.3s0.2-0.3,0.4-0.3
			h0c0.2,0,0.3-0.1,0.4-0.1s0.2-0.1,0.2-0.1c0.1,0,0.2,0.2,0.2,0.5c0,0.2,0,0.5-0.1,0.8s-0.1,0.5-0.1,0.6c0,0.1,0,0.2,0.1,0.3
			s0.2,0.1,0.3,0.1h0.1c0.2-0.2,0.3-0.3,0.4-0.3h0c0.8,0,1.3-0.2,1.7-0.5c0.1,0,0.2,0,0.3,0s0.2,0,0.2,0
			C497.8,4503.9,497.9,4503.9,498,4503.8z"/>
		<path class="st1" d="M505.9,4506.8c1.2-2.3,3.4-3.5,6.6-3.5c0.5,0,0.9,0,1.3,0.1s0.7,0.1,1.1,0.3c0.3,0.1,0.6,0.3,0.9,0.5
			s0.6,0.5,0.8,0.8s0.5,0.7,0.8,1.1c0.1,0.2,0.2,0.7,0.2,1.5c0,1.8-0.6,3.3-1.8,4.6c-1.2,1.3-2.7,1.9-4.5,1.9h-0.1
			c-0.4-0.1-0.6-0.1-0.6-0.1c0,0-0.1,0-0.1,0c-0.1,0.1-0.3,0.2-0.7,0.2c-0.6,0-1.2-0.2-2-0.5c-0.8-0.3-1.4-0.8-1.9-1.5
			s-0.7-1.3-0.7-2.1c0-0.3,0-0.6,0-0.8c0-0.3,0.1-0.5,0.1-0.8s0.1-0.5,0.2-0.7l0.3-0.7V4506.8z M516.2,4508.7v-0.3
			c0-1.3-0.4-2.3-1.2-3.1s-1.9-1.2-3.2-1.2c-0.3,0-0.6,0-0.8,0.1s-0.4,0.1-0.4,0.1s-0.1,0.1-0.2,0.2s-0.2,0.2-0.2,0.3s-0.1,0-0.2,0
			l-0.6-0.1c-0.1,0-0.1,0.1-0.2,0.2c-0.6,0-1.2,0.5-1.7,1.3s-0.8,1.7-0.8,2.6c0,0.2,0,0.6,0.1,1.2s0.3,1.2,0.7,1.6
			c0.4,0.4,0.9,0.8,1.5,1.1c0.6,0.3,1.1,0.4,1.4,0.4c0.1,0,0.2,0,0.3,0l0.1,0h0.5c1,0,1.8-0.2,2.1-0.5c0,0,0.1,0,0.1,0
			c0,0,0.1,0,0.2,0.1c0.9-0.7,1.5-1.5,1.9-2.3S516.2,4509,516.2,4508.7z"/>
		<path class="st1" d="M522.7,4513.3c-0.1,0.2-0.1,0.4-0.2,0.5s-0.2,0.1-0.4,0.1c-0.1,0.1-0.2,0.1-0.3,0.1c-0.1,0-0.1,0-0.2-0.1
			c-0.1,0.1-0.2,0.2-0.4,0.3c-0.6-0.2-0.9-0.4-0.9-0.7v0c0.1,0,0.2-0.1,0.2-0.3v-0.2l0-0.4c0-0.1,0-0.2,0.1-0.6
			c0.1-0.8,0.2-1.9,0.2-3.4v-2.4l0-0.9l0-0.8l-0.1-2.7l0.1-1.9l-0.1-2.4v-0.5c-0.1-0.3-0.2-0.5-0.2-0.8l0-0.5c0-0.1,0-0.1-0.1-0.2
			c0-0.4,0.1-0.8,0.2-1s0.3-0.4,0.5-0.6s0.4-0.2,0.6-0.2c0.3,0,0.6,0.3,0.9,1c-0.2,0.2-0.3,0.5-0.4,0.7s-0.2,0.5-0.2,1l0,1.3l0,3.4
			l0,4.6l0,5.2l0,0.2c0,0.1,0,0.2-0.1,0.2c0.1,0.1,0.2,0.3,0.2,0.7s0.1,0.7,0.2,0.8S522.6,4513.3,522.7,4513.3z"/>
		<path class="st1" d="M533.4,4507.7c0,0.1-0.1,0.1-0.2,0.3s-0.2,0.2-0.2,0.3s-0.1,0.3-0.1,0.7s0,0.9,0,1.6l0,1.6
			c0,0.1,0,0.2-0.1,0.2c0,0.1,0,0.2,0,0.4c0,0.3,0,0.7,0.1,1.1l0.1,0.6l0,0.6l0,0.5c-0.6,0.6-1,0.8-1.3,0.8c0,0-0.1,0-0.2-0.1
			s-0.2-0.1-0.3-0.1h-0.1c-0.1-0.2-0.1-0.4-0.1-0.6c0-0.4,0.1-0.8,0.3-1.1c0.1-0.1,0.2-0.2,0.2-0.3s0.1-0.3,0.1-0.7
			c0-0.4,0-0.7-0.1-0.7c0,0-0.1,0-0.1,0s-0.2,0-0.3,0H531c-0.1,0.1-0.2,0.1-0.2,0.2c-0.1,0-0.6,0.2-1.5,0.5
			c-0.5,0.2-0.9,0.2-1.3,0.2c-0.5,0-0.9-0.1-1.2-0.2s-0.7-0.3-0.9-0.5s-0.4-0.4-0.5-0.5s-0.1-0.4-0.1-0.8l0-0.3v-0.1
			c0-0.8,0.6-1.6,1.8-2.5s2.3-1.4,3.4-1.6c0.3,0,0.5-0.1,0.7-0.1s0.3-0.1,0.4-0.3s0.2-0.4,0.2-0.8c0-1.4-0.7-2.3-2.2-2.8
			c0,0-0.1,0-0.2-0.1s-0.2-0.1-0.2-0.1c-0.8,0-1.4,0-1.9,0.1c-0.3,0.3-0.6,0.5-0.9,0.5c-0.3,0-0.4-0.1-0.4-0.3c0,0,0.1-0.2,0.2-0.5
			s0.4-0.5,0.8-0.5c0.5-0.3,1.4-0.4,2.7-0.4c1,0,1.9,0.4,2.4,1.2s0.9,2,0.9,3.5v0.2c0.1,0.1,0.2,0.2,0.3,0.2
			S533.4,4507.5,533.4,4507.7L533.4,4507.7z M531.1,4511.8c0.5-0.7,0.7-1.3,0.7-1.8c0-0.3-0.1-0.7-0.2-1s-0.5-0.6-1-0.6
			c-0.9,0-1.7,0.2-2.2,0.7h-0.3c-1.2,0.7-1.8,1.4-1.8,2.1c0,0.5,0.2,1,0.7,1.3s1.1,0.5,1.7,0.5c0.2,0,0.5-0.1,1-0.2s0.9-0.4,1.3-0.8
			V4511.8z"/>
		<path class="st1" d="M551.7,4492.8c0.2,0,0.3,0.1,0.4,0.3s0.1,0.3,0.1,0.5c0,0.2-0.1,0.4-0.4,0.4v0c0,0.2-0.2,0.4-0.5,0.5
			c-0.1-0.2-0.3-0.2-0.6-0.2c-0.1,0-0.1,0.1-0.2,0.2c-0.2,0-0.3,0-0.4,0c-0.4,0-0.6,0.1-0.6,0.3h-0.2c-0.5,0-0.8,0.1-1,0.3
			c-0.1,0-0.2,0.1-0.5,0.3s-0.5,0.3-0.7,0.5s-0.4,0.5-0.7,0.9s-0.5,1-0.8,1.6s-0.4,1.2-0.5,1.6s-0.2,0.9-0.3,1.5s-0.2,0.9-0.2,1
			c0,0.7,0.2,1.1,0.6,1.1c0.1,0,0.1,0,0.2,0c0.1,0.1,0.2,0.2,0.3,0.2c0,0,0.1,0,0.1,0s0.2,0,0.3,0s0.3,0,0.4,0c0.2,0,0.5,0,0.9-0.1
			s0.8-0.1,1.1-0.1c0,0,0.1,0,0.3,0s0.2,0.1,0.3,0.1s0,0.2,0.1,0.4h0c-0.1,0-0.2,0.1-0.4,0.4c0,0-0.1-0.1-0.2-0.2
			c0,0.1-0.2,0.2-0.3,0.2c-0.1,0-0.4,0-0.8-0.1s-0.8-0.1-1-0.1c-0.1,0-0.2,0-0.4,0s-0.3,0-0.3,0c-0.1,0-0.2,0-0.4,0
			c-0.1,0-0.1,0-0.2,0c0,0-0.1,0-0.2,0c0,0.1,0,0.1-0.1,0.1l0,0c-0.1,0-0.2,0.9-0.2,2.6v1.3c0,0.8,0.1,1.7,0.2,2.7s0.2,1.6,0.2,1.7
			s0.1,0.2,0.2,0.3c0,0,0,0.1,0,0.2c0,0.1,0,0.3,0.1,0.5s0.1,0.4,0.1,0.5v0.1c-0.2,0.2-0.5,0.3-0.8,0.5c-0.1,0.2-0.3,0.3-0.6,0.3h0
			c-0.1-0.1-0.2-0.2-0.3-0.4s-0.3-0.2-0.4-0.2l-0.1,0c-0.1-0.2-0.2-0.4-0.2-0.5c0,0,0.1-0.1,0.2-0.3s0.2-0.4,0.2-0.7l0-0.3l0-1.1
			c0-0.8,0-1.6,0-2.5c0-0.8,0-1.7-0.1-2.6s-0.1-1.5-0.1-1.7l0-0.5c0-0.1-0.1-0.1-0.3-0.1c0,0-0.1,0-0.2,0s-0.1,0-0.2,0
			c-0.1,0-0.1,0-0.2,0c-0.1,0-0.1,0.1-0.1,0.2c0-0.1-0.1-0.2-0.2-0.2l-0.2,0c0,0-0.1,0-0.1-0.1v0c0-0.1,0.1-0.2,0.3-0.3
			s0.3-0.2,0.4-0.3h0.2c0.1-0.1,0.2-0.2,0.2-0.3h0.1c0.1,0,0.2-0.1,0.3-0.2s0.2-0.4,0.2-1s0.1-1,0.2-1.4c0.2-1.2,0.6-2.3,1-3.2
			s0.9-1.5,1.2-1.9s0.8-0.8,1.4-1.2s0.9-0.6,1.1-0.6h0.1c0.2-0.2,0.6-0.4,0.9-0.4l0.3-0.2C551.1,4493,551.7,4492.9,551.7,4492.8z"/>
		<path class="st1" d="M550.2,4506.8c1.2-2.3,3.4-3.5,6.6-3.5c0.5,0,0.9,0,1.3,0.1s0.7,0.1,1.1,0.3c0.3,0.1,0.6,0.3,0.9,0.5
			s0.6,0.5,0.8,0.8s0.5,0.7,0.8,1.1c0.1,0.2,0.2,0.7,0.2,1.5c0,1.8-0.6,3.3-1.8,4.6c-1.2,1.3-2.7,1.9-4.5,1.9h-0.1
			c-0.4-0.1-0.6-0.1-0.6-0.1c0,0-0.1,0-0.1,0c-0.1,0.1-0.3,0.2-0.7,0.2c-0.6,0-1.2-0.2-2-0.5c-0.8-0.3-1.4-0.8-1.9-1.5
			s-0.7-1.3-0.7-2.1c0-0.3,0-0.6,0-0.8c0-0.3,0.1-0.5,0.1-0.8s0.1-0.5,0.2-0.7l0.3-0.7V4506.8z M560.5,4508.7v-0.3
			c0-1.3-0.4-2.3-1.2-3.1s-1.9-1.2-3.2-1.2c-0.3,0-0.6,0-0.8,0.1s-0.4,0.1-0.4,0.1s-0.1,0.1-0.2,0.2s-0.2,0.2-0.2,0.3s-0.1,0-0.2,0
			l-0.6-0.1c-0.1,0-0.1,0.1-0.2,0.2c-0.6,0-1.2,0.5-1.7,1.3s-0.8,1.7-0.8,2.6c0,0.2,0,0.6,0.1,1.2s0.3,1.2,0.7,1.6
			c0.4,0.4,0.9,0.8,1.5,1.1c0.6,0.3,1.1,0.4,1.4,0.4c0.1,0,0.2,0,0.3,0l0.1,0h0.5c1,0,1.8-0.2,2.1-0.5c0,0,0.1,0,0.1,0
			c0,0,0.1,0,0.2,0.1c0.9-0.7,1.5-1.5,1.9-2.3S560.5,4509,560.5,4508.7z"/>
		<path class="st1" d="M570.9,4504.9c0,0.1-0.1,0.2-0.2,0.4s-0.2,0.4-0.2,0.5s-0.1,0.3-0.3,0.5h-0.3c-0.4-0.2-0.7-0.4-0.9-0.4
			c-0.1,0-0.4,0.1-0.7,0.2s-0.6,0.5-0.9,0.9s-0.5,0.7-0.6,1c0,0.3-0.2,0.5-0.4,0.8v0.4c-0.1,0.4-0.2,0.7-0.2,0.8s0,0.3,0,0.4
			c0,0.1,0,0.2,0,0.2c-0.1,0.1-0.1,0.2-0.1,0.3c0,0.2,0,0.5,0.1,1s0.2,0.9,0.4,1.1v0.1c0,0.4-0.1,0.5-0.4,0.5l-0.2,0.2
			c-0.2,0-0.4,0-0.6,0c-0.3,0-0.5,0-0.8-0.1v0c0-0.2,0.1-0.5,0.2-0.9s0.2-0.7,0.2-0.9l0.1-2.8c0-2.1-0.1-4-0.4-5.7
			c0-0.2,0-0.3,0-0.3c0-0.3,0.1-0.5,0.4-0.7s0.5-0.2,0.7-0.2c0.2,0,0.4,0,0.5,0.1c0,0,0,0.1,0.1,0.2s0.1,0.1,0.1,0.2v0.1
			c0,0.1-0.1,0.4-0.2,0.8s-0.2,0.9-0.2,1.5l0,1.4v0.2c0,0.1,0.1,0.2,0.3,0.2c0.3-0.7,0.7-1.3,1.2-1.7s1-0.7,1.7-0.9s1.1-0.3,1.3-0.3
			c0.2,0.1,0.3,0.3,0.3,0.4V4504.9z"/>
		<path class="st1" d="M578.5,4506.8c1.2-2.3,3.4-3.5,6.6-3.5c0.5,0,0.9,0,1.3,0.1s0.7,0.1,1.1,0.3c0.3,0.1,0.6,0.3,0.9,0.5
			s0.6,0.5,0.8,0.8s0.5,0.7,0.8,1.1c0.1,0.2,0.2,0.7,0.2,1.5c0,1.8-0.6,3.3-1.8,4.6c-1.2,1.3-2.7,1.9-4.5,1.9h-0.1
			c-0.4-0.1-0.6-0.1-0.6-0.1c0,0-0.1,0-0.1,0c-0.1,0.1-0.3,0.2-0.7,0.2c-0.6,0-1.2-0.2-2-0.5c-0.8-0.3-1.4-0.8-1.9-1.5
			s-0.7-1.3-0.7-2.1c0-0.3,0-0.6,0-0.8c0-0.3,0.1-0.5,0.1-0.8s0.1-0.5,0.2-0.7l0.3-0.7V4506.8z M588.9,4508.7v-0.3
			c0-1.3-0.4-2.3-1.2-3.1s-1.9-1.2-3.2-1.2c-0.3,0-0.6,0-0.8,0.1s-0.4,0.1-0.4,0.1s-0.1,0.1-0.2,0.2s-0.2,0.2-0.2,0.3s-0.1,0-0.2,0
			l-0.6-0.1c-0.1,0-0.1,0.1-0.2,0.2c-0.6,0-1.2,0.5-1.7,1.3s-0.8,1.7-0.8,2.6c0,0.2,0,0.6,0.1,1.2s0.3,1.2,0.7,1.6
			c0.4,0.4,0.9,0.8,1.5,1.1c0.6,0.3,1.1,0.4,1.4,0.4c0.1,0,0.2,0,0.3,0l0.1,0h0.5c1,0,1.8-0.2,2.1-0.5c0,0,0.1,0,0.1,0
			c0,0,0.1,0,0.2,0.1c0.9-0.7,1.5-1.5,1.9-2.3S588.9,4509,588.9,4508.7z"/>
		<path class="st1" d="M601.7,4492.8c0.2,0,0.3,0.1,0.4,0.3s0.1,0.3,0.1,0.5c0,0.2-0.1,0.4-0.4,0.4v0c0,0.2-0.2,0.4-0.5,0.5
			c-0.1-0.2-0.3-0.2-0.6-0.2c-0.1,0-0.1,0.1-0.2,0.2c-0.2,0-0.3,0-0.4,0c-0.4,0-0.6,0.1-0.6,0.3h-0.2c-0.5,0-0.8,0.1-1,0.3
			c-0.1,0-0.2,0.1-0.5,0.3s-0.5,0.3-0.7,0.5s-0.4,0.5-0.7,0.9s-0.5,1-0.8,1.6s-0.4,1.2-0.5,1.6s-0.2,0.9-0.3,1.5s-0.2,0.9-0.2,1
			c0,0.7,0.2,1.1,0.6,1.1c0.1,0,0.1,0,0.2,0c0.1,0.1,0.2,0.2,0.3,0.2c0,0,0.1,0,0.1,0s0.2,0,0.3,0s0.3,0,0.4,0c0.2,0,0.5,0,0.9-0.1
			s0.8-0.1,1.1-0.1c0,0,0.1,0,0.3,0s0.2,0.1,0.3,0.1s0,0.2,0.1,0.4h0c-0.1,0-0.2,0.1-0.4,0.4c0,0-0.1-0.1-0.2-0.2
			c0,0.1-0.2,0.2-0.3,0.2c-0.1,0-0.4,0-0.8-0.1s-0.8-0.1-1-0.1c-0.1,0-0.2,0-0.4,0s-0.3,0-0.3,0c-0.1,0-0.2,0-0.4,0
			c-0.1,0-0.1,0-0.2,0c0,0-0.1,0-0.2,0c0,0.1,0,0.1-0.1,0.1l0,0c-0.1,0-0.2,0.9-0.2,2.6v1.3c0,0.8,0.1,1.7,0.2,2.7s0.2,1.6,0.2,1.7
			s0.1,0.2,0.2,0.3c0,0,0,0.1,0,0.2c0,0.1,0,0.3,0.1,0.5s0.1,0.4,0.1,0.5v0.1c-0.2,0.2-0.5,0.3-0.8,0.5c-0.1,0.2-0.3,0.3-0.6,0.3h0
			c-0.1-0.1-0.2-0.2-0.3-0.4s-0.3-0.2-0.4-0.2l-0.1,0c-0.1-0.2-0.2-0.4-0.2-0.5c0,0,0.1-0.1,0.2-0.3s0.2-0.4,0.2-0.7l0-0.3l0-1.1
			c0-0.8,0-1.6,0-2.5c0-0.8,0-1.7-0.1-2.6s-0.1-1.5-0.1-1.7l0-0.5c0-0.1-0.1-0.1-0.3-0.1c0,0-0.1,0-0.2,0s-0.1,0-0.2,0
			c-0.1,0-0.1,0-0.2,0c-0.1,0-0.1,0.1-0.1,0.2c0-0.1-0.1-0.2-0.2-0.2l-0.2,0c0,0-0.1,0-0.1-0.1v0c0-0.1,0.1-0.2,0.3-0.3
			s0.3-0.2,0.4-0.3h0.2c0.1-0.1,0.2-0.2,0.2-0.3h0.1c0.1,0,0.2-0.1,0.3-0.2s0.2-0.4,0.2-1s0.1-1,0.2-1.4c0.2-1.2,0.6-2.3,1-3.2
			s0.9-1.5,1.2-1.9s0.8-0.8,1.4-1.2s0.9-0.6,1.1-0.6h0.1c0.2-0.2,0.6-0.4,0.9-0.4l0.3-0.2C601,4493,601.6,4492.9,601.7,4492.8z"/>
		<path class="st1" d="M609.1,4492.8c0.2,0,0.3,0.1,0.4,0.3s0.1,0.3,0.1,0.5c0,0.2-0.1,0.4-0.4,0.4v0c0,0.2-0.2,0.4-0.5,0.5
			c-0.1-0.2-0.3-0.2-0.6-0.2c-0.1,0-0.1,0.1-0.2,0.2c-0.2,0-0.3,0-0.4,0c-0.4,0-0.6,0.1-0.6,0.3h-0.2c-0.5,0-0.8,0.1-1,0.3
			c-0.1,0-0.2,0.1-0.5,0.3s-0.5,0.3-0.7,0.5s-0.4,0.5-0.7,0.9s-0.5,1-0.8,1.6s-0.4,1.2-0.5,1.6s-0.2,0.9-0.3,1.5s-0.2,0.9-0.2,1
			c0,0.7,0.2,1.1,0.6,1.1c0.1,0,0.1,0,0.2,0c0.1,0.1,0.2,0.2,0.3,0.2c0,0,0.1,0,0.1,0s0.2,0,0.3,0s0.3,0,0.4,0c0.2,0,0.5,0,0.9-0.1
			s0.8-0.1,1.1-0.1c0,0,0.1,0,0.3,0s0.2,0.1,0.3,0.1s0,0.2,0.1,0.4h0c-0.1,0-0.2,0.1-0.4,0.4c0,0-0.1-0.1-0.2-0.2
			c0,0.1-0.2,0.2-0.3,0.2c-0.1,0-0.4,0-0.8-0.1s-0.8-0.1-1-0.1c-0.1,0-0.2,0-0.4,0s-0.3,0-0.3,0c-0.1,0-0.2,0-0.4,0
			c-0.1,0-0.1,0-0.2,0c0,0-0.1,0-0.2,0c0,0.1,0,0.1-0.1,0.1l0,0c-0.1,0-0.2,0.9-0.2,2.6v1.3c0,0.8,0.1,1.7,0.2,2.7s0.2,1.6,0.2,1.7
			s0.1,0.2,0.2,0.3c0,0,0,0.1,0,0.2c0,0.1,0,0.3,0.1,0.5s0.1,0.4,0.1,0.5v0.1c-0.2,0.2-0.5,0.3-0.8,0.5c-0.1,0.2-0.3,0.3-0.6,0.3h0
			c-0.1-0.1-0.2-0.2-0.3-0.4s-0.3-0.2-0.4-0.2l-0.1,0c-0.1-0.2-0.2-0.4-0.2-0.5c0,0,0.1-0.1,0.2-0.3s0.2-0.4,0.2-0.7l0-0.3l0-1.1
			c0-0.8,0-1.6,0-2.5c0-0.8,0-1.7-0.1-2.6s-0.1-1.5-0.1-1.7l0-0.5c0-0.1-0.1-0.1-0.3-0.1c0,0-0.1,0-0.2,0s-0.1,0-0.2,0
			c-0.1,0-0.1,0-0.2,0c-0.1,0-0.1,0.1-0.1,0.2c0-0.1-0.1-0.2-0.2-0.2l-0.2,0c0,0-0.1,0-0.1-0.1v0c0-0.1,0.1-0.2,0.3-0.3
			s0.3-0.2,0.4-0.3h0.2c0.1-0.1,0.2-0.2,0.2-0.3h0.1c0.1,0,0.2-0.1,0.3-0.2s0.2-0.4,0.2-1s0.1-1,0.2-1.4c0.2-1.2,0.6-2.3,1-3.2
			s0.9-1.5,1.2-1.9s0.8-0.8,1.4-1.2s0.9-0.6,1.1-0.6h0.1c0.2-0.2,0.6-0.4,0.9-0.4l0.3-0.2C608.5,4493,609.1,4492.9,609.1,4492.8z"/>
		<path class="st1" d="M610.4,4513.9c0,0-0.2,0.1-0.5,0.3c-0.3,0.1-0.6,0.2-0.6,0.2h-0.1c-0.1,0-0.2,0-0.3,0c-0.1,0-0.2,0-0.3,0
			c-0.1,0-0.3-0.1-0.4-0.2s-0.2-0.2-0.2-0.3c0-0.2,0-0.4,0.1-0.8s0.2-0.6,0.3-0.8c0.1-0.5,0.1-1.4,0.1-2.8l-0.1-4.3l0-0.7
			c0-0.1-0.1-0.2-0.2-0.4s-0.2-0.5-0.2-0.8c0-0.2,0-0.3,0.1-0.4s0.3-0.2,0.7-0.3l0.7-0.3c0,0,0.1,0,0.1,0c0.2,0,0.3,0.3,0.3,0.9
			c0,0.3-0.1,1.2-0.2,2.7s-0.2,2.6-0.2,3.5c0,0.5,0,1,0,1.4s0.1,0.8,0.1,1s0.1,0.4,0.2,0.6C610.2,4513.2,610.3,4513.6,610.4,4513.9
			C610.3,4513.9,610.3,4513.9,610.4,4513.9z M609.8,4499c0.1,0.1,0.3,0.2,0.6,0.3s0.4,0.3,0.4,0.5c0,0.2-0.1,0.4-0.3,0.5
			s-0.4,0.3-0.6,0.3c-0.2,0-0.5-0.1-0.7-0.4s-0.4-0.4-0.4-0.4c0-0.1,0.1-0.3,0.3-0.5S609.6,4499,609.8,4499L609.8,4499z"/>
		<path class="st1" d="M621.4,4512.2c0.4,0.2,0.6,0.5,0.6,0.9c0,0.5-0.1,0.8-0.4,0.8h-0.1c-0.1,0-0.3,0-0.8,0.1s-0.9,0.1-1.4,0.1
			h-0.3l-0.8,0c-0.3,0-0.6,0-0.8-0.1c-0.1-0.1-0.4-0.2-0.9-0.3s-0.8-0.3-1-0.4s-0.4-0.3-0.7-0.5s-0.5-0.5-0.7-0.8s-0.4-0.6-0.5-0.9
			s-0.2-0.6-0.3-1s-0.1-0.7-0.1-1.1c0-1.1,0.2-2,0.6-2.8s1-1.5,1.9-2.1c0.1-0.1,0.3-0.2,0.6-0.4s0.4-0.3,0.6-0.3s0.6-0.2,1.2-0.3
			s1.4-0.2,2.1-0.2h0.4c0.1,0,0.3,0,0.5,0c0.4,0,0.6,0.2,0.6,0.5c0,0.1,0,0.1,0,0.3s0,0.2,0,0.3l0,0.9c-0.1,0-0.2,0-0.3,0
			c-0.2,0-0.4-0.1-0.7-0.2c-0.3-0.3-0.6-0.4-0.8-0.4h-0.2c-0.1,0-0.3,0-0.6-0.1s-0.6-0.1-0.9-0.1c-0.2,0-0.5,0.1-0.8,0.3
			c-0.1,0-0.2-0.1-0.2-0.1h0c0,0-0.1,0-0.2,0.1c-0.3,0.2-0.6,0.4-1.1,0.6c-0.3,0.1-0.6,0.4-0.9,0.9s-0.5,0.8-0.7,1
			c-0.1,0.5-0.1,0.9-0.1,1.4c0,1,0.1,1.6,0.3,2.1s0.5,0.8,0.9,1.1s0.6,0.6,0.8,0.8h0.3c0.1,0.2,0.3,0.3,0.6,0.3c0.2,0,0.4,0,0.7,0.1
			s0.6,0.1,0.7,0.1l0.4,0h0.3c0.4,0,0.7,0,0.9-0.1s0.5-0.1,0.8-0.2S621.3,4512.4,621.4,4512.2z"/>
		<path class="st1" d="M632.4,4506.5c0.1,0.1,0.1,0.2,0.1,0.3c0,0.2-0.1,0.4-0.2,0.5c0,0,0,0,0,0.1c0,0.1-0.2,0.2-0.5,0.2h-0.2
			c0,0-0.1,0-0.1,0.1s-0.1,0.1-0.1,0.1c0,0,0,0-0.1-0.1s-0.2-0.1-0.3-0.1l-0.1-0.1c-0.2,0-0.3,0.1-0.5,0.1c-0.1,0-0.3,0-0.5,0
			s-0.4,0-0.5,0c-0.1,0-0.3,0-0.5,0.1s-0.5,0.1-0.7,0.1l-1.1,0c-0.6,0-1.2,0.1-1.7,0.2c-0.1,0-0.2,0.1-0.3,0.1s-0.2,0.1-0.2,0.2
			s-0.1,0.2-0.2,0.3c-0.1,0.3-0.1,0.6-0.1,0.9c0,0.2,0.1,0.6,0.2,1.2s0.3,1,0.5,1.2c0,0.1,0.4,0.3,1,0.8c0.4,0.3,0.8,0.5,1.3,0.7
			s1,0.2,1.6,0.2c0.2,0,0.5,0,0.9-0.1l0.5-0.1h0.8c0.1,0,0.2-0.1,0.4-0.2s0.4-0.2,0.7-0.2c0.1,0.2,0.1,0.4,0.1,0.6
			c0,0.4-0.1,0.7-0.3,1s-0.5,0.4-0.8,0.4l-0.2,0l-0.7,0h-0.6c-0.3,0-1-0.1-2.2-0.4s-2-0.6-2.6-1s-1-0.9-1.2-1.6s-0.4-1.3-0.4-1.9
			c0-0.8,0.2-1.6,0.5-2.5s0.7-1.5,1.1-2s1-0.9,1.8-1.4c0.1,0,0.2-0.1,0.4-0.2s0.3-0.2,0.5-0.2l0.4,0c0.2-0.1,0.5-0.2,0.9-0.3
			s0.8-0.1,1-0.1c0.5,0,1,0.2,1.6,0.5s0.9,1.1,1,2.2c0,0.2,0.1,0.4,0.1,0.5s0.1,0.2,0.1,0.2C632.5,4506.4,632.5,4506.4,632.4,4506.5
			z M627.6,4503.9c0,0.1-0.3,0.2-0.7,0.4c-0.2,0.1-0.4,0.3-0.6,0.5s-0.4,0.4-0.5,0.6s-0.3,0.4-0.5,0.6s-0.2,0.3-0.3,0.4
			s-0.1,0.2-0.1,0.2c0,0.1,0.1,0.1,0.2,0.2l0.2,0.1h0.9l4.1-0.2c0.5,0,0.8-0.2,0.8-0.7c0-0.5-0.1-0.9-0.3-1.3s-0.7-0.7-1.5-0.9
			c-0.1,0-0.2,0-0.4,0s-0.3,0-0.4,0C628.4,4503.8,628.1,4503.8,627.6,4503.9z"/>
	</g>
</g>
</svg>
