<?xml version="1.0" encoding="utf-8"?>
<!-- Generator: Adobe Illustrator 22.1.0, SVG Export Plug-In . SVG Version: 6.00 Build 0)  -->
<svg version="1.1" id="レイヤー_1" xmlns="http://www.w3.org/2000/svg" xmlns:xlink="http://www.w3.org/1999/xlink" x="0px"
	 y="0px" viewBox="0 0 35.6 40" style="enable-background:new 0 0 35.6 40;" xml:space="preserve">
<style type="text/css">
	.st0{fill:#070B36;}
</style>
<g>
	<path class="st0" d="M35.6,20c0,5.6,0,11.2,0,16.8c0,0.4,0,0.9-0.1,1.3c-0.2,1.1-1.1,1.8-2.2,1.9c-0.8,0-1.5,0-2.3,0
		c-9.3,0-18.7,0-28,0c-2.2,0-3-0.9-3-3c0-8.2,0-16.4,0-24.6C0,11,0.4,10,1.3,9c2.4-2.5,4.7-5.1,7.1-7.7C9.2,0.4,10.1,0,11.3,0
		c7.1,0,14.3,0,21.4,0c1.9,0,2.9,0.9,2.9,2.8C35.6,8.6,35.6,14.3,35.6,20z M30.5,5.1c-0.3,0-0.4-0.1-0.6-0.1c-5.8,0-11.5,0-17.3,0
		c-0.5,0-0.9,0.2-1.3,0.6c-1.9,2.1-3.7,4.1-5.7,6.1c-0.4,0.5-0.6,1-0.6,1.6c0,6.9,0,13.9,0,20.8c0,0.3-0.1,0.5,0.1,0.8
		c8.4,0,16.8,0,25.3,0C30.5,25,30.5,15.1,30.5,5.1z"/>
	<path class="st0" d="M13.7,13.6c0-1.2,0-2.3,0-3.4c0.1-1.6,1.4-2.5,2.7-2c0.8,0.3,1.3,0.9,1.3,1.7c0,1.9,0,3.9,0,5.8
		c0,1-0.7,1.8-1.7,1.8c-2,0.1-4,0.1-6,0c-1.1,0-1.8-0.9-1.8-2c0-1.1,0.8-1.9,1.9-1.9c0.6,0,1.1,0,1.7,0
		C12.4,13.6,12.9,13.6,13.7,13.6z"/>
</g>
</svg>
