<?xml version="1.0" encoding="utf-8"?>
<!-- Generator: Adobe Illustrator 22.1.0, SVG Export Plug-In . SVG Version: 6.00 Build 0)  -->
<svg version="1.1" id="レイヤー_1" xmlns="http://www.w3.org/2000/svg" xmlns:xlink="http://www.w3.org/1999/xlink" x="0px"
	 y="0px" viewBox="0 0 40 40" style="enable-background:new 0 0 40 40;" xml:space="preserve">
<style type="text/css">
	.st0{fill:#070B36;}
</style>
<g>
	<path class="st0" d="M20.6,39.9c0,0-0.1,0-0.1,0c-0.1,0-0.1,0-0.2,0c-0.1,0-0.1,0-0.2,0C9.1,39.9,0.1,31,0.1,20S9.1,0.1,20.1,0.1
		c0.1,0,0.1,0,0.2,0c0,0,0.1,0,0.1,0c0,0,0,0,0.1,0c0.2,0,0.4,0,0.7,0l0.2,0C31.8,0.8,40,9.5,40,20c0,10.5-8.2,19.2-18.7,19.8
		l-0.1,0C21,39.9,20.8,39.9,20.6,39.9z M21.5,27.5v9.1c2.5-0.9,4.7-4.3,5.9-8.9C25.6,27.6,23.6,27.5,21.5,27.5z M12.6,27.8
		c1.2,4.5,3.5,7.9,5.9,8.9v-9.1C16.5,27.5,14.5,27.6,12.6,27.8z M5.5,28.6c1.8,3.1,4.6,5.5,7.9,6.9c-1.6-2-2.8-4.6-3.6-7.6
		C7.8,28.2,6.4,28.5,5.5,28.6z M30.5,28c-0.6,2.7-1.6,5.2-2.9,7.1c2.9-1.4,5.3-3.7,7-6.4C33.8,28.6,32.5,28.3,30.5,28z M31,25.1
		c2.6,0.3,4.2,0.7,4.9,0.9c0.7-1.9,1.1-4,1.1-6c0-1.7-0.3-3.4-0.8-5c-0.6,0.2-2.2,0.6-5.2,1c0.1,1.4,0.2,2.7,0.2,4
		C31.3,21.7,31.2,23.4,31,25.1z M3.8,15.1c-0.5,1.6-0.7,3.2-0.7,4.9c0,2,0.4,4,1.1,5.9c0.8-0.2,2.4-0.5,4.9-0.8
		c-0.3-1.7-0.4-3.4-0.4-5.1c0-1.3,0.1-2.7,0.3-4C6.1,15.7,4.5,15.3,3.8,15.1z M21.5,24.6c2.3,0,4.5,0.1,6.5,0.3
		c0.2-1.6,0.4-3.2,0.4-4.8c0-1.2-0.1-2.5-0.2-3.7c-2,0.2-4.3,0.3-6.7,0.3V24.6z M11.9,16.3c-0.2,1.3-0.2,2.5-0.2,3.7
		c0,1.6,0.1,3.3,0.4,4.8c2-0.1,4.2-0.2,6.5-0.3v-8C16.2,16.5,13.9,16.4,11.9,16.3z M21.5,3.3v10.3c2.2,0,4.3-0.1,6.2-0.3
		C26.6,8.2,24.2,4.3,21.5,3.3z M12.4,13.3c1.9,0.1,4,0.2,6.2,0.3V3.4C15.9,4.5,13.5,8.3,12.4,13.3z M4.9,12.4
		c0.7,0.2,2.2,0.5,4.5,0.7c0.8-3.3,2.2-6.4,3.9-8.6C9.7,6,6.7,8.8,4.9,12.4z M27.6,4.8c1.4,2.2,2.4,5,3.1,8.2
		c2.4-0.3,3.9-0.6,4.5-0.8C33.5,9,30.8,6.4,27.6,4.8z"/>
</g>
</svg>
