<?xml version="1.0" encoding="utf-8"?>
<!-- Generator: Adobe Illustrator 22.1.0, SVG Export Plug-In . SVG Version: 6.00 Build 0)  -->
<svg version="1.1" id="レイヤー_1" xmlns="http://www.w3.org/2000/svg" xmlns:xlink="http://www.w3.org/1999/xlink" x="0px"
	 y="0px" viewBox="0 0 40 40" style="enable-background:new 0 0 40 40;" xml:space="preserve">
<style type="text/css">
	.st0{fill:#070B36;}
</style>
<path class="st0" d="M12.6,36.3C27.7,36.3,36,23.8,36,12.9c0-0.4,0-0.7,0-1.1c1.6-1.2,3-2.6,4.1-4.3c-1.5,0.7-3.1,1.1-4.7,1.3
	c1.7-1,3-2.6,3.6-4.5c-1.6,1-3.4,1.6-5.2,2C30.6,3,25.4,2.9,22.1,6c-2.1,2-3,5-2.4,7.8c-6.6-0.3-12.8-3.4-16.9-8.6
	c-2.2,3.8-1.1,8.6,2.5,11c-1.3,0-2.6-0.4-3.7-1v0.1c0,3.9,2.8,7.3,6.6,8c-1.2,0.3-2.5,0.4-3.7,0.1c1.1,3.3,4.2,5.6,7.7,5.7
	C9.3,31.4,5.7,32.6,2,32.6c-0.7,0-1.3,0-2-0.1C3.7,35,8.1,36.3,12.6,36.3"/>
</svg>
