<?xml version="1.0" encoding="utf-8"?>
<!-- Generator: Adobe Illustrator 22.1.0, SVG Export Plug-In . SVG Version: 6.00 Build 0)  -->
<svg version="1.1" id="レイヤー_1" xmlns="http://www.w3.org/2000/svg" xmlns:xlink="http://www.w3.org/1999/xlink" x="0px"
	 y="0px" viewBox="0 0 40 40" style="enable-background:new 0 0 40 40;" xml:space="preserve">
<style type="text/css">
	.st0{fill:#070B36;}
</style>
<path class="st0" d="M1.5,26.9l0.7-2.8l-0.7-2.9c0-0.1-0.2-0.2-0.4-0.2c-0.2,0-0.4,0.1-0.4,0.2l-0.6,2.9l0.6,2.8
	C0.7,27,0.9,27,1.1,27C1.3,27,1.5,27,1.5,26.9z M5.6,28.4l0.6-4.3l-0.6-6.7c0-0.2-0.2-0.3-0.5-0.3c-0.3,0-0.5,0.1-0.5,0.3l-0.5,6.7
	l0.5,4.3c0,0.2,0.2,0.3,0.5,0.3C5.3,28.7,5.5,28.6,5.6,28.4z M9.6,28.4l0.5-4.2l-0.5-8.9c0-0.2-0.3-0.4-0.6-0.4
	c-0.3,0-0.5,0.2-0.6,0.4l-0.4,8.9l0.4,4.2c0,0.2,0.3,0.4,0.6,0.4C9.4,28.7,9.6,28.6,9.6,28.4z M13.7,28.3l0.4-4.2l-0.4-9
	c0-0.2-0.3-0.4-0.6-0.4c-0.4,0-0.6,0.2-0.6,0.4l-0.3,9l0.3,4.2c0,0.2,0.3,0.4,0.6,0.4C13.4,28.7,13.7,28.6,13.7,28.3z M17.8,28.3
	l0.3-4.1l-0.3-10.3c0-0.3-0.3-0.5-0.7-0.5c-0.4,0-0.7,0.2-0.7,0.5l-0.3,10.3c0,0,0.3,4.1,0.3,4.1c0,0.3,0.3,0.5,0.7,0.5
	C17.5,28.8,17.8,28.5,17.8,28.3z M20.6,28.8c0,0,14.2,0,14.2,0c2.8,0,5.1-2.2,5.1-5c0-2.7-2.3-5-5.1-5c-0.7,0-1.4,0.1-2,0.4
	c-0.4-4.5-4.3-8-9-8c-1.2,0-2.3,0.2-3.3,0.6c-0.4,0.1-0.5,0.3-0.5,0.6v15.8C20.1,28.5,20.3,28.7,20.6,28.8z"/>
</svg>
