<?xml version="1.0" encoding="utf-8"?>
<!-- Generator: Adobe Illustrator 22.1.0, SVG Export Plug-In . SVG Version: 6.00 Build 0)  -->
<svg version="1.1" id="レイヤー_1" xmlns="http://www.w3.org/2000/svg" xmlns:xlink="http://www.w3.org/1999/xlink" x="0px"
	 y="0px" viewBox="0 0 40 40" style="enable-background:new 0 0 40 40;" xml:space="preserve">
<path d="M37.8,0H2.2C1,0,0,1,0,2.2v35.6C0,39,1,40,2.2,40h19.2V24.5h-5.2v-6h5.2V14c0-5.2,3.2-8,7.8-8c2.2,0,4.1,0.1,4.7,0.2v5.4
	l-3.2,0c-2.5,0-3,1.2-3,2.9v3.9h6l-0.8,6h-5.2V40h10.2c1.2,0,2.2-1,2.2-2.2V2.2C40,1,39,0,37.8,0z"/>
</svg>
