<svg xmlns="http://www.w3.org/2000/svg" width="325.1" height="68.35" viewBox="0 0 325.1 68.35">
  <defs>
    <style>
      .cls-1 {
        fill: #092437;
        fill-rule: evenodd;
      }
    </style>
  </defs>
  <path id="Blue_Village" data-name="Blue Village" class="cls-1" d="M12155.7,8735.38v-0.35a8.122,8.122,0,0,0-1.6-5.07,7.685,7.685,0,0,0-4.4-2.65,51.262,51.262,0,0,0-8.4-1,7.348,7.348,0,0,1-1.7-.79l-0.6.61c-1.5,0-2.2.58-2.2,1.73a22.226,22.226,0,0,0,.4,3.11,39.71,39.71,0,0,1,.5,8l-0.3,11.63v5.71c0,1.07-.1,2.16-0.1,3.25-0.1,1.1-.1,2.18-0.3,3.25l-0.4,3.23,0.1,1.02a2.809,2.809,0,0,1-.2,1.11,27.378,27.378,0,0,1,2.8-.13c1.2-.01,2.1-0.04,2.6-0.1a1.033,1.033,0,0,0,.6.12,1.381,1.381,0,0,0,.8-0.29l0.8,0.29,0.7-.65a2.278,2.278,0,0,0,.7.06s0.7-.1,2.1-0.32a11.68,11.68,0,0,0,2.7-.67,1.847,1.847,0,0,0,.7-0.5,0.2,0.2,0,0,0,.2.23,2.227,2.227,0,0,0,.7-0.35c0.3-.23.7-0.53,1.1-0.9h0.6c4-2.87,5.9-6.32,5.9-10.36a9.637,9.637,0,0,0-2.2-6.75q-2.25-2.475-7.5-4.28c3.3-2.51,5.2-5.24,5.9-8.19h0Zm-10.3,7.98-0.6.06-0.6-.06a1.135,1.135,0,0,1-1,.53l-0.7-.12-0.4.06a0.722,0.722,0,0,1-.8-0.67,8.39,8.39,0,0,1-.2-2.64l-0.3-6.3a16.684,16.684,0,0,1,.5-4.76,1.962,1.962,0,0,1,2.1-1.36,7.6,7.6,0,0,1,1.8.41l2.9,0.82a2.812,2.812,0,0,1,1,.61,6,6,0,0,1,2,2.71,8.992,8.992,0,0,1,.5,1.6,4.955,4.955,0,0,1,.2,1.73,6.821,6.821,0,0,1-2,4.61q-1.95,2.16-2.7,2.16l-0.8-.06a2.775,2.775,0,0,0-.7.06Zm-0.3,23.23a4.72,4.72,0,0,1-1.2-.26,3.743,3.743,0,0,0-1.3-.26q-1.8,0-1.8-1.38l0.1-.74-0.1-.73a7.746,7.746,0,0,1-.2-1.2c0-.45.1-1.15,0.1-2.09,0.1-.94.2-1.66,0.2-2.17a15.355,15.355,0,0,0-.2-1.67c0-.72-0.1-1.25-0.1-1.58,0-.28.1-0.8,0.2-1.57a17.38,17.38,0,0,0,.2-1.9l-0.1-2.34c0-2.02.6-3.03,1.9-3.03a2.28,2.28,0,0,1,1.7.86,5.1,5.1,0,0,1,.9-0.65,12.6,12.6,0,0,1,7.9,2.89,7.809,7.809,0,0,1,3,6.06,11.67,11.67,0,0,1-5.5,9.71,8.75,8.75,0,0,1-4.3,1.53,3.192,3.192,0,0,1-.8-0.06Zm31.1-1.55a5.02,5.02,0,0,1-.6-2.12,2.9,2.9,0,0,0-.6-1.81,0.6,0.6,0,0,0,.3-0.61l-0.1-.53,0.1-13.04v-11.45l0.1-8.38-0.1-3.37a5.328,5.328,0,0,1,.4-2.44,8.372,8.372,0,0,1,1.1-1.69c-0.7-1.64-1.4-2.46-2.2-2.46a2.714,2.714,0,0,0-1.5.5,4.619,4.619,0,0,0-1.3,1.42,5.7,5.7,0,0,0-.5,2.5,1.02,1.02,0,0,1,.3.56l-0.2,1.26a6.981,6.981,0,0,0,.4,1.96v1.15l0.3,6.06-0.3,4.69,0.4,6.76-0.1,1.94,0.1,2.25v6.01a60.237,60.237,0,0,1-.5,8.41,9.785,9.785,0,0,0-.3,1.38v1.49c0,0.57-.1.85-0.4,0.85v0.06c0,0.68.7,1.24,2.3,1.67a3.921,3.921,0,0,0,1-.65,0.535,0.535,0,0,0,.5.35,1.006,1.006,0,0,0,.6-0.35,1.216,1.216,0,0,0,.9-0.29,5.652,5.652,0,0,0,.5-1.14C12176.7,8765.82,12176.5,8765.51,12176.2,8765.04Zm33.1-24.46a0.7,0.7,0,0,0-.4.13,2.241,2.241,0,0,1-.6.31,2.477,2.477,0,0,0,.3,1.55c0.4,0.23.6,0.92,0.8,2.06,0.1,1.15.2,3.36,0.2,6.64,0,1.31-.1,2.5-0.2,3.57a11.536,11.536,0,0,1-.6,2.86,7.831,7.831,0,0,1-1,2.05,10.794,10.794,0,0,1-3,2.52,36.205,36.205,0,0,1-3.8,2.37,5.285,5.285,0,0,1-1.7.66l-0.9-.05-0.5.05a4.541,4.541,0,0,1-3.2-1.9,9.663,9.663,0,0,1-1.6-6.01,29.941,29.941,0,0,1,.6-4.68l0.9-6.3a8.07,8.07,0,0,1,2.2-4.51l0.6-.71a2.685,2.685,0,0,0-.7-0.91h-0.2a3.475,3.475,0,0,1-1.1-.2,3.527,3.527,0,0,0-.8-0.21,3.586,3.586,0,0,0-1.3.41c-0.6.28-.9,0.44-1.1,0.5a0.335,0.335,0,0,0-.3.3v0.11l0.2,0.47a1.278,1.278,0,0,1,.2.73c0,0.08-.1.92-0.4,2.51s-0.6,4.23-1.1,7.92-0.8,5.85-.8,6.48a11.608,11.608,0,0,0,.6,3.85,7.455,7.455,0,0,0,1.2,2.53,11.159,11.159,0,0,0,1.9,1.66,3.605,3.605,0,0,0,1.9.83c0.1,0,1.6-.21,4.3-0.64a3.576,3.576,0,0,1,1.2-.61,24.387,24.387,0,0,0,5-3.55c1.2-1.11,2-1.67,2.5-1.67a1.063,1.063,0,0,1,1.1,1.05,11.089,11.089,0,0,1,.1,1.65,1.434,1.434,0,0,1-.1.64,2.079,2.079,0,0,0-.2.88c0,0.19.1,0.35,0.1,0.47a4.249,4.249,0,0,0-.2.85,0.979,0.979,0,0,0,1.2.99,8.469,8.469,0,0,0,3-.82,1.353,1.353,0,0,1-.3-1.2c0-.21.1-0.8,0.1-1.76,0.4-.11.5-0.25,0.5-0.41a0.763,0.763,0,0,0-.4-0.45,0.766,0.766,0,0,1-.4-0.64c-0.1-.23-0.1-0.82-0.3-1.79a11.87,11.87,0,0,1-.3-2.1,3.58,3.58,0,0,1,.5-1.92,2.7,2.7,0,0,0,.5-1.01,0.49,0.49,0,0,0-.1-0.38,5.463,5.463,0,0,1-1-2.59c-0.1-1.01-.2-1.96-0.2-2.86a26.981,26.981,0,0,1,.2-2.75,18.608,18.608,0,0,1,.7-3.02l0.9-3.16q0-1.5-.6-1.5h-0.2l-1.7.38a4.072,4.072,0,0,0-1.5.59,1.482,1.482,0,0,0-.7-0.26h0Zm38.3,7.94a1.672,1.672,0,0,0-.1-0.52,10.428,10.428,0,0,1-.3-1.18c-0.3-2.8-1.1-4.63-2.5-5.51a8.037,8.037,0,0,0-4-1.32,14.419,14.419,0,0,0-2.5.28,7.265,7.265,0,0,0-2.3.69l-0.9-.06a2,2,0,0,0-1.2.45,5.207,5.207,0,0,1-.9.6,19.844,19.844,0,0,0-4.5,3.62,16.616,16.616,0,0,0-2.7,4.89,17.35,17.35,0,0,0-1.2,6.2,13.528,13.528,0,0,0,1,4.67,9.208,9.208,0,0,0,3.1,3.94,16.509,16.509,0,0,0,6.4,2.47,36.373,36.373,0,0,0,5.5.93h1.6l1.8-.06,0.6,0.12a2.23,2.23,0,0,0,1.9-1.02,3.554,3.554,0,0,0,.9-2.41,2.939,2.939,0,0,0-.4-1.43,3.65,3.65,0,0,0-1.6.61,2.426,2.426,0,0,1-1.1.53h-1.9l-1.2.15a21.494,21.494,0,0,1-2.3.14,12.609,12.609,0,0,1-4-.57,9.585,9.585,0,0,1-3.2-1.68c-1.6-1.12-2.5-1.74-2.6-1.88a7.353,7.353,0,0,1-1.1-3.04,19.729,19.729,0,0,1-.5-2.9,9.009,9.009,0,0,1,.3-2.17,0.753,0.753,0,0,0,.6-0.63,0.53,0.53,0,0,1,.6-0.47,1.635,1.635,0,0,0,.7-0.22,20.635,20.635,0,0,1,4.2-.41l2.9,0.12a10.9,10.9,0,0,0,1.8-.18,11.144,11.144,0,0,1,1.4-.18,8,8,0,0,1,1.2.12,10.581,10.581,0,0,0,1.3.12,5.456,5.456,0,0,0,1.3-.18l0.3,0.35a1.721,1.721,0,0,1,.8.24,0.41,0.41,0,0,0,.3.18,0.943,0.943,0,0,0,.2-0.21,0.566,0.566,0,0,1,.4-0.21h0.4c0.8,0,1.2-.15,1.2-0.46v-0.18a1.633,1.633,0,0,0,.5-1.26,0.793,0.793,0,0,0-.3-0.67,0.7,0.7,0,0,0,.1-0.41h0Zm-9.9-6.48q0.3,0,.9.06c0.4,0.04.8,0.06,1,.06,2,0.53,3.3,1.24,3.8,2.15a6.485,6.485,0,0,1,.7,3.18c0,1.15-.7,1.73-2,1.73l-10.2.38h-2.1l-0.4-.15a0.458,0.458,0,0,1-.4-0.46,1.483,1.483,0,0,1,.2-0.55,7.809,7.809,0,0,0,.8-0.92c0.3-.41.7-0.87,1.1-1.39s0.9-1,1.3-1.45a14.931,14.931,0,0,1,1.4-1.2,5.8,5.8,0,0,0,1.7-.97,19.694,19.694,0,0,1,2.2-.47h0Zm74.7-15.61a2.824,2.824,0,0,0-1.2.39,2.421,2.421,0,0,1-1.1.4h-0.2a1.635,1.635,0,0,0-1.8,1.9,0.268,0.268,0,0,1,.1.3,11.406,11.406,0,0,1-.9,3.13c-0.7,1.56-1.7,3.95-3.1,7.15l-8.6,18.95a7.991,7.991,0,0,1-1.4,2.57,6.894,6.894,0,0,1-1.5,1.33,9.016,9.016,0,0,1-1.7-1.9c-0.3-.59-0.7-1.35-1.1-2.29l-1.3-3.16a40.076,40.076,0,0,1-1.7-5.22c-0.5-1.71-1-3.52-1.7-5.42-0.4-1.3-.9-2.92-1.6-4.86l-2.1-6.01c-0.6-2.18-1.1-4.05-1.4-5.59l-0.8-.41a1.88,1.88,0,0,1-1.1.41l-1.1.73a5.966,5.966,0,0,1-1.1.56,1.183,1.183,0,0,0-.7.58c0,0.08.6,0.92,1.7,2.52v0.65c0.2,0.23.8,1.44,1.9,3.61q1.5,3.27,3.6,9.38c1.3,4.07,3.1,9.89,5.3,17.47l1.3,4.63a1.047,1.047,0,0,0,1.1.74,3.994,3.994,0,0,0,2.5-.53,2.2,2.2,0,0,0,1.6-1.16,3.73,3.73,0,0,0,.7-2.15v-0.41l4.4-9.79a216.419,216.419,0,0,1,14.2-27.13,1.143,1.143,0,0,0-1.2-1.37h0Zm12.3,3.72a2.137,2.137,0,0,0-1.5.76,1.8,1.8,0,0,0-.8,1.29,4.491,4.491,0,0,0,.9,1.11,2.514,2.514,0,0,0,1.8.97,2.2,2.2,0,0,0,1.5-.72,2.084,2.084,0,0,0,.8-1.36,1.525,1.525,0,0,0-1.1-1.2,8.744,8.744,0,0,1-1.5-.85h-0.1Zm1.3,37.2a5.538,5.538,0,0,0-.9-2.75,7.586,7.586,0,0,1-.5-1.61c-0.1-.59-0.1-1.44-0.2-2.56s-0.1-2.32-.1-3.59c0-2.25.1-5.17,0.4-8.78,0.4-3.6.5-5.83,0.5-6.69,0-1.53-.2-2.29-0.7-2.29a0.984,0.984,0,0,0-.4.06l-1.7.73a11.816,11.816,0,0,0-1.7.84,1.243,1.243,0,0,0-.3.95,3.038,3.038,0,0,0,.5,1.93,2.521,2.521,0,0,1,.4,1.09v1.84l0.2,10.64c0,3.36-.1,5.65-0.2,6.88a4,4,0,0,0-.8,1.92c-0.1.87-.2,1.51-0.2,1.92a1.208,1.208,0,0,0,.5.63,1.247,1.247,0,0,0,1,.4,2.976,2.976,0,0,0,.6-0.12,2.688,2.688,0,0,1,.7-0.12h0.2a6.062,6.062,0,0,0,1.6-.51,3.362,3.362,0,0,0,1.3-.69,0.337,0.337,0,0,1-.2-0.12h0Zm18.4-2.31a5.02,5.02,0,0,1-.6-2.12,2.448,2.448,0,0,0-.5-1.81,0.837,0.837,0,0,0,.2-0.61v-0.53l0.1-13.04-0.1-11.45,0.1-8.38-0.1-3.37a5.328,5.328,0,0,1,.4-2.44,17.3,17.3,0,0,1,1.1-1.69c-0.6-1.64-1.4-2.46-2.2-2.46a2.714,2.714,0,0,0-1.5.5,3.448,3.448,0,0,0-1.2,1.42,4.571,4.571,0,0,0-.5,2.5,1.908,1.908,0,0,1,.2.56l-0.1,1.26a4.651,4.651,0,0,0,.4,1.96v1.15l0.2,6.06-0.2,4.69,0.3,6.76-0.1,1.94,0.1,2.25v6.01a62.948,62.948,0,0,1-.4,8.41,5.453,5.453,0,0,0-.4,1.38l0.1,0.96v0.53c0,0.57-.2.85-0.5,0.85v0.06c0,0.68.8,1.24,2.3,1.67a3.921,3.921,0,0,0,1-.65,0.652,0.652,0,0,0,.5.35,0.8,0.8,0,0,0,.6-0.35,1.216,1.216,0,0,0,.9-0.29,2.788,2.788,0,0,0,.5-1.14C12344.9,8765.82,12344.7,8765.51,12344.4,8765.04Zm19,0a3.962,3.962,0,0,1-.5-2.12,2.9,2.9,0,0,0-.6-1.81,0.837,0.837,0,0,0,.2-0.61v-0.53l0.1-13.04-0.1-11.45,0.1-8.38-0.1-3.37a7.141,7.141,0,0,1,.4-2.44,17.3,17.3,0,0,1,1.1-1.69c-0.6-1.64-1.3-2.46-2.2-2.46a2.714,2.714,0,0,0-1.5.5,3.448,3.448,0,0,0-1.2,1.42,4.571,4.571,0,0,0-.5,2.5,1.908,1.908,0,0,1,.2.56l-0.1,1.26a4.651,4.651,0,0,0,.4,1.96v1.15l0.2,6.06-0.2,4.69,0.3,6.76v10.2a62.948,62.948,0,0,1-.4,8.41,5.453,5.453,0,0,0-.4,1.38l0.1,0.96v0.53c0,0.57-.2.85-0.5,0.85v0.06c0,0.68.8,1.24,2.3,1.67a3.921,3.921,0,0,0,1-.65,0.652,0.652,0,0,0,.5.35,0.8,0.8,0,0,0,.6-0.35,1.8,1.8,0,0,0,1-.29,8.758,8.758,0,0,0,.4-1.14C12363.9,8765.82,12363.7,8765.51,12363.4,8765.04Zm31-13.3a0.648,0.648,0,0,0-.6-0.53,1.167,1.167,0,0,1-.8-0.55v-0.41c0-3.77-.7-6.67-2.2-8.71a7.022,7.022,0,0,0-6.1-3.04c-3.2,0-5.5.33-6.7,0.99a1.979,1.979,0,0,0-2.1,1.22,8.482,8.482,0,0,1-.4,1.24c0,0.45.3,0.68,1,.68a3.093,3.093,0,0,0,2.3-1.2,40.263,40.263,0,0,1,4.8-.24,1.164,1.164,0,0,1,.5.18,3.181,3.181,0,0,0,.5.23c3.7,1.25,5.5,3.62,5.5,7.09a3.074,3.074,0,0,1-.4,2.02,1.843,1.843,0,0,1-1,.63,11.436,11.436,0,0,1-1.6.37,21.257,21.257,0,0,0-8.5,3.9c-3.1,2.15-4.6,4.2-4.6,6.15v0.97a6.68,6.68,0,0,0,.2,1.9,7.425,7.425,0,0,0,1.3,1.33,5.846,5.846,0,0,0,2.3,1.35,9.649,9.649,0,0,0,3.1.45,10.736,10.736,0,0,0,3.3-.58,24.578,24.578,0,0,1,3.8-1.32,1.306,1.306,0,0,1,.4-0.61h0.3a1.605,1.605,0,0,0,.6-0.12,2.589,2.589,0,0,1,.4-0.12c0.2,0,.4.56,0.4,1.67a4.692,4.692,0,0,1-.2,1.76c-0.1.15-.3,0.37-0.5,0.64a6.71,6.71,0,0,0-.7,2.76,4.317,4.317,0,0,0,.3,1.46h0.1a1.708,1.708,0,0,1,.8.21,2.066,2.066,0,0,0,.6.2c0.6,0,1.7-.7,3.1-2.11l-0.1-1.26,0.1-1.43-0.3-1.56a10.6,10.6,0,0,1-.4-2.75,2.984,2.984,0,0,1,.1-1.08,0.6,0.6,0,0,0,.2-0.56l-0.1-3.96c0-1.81.1-3.18,0.1-4.11a7.6,7.6,0,0,1,.3-1.72,2.061,2.061,0,0,1,.5-0.73,0.969,0.969,0,0,0,.4-0.64v-0.06Zm-5.8,10.99a8.042,8.042,0,0,1-3.3,2.08,12.014,12.014,0,0,1-2.5.55,6.945,6.945,0,0,1-4.3-1.33,3.858,3.858,0,0,1-1.9-3.3q0-2.775,4.5-5.27h0.8a8.613,8.613,0,0,1,5.6-1.73,2.347,2.347,0,0,1,2.4,1.41,6.672,6.672,0,0,1,.6,2.61,8.171,8.171,0,0,1-1.9,4.45v0.53Zm36.1-24.85h-0.5v1.32a4.232,4.232,0,0,1-.3,1.99l-0.4-.5a26.123,26.123,0,0,1-3.5,1.21h-0.1l-3.4.9c-2.7.59-4.2,1.22-4.6,1.88a0.8,0.8,0,0,1-.5.47,15.8,15.8,0,0,0-5.3,5.08,11.891,11.891,0,0,0-1.8,6.31,12.76,12.76,0,0,0,.5,3.4,11.276,11.276,0,0,0,1.4,2.87,9.129,9.129,0,0,0,2.9,2.44,14.047,14.047,0,0,0,3.3,1.58,35.914,35.914,0,0,0,3.9.69,33.208,33.208,0,0,0,3.7.3,8.728,8.728,0,0,0,1.6-.17,6.247,6.247,0,0,1,1.4-.18,1.681,1.681,0,0,1,1.6.76v0.85a22.164,22.164,0,0,1-1.3,8.48c-0.8,1.85-1.4,2.84-1.7,2.98-0.1.74-.7,1.14-2,1.2a6.715,6.715,0,0,1-4,1.02,12.437,12.437,0,0,1-6.4-1.84,4.529,4.529,0,0,0-1.9-.79h-0.3a2.053,2.053,0,0,0-.4.85v0.64a4.641,4.641,0,0,1-.1,1c0,0.49-.1.9-0.1,1.23a1.529,1.529,0,0,0,.5,1.24,0.976,0.976,0,0,0,.7.37,3.277,3.277,0,0,0,.4-0.09,1.476,1.476,0,0,1,.4-0.09l0.5,0.06a1.1,1.1,0,0,0,.9-0.35,0.6,0.6,0,0,0,.6.29,0.968,0.968,0,0,0,.8-0.41,5.174,5.174,0,0,1,.9-0.05,13.285,13.285,0,0,1,1.7.17,10.912,10.912,0,0,0,1.7.18,22.489,22.489,0,0,0,4.5-.75c2-.5,3.3-1.47,3.8-2.92l0.1,0.06c0.7,0,1.4-1.46,2.4-4.38a40.74,40.74,0,0,0,1.4-11.7c0-2.56-.1-5.51-0.2-8.85q-0.3-5.01-.3-7.35a51.087,51.087,0,0,1,.7-10.37c-0.4-.69-1.4-1.03-3.2-1.03h0Zm-3.5,26.6a1.76,1.76,0,0,1-.7.12,17.408,17.408,0,0,1-7.2-1.17,12.734,12.734,0,0,1-4.3-3.22,7.327,7.327,0,0,1-1.7-4.69,9.8,9.8,0,0,1,.8-4.04,12.229,12.229,0,0,1,3.1-4.24,11.905,11.905,0,0,1,5.2-2.94,19.81,19.81,0,0,1,5-.76c1.8,0,2.8.67,2.8,2.02l-0.2.96,0.5,13.45c0,2.56-.6,3.84-1.7,3.84a0.592,0.592,0,0,1-.6-0.35A2.207,2.207,0,0,1,12421.2,8764.48Zm40.2-15.96a1.672,1.672,0,0,0-.1-0.52,10.428,10.428,0,0,1-.3-1.18c-0.3-2.8-1.1-4.63-2.5-5.51a7.436,7.436,0,0,0-3.9-1.32,14.447,14.447,0,0,0-2.6.28,5.8,5.8,0,0,0-2.2.69l-1-.06a2,2,0,0,0-1.2.45,5.207,5.207,0,0,1-.9.6,19.844,19.844,0,0,0-4.5,3.62,16.616,16.616,0,0,0-2.7,4.89,17.178,17.178,0,0,0-1.1,6.2,13.314,13.314,0,0,0,.9,4.67,9.208,9.208,0,0,0,3.1,3.94,17.2,17.2,0,0,0,6.4,2.47,38.51,38.51,0,0,0,5.5.93h1.6l1.8-.06,0.6,0.12a2.538,2.538,0,0,0,2-1.02,4.031,4.031,0,0,0,.8-2.41,2.939,2.939,0,0,0-.4-1.43,4.167,4.167,0,0,0-1.6.61,2.426,2.426,0,0,1-1.1.53h-1.9l-1.2.15a21.494,21.494,0,0,1-2.3.14,13.054,13.054,0,0,1-4-.57,10.653,10.653,0,0,1-3.2-1.68c-1.6-1.12-2.4-1.74-2.6-1.88a9.14,9.14,0,0,1-1.1-3.04,19.729,19.729,0,0,1-.5-2.9,9.009,9.009,0,0,1,.3-2.17,0.753,0.753,0,0,0,.6-0.63,0.6,0.6,0,0,1,.6-0.47,3.068,3.068,0,0,0,.8-0.22,18.969,18.969,0,0,1,4.1-.41l2.9,0.12a9.965,9.965,0,0,0,1.8-.18,11.144,11.144,0,0,1,1.4-.18,8,8,0,0,1,1.2.12,10.581,10.581,0,0,0,1.3.12,4.852,4.852,0,0,0,1.3-.18l0.3,0.35a1.721,1.721,0,0,1,.8.24,0.725,0.725,0,0,0,.3.18,0.943,0.943,0,0,0,.2-0.21,0.566,0.566,0,0,1,.4-0.21h0.4c0.8,0,1.3-.15,1.3-0.46a0.348,0.348,0,0,0-.1-0.18,1.633,1.633,0,0,0,.5-1.26,0.793,0.793,0,0,0-.3-0.67,0.7,0.7,0,0,0,.1-0.41h0Zm-9.9-6.48q0.3,0,.9.06c0.5,0.04.8,0.06,1,.06,2,0.53,3.3,1.24,3.8,2.15a6.485,6.485,0,0,1,.7,3.18c0,1.15-.7,1.73-2,1.73l-10.2.38h-2.1l-0.4-.15a0.458,0.458,0,0,1-.4-0.46,1.483,1.483,0,0,1,.2-0.55,7.809,7.809,0,0,0,.8-0.92c0.3-.41.7-0.87,1.1-1.39,0.5-.52.9-1,1.3-1.45,0.5-.45,1-0.85,1.4-1.2a5.8,5.8,0,0,0,1.7-.97,19.694,19.694,0,0,1,2.2-.47h0Z" transform="translate(-12136.5 -8717.12)"/>
</svg>
