<?xml version="1.0" encoding="utf-8"?>
<!-- Generator: Adobe Illustrator 24.3.0, SVG Export Plug-In . SVG Version: 6.00 Build 0)  -->
<svg version="1.1" id="レイヤー_1" xmlns="http://www.w3.org/2000/svg" xmlns:xlink="http://www.w3.org/1999/xlink" x="0px"
	 y="0px" viewBox="0 0 325.1 68.3" style="enable-background:new 0 0 325.1 68.3;" xml:space="preserve">
<style type="text/css">
	.st0{fill-rule:evenodd;clip-rule:evenodd;fill:#FFFFFF;}
</style>
<path id="Blue_Village" class="st0" d="M19.2,18.3v-0.3c0.1-1.8-0.5-3.6-1.6-5.1c-1.1-1.4-2.7-2.3-4.4-2.7c-2.8-0.6-5.6-0.9-8.4-1
	C4.2,9,3.6,8.7,3.1,8.4L2.5,9C1,9,0.3,9.6,0.3,10.7c0.1,1,0.2,2.1,0.4,3.1c0.4,2.6,0.6,5.3,0.5,8L0.9,33.5v5.7
	c0,1.1-0.1,2.2-0.1,3.2c-0.1,1.1-0.1,2.2-0.3,3.2l-0.4,3.2l0.1,1c0,0.4-0.1,0.8-0.2,1.1c0.9-0.1,1.9-0.1,2.8-0.1
	c1.2,0,2.1,0,2.6-0.1C5.6,50.9,5.8,51,6,50.9c0.3,0,0.6-0.1,0.8-0.3l0.8,0.3l0.7-0.7c0.2,0.1,0.5,0.1,0.7,0.1c0,0,0.7-0.1,2.1-0.3
	c0.9-0.1,1.8-0.3,2.7-0.7c0.3-0.1,0.5-0.3,0.7-0.5c0,0.1,0.1,0.2,0.2,0.2c0,0,0,0,0,0c0.3-0.1,0.5-0.2,0.7-0.3
	c0.3-0.2,0.7-0.5,1.1-0.9h0.6c4-2.9,5.9-6.3,5.9-10.4c0.2-2.4-0.6-4.9-2.2-6.8c-1.5-1.7-4-3.1-7.5-4.3
	C16.6,23.9,18.5,21.2,19.2,18.3L19.2,18.3L19.2,18.3z M8.9,26.2l-0.6,0.1l-0.6-0.1c-0.2,0.3-0.6,0.5-1,0.5L6,26.7l-0.4,0.1
	c-0.4,0-0.8-0.2-0.8-0.6c0,0,0,0,0,0c-0.2-0.9-0.3-1.8-0.2-2.6l-0.3-6.3c-0.1-1.6,0.1-3.2,0.5-4.8C5.1,11.4,6,10.9,6.9,11
	c0.6,0.1,1.2,0.2,1.8,0.4l2.9,0.8c0.4,0.1,0.7,0.3,1,0.6c0.9,0.7,1.6,1.6,2,2.7c0.2,0.5,0.4,1.1,0.5,1.6c0.2,0.6,0.2,1.1,0.2,1.7
	c-0.1,1.7-0.8,3.4-2,4.6c-1.3,1.4-2.2,2.2-2.7,2.2l-0.8-0.1c-0.2,0-0.5,0-0.7,0.1L8.9,26.2z M8.6,49.5c-0.4,0-0.8-0.1-1.2-0.3
	C7,49,6.5,49,6.1,49c-1.2,0-1.8-0.5-1.8-1.4l0.1-0.7l-0.1-0.7c-0.1-0.4-0.2-0.8-0.2-1.2c0-0.5,0.1-1.2,0.1-2.1
	c0.1-0.9,0.2-1.7,0.2-2.2c0-0.6-0.1-1.1-0.2-1.7c0-0.7-0.1-1.2-0.1-1.6c0-0.3,0.1-0.8,0.2-1.6c0.1-0.6,0.2-1.3,0.2-1.9l-0.1-2.3
	c0-2,0.6-3,1.9-3c0.7,0,1.3,0.3,1.7,0.9c0.3-0.2,0.6-0.5,0.9-0.7c2.9,0,5.7,1,7.9,2.9c1.9,1.5,3,3.7,3,6.1c-0.1,4-2.1,7.6-5.5,9.7
	c-1.3,0.9-2.8,1.4-4.3,1.5c-0.3,0-0.5,0-0.8-0.1L8.6,49.5z M39.7,47.9c-0.4-0.7-0.6-1.4-0.6-2.1c0-0.7-0.2-1.3-0.6-1.8
	c0.2-0.1,0.3-0.4,0.3-0.6l-0.1-0.5l0.1-13V18.4l0.1-8.4l-0.1-3.4c-0.1-0.8,0.1-1.7,0.4-2.4c0.3-0.6,0.7-1.2,1.1-1.7
	C39.6,0.8,38.9,0,38.1,0c-0.5,0-1.1,0.2-1.5,0.5c-0.5,0.4-1,0.9-1.3,1.4c-0.4,0.8-0.5,1.6-0.5,2.5C35,4.6,35.1,4.8,35.1,5l-0.2,1.3
	c0,0.7,0.2,1.3,0.4,2v1.2l0.3,6.1l-0.3,4.7l0.4,6.8l-0.1,1.9l0.1,2.2v6c0,2.8-0.1,5.6-0.5,8.4c-0.1,0.5-0.2,0.9-0.3,1.4v1.5
	c0,0.6-0.1,0.8-0.4,0.8v0.1c0,0.7,0.7,1.2,2.3,1.7c0.4-0.2,0.7-0.4,1-0.7c0.1,0.2,0.3,0.3,0.5,0.3c0.2,0,0.4-0.2,0.6-0.3
	c0.3,0,0.7-0.1,0.9-0.3c0.2-0.4,0.4-0.7,0.5-1.1C40.2,48.7,40,48.4,39.7,47.9L39.7,47.9z M72.8,23.5c-0.1,0-0.3,0-0.4,0.1
	c-0.2,0.1-0.4,0.2-0.6,0.3c-0.1,0.5,0,1.1,0.3,1.5c0.4,0.2,0.6,0.9,0.8,2.1c0.1,1.2,0.2,3.4,0.2,6.6c0,1.3-0.1,2.5-0.2,3.6
	c-0.1,1-0.3,1.9-0.6,2.9c-0.2,0.7-0.6,1.4-1,2c-0.8,1-1.9,1.9-3,2.5c-1.2,0.9-2.5,1.7-3.8,2.4c-0.5,0.3-1.1,0.5-1.7,0.7l-0.9,0
	l-0.5,0c-1.3-0.1-2.5-0.8-3.2-1.9c-1.2-1.8-1.7-3.9-1.6-6c0.1-1.6,0.3-3.1,0.6-4.7l0.9-6.3c0.2-1.7,1-3.3,2.2-4.5l0.6-0.7
	c-0.2-0.4-0.4-0.7-0.7-0.9H60c-0.4,0-0.7-0.1-1.1-0.2c-0.3-0.1-0.5-0.2-0.8-0.2c-0.5,0.1-0.9,0.2-1.3,0.4c-0.6,0.3-0.9,0.4-1.1,0.5
	c-0.2,0-0.3,0.1-0.3,0.3v0.1l0.2,0.5c0.1,0.2,0.2,0.5,0.2,0.7c0,0.1-0.1,0.9-0.4,2.5s-0.6,4.2-1.1,7.9s-0.8,5.8-0.8,6.5
	c0,1.3,0.2,2.6,0.6,3.8c0.2,0.9,0.6,1.8,1.2,2.5c0.6,0.6,1.2,1.2,1.9,1.7c0.5,0.5,1.2,0.7,1.9,0.8c0.1,0,1.6-0.2,4.3-0.6
	c0.4-0.3,0.8-0.5,1.2-0.6c1.8-1,3.5-2.2,5-3.5c1.2-1.1,2-1.7,2.5-1.7c0.6,0,1.1,0.4,1.1,1c0,0,0,0,0,0c0.1,0.5,0.1,1.1,0.1,1.7
	c0,0.2,0,0.4-0.1,0.6c-0.1,0.3-0.2,0.6-0.2,0.9c0,0.2,0.1,0.3,0.1,0.5c-0.1,0.3-0.2,0.6-0.2,0.8c0,0.5,0.4,1,0.9,1
	c0.1,0,0.2,0,0.3,0c1-0.1,2.1-0.4,3-0.8c-0.3-0.3-0.4-0.8-0.3-1.2c0-0.2,0.1-0.8,0.1-1.8c0.4-0.1,0.5-0.2,0.5-0.4
	c-0.1-0.2-0.2-0.4-0.4-0.5c-0.2-0.1-0.4-0.4-0.4-0.6c-0.1-0.2-0.1-0.8-0.3-1.8c-0.2-0.7-0.3-1.4-0.3-2.1c0-0.7,0.2-1.3,0.5-1.9
	c0.2-0.3,0.4-0.6,0.5-1c0-0.1,0-0.3-0.1-0.4c-0.6-0.8-0.9-1.7-1-2.6c-0.1-1-0.2-2-0.2-2.9c0-0.9,0.1-1.8,0.2-2.8c0.1-1,0.4-2,0.7-3
	l0.9-3.2c0-1-0.2-1.5-0.6-1.5h-0.2L75,23.1c-0.5,0.1-1,0.3-1.5,0.6C73.3,23.6,73.1,23.5,72.8,23.5L72.8,23.5L72.8,23.5z M111.1,31.4
	c0-0.2,0-0.4-0.1-0.5c-0.1-0.4-0.2-0.8-0.3-1.2c-0.3-2.8-1.1-4.6-2.5-5.5c-1.2-0.8-2.6-1.2-4-1.3c-0.8,0-1.7,0.1-2.5,0.3
	c-0.8,0.1-1.6,0.3-2.3,0.7l-0.9-0.1c-0.4,0-0.9,0.2-1.2,0.5c-0.3,0.2-0.6,0.4-0.9,0.6c-1.7,1-3.2,2.2-4.5,3.6
	c-1.2,1.5-2.1,3.1-2.7,4.9c-0.8,2-1.2,4.1-1.2,6.2c0.1,1.6,0.4,3.2,1,4.7c0.6,1.6,1.7,2.9,3.1,3.9c1.9,1.3,4.1,2.1,6.4,2.5
	c1.8,0.5,3.6,0.8,5.5,0.9h1.6l1.8-0.1l0.6,0.1c0.8,0,1.5-0.4,1.9-1c0.6-0.7,0.9-1.5,0.9-2.4c0-0.5-0.1-1-0.4-1.4
	c-0.6,0.1-1.1,0.3-1.6,0.6c-0.3,0.3-0.7,0.5-1.1,0.5h-1.9l-1.2,0.2c-0.8,0.1-1.5,0.1-2.3,0.1c-1.4,0-2.7-0.2-4-0.6
	c-1.2-0.4-2.2-0.9-3.2-1.7c-1.6-1.1-2.5-1.7-2.6-1.9c-0.6-0.9-1-2-1.1-3c-0.2-1-0.4-1.9-0.5-2.9c0-0.7,0.1-1.5,0.3-2.2
	c0.3-0.1,0.6-0.3,0.6-0.6c0-0.3,0.3-0.5,0.6-0.5c0,0,0,0,0,0c0.2,0,0.5-0.1,0.7-0.2c1.4-0.3,2.8-0.4,4.2-0.4l2.9,0.1
	c0.6,0,1.2-0.1,1.8-0.2c0.5-0.1,0.9-0.1,1.4-0.2c0.4,0,0.8,0,1.2,0.1c0.4,0.1,0.9,0.1,1.3,0.1c0.4,0,0.9-0.1,1.3-0.2l0.3,0.3
	c0.3,0,0.6,0.1,0.8,0.2c0.1,0.1,0.2,0.2,0.3,0.2c0.1-0.1,0.1-0.1,0.2-0.2c0.1-0.1,0.2-0.2,0.4-0.2h0.4c0.8,0,1.2-0.2,1.2-0.5v-0.2
	c0.3-0.3,0.5-0.8,0.5-1.3c0-0.3-0.1-0.5-0.3-0.7C111.1,31.7,111.1,31.5,111.1,31.4L111.1,31.4L111.1,31.4z M101.2,24.9
	c0.2,0,0.5,0,0.9,0.1c0.4,0,0.8,0.1,1,0.1c2,0.5,3.3,1.2,3.8,2.2c0.5,1,0.7,2.1,0.7,3.2c0,1.2-0.7,1.7-2,1.7l-10.2,0.4h-2.1
	l-0.4-0.2c-0.2,0-0.4-0.2-0.4-0.5c0-0.2,0.1-0.4,0.2-0.5c0.3-0.3,0.6-0.6,0.8-0.9c0.3-0.4,0.7-0.9,1.1-1.4s0.9-1,1.3-1.5
	c0.4-0.4,0.9-0.8,1.4-1.2c0.6-0.2,1.2-0.6,1.7-1C99.7,25.2,100.5,25,101.2,24.9L101.2,24.9z M175.9,9.3c-0.4,0-0.8,0.2-1.2,0.4
	c-0.3,0.2-0.7,0.4-1.1,0.4h-0.2c-0.9-0.1-1.7,0.5-1.8,1.4c0,0.2,0,0.3,0,0.5c0.1,0.1,0.1,0.2,0.1,0.3c-0.1,1.1-0.5,2.1-0.9,3.1
	c-0.7,1.6-1.7,4-3.1,7.2l-8.6,19c-0.3,0.9-0.8,1.8-1.4,2.6c-0.4,0.5-0.9,1-1.5,1.3c-0.7-0.5-1.2-1.2-1.7-1.9
	c-0.3-0.6-0.7-1.3-1.1-2.3l-1.3-3.2c-0.7-1.7-1.3-3.4-1.7-5.2c-0.5-1.7-1-3.5-1.7-5.4c-0.4-1.3-0.9-2.9-1.6-4.9l-2.1-6
	c-0.6-2.2-1.1-4-1.4-5.6l-0.8-0.4c-0.3,0.3-0.7,0.4-1.1,0.4l-1.1,0.7c-0.3,0.2-0.7,0.4-1.1,0.6c-0.3,0.1-0.6,0.3-0.7,0.6
	c0,0.1,0.6,0.9,1.7,2.5V16c0.2,0.2,0.8,1.4,1.9,3.6c1,2.2,2.2,5.3,3.6,9.4c1.3,4.1,3.1,9.9,5.3,17.5l1.3,4.6
	c0.1,0.5,0.6,0.8,1.1,0.7c0.9,0.1,1.7-0.1,2.5-0.5c0.7-0.1,1.3-0.5,1.6-1.2c0.5-0.6,0.7-1.4,0.7-2.2v-0.4l4.4-9.8
	c4.1-9.4,8.8-18.4,14.2-27.1c0.1-0.6-0.3-1.2-0.9-1.3C176.1,9.3,176,9.3,175.9,9.3L175.9,9.3L175.9,9.3z M188.2,13
	c-0.6,0-1.1,0.3-1.5,0.8c-0.4,0.3-0.7,0.8-0.8,1.3c0.2,0.4,0.5,0.8,0.9,1.1c0.4,0.6,1.1,0.9,1.8,1c0.6,0,1.1-0.3,1.5-0.7
	c0.4-0.3,0.7-0.8,0.8-1.4c-0.1-0.6-0.5-1-1.1-1.2c-0.5-0.2-1-0.5-1.5-0.8H188.2L188.2,13z M189.5,50.2c-0.1-1-0.4-1.9-0.9-2.8
	c-0.2-0.5-0.4-1.1-0.5-1.6c-0.1-0.6-0.1-1.4-0.2-2.6s-0.1-2.3-0.1-3.6c0-2.2,0.1-5.2,0.4-8.8c0.4-3.6,0.5-5.8,0.5-6.7
	c0-1.5-0.2-2.3-0.7-2.3c-0.1,0-0.3,0-0.4,0.1l-1.7,0.7c-0.6,0.2-1.2,0.5-1.7,0.8c-0.2,0.3-0.3,0.6-0.3,1c-0.1,0.7,0.1,1.4,0.5,1.9
	c0.2,0.3,0.4,0.7,0.4,1.1v1.8L185,40c0,3.4-0.1,5.7-0.2,6.9c-0.4,0.6-0.7,1.2-0.8,1.9c-0.1,0.9-0.2,1.5-0.2,1.9
	c0.1,0.3,0.3,0.5,0.5,0.6c0.3,0.3,0.6,0.4,1,0.4c0.2,0,0.4-0.1,0.6-0.1c0.2-0.1,0.5-0.1,0.7-0.1h0.2c0.6-0.1,1.1-0.3,1.6-0.5
	c0.5-0.1,0.9-0.4,1.3-0.7C189.6,50.3,189.5,50.3,189.5,50.2L189.5,50.2L189.5,50.2z M207.9,47.9c-0.4-0.7-0.6-1.4-0.6-2.1
	c0.1-0.6-0.1-1.3-0.5-1.8c0.1-0.2,0.2-0.4,0.2-0.6v-0.5l0.1-13L207,18.4l0.1-8.4L207,6.6c-0.1-0.8,0.1-1.7,0.4-2.4
	c0.3-0.6,0.7-1.1,1.1-1.7c-0.6-1.6-1.4-2.5-2.2-2.5c-0.5,0-1.1,0.2-1.5,0.5c-0.5,0.4-0.9,0.8-1.2,1.4c-0.4,0.8-0.6,1.6-0.5,2.5
	c0.1,0.2,0.2,0.4,0.2,0.6l-0.1,1.3c0,0.7,0.1,1.3,0.4,2v1.2l0.2,6.1l-0.2,4.7l0.3,6.8l-0.1,1.9l0.1,2.2v6c0.1,2.8-0.1,5.6-0.4,8.4
	c-0.2,0.4-0.3,0.9-0.4,1.4l0.1,1v0.5c0,0.6-0.2,0.8-0.5,0.8v0.1c0,0.7,0.8,1.2,2.3,1.7c0.4-0.2,0.7-0.4,1-0.7
	c0.1,0.2,0.3,0.3,0.5,0.3c0.2,0,0.5-0.1,0.6-0.3c0.3,0,0.7-0.1,0.9-0.3c0.2-0.3,0.4-0.7,0.5-1.1C208.4,48.7,208.2,48.4,207.9,47.9
	L207.9,47.9z M226.9,47.9c-0.4-0.6-0.5-1.4-0.5-2.1c0-0.7-0.2-1.3-0.6-1.8c0.1-0.2,0.2-0.4,0.2-0.6v-0.5l0.1-13L226,18.4l0.1-8.4
	L226,6.6c0-0.8,0.1-1.7,0.4-2.4c0.3-0.6,0.7-1.1,1.1-1.7c-0.6-1.6-1.3-2.5-2.2-2.5c-0.5,0-1.1,0.2-1.5,0.5c-0.5,0.4-0.9,0.8-1.2,1.4
	c-0.4,0.8-0.6,1.6-0.5,2.5c0.1,0.2,0.2,0.4,0.2,0.6l-0.1,1.3c0,0.7,0.1,1.3,0.4,2v1.2l0.2,6.1l-0.2,4.7l0.3,6.8v10.2
	c0.1,2.8-0.1,5.6-0.4,8.4c-0.2,0.4-0.3,0.9-0.4,1.4l0.1,1v0.5c0,0.6-0.2,0.8-0.5,0.8v0.1c0,0.7,0.8,1.2,2.3,1.7
	c0.4-0.2,0.7-0.4,1-0.7c0.1,0.2,0.3,0.3,0.5,0.3c0.2,0,0.5-0.1,0.6-0.3c0.4,0,0.7-0.1,1-0.3c0.2-0.4,0.3-0.8,0.4-1.1
	C227.4,48.7,227.2,48.4,226.9,47.9L226.9,47.9z M257.9,34.6c-0.1-0.3-0.3-0.5-0.6-0.5c-0.3-0.1-0.6-0.3-0.8-0.5v-0.4
	c0-3.8-0.7-6.7-2.2-8.7c-1.4-2-3.7-3.1-6.1-3c-3.2,0-5.5,0.3-6.7,1c-0.9-0.1-1.8,0.4-2.1,1.2c-0.1,0.4-0.2,0.8-0.4,1.2
	c0,0.5,0.3,0.7,1,0.7c0.9,0,1.7-0.5,2.3-1.2c1.6-0.2,3.2-0.3,4.8-0.2c0.2,0,0.3,0.1,0.5,0.2c0.2,0.1,0.3,0.2,0.5,0.2
	c3.7,1.2,5.5,3.6,5.5,7.1c0.1,0.7,0,1.4-0.4,2c-0.3,0.3-0.6,0.5-1,0.6c-0.5,0.2-1.1,0.3-1.6,0.4c-3.1,0.7-6,2-8.5,3.9
	c-3.1,2.2-4.6,4.2-4.6,6.2v1c0,0.6,0,1.3,0.2,1.9c0.4,0.5,0.8,0.9,1.3,1.3c0.7,0.6,1.4,1.1,2.3,1.3c1,0.3,2,0.5,3.1,0.5
	c1.1,0,2.2-0.2,3.3-0.6c1.2-0.5,2.5-1,3.8-1.3c0.1-0.2,0.2-0.4,0.4-0.6h0.3c0.2,0,0.4,0,0.6-0.1c0.1-0.1,0.3-0.1,0.4-0.1
	c0.2,0,0.4,0.6,0.4,1.7c0,0.6,0,1.2-0.2,1.8c-0.1,0.2-0.3,0.4-0.5,0.6c-0.4,0.9-0.7,1.8-0.7,2.8c0,0.5,0.1,1,0.3,1.5h0.1
	c0.3,0,0.6,0.1,0.8,0.2c0.2,0.1,0.4,0.2,0.6,0.2c0.6,0,1.7-0.7,3.1-2.1l-0.1-1.3l0.1-1.4l-0.3-1.6c-0.3-0.9-0.4-1.8-0.4-2.8
	c0-0.4,0-0.7,0.1-1.1c0.2-0.1,0.2-0.4,0.2-0.6l-0.1-4c0-1.8,0.1-3.2,0.1-4.1c0-0.6,0.1-1.2,0.3-1.7c0.1-0.3,0.3-0.5,0.5-0.7
	C257.7,35.2,257.9,34.9,257.9,34.6L257.9,34.6L257.9,34.6z M252.1,45.6c-0.9,1-2,1.7-3.3,2.1c-0.8,0.3-1.6,0.5-2.5,0.5
	c-1.5,0-3.1-0.4-4.3-1.3c-1.2-0.7-1.9-1.9-1.9-3.3c0-1.8,1.5-3.6,4.5-5.3h0.8c1.6-1.2,3.6-1.8,5.6-1.7c1-0.1,2,0.5,2.4,1.4
	c0.4,0.8,0.6,1.7,0.6,2.6c-0.2,1.6-0.8,3.2-1.9,4.5L252.1,45.6L252.1,45.6z M288.2,20.8h-0.5v1.3c0.1,0.7,0,1.4-0.3,2l-0.4-0.5
	c-1.1,0.5-2.3,0.9-3.5,1.2h-0.1l-3.4,0.9c-2.7,0.6-4.2,1.2-4.6,1.9c-0.1,0.2-0.3,0.4-0.5,0.5c-2.1,1.3-4,3-5.3,5.1
	c-1.2,1.9-1.8,4.1-1.8,6.3c0,1.2,0.2,2.3,0.5,3.4c0.3,1,0.8,2,1.4,2.9c0.8,1,1.8,1.8,2.9,2.4c1,0.7,2.1,1.2,3.3,1.6
	c1.3,0.3,2.6,0.5,3.9,0.7c1.2,0.2,2.5,0.3,3.7,0.3c0.5,0,1.1-0.1,1.6-0.2c0.5-0.1,0.9-0.2,1.4-0.2c0.6-0.1,1.3,0.2,1.6,0.8V52
	c0.1,2.9-0.3,5.8-1.3,8.5c-0.8,1.8-1.4,2.8-1.7,3c-0.1,0.7-0.7,1.1-2,1.2c-1.2,0.8-2.6,1.1-4,1c-2.3,0-4.5-0.7-6.4-1.8
	c-0.6-0.4-1.2-0.7-1.9-0.8h-0.3c-0.2,0.2-0.3,0.5-0.4,0.8v0.6c0,0.3,0,0.7-0.1,1c0,0.5-0.1,0.9-0.1,1.2c0,0.5,0.2,0.9,0.5,1.2
	c0.2,0.2,0.4,0.4,0.7,0.4c0.1,0,0.3-0.1,0.4-0.1c0.1,0,0.3-0.1,0.4-0.1l0.5,0.1c0.3,0,0.7-0.1,0.9-0.3c0.1,0.2,0.4,0.3,0.6,0.3
	c0.3,0,0.6-0.2,0.8-0.4c0.3,0,0.6-0.1,0.9,0c0.6,0,1.1,0.1,1.7,0.2c0.6,0.1,1.1,0.2,1.7,0.2c1.5-0.1,3-0.3,4.5-0.8
	c2-0.5,3.3-1.5,3.8-2.9l0.1,0.1c0.7,0,1.4-1.5,2.4-4.4c1-3.8,1.5-7.8,1.4-11.7c0-2.6-0.1-5.5-0.2-8.8c-0.2-3.3-0.3-5.8-0.3-7.3
	c-0.1-3.5,0.1-6.9,0.7-10.4C291,21.1,290,20.8,288.2,20.8L288.2,20.8L288.2,20.8z M284.7,47.4c-0.2,0.1-0.5,0.1-0.7,0.1
	c-2.5,0.1-4.9-0.3-7.2-1.2c-1.6-0.8-3.1-1.9-4.3-3.2c-1.1-1.3-1.7-3-1.7-4.7c0-1.4,0.2-2.8,0.8-4c0.7-1.6,1.8-3.1,3.1-4.2
	c1.5-1.4,3.2-2.4,5.2-2.9c1.6-0.5,3.3-0.7,5-0.8c1.8,0,2.8,0.7,2.8,2l-0.2,1l0.5,13.5c0,2.6-0.6,3.8-1.7,3.8c-0.3,0-0.5-0.1-0.6-0.3
	C285.5,46.8,285.1,47.1,284.7,47.4L284.7,47.4z M324.9,31.4c0-0.2,0-0.4-0.1-0.5c-0.1-0.4-0.2-0.8-0.3-1.2c-0.3-2.8-1.1-4.6-2.5-5.5
	c-1.2-0.8-2.5-1.3-3.9-1.3c-0.9,0-1.7,0.1-2.6,0.3c-0.8,0.1-1.5,0.3-2.2,0.7l-1-0.1c-0.4,0-0.9,0.2-1.2,0.5
	c-0.3,0.2-0.6,0.4-0.9,0.6c-1.7,1-3.2,2.2-4.5,3.6c-1.2,1.5-2.1,3.1-2.7,4.9c-0.7,2-1.1,4.1-1.1,6.2c0,1.6,0.3,3.2,0.9,4.7
	c0.6,1.6,1.7,2.9,3.1,3.9c1.9,1.2,4.1,2.1,6.4,2.5c1.8,0.4,3.6,0.8,5.5,0.9h1.6l1.8-0.1l0.6,0.1c0.8,0,1.5-0.4,2-1
	c0.5-0.7,0.8-1.5,0.8-2.4c0-0.5-0.1-1-0.4-1.4c-0.6,0.1-1.1,0.3-1.6,0.6c-0.3,0.3-0.7,0.5-1.1,0.5h-1.9l-1.2,0.2
	c-0.8,0.1-1.5,0.1-2.3,0.1c-1.4,0-2.7-0.2-4-0.6c-1.2-0.4-2.2-0.9-3.2-1.7c-1.6-1.1-2.4-1.7-2.6-1.9c-0.5-0.9-0.9-2-1.1-3
	c-0.2-1-0.4-1.9-0.5-2.9c0-0.7,0.1-1.5,0.3-2.2c0.3-0.1,0.6-0.3,0.6-0.6c0.1-0.3,0.3-0.5,0.6-0.5c0.3,0,0.5-0.1,0.8-0.2
	c1.3-0.3,2.7-0.4,4.1-0.4l2.9,0.1c0.6,0,1.2-0.1,1.8-0.2c0.5-0.1,0.9-0.1,1.4-0.2c0.4,0,0.8,0,1.2,0.1c0.4,0.1,0.9,0.1,1.3,0.1
	c0.4,0,0.9-0.1,1.3-0.2l0.3,0.3c0.3,0,0.6,0.1,0.8,0.2c0.1,0.1,0.2,0.1,0.3,0.2c0.1-0.1,0.1-0.1,0.2-0.2c0.1-0.1,0.2-0.2,0.4-0.2
	h0.4c0.8,0,1.3-0.2,1.3-0.5c0-0.1,0-0.1-0.1-0.2c0.3-0.3,0.5-0.8,0.5-1.3c0-0.3-0.1-0.5-0.3-0.7C324.9,31.7,324.9,31.5,324.9,31.4
	L324.9,31.4L324.9,31.4z M315,24.9c0.2,0,0.5,0,0.9,0.1c0.5,0,0.8,0.1,1,0.1c2,0.5,3.3,1.2,3.8,2.2c0.5,1,0.7,2.1,0.7,3.2
	c0,1.2-0.7,1.7-2,1.7l-10.2,0.4h-2.1l-0.4-0.2c-0.2,0-0.4-0.2-0.4-0.5c0-0.2,0.1-0.4,0.2-0.5c0.3-0.3,0.6-0.6,0.8-0.9
	c0.3-0.4,0.7-0.9,1.1-1.4c0.5-0.5,0.9-1,1.3-1.5c0.5-0.5,1-0.8,1.4-1.2c0.6-0.2,1.2-0.6,1.7-1C313.5,25.2,314.3,25,315,24.9
	L315,24.9z"/>
</svg>
