<?xml version="1.0" encoding="utf-8"?>
<!-- Generator: Adobe Illustrator 22.1.0, SVG Export Plug-In . SVG Version: 6.00 Build 0)  -->
<svg version="1.1" id="レイヤー_1" xmlns="http://www.w3.org/2000/svg" xmlns:xlink="http://www.w3.org/1999/xlink" x="0px"
	 y="0px" viewBox="0 0 882.5 387.1" style="enable-background:new 0 0 882.5 387.1;" xml:space="preserve">
<style type="text/css">
	.st0{fill:#171C61;}
</style>
<g>
	<path class="st0" d="M24.1,311.1c6.3,2.2,10.8,4.8,13.5,7.8c2.7,3,4.1,7.1,4.1,12.2c0,7.3-3.6,13.6-10.8,18.8h-1.2
		c-0.6,0.7-1.3,1.2-1.9,1.6c-0.7,0.4-1.1,0.6-1.2,0.6c-0.2,0-0.3-0.1-0.5-0.4c0,0.2-0.4,0.5-1.2,0.9c-0.8,0.4-2.5,0.8-4.9,1.2
		c-2.5,0.4-3.7,0.6-3.8,0.6c-0.6,0-1,0-1.2-0.1l-1.2,1.2l-1.5-0.5c-0.5,0.4-1,0.5-1.5,0.5s-0.9-0.1-1.1-0.2
		c-0.9,0.1-2.4,0.2-4.7,0.2c-2.2,0-3.9,0.1-5,0.2c0.2-0.4,0.3-1.1,0.3-2l-0.1-1.9l0.7-5.8c0.2-1.9,0.4-3.9,0.5-5.9
		c0.1-2,0.2-3.9,0.2-5.9c0-1.9,0.1-4.2,0.1-6.6v-3.7l0.5-21.1c0-6.6-0.3-11.5-0.9-14.5c-0.6-3-0.9-4.9-0.9-5.6
		c0-2.1,1.4-3.1,4.1-3.1l1.1-1.1c0.9,0.6,1.9,1.1,3.1,1.4c6.5,0.4,11.5,1,15.1,1.8c3.6,0.9,6.3,2.5,8.1,4.8c1.8,2.4,2.7,5.4,2.7,9.2
		v0.6C33.6,301.6,30.1,306.6,24.1,311.1z M16.6,351.8c0.4,0.1,0.9,0.1,1.5,0.1c2.1,0,4.7-0.9,7.8-2.8c3.1-1.8,5.5-4.4,7.3-7.6
		c1.8-3.2,2.7-6.6,2.7-10c0-4.2-1.8-7.8-5.3-11c-3.5-3.1-8.4-4.9-14.5-5.2c-0.3,0.2-0.8,0.6-1.5,1.2c-0.9-1-2-1.5-3.1-1.5
		c-2.3,0-3.4,1.8-3.4,5.5l0.1,4.3c0,0.9-0.1,2-0.3,3.4c-0.2,1.4-0.3,2.3-0.3,2.8c0,0.6,0.1,1.6,0.2,2.9c0.1,1.3,0.2,2.3,0.2,3
		c0,0.9-0.1,2.2-0.2,3.9c-0.1,1.7-0.2,3-0.2,3.8c0,0.5,0.1,1.3,0.3,2.2l0.3,1.3l-0.2,1.3c0,1.7,1.1,2.5,3.3,2.5
		c0.7,0,1.5,0.2,2.4,0.5c0.9,0.3,1.6,0.5,2,0.5L16.6,351.8z M16.4,309.6c0.3-0.1,0.7-0.1,1.2-0.1l1.5,0.1c0.9,0,2.5-1.3,5-3.9
		c2.4-2.6,3.6-5.4,3.6-8.4c0-1.1-0.1-2.1-0.3-3.1c-0.2-1-0.5-2-1-2.9c-0.4-0.9-0.9-1.8-1.6-2.7c-0.6-0.9-1.3-1.6-2-2.2
		c-0.7-0.6-1.4-1-1.9-1.1l-5.2-1.5c-1.7-0.5-2.8-0.7-3.3-0.7c-2,0-3.2,0.8-3.8,2.5c-0.6,1.6-0.8,4.5-0.8,8.6l0.5,11.4
		c0,2.4,0.1,4,0.3,4.8c0.2,0.8,0.7,1.2,1.6,1.2l0.7-0.1l1.3,0.2c0.8,0,1.4-0.3,1.7-1l1.2,0.1l1.1-0.1L16.4,309.6z"/>
	<path class="st0" d="M66.5,351.8c-0.3,1.1-0.6,1.8-0.8,2.1c-0.2,0.3-0.8,0.5-1.7,0.5c-0.4,0.4-0.8,0.6-1.2,0.6
		c-0.3,0-0.6-0.2-0.9-0.6c-0.5,0.5-1.1,0.8-1.8,1.2c-2.8-0.8-4.1-1.8-4.1-3v-0.1c0.6,0,0.8-0.5,0.8-1.5v-1l-0.1-1.8
		c0-0.2,0.2-1.1,0.6-2.5c0.5-3.8,0.8-8.8,0.8-15.2v-10.9l-0.1-4.1l0.1-3.5l-0.6-12.3l0.4-8.5l-0.4-11v-2.1c-0.5-1.2-0.7-2.4-0.7-3.6
		l0.2-2.3c0-0.2-0.1-0.6-0.4-1c0-1.9,0.3-3.4,0.9-4.5c0.6-1.1,1.4-2,2.3-2.6c0.9-0.6,1.8-0.9,2.7-0.9c1.5,0,2.9,1.5,4,4.5
		c-0.8,1-1.5,2-2,3.1c-0.5,1-0.7,2.5-0.7,4.4l0.2,6.1l-0.2,15.2l0.1,20.8l-0.2,23.6l0.1,1c0,0.6-0.1,0.9-0.4,1.1
		c0.5,0.5,0.9,1.5,1,3.3c0.2,1.7,0.5,3,1.1,3.9C66,350.9,66.3,351.5,66.5,351.8z"/>
	<path class="st0" d="M120.2,306.2c0.6-0.5,1.5-0.8,2.6-1.1l3.2-0.7h0.4c0.7,0,1.1,0.9,1.1,2.7l-1.8,5.7c-0.6,1.9-1,3.7-1.2,5.5
		c-0.2,1.7-0.4,3.4-0.4,5c0,1.6,0.1,3.4,0.4,5.2c0.2,1.8,0.9,3.4,1.9,4.7c0.1,0.2,0.1,0.4,0.1,0.7c0,0.4-0.3,1-0.9,1.8
		c-0.6,0.9-0.9,2-0.9,3.5c0,0.8,0.2,2,0.5,3.8c0.3,1.8,0.5,2.8,0.5,3.2c0,0.4,0.3,0.8,0.8,1.2c0.5,0.4,0.8,0.6,0.8,0.8
		c0,0.3-0.3,0.5-0.8,0.7c-0.1,1.7-0.2,2.8-0.2,3.2c0,1.3,0.2,2,0.5,2.2c-2.4,1-4.3,1.5-5.5,1.5c-1.5,0-2.2-0.6-2.2-1.8
		c0-0.4,0.1-0.9,0.4-1.5c-0.1-0.2-0.2-0.5-0.2-0.8c0-0.7,0.1-1.2,0.3-1.6c0.2-0.4,0.3-0.8,0.3-1.2c0-0.7-0.1-1.7-0.3-3
		c-0.2-1.3-0.9-1.9-2-1.9c-0.8,0-2.3,1-4.6,3c-3.4,3-6.3,5.1-8.9,6.4c-1.1,0.4-1.8,0.8-2.2,1.1c-5,0.8-7.6,1.2-7.9,1.2
		c-0.9,0-2-0.5-3.4-1.5c-1.4-1-2.5-2-3.4-3c-0.9-1-1.6-2.5-2.3-4.6c-0.7-2.1-1-4.4-1-7c0-1.1,0.4-5,1.3-11.7
		c0.9-6.7,1.6-11.5,2.1-14.4c0.5-2.9,0.7-4.4,0.7-4.5c0-0.3-0.1-0.7-0.4-1.3l-0.4-0.9v-0.2c0-0.2,0.2-0.4,0.5-0.5
		c0.4-0.1,1-0.4,2-0.9c1-0.5,1.8-0.7,2.4-0.7c0.2,0,0.7,0.1,1.5,0.4s1.4,0.4,1.9,0.4H96c0.7,0.5,1.1,1.1,1.3,1.6l-1.1,1.3
		c-2,1.8-3.3,4.6-3.9,8.2l-1.7,11.4c-0.7,4-1,6.8-1,8.5c0,5,1,8.6,2.9,10.9c1.9,2.3,3.8,3.5,5.7,3.5l0.9-0.1l1.6,0.1
		c0.5,0,1.6-0.4,3.1-1.2c1.6-0.8,3.9-2.2,6.9-4.3c3-2.1,4.9-3.6,5.5-4.6c0.7-1,1.2-2.2,1.7-3.7c0.5-1.5,0.9-3.2,1.1-5.2
		c0.2-1.9,0.4-4.1,0.4-6.5c0-6-0.1-10-0.4-12c-0.3-2.1-0.7-3.3-1.4-3.7c-0.5-0.4-0.7-1.3-0.7-2.8c0.6-0.2,1-0.4,1.2-0.6
		c0.2-0.2,0.5-0.2,0.7-0.2C119.3,305.7,119.7,305.9,120.2,306.2z"/>
	<path class="st0" d="M181.7,320.9c0.3,0.3,0.4,0.7,0.4,1.2c0,1-0.3,1.8-0.9,2.3c0.1,0,0.1,0.1,0.1,0.3c0,0.6-0.8,0.8-2.3,0.8h-0.7
		c-0.2,0-0.4,0.1-0.6,0.4c-0.2,0.2-0.4,0.4-0.5,0.4c0,0-0.2-0.1-0.5-0.3c-0.3-0.2-0.8-0.4-1.4-0.4l-0.6-0.6
		c-0.8,0.2-1.5,0.3-2.3,0.3c-0.6,0-1.4-0.1-2.4-0.2c-1-0.1-1.7-0.2-2.2-0.2c-0.4,0-1.2,0.1-2.5,0.3c-1.3,0.2-2.4,0.3-3.3,0.3
		l-5.2-0.2c-2.8,0-5.3,0.2-7.6,0.7c-0.3,0.2-0.8,0.3-1.4,0.4c-0.6,0.1-1,0.4-1,0.9c-0.1,0.5-0.4,0.9-1.1,1.1
		c-0.4,1.5-0.5,2.8-0.5,3.9c0,0.9,0.3,2.7,0.8,5.3c0.5,2.6,1.2,4.4,2.1,5.5c0.2,0.2,1.7,1.4,4.6,3.4c1.8,1.3,3.8,2.4,5.9,3.1
		c2.1,0.7,4.5,1,7.3,1c1.1,0,2.5-0.1,4.1-0.3l2.2-0.3h3.5c0.4,0,1-0.3,2-1c1-0.6,2-1,2.9-1.1c0.4,1,0.6,1.9,0.6,2.6
		c0,1.7-0.5,3.1-1.5,4.4c-1,1.2-2.2,1.9-3.5,1.9l-1.1-0.2l-3.3,0.1h-2.9c-1.3,0-4.7-0.6-9.9-1.7s-9.2-2.6-11.7-4.5
		c-2.5-1.8-4.4-4.2-5.5-7.1c-1.2-2.9-1.8-5.7-1.8-8.5c0-3.7,0.7-7.4,2.1-11.2c1.4-3.8,3-6.8,4.8-8.9c1.8-2.1,4.5-4.3,8.2-6.6
		c0.4-0.2,0.9-0.5,1.6-1.1c0.7-0.5,1.4-0.8,2.1-0.8l1.8,0.1c0.7-0.5,2.1-0.9,4-1.2c1.9-0.3,3.5-0.5,4.7-0.5c2.2,0,4.5,0.8,7.1,2.4
		c2.6,1.6,4.1,4.9,4.6,10c0.1,0.9,0.3,1.6,0.5,2.2c0.2,0.5,0.3,0.9,0.3,0.9C181.9,320.3,181.8,320.6,181.7,320.9z M159.9,309.2
		c-0.2,0.3-1.2,0.9-3,1.8c-0.9,0.6-1.7,1.4-2.5,2.2c-0.8,0.8-1.6,1.7-2.4,2.6c-0.8,0.9-1.5,1.8-2,2.5c-0.6,0.7-1,1.3-1.4,1.7
		c-0.3,0.4-0.5,0.7-0.5,1c0,0.4,0.2,0.7,0.7,0.8l0.7,0.3h3.9l18.5-0.7c2.4,0,3.6-1,3.6-3.1c0-2.2-0.4-4.1-1.3-5.8
		c-0.9-1.6-3.1-2.9-6.8-3.9c-0.4,0-1,0-1.8-0.1c-0.8-0.1-1.3-0.1-1.7-0.1C163.5,308.4,162.2,308.7,159.9,309.2z"/>
	<path class="st0" d="M288.4,282.6c-8.3,13.1-16.8,29.5-25.7,49.2l-8,17.7v0.7c0,1.3-0.4,2.6-1.3,3.9c-0.9,1.3-1.8,2-2.9,2.1
		c-0.7,0.6-2.2,1-4.6,1c-1,0-1.7-0.4-1.9-1.3l-2.4-8.4c-4-13.7-7.3-24.3-9.7-31.7c-2.4-7.4-4.6-13-6.5-17c-1.9-3.9-3-6.1-3.3-6.6
		v-1.2c-2.1-2.9-3.1-4.4-3.1-4.6c0-0.3,0.4-0.7,1.3-1.1c0.8-0.4,1.5-0.7,1.9-1l2.1-1.3c0.8-0.1,1.5-0.4,2-0.7l1.5,0.7
		c0.5,2.8,1.3,6.2,2.5,10.2l3.7,10.9c1.2,3.5,2.2,6.4,3,8.8c1.1,3.4,2.1,6.7,3,9.8c1.1,4.1,2.2,7.3,3.1,9.5l2.3,5.7
		c0.7,1.7,1.4,3.1,2.1,4.1c0.9,1.4,1.8,2.5,3,3.5c1-0.6,1.9-1.4,2.8-2.4c0.9-1,1.7-2.6,2.6-4.6l15.5-34.4c2.6-5.8,4.5-10.1,5.6-13
		s1.7-4.7,1.7-5.7c0-0.3,0-0.5-0.1-0.5c0-2.3,1.1-3.5,3.1-3.5h0.5c0.4,0,1.1-0.2,2-0.7c0.9-0.5,1.6-0.7,2.1-0.7
		C287.7,280.1,288.4,280.9,288.4,282.6z"/>
	<path class="st0" d="M304.7,354.5c0,0.2-0.8,0.6-2.3,1.2c-1.5,0.6-2.5,0.9-2.9,0.9h-0.3c-0.4,0-0.8,0.1-1.4,0.2
		c-0.6,0.1-0.9,0.2-1.1,0.2c-0.7,0-1.3-0.2-1.8-0.7c-0.5-0.5-0.8-0.9-0.8-1.1c0-0.7,0.1-1.9,0.4-3.5c0.3-1.6,0.7-2.7,1.3-3.5
		c0.3-2.2,0.4-6.4,0.4-12.5l-0.4-19.3l0.1-3.3c0-0.4-0.3-1-0.9-2c-0.6-1-0.9-2.1-0.9-3.5c0-0.8,0.2-1.4,0.7-1.7
		c0.4-0.3,1.5-0.8,3.1-1.5l3-1.3c0.1-0.1,0.4-0.1,0.6-0.1c0.9,0,1.3,1.4,1.3,4.1c0,1.6-0.3,5.6-0.8,12.1c-0.5,6.5-0.8,11.8-0.8,15.9
		c0,2.3,0.1,4.5,0.2,6.5c0.1,2,0.3,3.6,0.4,4.6c0.1,1.1,0.5,2,1,2.9c1,1.8,1.5,3.5,1.5,5C304.5,354.3,304.6,354.4,304.7,354.5z
		 M302.3,286.8c0.6,0.4,1.5,0.9,2.8,1.5c1.3,0.6,1.9,1.3,1.9,2.2c0,0.8-0.5,1.6-1.4,2.5c-0.9,0.9-1.8,1.3-2.8,1.3
		c-1,0-2.1-0.6-3.3-1.8c-1.2-1.2-1.7-1.8-1.7-2c0-0.6,0.5-1.4,1.5-2.3c1-0.9,1.9-1.4,2.8-1.4H302.3z"/>
	<path class="st0" d="M332.3,351.8c-0.3,1.1-0.6,1.8-0.8,2.1c-0.2,0.3-0.8,0.5-1.7,0.5c-0.4,0.4-0.8,0.6-1.2,0.6
		c-0.3,0-0.6-0.2-0.9-0.6c-0.5,0.5-1.1,0.8-1.8,1.2c-2.8-0.8-4.1-1.8-4.1-3v-0.1c0.6,0,0.8-0.5,0.8-1.5v-1l-0.1-1.8
		c0-0.2,0.2-1.1,0.6-2.5c0.5-3.8,0.8-8.8,0.8-15.2v-10.9l-0.1-4.1l0.1-3.5l-0.6-12.3l0.4-8.5l-0.4-11v-2.1c-0.5-1.2-0.7-2.4-0.7-3.6
		l0.2-2.3c0-0.2-0.1-0.6-0.4-1c0-1.9,0.3-3.4,0.9-4.5c0.6-1.1,1.4-2,2.3-2.6c0.9-0.6,1.8-0.9,2.7-0.9c1.5,0,2.9,1.5,4,4.5
		c-0.8,1-1.5,2-2,3.1c-0.5,1-0.7,2.5-0.7,4.4l0.2,6.1l-0.2,15.2l0.1,20.8l-0.2,23.6l0.1,1c0,0.6-0.1,0.9-0.4,1.1
		c0.5,0.5,0.9,1.5,1,3.3c0.2,1.7,0.5,3,1.1,3.9C331.8,350.9,332.2,351.5,332.3,351.8z"/>
	<path class="st0" d="M360.3,351.8c-0.3,1.1-0.6,1.8-0.8,2.1c-0.2,0.3-0.8,0.5-1.7,0.5c-0.4,0.4-0.8,0.6-1.2,0.6
		c-0.3,0-0.6-0.2-0.9-0.6c-0.5,0.5-1.1,0.8-1.8,1.2c-2.8-0.8-4.1-1.8-4.1-3v-0.1c0.6,0,0.8-0.5,0.8-1.5v-1l-0.1-1.8
		c0-0.2,0.2-1.1,0.6-2.5c0.5-3.8,0.8-8.8,0.8-15.2v-10.9l-0.1-4.1l0.1-3.5l-0.6-12.3l0.4-8.5l-0.4-11v-2.1c-0.5-1.2-0.7-2.4-0.7-3.6
		l0.2-2.3c0-0.2-0.1-0.6-0.4-1c0-1.9,0.3-3.4,0.9-4.5c0.6-1.1,1.4-2,2.3-2.6c0.9-0.6,1.8-0.9,2.7-0.9c1.5,0,2.9,1.5,4,4.5
		c-0.8,1-1.5,2-2,3.1c-0.5,1-0.7,2.5-0.7,4.4l0.2,6.1l-0.2,15.2l0.1,20.8l-0.2,23.6l0.1,1c0,0.6-0.1,0.9-0.4,1.1
		c0.5,0.5,0.9,1.5,1,3.3c0.2,1.7,0.5,3,1.1,3.9C359.8,350.9,360.1,351.5,360.3,351.8z"/>
	<path class="st0" d="M408.8,326.1c0,0.3-0.2,0.7-0.7,1.2c-0.5,0.5-0.8,0.9-1,1.3c-0.2,0.4-0.3,1.4-0.4,3.1
		c-0.1,1.7-0.2,4.2-0.2,7.5l0.2,7.2c0,0.4-0.2,0.7-0.5,1c-0.1,0.4-0.1,1-0.1,2c0,1.3,0.2,3,0.6,5l0.6,2.8l-0.1,2.6l0.1,2.3
		c-2.5,2.5-4.4,3.8-5.7,3.8c-0.2,0-0.5-0.1-1-0.4c-0.5-0.2-1-0.4-1.4-0.4H399c-0.3-1-0.4-1.9-0.4-2.7c0-1.7,0.4-3.4,1.2-5
		c0.4-0.5,0.7-0.9,0.9-1.2c0.2-0.3,0.3-1.3,0.3-3.2c0-2-0.2-3-0.6-3c-0.1,0-0.3,0.1-0.7,0.2s-0.8,0.2-1.2,0.2H398
		c-0.4,0.3-0.7,0.7-0.8,1.1c-0.4,0-2.7,0.8-7,2.4c-2.1,0.7-4,1.1-5.9,1.1c-2.1,0-4-0.3-5.6-0.8c-1.7-0.5-3.1-1.4-4.2-2.4
		c-1.1-1.1-1.9-1.9-2.2-2.4c-0.3-0.5-0.5-1.7-0.5-3.5l0.1-1.3v-0.4c0-3.5,2.8-7.3,8.3-11.2c5.5-3.9,10.7-6.2,15.4-7.1
		c1.3-0.2,2.3-0.4,3-0.7c0.7-0.2,1.3-0.6,1.8-1.1s0.7-1.8,0.7-3.7c0-6.3-3.3-10.6-10-12.9c-0.2-0.1-0.5-0.2-0.9-0.4
		c-0.4-0.2-0.7-0.3-1-0.3c-3.4,0-6.3,0.1-8.6,0.4c-1.3,1.5-2.7,2.2-4.2,2.2c-1.2,0-1.8-0.4-1.8-1.2c0,0,0.3-0.8,0.8-2.3
		c0.5-1.5,1.7-2.2,3.7-2.2c2.2-1.2,6.3-1.8,12.2-1.8c4.7,0,8.4,1.8,11,5.5c2.6,3.7,3.9,8.9,3.9,15.8v0.7c0.3,0.5,0.8,0.8,1.5,1
		c0.7,0.2,1.1,0.5,1.1,1V326.1z M398.4,344.9c2.2-3,3.3-5.7,3.3-8.1c0-1.5-0.4-3-1.1-4.7c-0.7-1.7-2.2-2.5-4.3-2.5
		c-4.2,0-7.6,1-10.2,3.1h-1.3c-5.5,3-8.2,6.2-8.2,9.6c0,2.4,1.1,4.4,3.4,6c2.2,1.6,4.9,2.4,7.8,2.4c0.8,0,2.3-0.3,4.5-1
		c2.2-0.7,4.2-1.9,6.1-3.8V344.9z"/>
	<path class="st0" d="M463,302.7c-0.8,3.8-1.2,10.1-1.2,18.8c0,2.8,0.2,7.3,0.5,13.3s0.5,11.4,0.5,16c0,8.9-0.9,15.9-2.6,21.2
		c-1.7,5.3-3.2,7.9-4.2,7.9l-0.3-0.1c-0.9,2.6-3.2,4.4-6.9,5.3c-3.7,0.9-6.4,1.4-8.1,1.4c-0.7,0-1.8-0.1-3.2-0.3
		c-1.4-0.2-2.4-0.3-3-0.3c-0.7,0-1.3,0-1.5,0.1c-0.5,0.5-1,0.7-1.6,0.7c-0.4,0-0.8-0.2-1-0.5c-0.3,0.4-0.9,0.6-1.6,0.6l-1-0.1
		c-0.1,0-0.3,0.1-0.7,0.2c-0.4,0.1-0.6,0.2-0.7,0.2c-0.4,0-0.8-0.2-1.3-0.7c-0.5-0.4-0.8-1.2-0.8-2.3c0-0.6,0.1-1.3,0.2-2.2
		c0.1-0.9,0.2-1.5,0.2-1.8V379c0-0.4,0.2-0.9,0.7-1.5h0.4c0.7,0,1.9,0.5,3.5,1.4c3.8,2.2,7.7,3.3,11.6,3.3c3.1,0,5.5-0.6,7.3-1.9
		c2.2-0.1,3.4-0.8,3.5-2.2c0.6-0.2,1.7-2,3.2-5.4c1.5-3.3,2.3-8.5,2.3-15.4v-1.5c-0.5-0.9-1.5-1.4-2.8-1.4c-0.7,0-1.6,0.1-2.6,0.3
		c-1,0.2-2,0.3-2.9,0.3c-1.5,0-3.8-0.2-6.7-0.6c-3-0.4-5.3-0.8-7-1.2c-1.7-0.5-3.7-1.4-6.2-2.9c-2.4-1.5-4.2-2.9-5.2-4.4
		c-1-1.5-1.9-3.2-2.5-5.2c-0.6-2-1-4-1-6.2c0-4.1,1.1-7.9,3.3-11.4c2.2-3.6,5.4-6.6,9.6-9.2c0.4-0.1,0.7-0.4,1-0.8
		c0.7-1.2,3.5-2.3,8.2-3.4l6.3-1.6h0.1c0.5,0,2.6-0.7,6.4-2.2l0.7,0.9c0.2-0.6,0.4-1.8,0.4-3.6v-2.4h1
		C460.5,300.8,462.4,301.4,463,302.7z M452.7,347.2c0.1,0.4,0.5,0.6,1.1,0.6c2,0,3-2.3,3-7l-0.9-24.4l0.3-1.8c0-2.4-1.7-3.7-5-3.7
		c-2.5,0-5.5,0.5-9,1.4c-3.5,0.9-6.6,2.7-9.4,5.3c-2.8,2.6-4.7,5.2-5.7,7.7c-1,2.5-1.5,4.9-1.5,7.3c0,3.2,1,6,3.1,8.5
		c2.1,2.5,4.7,4.4,7.7,5.8c3,1.4,7.5,2.1,13.2,2.1c0.4,0,0.8-0.1,1.2-0.2C451.4,348.9,452,348.3,452.7,347.2z"/>
	<path class="st0" d="M517.1,320.9c0.3,0.3,0.4,0.7,0.4,1.2c0,1-0.3,1.8-0.8,2.3c0.1,0,0.1,0.1,0.1,0.3c0,0.6-0.8,0.8-2.3,0.8h-0.7
		c-0.2,0-0.4,0.1-0.6,0.4c-0.2,0.2-0.4,0.4-0.5,0.4c0,0-0.2-0.1-0.5-0.3c-0.3-0.2-0.8-0.4-1.4-0.4l-0.6-0.6
		c-0.8,0.2-1.5,0.3-2.3,0.3c-0.6,0-1.4-0.1-2.4-0.2c-1-0.1-1.7-0.2-2.2-0.2c-0.4,0-1.2,0.1-2.5,0.3c-1.3,0.2-2.4,0.3-3.3,0.3
		l-5.2-0.2c-2.8,0-5.3,0.2-7.6,0.7c-0.3,0.2-0.8,0.3-1.4,0.4c-0.6,0.1-1,0.4-1,0.9c-0.1,0.5-0.4,0.9-1.1,1.1
		c-0.4,1.5-0.5,2.8-0.5,3.9c0,0.9,0.3,2.7,0.8,5.3c0.5,2.6,1.2,4.4,2.1,5.5c0.2,0.2,1.7,1.4,4.6,3.4c1.8,1.3,3.8,2.4,5.9,3.1
		c2.1,0.7,4.5,1,7.3,1c1.1,0,2.5-0.1,4.1-0.3l2.2-0.3h3.5c0.4,0,1-0.3,2-1c1-0.6,2-1,2.9-1.1c0.4,1,0.6,1.9,0.6,2.6
		c0,1.7-0.5,3.1-1.5,4.4c-1,1.2-2.2,1.9-3.5,1.9l-1.1-0.2l-3.3,0.1h-2.9c-1.3,0-4.7-0.6-9.9-1.7c-5.3-1.1-9.2-2.6-11.7-4.5
		c-2.5-1.8-4.4-4.2-5.5-7.1c-1.2-2.9-1.8-5.7-1.8-8.5c0-3.7,0.7-7.4,2.1-11.2c1.4-3.8,3-6.8,4.8-8.9c1.8-2.1,4.6-4.3,8.2-6.6
		c0.4-0.2,0.9-0.5,1.6-1.1c0.7-0.5,1.4-0.8,2.1-0.8l1.8,0.1c0.7-0.5,2.1-0.9,4-1.2c1.9-0.3,3.5-0.5,4.7-0.5c2.2,0,4.5,0.8,7.1,2.4
		c2.6,1.6,4.1,4.9,4.6,10c0.1,0.9,0.3,1.6,0.5,2.2c0.2,0.5,0.3,0.9,0.3,0.9C517.3,320.3,517.3,320.6,517.1,320.9z M495.4,309.2
		c-0.2,0.3-1.2,0.9-3,1.8c-0.9,0.6-1.7,1.4-2.5,2.2c-0.8,0.8-1.6,1.7-2.4,2.6c-0.8,0.9-1.5,1.8-2,2.5s-1,1.3-1.4,1.7
		c-0.3,0.4-0.5,0.7-0.5,1c0,0.4,0.2,0.7,0.7,0.8l0.7,0.3h3.9l18.5-0.7c2.4,0,3.6-1,3.6-3.1c0-2.2-0.4-4.1-1.3-5.8
		c-0.9-1.6-3.1-2.9-6.8-3.9c-0.4,0-1,0-1.8-0.1s-1.3-0.1-1.7-0.1C499,308.4,497.7,308.7,495.4,309.2z"/>
	<path class="st0" d="M629.2,278.5c0.6,0.8,0.9,1.4,0.9,1.9l0,2.1c0,3.5,0.3,8.8,1,15.7c0.7,7,1.5,14,2.5,21c1,7,2,13.5,3,19.3
		s1.5,9.2,1.6,10.1c0.1,0.9,0.5,1.8,1,2.5c0.6,1.2,0.9,1.9,0.9,2.3c0,0.7-0.6,1-1.9,1h-0.4l-1.2,1.5c-0.8,0.2-1.8,0.4-2.9,0.5
		c-1.2,0.1-1.9,0.3-2.1,0.5c-0.1,0-0.2-0.2-0.4-0.6c-0.1-0.4-0.2-1-0.3-1.9c-0.1-0.8-0.2-1.8-0.3-3.1l-0.4-10
		c-0.1-4-0.2-6.6-0.4-7.9c-0.6-4.1-1.2-8.3-1.8-12.8l-1.2-10.4c-0.7-6.1-1.3-10.3-1.7-12.7c-0.4-2.4-1.1-3.8-1.9-4.3
		c-13.4,26.2-20.1,39.9-20.1,41.1c0,0.2,0.1,0.6,0.2,1.3c-0.3,0.5-0.6,1-0.9,1.6c0.3,0.4,0.5,0.8,0.5,1.2c-2.1,2.1-3.4,4-3.8,5.7
		c-0.5,0.5-1,0.8-1.4,0.8c-0.2,0-1-0.5-2.3-1.6c-1.3-1.1-2.1-2.5-2.4-4.4c-0.2-0.1-0.5-0.3-0.7-0.6c-0.2-0.2-0.4-0.5-0.6-0.9
		c-0.1-0.3-0.3-0.7-0.4-1.2l-0.3-1.5c-0.1-0.5-0.2-1.1-0.3-1.8l-2.7-5.7l-5.1-11.7c-3.8-9-6.7-15.5-8.8-19.4
		c-0.3,0.2-0.6,0.5-0.8,0.8s-0.5,1.3-0.8,3.1c-0.8,4.5-1.9,9.8-3.1,15.8l-2.6,12.7c-0.9,4.7-1.5,9.2-1.8,13.5c0,0.5-0.2,1.2-0.5,2.2
		c-0.3,1-0.5,1.7-0.5,2.3c0,0.1,0.1,0.5,0.2,1.1c0.1,0.6,0.2,1.3,0.2,2c0,2.6-0.4,4.3-1.3,5.1c-0.7,0-1.4,0.3-2.1,0.8
		c-0.7,0.5-1.2,0.8-1.5,0.8h-0.2c-0.6,0-1.2-0.3-2-1c-0.7-0.7-1.3-1.1-1.6-1.4c2.6-2.9,5.6-14.7,8.8-35.3c0.5-3,1.4-7.4,2.9-13.4
		c1.5-6,2.2-10.3,2.2-13.1l-0.1-4.7c0-2.5,0.4-4.5,1.1-5.9c0.7-1.4,1.8-2.1,3-2.1c1.8,0,2.9,1.7,3.5,5.1c0.9,0.4,1.4,1,1.4,1.8
		c0,0.8,0.2,2,0.6,3.8c0.3,1.8,1.6,4.9,3.7,9.2l3.1,6.2v1.9c0.6,1.9,2.2,5.6,4.8,11.1c2.5,5.5,4.3,8.9,5.3,10.4
		c1,1.5,1.8,2.2,2.5,2.2c2.2,0,4.7-3.8,7.7-11.5c0.6-1.5,1.9-4.4,4.1-8.8s3.8-8.2,4.9-11.2s2.3-5.7,3.8-7.8c0.6-0.9,1.3-2.8,2.3-5.8
		s2-5.1,3.1-6.4c1.1-1.3,2.3-1.9,3.6-1.9C628.2,278.3,628.6,278.4,629.2,278.5z"/>
	<path class="st0" d="M686.3,326.1c0,0.3-0.2,0.7-0.7,1.2c-0.5,0.5-0.8,0.9-1,1.3c-0.2,0.4-0.3,1.4-0.4,3.1
		c-0.1,1.7-0.2,4.2-0.2,7.5l0.2,7.2c0,0.4-0.2,0.7-0.5,1c-0.1,0.4-0.1,1-0.1,2c0,1.3,0.2,3,0.6,5l0.6,2.8l-0.1,2.6l0.1,2.3
		c-2.5,2.5-4.4,3.8-5.7,3.8c-0.2,0-0.5-0.1-1-0.4c-0.5-0.2-1-0.4-1.4-0.4h-0.3c-0.3-1-0.4-1.9-0.4-2.7c0-1.7,0.4-3.4,1.2-5
		c0.4-0.5,0.7-0.9,0.9-1.2c0.2-0.3,0.3-1.3,0.3-3.2c0-2-0.2-3-0.6-3c-0.1,0-0.3,0.1-0.7,0.2c-0.4,0.1-0.8,0.2-1.2,0.2h-0.4
		c-0.4,0.3-0.7,0.7-0.8,1.1c-0.4,0-2.7,0.8-7,2.4c-2.1,0.7-4,1.1-6,1.1c-2.1,0-4-0.3-5.6-0.8c-1.7-0.5-3.1-1.4-4.2-2.4
		c-1.1-1.1-1.9-1.9-2.2-2.4c-0.3-0.5-0.5-1.7-0.5-3.5l0.1-1.3v-0.4c0-3.5,2.8-7.3,8.3-11.2c5.5-3.9,10.7-6.2,15.4-7.1
		c1.3-0.2,2.3-0.4,3-0.7c0.7-0.2,1.3-0.6,1.8-1.1c0.5-0.5,0.7-1.8,0.7-3.7c0-6.3-3.3-10.6-10-12.9c-0.2-0.1-0.5-0.2-0.9-0.4
		s-0.7-0.3-1-0.3c-3.4,0-6.3,0.1-8.6,0.4c-1.3,1.5-2.7,2.2-4.2,2.2c-1.2,0-1.8-0.4-1.8-1.2c0,0,0.3-0.8,0.8-2.3
		c0.5-1.5,1.7-2.2,3.7-2.2c2.2-1.2,6.3-1.8,12.2-1.8c4.7,0,8.4,1.8,11,5.5s3.9,8.9,3.9,15.8v0.7c0.3,0.5,0.8,0.8,1.5,1
		c0.7,0.2,1.1,0.5,1.1,1V326.1z M675.9,344.9c2.2-3,3.3-5.7,3.3-8.1c0-1.5-0.4-3-1.1-4.7c-0.7-1.7-2.2-2.5-4.3-2.5
		c-4.2,0-7.6,1-10.2,3.1h-1.3c-5.5,3-8.2,6.2-8.2,9.6c0,2.4,1.1,4.4,3.4,6c2.2,1.6,4.9,2.4,7.8,2.4c0.8,0,2.3-0.3,4.5-1
		c2.2-0.7,4.2-1.9,6.1-3.8V344.9z"/>
	<path class="st0" d="M731.2,313.7c0,0.4-0.2,0.9-0.7,1.8s-0.8,1.6-1,2.3c-0.2,0.7-0.6,1.5-1.4,2.2h-1.3c-1.8-1.1-3.2-1.6-4.1-1.6
		c-0.6,0-1.7,0.4-3.1,1.1c-1.5,0.7-2.9,2.1-4.2,4s-2.2,3.4-2.6,4.5c-0.2,1.2-0.7,2.5-1.7,3.8v1.8c-0.7,1.7-1,3-0.8,3.8
		s0.2,1.4,0.2,1.8c0,0.5,0,0.8-0.1,1.1c-0.4,0.4-0.6,0.8-0.6,1.3c0,0.9,0.2,2.4,0.6,4.7s1,3.9,1.8,5.1v0.5c0,1.6-0.7,2.4-2,2.4
		l-1.1,1.1c-0.9,0.1-1.8,0.1-2.9,0.1c-1.3,0-2.5-0.2-3.5-0.5v-0.2c0-1,0.3-2.4,0.9-4.2c0.6-1.8,0.9-3.2,0.9-4.2l0.3-12.5
		c0-9.7-0.5-18.3-1.6-25.7c-0.1-0.8-0.2-1.2-0.2-1.3c0-1.3,0.6-2.4,1.9-3.1c1.3-0.7,2.4-1.1,3.4-1.1c0.8,0,1.6,0.2,2.4,0.6
		c0.1,0.1,0.2,0.4,0.4,0.7c0.2,0.4,0.3,0.6,0.3,0.7v0.6c0,0.5-0.3,1.7-0.9,3.6c-0.6,1.8-0.9,4.2-0.9,7l0.1,6.5v1
		c0,0.5,0.5,0.9,1.4,1.1c1.5-3.3,3.3-5.9,5.3-7.8c2.1-1.9,4.6-3.3,7.7-4.1c3-0.9,5-1.3,5.8-1.3c0.9,0.6,1.4,1.2,1.4,1.8V313.7z"/>
	<path class="st0" d="M772.7,346.7c1.7,1,2.5,2.4,2.5,4.1c0,2.3-0.6,3.4-1.8,3.4H773c-0.3,0-1.5,0.2-3.4,0.6c-2,0.4-4.1,0.6-6.5,0.6
		h-1.3l-3.8,0.2c-1.4,0-2.7-0.1-3.8-0.4c-0.6-0.2-1.9-0.7-4.1-1.4c-2.1-0.7-3.6-1.2-4.4-1.7c-0.8-0.5-1.8-1.3-2.9-2.3
		s-2.2-2.2-3.1-3.5c-0.9-1.2-1.6-2.6-2.3-4c-0.6-1.4-1.1-2.9-1.4-4.5c-0.3-1.6-0.5-3.2-0.5-4.8c0-5,0.9-9.2,2.7-12.7
		c1.8-3.5,4.7-6.6,8.7-9.4c0.6-0.3,1.5-0.9,2.5-1.6c1.1-0.8,2-1.3,2.6-1.5s2.5-0.7,5.6-1.2c3.1-0.6,6.3-0.8,9.5-0.8h2
		c0.6-0.1,1.4-0.2,2.2-0.2c1.7,0,2.5,0.7,2.5,2.2c0,0.2-0.1,0.6-0.2,1.1c-0.1,0.5-0.2,0.9-0.2,1.1l0.1,4c-0.6,0.1-1,0.2-1.2,0.2
		c-0.8,0-1.9-0.3-3.1-0.8c-1.4-1.2-2.5-1.9-3.4-1.9H765c-0.4,0-1.4-0.1-2.9-0.4c-1.5-0.3-2.9-0.4-4.1-0.4c-0.9,0-2.1,0.4-3.5,1.3
		c-0.4-0.2-0.8-0.3-1.1-0.3h-0.2c-0.1,0-0.4,0.1-0.7,0.4c-1.2,1.1-2.8,2-4.9,2.7c-1.6,0.6-2.9,1.9-3.9,4c-1.1,2.1-2.1,3.6-3.1,4.6
		c-0.3,2.2-0.4,4.3-0.4,6.2c0,4.3,0.5,7.4,1.4,9.3s2.3,3.6,4,5.2c1.7,1.6,2.9,2.7,3.6,3.5h1.5c0.4,1,1.2,1.5,2.5,1.5
		c0.7,0,1.8,0.2,3.3,0.5s2.5,0.5,3.3,0.5l1.6-0.1h1.2c1.8,0,3.2-0.2,4.1-0.5s2.1-0.6,3.4-0.8C771.4,348.3,772.3,347.7,772.7,346.7z"
		/>
	<path class="st0" d="M788.3,264.9c0.4-0.2,0.9-0.4,1.6-0.5c0.7-0.1,1.3-0.2,1.9-0.3l1.9-0.4c1.5,0,2.3,1.1,2.3,3.3
		c0,0.4-0.1,1.3-0.2,2.8c-0.4,1.9-0.6,4.3-0.6,7.1l0.2,7.9l-0.2,12c0,7.3,0.2,11.6,0.7,13c0.4,1.4,1.2,2.1,2.3,2.1
		c0.4,0,1.4-0.4,2.9-1.3c1.5-0.8,2.8-1.5,3.8-2c1-0.5,2.1-1,3.3-1.4c1.2-0.4,2.4-0.7,3.5-0.8l3-0.3c1-0.1,1.8-0.2,2.4-0.2h0.9
		c2.8,0.6,5,1.8,6.5,3.5c1.5,1.7,2.5,3.8,2.9,6.3c0.4,2.5,0.7,6.8,0.7,12.8c0,4.5-0.6,9.1-1.7,14.1c-1.2,4.9-1.7,7.5-1.7,7.8v0.5
		c0,0.5,0.1,1.1,0.4,1.9s0.4,1.4,0.5,1.7c-1,1.7-2.2,2.6-3.6,2.6h-1c-0.3,0-0.6,0.1-1,0.2c-0.4,0.1-0.7,0.2-0.8,0.2
		c-0.2,0-0.7-0.3-1.6-0.8c-0.9-0.5-1.4-1.1-1.4-1.6c0-0.2,0.2-0.7,0.6-1.4c1.5-3,2.9-7.2,4.1-12.5c1.2-5.3,1.8-10.3,1.8-15.1v-3.7
		c0-3.6-0.9-6.6-2.8-8.8c-1.9-2.2-4.3-3.3-7.3-3.3c-1.5,0-3.6,0.4-6.3,1.3c-2.8,0.9-4.2,1.7-4.4,2.5c-0.5,0-1.1,0.2-1.8,0.6
		c-0.7,0.4-1.1,0.6-1.4,0.7c-0.2,0.1-0.4,0.4-0.5,0.8s-0.2,0.8-0.3,1c-0.4-0.1-0.7-0.2-0.9-0.2c-0.2,0-0.5,0.2-0.8,0.5
		c0,0.4-0.1,0.8-0.2,1.4c-0.2,0.5-0.3,2.9-0.5,7s-0.3,7.3-0.3,9.5c0,2.2,0.1,4.4,0.3,6.7l0.3,2.7v0.1c0,0.4,0.2,1.1,0.5,2.1
		c0.3,1.1,0.5,1.7,0.5,2c0,0.2-0.1,0.5-0.3,1c-0.2,0.4-0.3,0.8-0.3,1.1v0.1h0.1c0.6,0,0.8,0.5,0.8,1.4c0,0.1-0.1,0.2-0.4,0.5
		c-0.8,0.1-1.6,0.4-2.3,0.9c-0.7,0.5-1.2,0.8-1.3,0.8c-0.8-0.1-1.4-0.5-1.8-1.1c-1.7-0.1-2.9-0.3-3.6-0.6c-0.7-0.3-1.1-0.9-1.1-1.7
		c0-0.5,0.1-0.8,0.2-0.9s0.2-0.3,0.2-0.3s-0.1-0.2-0.2-0.5c-0.1-0.2-0.2-0.5-0.2-0.7c0-0.1,0.1-0.4,0.4-1c1.9-3.8,2.9-8.2,2.9-13.3
		l-0.3-10.5c0-1.6,0-2.8,0.1-3.6c-1.4-0.6-2.1-1.5-2.1-2.9c0-1.6,0.8-3.4,2.5-5.5c0.1-3.8,0.1-9.2,0.1-16.1
		c0-17.7-0.9-26.5-2.8-26.5c-0.2-0.5-0.3-1.1-0.3-1.6C786.7,265.9,787.2,264.9,788.3,264.9z"/>
	<path class="st0" d="M882.1,320.9c0.3,0.3,0.4,0.7,0.4,1.2c0,1-0.3,1.8-0.8,2.3c0.1,0,0.1,0.1,0.1,0.3c0,0.6-0.8,0.8-2.3,0.8h-0.7
		c-0.2,0-0.4,0.1-0.6,0.4c-0.2,0.2-0.4,0.4-0.5,0.4c0,0-0.2-0.1-0.5-0.3c-0.3-0.2-0.8-0.4-1.4-0.4l-0.6-0.6
		c-0.8,0.2-1.5,0.3-2.3,0.3c-0.6,0-1.4-0.1-2.4-0.2c-1-0.1-1.7-0.2-2.2-0.2c-0.4,0-1.2,0.1-2.5,0.3c-1.3,0.2-2.4,0.3-3.3,0.3
		l-5.2-0.2c-2.8,0-5.3,0.2-7.6,0.7c-0.3,0.2-0.8,0.3-1.4,0.4c-0.6,0.1-1,0.4-1,0.9c-0.1,0.5-0.4,0.9-1.1,1.1
		c-0.4,1.5-0.5,2.8-0.5,3.9c0,0.9,0.3,2.7,0.8,5.3c0.5,2.6,1.2,4.4,2.1,5.5c0.2,0.2,1.7,1.4,4.6,3.4c1.8,1.3,3.8,2.4,5.9,3.1
		c2.1,0.7,4.5,1,7.3,1c1.1,0,2.5-0.1,4.1-0.3l2.2-0.3h3.5c0.4,0,1-0.3,2-1c1-0.6,2-1,2.9-1.1c0.4,1,0.6,1.9,0.6,2.6
		c0,1.7-0.5,3.1-1.5,4.4c-1,1.2-2.2,1.9-3.5,1.9l-1.1-0.2l-3.3,0.1h-2.9c-1.3,0-4.7-0.6-9.9-1.7c-5.3-1.1-9.2-2.6-11.7-4.5
		c-2.5-1.8-4.4-4.2-5.5-7.1c-1.2-2.9-1.8-5.7-1.8-8.5c0-3.7,0.7-7.4,2.1-11.2c1.4-3.8,3-6.8,4.8-8.9c1.8-2.1,4.6-4.3,8.2-6.6
		c0.4-0.2,0.9-0.5,1.6-1.1c0.7-0.5,1.4-0.8,2.1-0.8l1.8,0.1c0.7-0.5,2.1-0.9,4-1.2c1.9-0.3,3.5-0.5,4.7-0.5c2.2,0,4.5,0.8,7.1,2.4
		c2.6,1.6,4.1,4.9,4.6,10c0.1,0.9,0.3,1.6,0.5,2.2c0.2,0.5,0.3,0.9,0.3,0.9C882.3,320.3,882.2,320.6,882.1,320.9z M860.3,309.2
		c-0.2,0.3-1.2,0.9-3,1.8c-0.9,0.6-1.7,1.4-2.5,2.2c-0.8,0.8-1.6,1.7-2.4,2.6c-0.8,0.9-1.5,1.8-2,2.5s-1,1.3-1.4,1.7
		c-0.3,0.4-0.5,0.7-0.5,1c0,0.4,0.2,0.7,0.7,0.8l0.7,0.3h3.9l18.5-0.7c2.4,0,3.6-1,3.6-3.1c0-2.2-0.4-4.1-1.3-5.8
		c-0.9-1.6-3.1-2.9-6.8-3.9c-0.4,0-1,0-1.8-0.1s-1.3-0.1-1.7-0.1C863.9,308.4,862.6,308.7,860.3,309.2z"/>
</g>
<g>
	<path class="st0" d="M402.1,77.2c1.1-0.2,2.1-0.4,3.2-0.7C404.2,76.8,403.1,77,402.1,77.2z"/>
	<path class="st0" d="M563.8,134.3c1.5-2.3,2.2-5,1.7-7.7c-0.5-3.1-1.2-6.3-2.1-9.3c-0.4-1.6-1.6-2-2.8-0.7
		c-0.7,0.7-1.5,1.6-2.1,2.5c-2.6,3.9-3.9,8-1.5,12.6c1.4,2.6,1.7,5.4,0.9,8.3c-0.9,3.2-1.6,6.4-2.3,9.6c-0.4,1.4-0.1,2.9-0.7,4.3
		c-0.6,1.6-0.5,2.3-1.5,3.7c-0.6,1-1.4,1.8-1.7,2.5c-0.5,1.1-1.1,2.3-1.7,2.7c-4.8,3.1-10.9,1.5-12.6-3.9c-1.2-4.3-1.7-8.8-2-13.3
		c-0.2-4.8-1.5-9.2-3.2-13.7c-1.2-3.3-2.1-9.3-2.1-9.3s-0.6-2.6-1.1-3.3c-1.6-2.3-2.9-4.5-4.5-6.8c-1-1.5-2.5-2.7-3.4-4.3
		c-3.1-4.9-7.1-8.6-12.5-10.8c-2.8-1.2-5.9-2-8.2-4.2c-0.7-0.7-2-1.1-2.9-1.5c-1-0.2-2.2-0.7-2.6,0.9c1.5,0.9,2.8,1.6,4.4,2.5
		c-1.2,1.8-2.1,3.3-3.1,4.7c-0.2-3.4-4.3-10.2-6.2-10.3c1.8,3.2,3.7,6.5,5.5,9.7c0.2,0.3,0.4,0.5,0.7,0.7c0,0,0,0,0,0.1
		c-0.6,2.7-1.2,5.4-2,8.2c-1.4-3.4-2.3-6.8-3.8-9.9c-2.1-4.7-4.3-7.2-6.5-8c4.3,4.7,7.2,9.9,8.5,15.8c1.8,8.6,0.6,16.9-3.8,24.7
		c-3.8,6.8-9.6,11.3-16.6,14.7c-5.2,2.6-9.9,2-15-0.1c-2,0-4.1,0.1-7.1,0.1c-3.2-0.4-6.6-0.4-9.5-1.7c-0.9-0.4-1.7-0.9-2.5-1.4
		c0.4,0.3,0.7,0.5,1.1,0.8c0,0.1-0.1,0.4-0.2,0.5c-1.6-0.6-3.3-1.2-4.9-1.8c-0.2-0.1-0.7-0.5-0.9-0.4c-2.6,1.5-3.6-1.1-5.8-1.7
		c3.1-0.7,1.4-2.1,1-3.3c-0.1,0.5-0.2,1-0.4,1.5c-1.7-1.6-3.6-2.9-4.9-4.7c-0.6-0.7-0.4-2.1-0.5-2.8c-0.4-1.1-1-2-1-2.8
		c-0.1-3.6,0-7.2-0.2-10.9c-0.1,1.2-0.5,2.5-0.5,3.7c0.1,3.9,0.2,7.9,0.6,11.7c0.5,6.5,6.9,11,12.3,11.9c6.9,1.1,13.7,1.5,20.6,2.6
		c4.9,0.9,10.1,0.7,14,4.5c3.2,0.5,6.3,1.2,9.5,1.5c3.1,0.2,6.1,0.4,9.1-0.1c5.3-1,6.8-3.2,7.4-9.5c0.5-5.6-0.5-11.4-0.4-17.2
		c0.1-5.2,0.6-10.3,1.4-15.5c0.4-2.8,1.4-5.6,2.3-8.3c0.4-0.7,1.4-1.4,2-2c-0.4,1.2-0.6,2.5-1.5,2.8c-3.1,6.9-3.2,14.1-1.7,21.5
		c0.5,3.1,0.1,6.3,0.4,9.3c0.4,4.2,0.4,8.3-0.7,12.5c-0.2,1-0.7,2.1-1.5,2.6c-1.5,1.1-0.7,1.7,0.5,2.5c-2.7,2.2-5.5,3.6-9,3.3
		c-5.6-0.4-11.3-0.9-16.9-1.4c1.4,0.6,2.6,1.5,3.9,1.6c4.3,0.5,8.7,0.9,13.1,1c1.6,0.1,3.3-0.5,4.9-0.9c0.4-0.1,0.9-0.1,1.2-0.2
		c1.2-0.2,3.1,0,3.7-0.7c1-1.2,1.7-3.1,2-4.8c0.4-3.4,0.2-7,0.4-10.6c0-1.5-0.1-2.8-0.1-4.3c0-7,0-13.9,0-20.9
		c0-1.8-0.1-3.8,0.4-5.6c1-3.4,1.7-7.1,4.2-9.9c0.4-0.4,1.5-0.7,2-0.5c3.7,1.6,7.5,3.1,11,5c1.1,0.7,1.7,2.5,2.6,3.7
		c0.1,0.1,0.2,0.2,0.2,0.4c-0.7,0.4-1.5,0.7-1.7,1.2c-0.7,2.2-1.7,4.4-1.8,6.6c-0.2,9.7-0.2,19.3-0.2,29c0,7.9,1.2,15.8-1.6,23.4
		c-0.5,1.2-1.8,2.8-2.9,3.1c-3.4,0.6-7,1.1-10.6,0.9c-5.6-0.4-11.2-1.1-16.8-2c-2.7-0.5-5.4-1.6-8.1-2.1c-4.4-0.7-8.7-1.2-13.1-1.8
		c-7.6-1-15.2-2.1-22.8-2.9c-6.4-0.7-12.6-1.1-18.9-2.1c-3.8-0.6-7.5-2-11.2-3.2c-1.5-0.5-2.3-1.7-2.9-3.4c-1.7-4.4-0.9-9-0.6-13.5
		c0.2-3.3,0.9-6.6,1.2-9.9c-0.2,0-0.4-0.1-0.6-0.1c-0.4,0.7-0.9,1.5-0.9,2.2c-0.4,6.4-0.7,12.9-1.1,19.3c-0.2,2.9,0.9,5.3,3.6,6.6
		c1.6,0.7,3.3,1.5,4.9,2.1c4.7,1.8,9.6,1.5,14.5,1.8c3.2,0.2,6.4,0.5,9.6,1c7.5,1.1,14.9,2.2,22.3,3.3c2.5,0.2,5,0.2,7.5,0.7
		c4.8,0.9,9.6,2.1,14.4,2.9c3.4,0.6,6.9,1.1,10.3,1.5c3.7,0.4,7.4,0.9,11,1c2.2,0,4.3-0.2,6.4-0.5c2.2-0.2,4.9-0.2,5.6-2.9
		c1-3.1,1.8-6.1,1.8-9.2c0.1-7.4-0.2-14.9-0.4-22.3c0-4.7-0.1-9.2,0-13.7c0.1-3.2,0.2-6.6,0.7-9.8c0.2-2.2,1-4.6,3.3-5.9
		c0.9,1.1,0.5,2.2-0.1,3.7c-1,2.1-0.9,4.7-1.2,7.1c-0.4,2.6-0.5,5.2-1.2,7.6c-1.1,3.7-2,7.4-0.9,11.2c0.1,0.7-0.2,1.8-0.1,2.7
		c0.1,1.1,0.9,2,1.1,3.1c0.4,1.5,0.9,3.1,0.9,4.5c0,2-0.7,3.6,0.6,5.8c1.2,1.8,0.1,5.3-0.4,7.9c-0.7,3.4-2,6.9-2.8,10.4
		c-0.5,2-1.5,3.2-3.7,3.1c-3.6-0.2-7.2-0.9-10.8-1.2c-2.6-0.2-5-0.5-7.6-0.7c-4.9-0.6-9.9-1.2-14.9-1.7c-2.6-0.2-5-0.5-7.6-0.7
		c-5.4-0.6-10.8-0.9-16.1-1.8c-3.7-0.6-7.2-2.3-10.8-3.6c-2.3-0.7-4.8-1-7.4-0.4c-2,0.5-4.4,0.2-6.5-0.1c-7.1-1.2-14.4-2.3-21.5-4.1
		c-2.9-0.6-5.6-2.5-8.3-4.1c-0.6-0.4-0.9-1.6-0.9-2.5c0.5-6.9,1-13.9,1.6-20.7c0.1-1.2,1-2.7,2-3.7c4.3-4.4,5.5-10.1,2.9-15.7
		c-1.2-2.8-2.5-5.5-1.5-8.7c0.1-0.4,0-1,0-1.5c-0.7-6.9-1.6-13.7-4.2-20.3c-0.4-1-1.1-1.8-2.1-2.6c1.2,4.3,3.1,8.5,3.2,12.9
		c0.1,4.4,1.8,8.7,1.4,13.1c-0.2,0.1-0.5,0.1-0.7,0.2c-0.2-0.4-0.9-0.7-1-1.2c-1.4-4.2-4.4-7.1-7.1-10.4c-0.6-0.7-1.2-1.6-1.7-2.5
		c-1.6-3.1-3.4-5.8-7-6.9c-0.5-0.2-0.7-0.9-1.1-1.2c0.5-0.4,1-1,1.5-1c4.8,0.1,8.3-2.5,12-4.8c2.7-1.7,4.1-1.4,4.7,1.8
		c1.1,5.8,2.1,11.7,2.8,17.6c0.5,4.2,0.5,8.5,0.7,12.6c0.9-1.4,0.9-11.3-0.1-16.4c-1.1-5.5-2.1-11-3.2-16.9c0.1,0,0.1,0,0.2,0
		c-0.6,0.1-1.1,0.1-1.7,0.2c-2.2,0.1-3.9,0.9-5.9,1.8c-2.5,1.4-5.2,2.5-7.9,3.2c-5.8,1.6-11.2-1.7-16.8-2c-3.2-0.1-6.4-0.6-9.6-0.6
		c-0.9,0-1.8,0.7-2.7,1.2c-1.4,0.9-2.6,1.8-3.9,2.8c0.1-1.8-0.6-1.5-1.5-0.9c-2.7,1.7-5.4,3.6-8.1,5.2c-2.9,1.7-4.2,4.5-5.2,7.7
		c-0.7,2.6-2,5.3-3.4,7.5c-2.7,3.9-7.1,6.6-8.8,11.4c-0.2,1-0.2,2.1-0.6,3.1c-1.5,4.3-3.3,8.3-4.5,12.6c-0.6,2.2-1.2,4.7,0.3,7
		c-0.1,0.1-0.2,0.1-0.3,0.2c1.4,2.5,0.7,4.4-1.8,6.1c2.1,0.6,2.9-0.5,3.6-1.5c1.1-1.8,0.6-3.7-0.5-5.4c-0.3,0.2-0.6,0.3-0.8,0.5
		c0.1-0.8,0.2-1.6,0.4-2.5c2.7,0.1,4.4-0.6,4.7-2.5c0.2-2.3-2.1-1.8-3.6-2.8c0.2-1.2,0.6-2.6,1.1-4.3c1.2,0.7,2,1.2,2.7,1.7
		c3.1,2.2,4.2,5.6,5,9.1c0.4,1.7,0.5,3.6,0.4,5.4c-0.2,2.6-1.5,4.8-2.6,7.1c-1,2.1-2.3,3.4-4.3,4.3c-2,0.9-4.3,1.4-6.5,2
		c0-0.7,0-1.2,0-1.7c0.1-0.5,0.1-1,0.1-1.5c2.9-0.2,3.2-0.7,1.6-3.4l-0.1-0.1c-0.1-1-0.4-1.8-0.5-2.9c-0.2,0.1-0.7,0.2-0.9,0.5
		c-1.1,3.2-3.9,3.4-6.6,3.4c-1.7,0-3.1,0.9-3.1,2.3c0,1,1.4,2.3,2.3,2.8c1.2,0.6,2.9,0.5,4.4,0.9c0.5,0.1,1,0.6,1.5,1
		c-0.4,0.4-0.6,0.9-1.1,1.1c-1,0.4-2,0.6-2.9,1c-1.8,0.7-2.5,2.1-1.5,3.8c0.5,0.7,1.1,1.4,1.6,2c2.1-1.2,3.8-1,4.1,0.9
		c0.4,2.2,0.5,4.5,0.5,6.8c-0.1,4.7-1,9.2-0.7,13.9c0.6,9.2,1,18.4,2.6,27.5c0.6,3.4,1.4,7,3.9,9.5c5.2,4.8,10.6,9.2,18,9.9
		c1.4,0.2,2.7,0,4.1,0.4c2.3,0.6,4.5,0,6.4-1.4c3.8-2.7,6.4-6.4,7.5-10.7c1.5-5.3,2.8-10.7,5.3-15.6c0.4-0.9,0.9-1.8,0.9-2.7
		c-0.1-1-0.4-2.3-1-2.6c-2.6-1-4.9-2.3-7.9-1.4c-1.6,0.5-3.4,0.6-5.2,0.7c-1.5,0.1-2.9,0-4.3,0.1c-1.8,0.1-2.6,1.2-2.3,2.9
		c0.5,2.8,0.7,5.8,1.5,8.5c0.5,1.7-0.1,2.3-1.5,2.5c-2,0.1-3.9,0.2-5.8-0.2c-1.4-0.4-3.2-1.6-3.6-2.8c-1-3.1-1.8-6.4-1.5-9.5
		c0.6-5.8,2-11.4,3.1-17.2c1.4-7.1,2.6-14.1,3.9-21.2c0.1-0.9,0.4-1.8,0.9-2.2c1.7-1.1,3.6-2,5.8-3.2c-0.5,5-1.4,9.8,4.9,12
		c3.1-2.5,6.3-5.2,9.5-7.7c3.2-2.7,6.5-5.3,9.8-8c3.4-2.9,9.9-1.4,11.4,2.8c1,2.8,1.8,5.8,2.3,8.7c1.1,7.1,1.1,14.4-0.5,21.5
		c-1.4,5.8-2.2,11.7-2.7,17.6c-0.5,5.6-1.7,11.2-4.4,16.2c-1.6,2.9-2.8,6-2.9,9.3c-0.1,2.9,0.7,5.6,3.8,7.1c2.3,1.1,4.4,1.4,6.9,1.4
		c4.5,0.1,13.5,1.2,13.5,1.2l1.8,0.2c0,0,3.1,0.5,3.7-1.2c0.6-1.8,1-3.8,1-5.8c0.1-4.2-0.1-8.5,0.1-12.6c0.2-2.2,1.1-4.5,1.7-6.8
		c0.2-0.6,0.4-1.2,0.4-1.8c0-0.4-0.1-0.9-0.2-1.2c0.4,0.2,0.9,0.5,1,0.9c2.2,4.4,0.7,13.6,0.1,16c-0.6,2.3-0.4,3.3-0.2,5
		c0.1,2.7,1.1,5.2,3.6,6.6c3.9,2.3,8,3.9,12.6,3.9c0.9,0,1.6-0.1,2.3,0c4.1,1,7.9,0,11.7-1.1c1-0.4,2.2-1.4,2.5-2.2
		c1-3.7,1.4-7.4,0.1-11c-0.7-2-1.1-3.9-1.6-6.3c-0.4,0-1.1,0-1.8,0c-1.5,0.2-2.9,0.7-4.4,0.9c-3.6,0.4-7.2,0.7-10.8,0.9
		c-3.1,0-6.3-0.4-9.5-0.6c-0.6,0-1.4-0.2-1.4-0.5c-0.4-1.1,0.1-2.1,0.2-2.7c0.1,0.1,0.6,0.4,0.9,0.5c5.6,0.5,10.4,1,16.2,1.4
		c2.9,0.1,5.9,0,8.8,0c-0.7-2.3-1-4.9-2.1-7c-1.2-2.1-1-4.3-2.3-6.4c-1.6-2.6-2.3-5.9-3.1-9c-1.6-6.9-1.7-14-1.6-21
		c0-0.5,0.7-1.4,1-1.4c2.2,0.5,4.5,0.9,6.6,1.7c2.6,1.1,7.4,3.2,9.5,3.7c4.9,0.6,9.3,1.2,13.9,1.8c0,0.7,0.2,1.7,0,2.6
		c-0.6,2.5-1.7,4.9-2.2,7.5c-0.7,3.9-1,8,0.6,11.9c1.1,2.5,2.5,5,2.5,7.5c0,2.5,0.9,4.5,1.4,6.9c0.5,2.2,0.9,4.4,0.7,6.5
		c-0.4,5.6,3.3,9.9,9,9.8c5.3-0.2,10.4-0.9,15.3-2.7c2.2-0.9,3.7-2.3,3.7-4.9c0.1-3.8-1.1-7.1-3.6-10.2c-1.7-2.1-3.4-4.5-4.2-7.1
		c-1.8-6.4-1.6-12.8,2.3-18.5c0.1-0.4,0.4-0.7,0.5-1.1c0.7-2.5,1.2-4.9,2.1-7.2c0.2-0.9,0.6-2.7,1.7-2.6c1.1,0.1,0.9,1.1,1.1,1.6
		c1.7,3.7,3.6,7.2,5.3,10.9c0.5,0.9,1.5,2.7,2.2,3.6c0.2,0,1.1,2.5,1.4,2.5c1.1,2.9,2.5,5.9,2,9.2c-0.4,2.1,0.1,4.3-1.4,6.3
		c-1.1,1.6-1.5,3.8-2.2,5.8c-0.7,2.2-1.5,4.4-2.2,6.6c-0.4,1-0.7,3.1-0.7,3.1s0.2,2.5,1.4,3.2c1.4,0.4,3.8,1.4,3.8,1.4
		s3.8,0.9,5.9,0.7c2.2-0.1,4.8-0.1,7.2-0.4c3.9-0.2,7.9-0.2,11.7-0.7c1.2-0.1,2.9-1.1,3.4-2.2c1.6-3.7,2.9-7.4,1.5-11.5
		c-0.5-1.6-0.1-3.7-1-4.9c-2.2-3.2-2.8-6.6-3.1-10.4c0-1.1,0.2-3.7-2.5-3.1c0-2.7-0.1-5.3,0-7.9c0.4-4.9,0.4-9.9,1.4-14.9
		c0.6-3.3,2.6-6.5,3.8-9.7c1.7-4.2,2.7-8.5,2.5-12.9c-0.4-5.9-0.9-11.9-1.2-17.8c0.6,0.2,0.9,0.5,0.9,0.9c0.5,4.2,0.9,8.2,1.4,12.4
		c0.4,2.5,0.2,5.3,1.5,7.4c4.7,8.3,13.4,7.2,19.9,1.7c1.7-1.4,2.6-3.8,3.7-5.9c1.1-2,2.5-3.9,2.9-6c0.7-3.1,0.9-6.3,1.1-9.3
		c0-0.7-0.9-1.7-0.6-2.3C562.1,137.8,562.8,135.9,563.8,134.3z M476.1,150.3c1.2-0.1,2.5-0.2,3.4-0.1c1.5,0,2.8,0.2,4.2,0.4
		c0-0.4,0.1-0.6,0.1-0.9c-1.5-0.2-2.9-0.4-4.8-0.6c1.1-1.5,2.2-2.6,4.1-1.7c1.8,1,3.4,0.2,5-0.4c0-0.2,0-0.4,0-0.6
		c-1.5,0-2.9,0-4.4,0c2.7-3.2,5.3-6.3,7.9-9.2c1.8,2.8,0.9,8.3-2,11.3C486.5,151.7,480.1,152.6,476.1,150.3c-0.5,0.1-1,0.4-1.2,0.2
		c-2.1-0.6-4.1-1.2-6-1.8c-0.7-0.2-1.5-0.4-2.2-0.6c5.8-1.1,10.8-4.1,15.2-7.7c4.5-3.7,7.9-8.6,10.2-14.1c1.1,3.2,0.6,7.7-1.4,10.2
		c-1.7,2.1-3.3,4.4-5.4,6c-1.4,1-2.3,2.2-3.8,3.1c-1.6,1-3.2,1.8-4.8,2.8C476.1,148.7,474.2,149,476.1,150.3z M517.9,133.2
		c-0.1-2.3,0.5-4.7,0.9-7c0-0.4,0.6-0.6,0.9-1c0.4-0.9,1.1-1.8,1.1-2.7c0.1-3.4,0.1-7,0.6-10.6c4.9,3.2,7.5,7.6,7.9,13.5
		c0.1,2.8,0.1,5.9,0.1,5.9s-0.2,3.6,0.5,5.3c0.2,0.6-0.9,3.3-0.7,4.5c0.1,2.9,0.2,6,0,9.1c-0.1,0.9-1.4,1.5-2.1,2.2c0,0-0.1,0-0.2,0
		c-6.1,0.1-6.5,1.5-7.4-5.6C518.9,142.3,518.1,137.8,517.9,133.2z M529.5,153.6c0,0.2,0,0.5,0,0.5c-1.7,0.6-3.4,1.2-5.2,1.6
		c-1.5,0.2-3.1,0.6-4.4-1.4C523.4,154.1,526.5,153.8,529.5,153.6z M312.6,150.9c2.3-0.5,4.2-0.9,6.3-1.2c0,1.1,0,2,0,3.1
		C316.7,153,314.6,153.2,312.6,150.9z M356.9,221.7c-0.4-0.1-0.7-0.2-1-0.5c-1.7-2.6-3.4-5-5.3-7.7c3.2,0.7,6.6,4.3,6.8,7
		C357.4,220.9,357.1,221.3,356.9,221.7z M349.1,202.8c0.4-1.1,0.7-1.5,2.1-1.6c2.7-0.1,5.3-0.7,8-1.1c0.4-0.1,0.9-0.2,1.2-0.2
		c3.1-0.2,4.7,0,3.2,4.1c-1.8,4.8-2.8,9.9-4.2,14.9c0,0.4-0.1,0.9-0.2,1.2c-0.1,0-0.4,0.1-0.5,0.1c-0.7-3.2-2.9-5.2-5.5-7
		C350.2,211,348.4,205.9,349.1,202.8z M335.3,210.1c0.5,0.6,1,1,1.1,1.4c1.1,2.6,3.4,3.3,5.8,4.1c1.2,0.5,3.2,0,3.4,2.1
		c0.7-0.1,1.7-0.1,2.3-0.5c0.6-0.5,0.9-1.4,1.2-2.1c4.1,1.7,5.5,5.4,6.8,9.1c0.6,1.7-3.1,6-5.2,6.1c-4.3,0.2-8.7,0.9-12.8-1.1
		c-2.5-1.2-4.7-2.9-7-4.5c-0.7-0.5-1.5-0.9-2-1.5c-1.4-1.6-3.1-3.1-4.1-4.9c-1-2.1-1.4-4.5-2.1-6.9c0.7,0.5,1.2,0.9,1.8,1.2
		c-0.1-0.4,1.2-0.9,1.8-1c3.7-1.1,5.3-0.9,7.9-3.1c-2.6,4.7-6.1,6-9.7,4.1c-0.4,2,0.7,2.3,2.6,2.1
		C330.6,214.2,333.4,213,335.3,210.1z M334,205c0.2,2.2-0.7,3.3-2.5,3.8c-1.8,0.5-3.8,0.9-5.8,1.1c-1.7,0.4-3.1-0.2-3.3-2.2
		c-0.4-3.2-0.7-6.3-1.1-9.3c-0.4-3.9-0.6-7.7-1-11.7c0-1,0-1.8,0-3.1c5.9,1.8,11.2,1.7,16.4,0.2C334.4,190.9,333.4,197.9,334,205z
		 M341.1,162.4c-0.7,4.7-1.6,9.2-2.5,13.7c-0.1,0.2-0.2,0.5-0.2,0.7c-1.4,6-4.7,8-10.8,6.8c-0.9-0.1-1.8,0-2.7,0
		c-2-0.1-3.4-0.9-4.4-2.8c5.6,1,11,2,16.2-0.2c0-0.4,0-0.6,0-0.9c-0.5,0-1-0.1-1.5-0.1c-3.2,0.4-6.3,0.7-9.3,0.9
		c-3.1,0.1-5.8-1.2-5.4-5.3c0.2-3.4,0.2-7,0.2-10.4c0-1.1,0.4-1.6,1.6-1.7c2.9-0.2,5.8-0.6,8.6-1c0.6,0,1.4-0.1,1.7,0.1
		c1.5,1,2.5,0.2,3.7-0.5c1.2-0.6,2.8-0.5,4.3-0.5C340.7,161.2,341.2,162.1,341.1,162.4z M368.1,155.1c-4.1,3.4-8.1,6.8-12.2,10.1
		c-2,1.6-3.6,1.4-4.5-0.9c-1.4-3.1-0.9-6.3-0.4-9.2c-0.9-2.2-1.7-4.2-2.6-6.1c-0.1,0.1-0.2,0.1-0.4,0.1c0.2,1.2,0.6,2.6,0.6,3.9
		c0,0.9-0.5,2.1-1.1,2.5c-7.6,4.5-16.2,6.3-24.9,6.6c-2.8,0.1-5.8-0.7-8.6-1.1c0-0.4-0.1-0.7-0.1-1.1c1.1-0.4,2.2-0.9,3.3-1.1
		c5.4-1.2,10.9-2,16.2-3.7c3.6-1.1,6.6-3.4,9.9-5.2c0.4-0.2,0.5-0.7,1-1.4c-7.6,0.6-12.9,6.5-19.9,7.6c0-0.1-0.1-0.4-0.2-0.5
		c0.5-0.4,1-0.9,1.5-1c7.5-2.1,11.5-11.8,8.7-20.3c-1.5-4.3-3.7-8.1-7.1-11.2c-1-0.9-1.1-1.7-0.5-2.7c0-0.1,0.1-0.1,0.1-0.2
		c1.7-3.8,1.7-3.7,5.9-3.3c4.1,0.4,8.2,0.2,12.4,0.4c0.6-0.4,1.1-0.6,1.7-1c-4.8-0.4-9.5-0.7-14.1-1.2c-2.9-0.2-3.2-1-1.6-3.6
		c1.2-2.1,2.1-4.4,4.1-5.5c1.5,1.1,2.8,2,4.1,2.9c0.5-1.2,1.1-2.3,1.6-3.6c0.7-1.8-0.9-2.2-2-2.8c1.1-1.6,2.1-2.5,4.3-2.5
		c3.9,0.1,8.3-5.3,8.2-9.2c-0.1-1.4-0.2-2.7-0.4-4.3c1.2-0.4,2.3-0.6,3.6-1c0,0,0.1-0.1,0.1-0.1c0.7,1.8,2,3,4,2.4
		c0.9-0.2,1.4-1.5,2.1-2.2c-0.9-0.5-1.6-1.4-2.3-1.4c-1.2,0.1-2.5,0.7-3.8,1.1c3-2.4,5.9-5.4,10.3-5.1c2.2,0.1,4.4,0.5,6.5,1
		c2.6,0.6,5.2,1.5,7.7,2.3c0.7,0.2,1.4,0.7,2,1.1c-0.1,0.2-0.1,0.5-0.2,0.7c-2.1-0.4-4.2-0.9-6.3-1.4c0.9,2.5,2.7,3.2,4.8,3.1
		c7.4-0.6,10.1,3.1,11.8,7.9c3.4,3.4,6,7.2,8,11.6c-1.9-4.2-4.5-8-7.8-11.3c-0.4-0.2-0.9-0.6-1.1-1c-3.1-4.3-7.2-6.3-12.4-6
		c-0.5,0-1,0.4-1.5,0.6c0.4,0.4,0.6,1,1.1,1.1c1,0.2,2.1,0.5,3.2,0.5c1.8,0,3.4,0.5,4.8,1.8c1.1,1.1,2.2,2.2,3.3,3.4
		c5,5.8,8.8,12.4,11.9,19.4c1.7,3.7,1.4,7.6-1.1,9.9c-3.8,3.6-8,6.4-12.6,8.8c-4.2,2.1-8.1,4.5-10.8,8.6c-2.1,2.9-6.8,2.8-8.1-0.5
		c-0.9-2.1-0.9-4.7-0.9-7.1c0.1-4.2,0.7-8.2,0.7-12.4c0-3.6-2.6-5.9-6-6c-0.7-0.1-6.5-2-7.2-2.3c-1.2-0.7-3.2,0.3-3.6,1.8
		c-1.3-0.2-2.7-1.7-4,0.1c-0.6,0.4-1.1,0.6-1.7,1c0.6,0.4,1.2,1.1,1.6,1c1.4-0.6,2.8-1.3,4.1-2c0,0,0,0,0,0.1
		c3.8-0.4,7.4,0.1,10.9,1.6c3.1,1.2,3.9,1.8,3.9,5.2c0,1.7,0.1,3.6,0.1,5.3c0,2.7-0.1,5.4-0.4,8.1c-0.2,2.1-0.5,4.2-0.7,6.3
		c2.6,2.3,5.3,4.7,9.1,3.6c2.2-0.7,4.4-2.1,6-3.8c3.2-3.3,6.6-6.1,10.9-7.7c2.9-2.2,6-4.4,9-6.6c3.8-2.8,5.3-7.7,3.4-12.2
		c-1-2.3-2.1-4.8-3.2-7.1c0-0.1-0.1-0.1-0.1-0.2c6.1,5.2,8.3,15.2,0.9,20.3c-2.9,2.1-6,4.1-9.1,6.1c-5.8,4.2-10.8,9.5-17.8,12.9
		c-2.6,1.1-5.3,1.8-7.9-0.2c-0.4-0.2-2.2-0.7-0.2-1.6c-0.5-1-0.9-2-1.4-2.9c-0.2-0.7-0.9-1.6-0.9-2.5c-0.1-1.5,0-2.8,0.2-4.3
		c0.6-4.5,0-9-1.4-13.3c-0.2-1.2-1.4-2.2-2.1-3.3c-1,0.7-1.6,1.2-2.3,2c5.4,2.1,4.1,5.9,1.7,9.9c0.1,0,0.4,0,0.6,0
		c0.5-0.7,1-1.6,1.6-2.5c2.5,6.9-2.3,9.6-6.9,12.8c1.4-0.4,2.8-0.4,3.9-1c1.1-0.6,2-2,2.9-3.1c0,10.5,4,13.2,10.4,12.2
		C371.2,151.8,369.8,153.6,368.1,155.1z M380.1,150c-2.2-0.2-4.3-0.6-6.5-0.2c1.5-0.6,3-1.1,4.2-1.9c2.3-1.6,4.3-3.4,6.5-5.2
		c4.5-3.6,9.2-7,14.7-10.1c-0.2,4.2-0.6,7.7-0.9,11.5c-3.2-0.2-4.5,1.8-5.5,4.2c-0.6,1.6-1,3.2-1.7,4.8c-0.5,1.2-1.4,2.5-2,3.6
		c-0.6-0.4-0.9-0.4-0.9-0.5C387.1,152.1,384.3,150.4,380.1,150z M397.3,147.6c-2.6,1.6-3.1,4.3-3.8,6.9c-0.5,1.7-1,3.4-3.2,3.8
		c1-2.7,1.7-5.2,2.8-7.4c0.9-1.6,1.8-3.2,2.9-4.7c0.2-0.4,1.2-0.2,2-0.4C397.8,146.5,397.7,147.3,397.3,147.6z M397.9,150.5
		c-1.4,2.8-2.8,5.5-4.2,8.3c-0.2-0.1-0.6-0.4-0.9-0.5c2.2-2.7,1.1-7,4.9-9.5C397.9,149.7,398.1,150.2,397.9,150.5z M386.3,200.4
		c2.2,0.9,2.2,1,2,3.7C385.7,203.1,385.4,202.6,386.3,200.4z M405.7,232.9c-0.9,3.3-1.6,3.7-3.4,3.7c-7.2-0.2-12.6-0.1-17.9-1.1
		c-4.8-0.7-7-2.9-4.8-8.2c0.9-2.2,1.6-5.2,3.3-6.4c1.6-1.1,4.4-0.4,6.8-0.2c3.7,0.2,7.4,0.9,11,1.2c0.5,0.1,1.1,0.2,1.7,0.1
		c3.9-0.6,3.4-0.7,3.8,3.2C406.4,227.7,406.3,230.4,405.7,232.9z M384.2,216.3c2.2,0.1,4.4,0.5,6.6,0.5c4.3,0.2,8.6,0.4,12.9,0.4
		c1.4,0,2.2,0.2,2.3,1.6c0,0.5-0.5,1.4-0.9,1.5c-1.6,0.4-3.2,0.6-4.8,0.5c-4.1-0.4-8-1.1-12-1.7
		C386.7,218.8,385.2,217.9,384.2,216.3z M407.2,212.1c-0.4,1.1-0.5,2.5-0.7,3.7c-2.9,0.2-5.8,0.4-8.6,0.5c-3.9,0.2-7.5-0.6-11.2-1.8
		c-1.7-0.6-2.3-1.6-1.7-3.6c0.4-1.2,0-2.6,0.1-3.9c0.1-1.8,0.6-2.1,2.1-1c3.3,2.6,7.1,3.2,11.2,3.1c2.3,0,4.8,0.4,7.2,0.6
		C407,209.8,407.6,210.5,407.2,212.1z M398.4,206c0,0.5-1.1,1.6-1.7,1.6c-1.6,0-3.1-0.4-4.8-0.6c1.5-2.8,2.7-5,4.4-8
		C397.2,201.7,397.9,203.8,398.4,206z M397.2,198.5c2.7,0,5,0,7.7,0c-1.6,2.8-3.1,5.3-4.8,8.3C399.1,203.8,398.2,201.3,397.2,198.5z
		 M394,200.2c-1,1.7-1.8,3.6-2.7,5.3c-0.4,0-0.7-0.1-1.1-0.2c0.1-1.7,0.2-3.3,0.4-4.9c-0.2-0.9-0.5-1.7-0.5-2.7
		c1.1,0.1,2.5-0.1,3.6,0.2C394.9,198.3,394.5,199.4,394,200.2z M407.3,205.8c0.1-0.5-0.1-1-0.1-1.5c-0.2,0-0.4-0.1-0.6-0.1
		c-0.4,1.1-0.5,2.6-1.4,3.2c-0.9,0.6-2.3,0.4-4.1,0.6c1.5-2.6,2.7-4.7,4.2-7.2c1.7,2.5,3.2,4.7,4.8,6.9
		C407,208.6,406.8,208.3,407.3,205.8z M410.6,205.9c-1.5-2.2-3.2-4.4-4.7-6.9c1,0.5,1.8,1.6,2.8,0.2c0.7,0.5,1.7,0.9,2.1,1.6
		c1.8,2.9,3.4,5.9,5.4,9.6c-1.7-0.9-3.1-1.2-4.2-2C411.3,207.8,411.2,206.7,410.6,205.9z M426.3,208.7c0.1,0.2-0.4,1.5-0.7,1.5
		c-2.2,0.4-4.5,0.6-7.2,0.9c0.7-3.8,1.4-7.1,2.2-10.9C422.7,203.4,424.6,206,426.3,208.7z M421,198.6c2.6-0.2,4.7-0.5,6.8-0.5
		c0.5,0,1.4,0.7,1.4,1c-0.4,2.7-0.9,5.3-1.2,8c-0.4,0-0.9,0.1-1.2,0.1C424.8,204.5,423.1,201.8,421,198.6z M417.8,203.4
		c-1.2,0.4-2.8,0-4.3-0.2c-0.4-0.1-0.7-1-0.7-1.5c0-0.5,0.6-1,1.1-1.1c1.5-0.4,3.1-0.6,5.3-1C418.7,201.2,418.6,203.1,417.8,203.4z
		 M416.9,209.1c-0.6-1.8-1-3.2-1.5-4.5C418.7,204.4,418.9,204.8,416.9,209.1z M412.8,223.7c1.8,0.2,3.6,0.5,5.2,0.6
		c4.9,0.2,9.9,0.5,14.9-0.6c2-0.4,4.1-0.1,6-0.1c0.4,0,0.9,0.6,1.1,1.1c1.4,3.3,1.5,6.8,1.5,10.2c0,3.6-1.2,4.7-4.8,4.7
		c-2.8,0-5.5,0.4-8.3,0.4c-4.7,0.1-9-0.7-12.6-4.2C411.4,231.9,410.6,229.3,412.8,223.7z M436.1,214.1c1.8,4.8,1.8,5.5-3.7,5.5
		c-4.7,0-9.5-0.4-14.1-0.9c-1.4-0.1-2.9-0.9-4.2-1.6c-0.7-0.4-1.2-1.5-1.4-2.3c-0.2-1.4-0.2-2.9-0.4-4.1c2.8,0.5,6,1.2,9.2,1.1
		c2.8,0.1,5.6-0.6,8.5-1.1C435.4,209.9,434.4,209.6,436.1,214.1z M432.2,203.9c0.5,1.5,1.1,2.8,1.8,4.4c-1.8,0.5-3.4,0.7-5.5,1.2
		c0.6-3.4,1.2-6.6,1.8-9.8c0.2,0,0.6,0,0.9,0C431.6,201.2,431.8,202.7,432.2,203.9z M460.7,198.5c0.5,0,1.2,0,1.5,0.2
		c0.7,0.9,1.4,1.8,2,2.8c-0.2,0.2-0.4,0.4-0.6,0.6c-1-0.6-2.1-1.1-2.8-2C460.3,200,460.7,199.1,460.7,198.5z M478.7,208.2
		c-0.2,0-0.5-0.1-1.4-0.2c1.7-2.3,3.3-4.5,4.9-6.9c0,1.6-0.1,2.7-0.1,3.7C482.4,208.2,482.2,208.3,478.7,208.2z M476.3,207.5
		c-0.7-2.8-1.5-5.2-2.2-8c2.5,0,4.7,0,7.1,0C479.6,202.2,478,204.7,476.3,207.5z M474.4,207.4c-0.1,0.4-1,0.9-1.5,1
		c-1,0.2-2.1,0.1-3.4,0.2c1.2-2.7,2.3-5,3.6-7.5C474.7,203.2,474.7,205.3,474.4,207.4z M469.1,206.2c-0.7,1.4-1.8,1.1-2.3-0.1
		c-1-2.3-1.8-4.8-2.9-7.6c2.9,0.4,5.3,0.7,8.1,1.2C471,202.1,470.2,204.2,469.1,206.2z M461.5,207c0.1-0.2,0.1-0.4,0.2-0.6
		c1.2,0.4,2.9-1.2,3.6,0.9c-0.1,0.2-0.2,0.5-0.4,0.7C463.9,207.6,462.8,207.4,461.5,207z M483.3,212.9c1.1,2.9,1.1,2.9-1.7,4.2
		c-0.7,0.2-1.5,0.6-2.3,1c2.5,1.1,5-2.6,7.2,0.6c-1.7,2.3-4.3,2.7-6.8,2.9c-4.4,0.4-8.8,0.6-13.5,0.9c0.5,1.1,1.5,1.4,2.7,1.2
		c5.6-0.7,11.4-0.2,16.8-2.5c0.4-0.2,1-0.1,1.2,0c2.2,1.4,4.1,6.3,3.2,8.8c-0.2,0.7-0.4,2.5-2,1.1c0-0.1-0.9,0.5-1.2,1
		c-1.1,1.5-2.6,2.2-4.5,2.2c-1.4,0-2.7,0.4-4.1,0.6c-3.7,0.7-7,0.9-9.5-2.9c0.1,0.6,0.2,1.1,0.4,2.1c-3.1-1.1-3.4-3.7-3.6-5.9
		c-0.4-6.4-0.7-12.6-3.7-18.4c6.8,0,13.5,0,20.4,0C482.8,210.9,482.9,211.9,483.3,212.9z M529.4,222.7c-0.1,2.9,1.5,6.1-1.1,8.7
		c-1.2,1.2-2.7,2.6-4.3,3.1c-2.5,0.9-5.3,1-7.2,1.2c-4.7-0.2-8.6-0.1-12.6-0.7c-2.8-0.4-4.9-2.5-5.4-5.2c-0.5-3.1,0.1-6.4,2.3-8.8
		c0.5-0.5,1.8-0.5,2.8-0.5c5.4,0.2,10.7,0.7,16,1c2.6,0.1,5.3-0.2,7.9-0.1C528.3,221.3,529.4,222.2,529.4,222.7z M519.1,208
		c-0.2-0.1-0.5-0.1-0.7-0.2c-0.7-1.6-1.5-3.2-2.2-4.8c-0.5-1.1-0.1-1.7,1.1-2c1.5-0.2,3.1-0.4,4.7-0.6c0.1,0.1,0.4,0.4,0.5,0.5
		C521.3,203.2,520.2,205.6,519.1,208z M522.9,203.1c2.1,4.1,1.7,4.7-2.6,5.2C521.2,206.5,521.9,204.9,522.9,203.1z M516.9,206.7
		c0.1,0.2,0.1,0.7,0.1,0.7c-1.4,0.4-2.7,0.9-4.1,1c-0.2,0-1.1-1.2-1-1.7c0.5-1.5,1.2-2.8,2.2-4.9
		C515.3,203.8,516.2,205.3,516.9,206.7z M509.7,206c-2.1-0.5-2.9-2.3-3.6-4.5c0.7,0,1.2-0.1,1.7-0.1c1.5,0,2.8,0,4.3,0
		C512.1,203.5,510.6,206.2,509.7,206z M508.9,208.3c-4.8-0.7-5.5-1.4-5.8-5c0-0.4,0.2-0.9,0.4-1.2c0.4,0.1,1,0.1,1.2,0.4
		C506.2,204.3,507.6,206.4,508.9,208.3z M527,216.8c1.1,1.4,0.6,2.1-0.6,2.5c-4.3,1.4-8.8,1.2-13.3,1.1c-2.6-0.1-5.2-0.7-7.7-1.1
		c-1.1-0.1-2.2-0.2-2-1.7c0.2-1.5,1.2-1.1,2.2-1c4.4,0.5,9,1,13.4,1.4c1.2,0.1,2.6-0.4,3.8-0.4c0.9,0,1.7,0.2,3.2,0.5
		C526.1,217.9,526.5,217.4,527,216.8z M524.9,210.1c0.4,1.2,1,2.5,1.2,3.8c0.1,0.5-0.6,1.4-1.1,1.5c-6.6,2-13.3,0.5-19.9-0.2
		c-0.5-0.1-1.2-1-1.2-1.5c0-1.5,0.2-2.9,0.4-4.2c4.9,0.1,9.3,0.2,13.9,0.2c1.5,0,2.9-0.4,4.4-0.7
		C523.8,208.6,524.5,208.9,524.9,210.1z M529.3,167.6c-1.4,3.6-2.7,7.4-4.4,10.8c-2.1,4.1-2.2,8.2-2,12.6c0.1,2.2,0.1,4.5,0.1,6.8
		c0,0.5-0.6,1.2-1,1.2c-6.4,1-12.8,2.3-19-0.2c-1-0.4-1.7-1.6-2.6-2.5c-0.7-0.9-1.6-1.6-2.1-2.6c-0.9-1.6-1.4-3.4-2.1-5.2
		c-0.9-2.1-1.5-4.2-2.6-6c-1.4-2.5-5-2.2-6,0.4c-1.2,3.3-2.1,6.8-3.2,10.1c-0.4,1.4-0.7,2.8-1.4,4.1c-0.2,0.5-1.2,1-1.8,1
		c-5.4-0.2-10.9,0.6-16.2-1c-1-0.4-1.8-0.5-2.7-0.9c-0.5-0.2-1.1-1-1.1-1.5c0.1-1.6,0.5-3.2,1-4.7c0.6-2.1,1.6-4.2,2.3-6.4
		c0.6-1.7,0.1-2-1.7-2c-3.9,0-7.9-0.1-11.7-0.7c-7.2-1.2-13.9-4.5-20.9-6.6c-0.4-0.1-1.4,0.5-1.5,0.9c-0.1,1.4-0.2,2.8-0.1,4.2
		c0.2,4.3,0.6,8.7,1,13.1c0.1,1.4,0.5,2.8,0.7,4.2c-4.1-0.1-8-0.2-12.8,1.2c-2,0.6-4.4-0.2-6.6-0.4c-1.5-0.1-2.9-0.1-4.3-0.4
		c-0.5,0-1.2-0.7-1.4-1.4c-0.5-2.3-0.7-4.8-1.1-7.2c-0.2,0-0.6,0.1-0.9,0.2c-0.7-3.1-1.5-6.1-2.1-9.1c-0.2-0.9-0.1-1.8-0.2-2.7
		c-0.1-0.6-0.5-1.1-0.7-1.7c-0.6-1.5-1.8-2.9-1.7-4.3c0.2-2.9-1.5-4.7-2.9-6.6c-0.1,0-0.4,0.1-0.6,0.1c0.4,1.5,0.2,3.1,1,4.3
		c2.1,3.6,1.6,7.5,2.1,11.2c0.2,2.5,0.9,4.5,2.3,6.8c1.6,2.3,3.6,4.9,2.5,8.2c-0.1,0.5,0.1,1.2,0.2,1.7c-2.9,0-5.9,0.4-8.6-0.1
		c-2.6-0.5-5.2-2-7.7-3.1c0-1,0.1-1.5,1.5-1c1.6,0.5,3.3,0.9,4.9,1.2c0.1-0.2,0.1-0.5,0.2-0.7c-1.4-0.5-2.6-0.9-3.9-1.4
		c-1.2-0.5-2-1.4-1.8-2.7c0.7-8.3,1.6-16.7,2.3-25c0.1-0.2,0.2-0.4,0.6-0.5c-0.1,1-0.4,2-0.2,2.8c0.1,0.7,0.6,1.4,0.9,2
		c0.5-0.4,1.4-0.7,1.5-1.4c0.5-1.5,0.6-2.9,0.9-4.4c0.1-0.9,0.4-1.7,0.6-2.5c0.6,0.1,0.7,0.1,0.9,0.2c0.6,0.5,1.1,1.1,1.7,1.6
		c0.4-0.7,0.9-1.5,1.1-2.3c0.2-0.6,0.1-1.5,0.2-2.6c6.4,5.8,14.2,6.3,21.8,7.5c3.7,0.6,7.2,1.5,10.8,2c4.2,0.6,8.5,0.7,12.6,1.5
		c3.6,0.6,7.1,2.1,10.7,2.8c3.4,0.6,7,0.9,10.6,1.2c6.8,0.6,13.5,1.1,20.3,1.7c4.2,0.4,8.3,0.7,12.5,1.4c3.7,0.5,7.4,1.2,11,1.7
		c1.5,0.1,2.9,0,4.3-0.2c3.2-0.7,3.4-1.4,4.1-4.7c0.5-2.6,1.4-5,2-7.6c0.4-1.5,0.7-2.9,1.6-4.4c0.1,1.5,0.2,3.1,0.5,4.5
		c0.1,0.7,0.7,1.2,1.1,1.8c0.7-0.6,1.7-1,2-1.7c0.5-1.4,0.5-2.9,0.6-4.8c0.1,0.1,0.7,0.2,0.9,0.6c0.1,0.5,0,1.1,0,1.7
		c0,3.3,1.1,4.1,4.4,2.3C529.7,165.6,529.7,166.6,529.3,167.6z"/>
	<path class="st0" d="M423.5,121.3c-0.9-4.4-1-9.1,0-14.3c0.1-0.4,0.2-0.7,0.2-1.1C422.3,110.9,422.1,115.9,423.5,121.3z"/>
	<path class="st0" d="M437.6,142.2c-3.6-2.8-6.6-5.8-8.9-9.1c0.1,0.2,0.2,0.3,0.3,0.5C431.2,137.1,434.2,140,437.6,142.2z"/>
	<path class="st0" d="M423.5,121.3c0.9,4.3,2.7,8.2,5.2,11.8C426.2,129,424.5,125.1,423.5,121.3z"/>
	<path class="st0" d="M413.9,77.7c1.8,4.7,4.1,9.3,3.6,14.6c-0.2,2.8,0.4,5.5,0.4,8.3c0,3.2-0.2,6.4-0.2,9.6c0,3.1,0.1,6.3,0.1,9.3
		c0,2.2-0.4,4.4-0.2,6.6c0.2,4.5,0.2,9.1,1.4,13.4c1.1,3.9,4.9,5.6,8.5,7.1c2,0.9,4.1,1.1,6.1,1.6c0.4,0.1,1,0,1.2,0.2
		c2.9,2.2,6.3,1.8,9.6,1.8c3.8,0.1,7.5-0.1,11.2,0.2c3.3,0.4,6.5,1.4,9.8,2.1c1.2,0.2,2.5,0.5,3.7,0.7c-0.6-0.9-1.1-1.7-1.6-2.6
		c-2.3-0.4-4.7-0.9-7.1-1.1c-2-0.2-4.1-0.4-6-0.5c-3.6-0.1-7.1,0.1-10.6-0.2c-4.3-0.5-8.6-1.4-12.9-2.1c-6-1.1-11.5-7.4-11.7-13.5
		c0-7.1,0.2-14.4,0.4-21.5c0-1.8,0.4-3.6,0.5-5.4c0.1,0,0.4,0,0.6,0c0,2.7,0,5.3,0,8c0.2,0,0.4,0.1,0.6,0.1c0.1-0.5,0.4-1,0.4-1.5
		c0-1.6-0.1-3.2,0.1-4.8c0.5-3.4,1.5-6.9,0.6-10.4c-0.2-0.7,0.2-2.1,0.7-2.8c2.8-3.9,5-8.2,9.5-10.7c1.4-0.7,2.2-2.2,3.4-3.2
		c1.2-1,2.7-1.7,4.3-2.7c-2.3-0.1-4.5-0.2-7.1-0.4c1.2-1.4,2.7-1.6,4.2-1.4c4.3,0.7,8.6,1.5,13.1,2.2c-14.4,3.8-23.6,12.7-26.6,26.9
		c1.1-4,3.1-8,5.6-12c3.3-5.3,8.2-9,14-11.4c4.8-2,9.6-3.1,14.6-1.2c1.5,0.5,3.3,0.6,4.9,0.9c-2.9-2.6-6.8-2.8-10.3-3.6
		c-2.8-0.6-5.5-1.1-8.3-1.4c-2.8-0.2-5.3-3.2-8.6-1.5c-0.1,0-0.6-0.2-0.6-0.4c-0.5-2-1.8-1.2-3.1-1c-0.9,0.2-1.8,0.2-2.7,0.2
		c-2.5-0.1-4.9-0.2-7.4-0.6c-2.2-0.4-5,0.5-6.4-2.2c2.6-0.5,5.2-1,7.6-1.5c-0.1-0.1-0.1-0.4-0.1-0.6c-3.6-0.6-7.7,0.9-10.3-3.7
		c0.9-0.2,1.7-0.7,2.6-0.7c6-0.2,11.9,1,17.8,2.2c5.8,1.1,11.4,2.1,17.2,2.8c3.7,0.6,7.4,0.5,11,1c6,0.6,11.9,1.6,17.9,2.3
		c3.3,0.4,6.8,0.6,10.2,0.9c1.5,0,2.6,0.7,2.6,2.1c0,0.9-0.9,1.7-1.4,2.6c-0.1-0.1-0.4-0.1-0.5-0.2c-0.1-0.5-0.2-1-0.2-0.9
		c-1.4,0.6-2.7,2-3.9,1.8c-3.3-0.4-6.5-1.2-9.7-1.8c-2.2-0.4-4.4-0.6-6.6-1c0,0.2-0.1,0.5-0.1,0.7c4.7,1.1,9.5,2.3,14.1,3.4
		c1.5,0.4,3.3,0.2,4.5,1c2.6,1.5,2.9,3.2,2.2,5.8c2.5-1.6,2.7-3.9,0.9-7.1c0.7-1,2-2,2-2.8c-0.1-2.8-0.7-5.5-1.2-8.2
		c0,0-0.1,0-0.1-0.1c-0.4-1.2-0.7-2.3-0.9-3.6c-0.1-1,0-2,0-2.9c0.7-0.2,1.4-0.4,1.8-0.5c-0.9-1.4-2.5-2.9-2.2-3.8
		c0.7-2.2,2.8-0.6,4.4-0.4c-0.2-0.7-0.4-1.2-0.6-1.8c2.1-0.5,4.1-1.4,6-1.6c7-1,14.1-1.8,21.1-2.7c1.4-0.1,2.3-0.7,3.3,1.2
		c0.6,1.2,0.6,2,0.4,3.2c-0.2,1.5-0.6,3.1-0.2,4.5c0.5,2.3,1.8,4.7,4.3,4.8c1.5,0.1,3.7-1,4.7-2.3c1.2-1.6,1.1-3.9-0.2-5.8
		c-0.4-0.6-0.9-1.1-1.1-1.7c-0.7-2.2-3.4-3.3-3.3-6c0-0.1-0.6-0.4-1-0.6c-0.7-0.5-1.5-0.9-2.1-1.4c-1.5-1.4-2.7-3.2-5.2-2.3
		c-0.2,0.1-0.7-0.2-1.1-0.5c-1.6-1.2-3.2-2.6-4.9-3.8c-1.1-0.9-2.5-1.5-3.9,0c2.2,1.5,4.3,2.8,6.4,4.2c-1.4,0.6-2.5,1.2-3.6,1.7
		c-2.5,1-3.6,0.2-3.9-2.3c-0.2-2-0.6-4.2-2-5.8c-0.2,0-0.4,0.1-0.6,0.1c0.1,1.1,0.4,2.1,0.5,3.1c-1.5-1.5-2.6-2.9-3.6-4.7
		c-1-1.8-2.2-3.4-4.2-3.9c-2.6-0.7-4.7-2.2-6.6-3.9c-0.7-0.6-1.6-1.1-2.5-1.4c-3.7-1.2-6.6-3.3-8.3-6.9c-0.1-0.4-0.6-0.7-1-0.7
		c-2.9,0.1-2.5-1.4-1.6-3.1c0.1-0.2,0.2-0.6,0.4-0.9c-3.2-1.7-5.9,0.9-9,0.2c-0.2-0.6-0.4-1.1-0.5-1.7c-0.1-0.6-0.4-1.4-0.5-2
		c-0.5-2.2-2.2-3.3-4.7-3.1c-3.3,0.4-3.9-0.4-2.8-3.3c0.7-2,0.4-3.6-0.5-5.5c-0.9-1.8-2.2-2.1-3.6-2c-0.7,0-1.8,1.2-2.1,2.1
		c-0.6,1.7-0.7,3.6-1.1,5.4c-0.1,1-0.2,1.8-0.4,2.9c-1.6-0.6-2.8-1.1-4.1-1.6c-2.6-1-3.2-0.7-4.4,1.6c-1.4,2.8-1.4,2.8-4.5,2.1
		c-0.7-0.1-1.6-0.5-2.3-0.9c-1.2-0.6-2-0.4-2.3,0.9c-0.2,0.7-0.2,1.7-0.7,2.3c-1,1.4-1.8,3.2-3.2,3.7c-3.2,1.2-6.8,1.6-10.1,2.3
		c-3.8,0.9-7.7,2-11.5,2.9c-0.5,0.1-0.9,0.5-1.2,0.9c-2.6,2.1-4.5,4.9-7.9,6.3c-1,0.5-1.8,1.8-2.2,2.9c-0.6,1.6-1.4,1.7-2.7,1
		c-1.7-1-3.4-1.8-5.2-2.8c-0.5-0.2-0.7-0.6-1.1-0.9c0.5-0.4,0.7-1.1,1.2-1.1c1.2-0.1,2.5,0,3.7,0c-1.4-2.5-2-2.6-4.4-1.2
		c-1.1,0.6-2.3,1.1-3.1,1.5c0.2,2.3,0.5,4.7,0.7,6.6c-1.1,0.6-2.1,0.9-2.5,1.5c-1.5,3.1-2.9,6.1-4.2,9.2c-0.5,1.4,1.1,3.7,2.7,4.2
		c1.6,0.5,2.8,0.2,3.7-1.6c1.4-2.9,2.9-5.8,4.5-8.7c2.2,0.9,4.8,2,7.4,2.7c3.8,1,7.7,1.7,11.7,2.6c0.2,0,0.6,0,1,0
		c2.2-0.1,2.7,0.2,2.3,2.5c-0.4,2-1,3.8-1.1,5.8c-0.1,1.6-0.6,2.6-2.5,2.8c-0.9,0.1-2.1,1.4-2,1.8c0.4,2.1-0.4,3.6-1.2,5.3
		c-0.5,0.7-0.5,2-0.5,2.9c0,2.2,0.1,4.5,0.1,6.8c0,0.2-0.4,0.7-0.7,0.9c-1.2,0.3-2.5,0.7-3.7,1c1.9-0.4,3.7-0.7,5.6-0.9
		C411.8,75.6,413.5,76.7,413.9,77.7z M421.6,90.1c0.2-1.7,0.5-2.9,0.7-4.5c1,0.9,1.6,1.5,2.3,2.1C423.7,88.4,422.9,89.1,421.6,90.1z
		 M436,79.3c0.1,0.4,0.2,0.6,0.4,1c-3.6,2-7.1,4.1-10.8,6.1c-0.9-3.4-0.6-4.1,2.3-4.8C430.5,80.8,433.3,80.1,436,79.3z M432.6,76.3
		c-0.5,2.7-2.1,3.2-4.2,3.1C429.6,78.5,430.8,77.5,432.6,76.3z M419.7,75.5c3.3,0.2,6.6,0.5,9.9,0.6c0.1,0.1,0.1,0.4,0.2,0.5
		c-2.6,1.8-5.3,3.8-8,5.8c-1.4-2.5,0.5-5.3-2.8-6.3C419.3,75.9,419.4,75.8,419.7,75.5z M418.8,77.9c0.5,2.5,0.9,4.8,1.2,7.2
		c0.2,1.5,0.5,2.8,0.6,4.3c0.2,4.4,0.5,9,0.5,13.4c-1-2.2-1.5-4.4-0.9-7c0.4-1.8-0.6-3.9-1.1-5.9c-1.1-4.5-0.7-9.5-3.7-13.5
		C417.5,75.5,418.3,76.6,418.8,77.9z M533.1,58.5c1.5,2,1.4,2.8-1.1,5.2C532.5,61.5,532.7,59.9,533.1,58.5z M529.5,55.1
		c2.5,2.6,2.3,5,0.1,7.4C528.1,60.4,527.9,58.2,529.5,55.1z M460.3,3.6c3.8,2,2.7,2.5,0.7,6.8C458.6,9,458.6,8.3,460.3,3.6z
		 M449.6,11.1c3.7,0.9,7,1.8,10.4,2.3c2.6,0.4,5.2-0.1,7.7-0.2c1.5-0.1,1.8,0.9,2.1,2c0.2,0.9,0.6,1.8,0.9,2.8
		c-4.8-0.5-9.7-0.6-14.5-1.5c-2.5-0.4-4.7-2-7.4-3.1C449.1,12.5,449.5,11.6,449.6,11.1z M447.3,15.9c3.1,0.7,6,1.6,9.1,2.2
		c5.4,1,11,1.5,16.6,1.1c1,0,2.1,0,3.1,0.1c0.5,0.1,0.9,0.6,1.4,0.9c-0.4,0.5-0.6,1.2-1,1.4c-1.2,0.5-2.7,0.6-3.9,1.1
		c-4.3,2-8.5,0-12.6-0.2c-1-0.1-2-0.7-3.1-1c-2.2-0.6-4.4-1.4-6.8-1.7c-3.2-0.5-5.9-1.5-8.3-4.5C444,15.5,445.7,15.6,447.3,15.9z
		 M426.4,22.9c-1.5,2-2.8,2.5-6,2.1C422.5,24.2,424.3,23.6,426.4,22.9z M409.2,31.1c0.6-0.6,1.4-1.5,2.1-1.7
		c4.2-1.2,8.3-2.2,12.5-3.3c1.1-0.4,2.3-0.7,3.2-1.4c3.8-2.8,8.5-3.2,12.8-4.3c1.1-0.4,2.5,0.7,3.8,1.1c1.4,0.4,2.7,1,3.9,0.7
		c3.6-0.6,6.6,0.5,9.9,1.4c2.5,0.6,5,0.9,7.5,1.5c3.6,1,6.8-0.1,10.1-0.9c2.8-0.6,5.3-0.1,7.7,1.8c3.6,2.8,7.7,5,11.7,7.5
		c2.6,1.7,5.4,3.3,8,5.2c2.6,2,4.4,4.4,3.8,8c-0.1,0.6,0,1.4,0.1,2.5c-7.7,0.1-15.5,0.2-23.1,0.2c-4.8,0-9.6-0.4-14.4-0.6
		c-4.5-0.2-9.2-0.5-13.7-1.1c-6.1-1-12.4-2.3-18.5-3.4c-3.8-0.7-7.7-1.2-11.7-2.1c-6.5-1.4-12.8-3.6-17.6-8.1
		C408.1,32.9,408.6,31.9,409.2,31.1z M405.9,35.4c0.5-0.1,1.2,0,1.7,0.4c1.7,1.1,3.3,2.5,4.9,3.7c-2.1-0.5-4.1-0.9-5.9-1.5
		c-0.7-0.1-1.2-0.7-1.8-1.1C405.2,36.4,405.4,35.6,405.9,35.4z M390.5,38.6c0.2,0.2,0.6,0.6,0.9,0.9c-1.1,1-2.1,1.8-3.2,2.7
		c-0.1-0.1-0.2-0.2-0.4-0.4C388.7,40.7,389.6,39.7,390.5,38.6z M392.3,44c-0.1,1.4-0.5,2.6-2.3,2.3c-1.4-0.1-1.5,0.4-0.7,1.5
		c0.4,0.6,0.4,1.4,0.6,2c-0.2,0.2-0.5,0.4-0.7,0.6c-1-0.7-2.6-1.2-2.8-2.2c-0.6-1.7,0.5-3.4,2-4.5c1.2-1,2.6-1.8,4.1-2.9
		C392.3,41.8,392.4,42.9,392.3,44z M407.3,40.5c-0.4-0.2-0.9-0.4-1.4-0.5c-0.1,0.1-0.2,0.4-0.4,0.5c0.5,0.2,1,0.5,1.5,0.7
		c0,0-0.1,0.1-0.1,0.2c-0.6,0-1.2,0-2.1,0c0.5,0.4,0.9,0.6,1.2,1c-4.4,0.1-7.2-2.8-10.4-4.8c-0.4-0.2-0.7-0.9-1.1-0.9
		c-2.6,0.4-2-1.4-2.1-2.9c0.7,0.1,1.4,0.1,1.8,0.4c3.4,1.4,6.8,2.9,10.1,4.3c1.1,0.5,2.3,0.7,3.6,1.1c2.9,0.7,5.8,1.5,8.7,2.2
		c2.1,0.5,4.1,1.4,6.1,1.7c3.2,0.6,6.5,1,9.7,1.6c2.3,0.4,4.7,1.1,7,1.4c11.9,1.5,23.9,3.1,35.8,3.9c8.5,0.6,16.9,1,25.4-0.1
		c2.9-0.2,6,0,9-0.1c1.2,0,2.5-0.7,3.7-0.9c3.2-0.4,6.5-0.5,10.2-0.7c-0.5,0.6-0.7,1.1-1,1.1c-2.9,0.6-6,1.1-9,1.6
		c-1.8,0.2-3.8,0.5-5.6,1c-2.9,0.7-5.6,1.7-8.6,2.2c-1.5,0.2-3.1-0.5-4.7-0.7c-1.2-0.2-3.2,0-3.4-0.5c-0.7-2.1-2-0.7-3.1-0.7
		c-1.5,0-3.1-0.1-4.5-0.1c-0.5,0-0.9,0.4-1.4,0.5c1.8,0.2,3.8,0.5,5.6,0.7c0,0.1,0,0.2,0,0.4c-2.3,0-4.5,0-6.9,0c0-0.1,0-0.2,0-0.4
		c0.4-0.2,0.9-0.5,1.2-0.7c-1.2-0.2-2.5-0.5-3.8-0.9c-1.2-0.2-2.2-0.5-3.7,0.1c-1.7,0.6-4.1,0-6-0.4c-4.8-0.7-9.6-1.6-14.6-1.5
		c-4.2,0.1-8.3-0.4-12.4-1c-3.1-0.4-6.1-1.7-9.2-2.3c-2.3-0.5-4.9-0.2-7.2-0.9C419.2,44.6,412.9,43.6,407.3,40.5z M485.7,63.9
		c-2.1-0.1-4.1-0.1-5.9-0.4c-0.6,0-1.6-0.7-1.6-1.2c-0.1-1.6,0-3.3,0.2-4.9c0-0.4,1.2-0.7,1.8-0.7c1.5-0.1,2.8,0.1,4.3,0.1
		c3.2,0,3.8,0.6,3.2,3.7c-0.1,0.9-0.5,1.6-0.7,2.3C486.7,63.9,486.3,64,485.7,63.9z M486.8,66.9c-2.9-0.2-5.8-0.6-8.7-1
		C479.9,64.1,485.8,64.7,486.8,66.9z M471.2,64.6c0.6,0.2,1.4,0.5,2.1,0.7c0,0.2-0.1,0.5-0.1,0.7c-2.2-0.1-4.4-0.2-7.2-0.4
		c0.6-0.9,1.1-1.5,1.5-2.1c-0.5-0.1-1-0.4-1.6-0.5c-5.4-0.2-10.8-0.2-16.2-0.6c-2.5-0.1-4.9-0.7-7.4-1.1c-3.8-0.6-7.6-1.1-11.8-1.7
		c0.5-2.9,1-6.4,1.6-9.9c5.3,0.5,10.7,0.6,15.6,2.8c0.5,0.2,1,0.4,1.5,0.4c7,0.7,14.1,1.4,21.1,2.2c1.1,0.1,2.2,1,3.6,1.6
		c-0.1,2-0.2,4.2-0.4,6.9c-2,0-3.9,0-6,0C468.8,64,470,64.3,471.2,64.6z M427.7,59.4c0.6-3.7,0.6-7.1,2.2-10.9
		C431.3,52.7,430.1,58.6,427.7,59.4z M416.9,58.6c2.7,0.5,5.4,1.4,8.6,2.1c-1.5-2-3.2-2.6-4.9-2.8c-1.8-0.2-2.6-1.1-2.2-2.9
		c0.2-1.8,0.4-3.7,0.9-5.5c0.1-0.6,1-1.2,1.6-1.4c1.4-0.1,5,0.5,6,0.6c0.2,0,0.5,0.1,0.7,0.1c-0.4,3.2-0.7,6.5-1,9.8
		c0,0.7,0.4,1.8,0.7,2c2.8,0.9,5.6,1.7,8.5,2.2c5,0.9,9.9,1.4,15,2.1c5,0.7,10.2,1.7,15.2,2.3c2.9,0.5,6,0.5,9.1,0.7
		c4.7,0.4,9.2,0.9,13.9,1.4c0.6,0,1.2,0.6,1.8,1c-0.4,0.5-0.7,1.4-1.4,1.6c-3.2,1.5-6.5,1.7-9.7,0.1c-0.6-0.4-1.2-0.7-1.8-0.7
		c-3.1,0-6,0-9.1-0.1c-1.4-0.1-2.7-0.5-4.1-0.6c-4.4-0.5-9-1-13.5-1.5c-0.7,0-1.5-0.2-2.2-0.5c-0.4-0.1-0.7-0.5-1.1-0.5
		c-8-0.6-15.8-2-23.6-4.1c-2.6-0.7-5.3-0.9-8-1.2c-0.5-0.1-1.2-0.1-1.4-0.5c-0.5-1-0.7-2-1.1-2.9C414.9,59.1,415.9,58.5,416.9,58.6z
		"/>
	<path class="st0" d="M429.5,126.5c4.5,9.8,12.3,16.1,23.1,18.2c1.5,0.2,2.8,0.4,4.3,0.6c14.2,0.1,25.2-7.1,30.4-19
		c5.3-11.5,1.8-24.4-3.3-29.7c3.9,7.2,5.8,15,4.2,23.2c-1.6,8.5-6.1,15.1-13.4,19.5c-9.9,6.1-21.4,7.4-32.7,0
		c-15.5-10.2-17.4-24.7-10.8-41.1C425.6,107.3,425.2,116.9,429.5,126.5z"/>
	<path class="st0" d="M440.1,125.5c4.1,6.5,10.2,9.3,17.6,10.1c-0.4-0.6-0.9-1-1.4-1.1c-2.3-0.6-4.9-0.9-7-2.1
		c-2.6-1.5-4.5-3.7-6.8-5.5c-4.2-3.8-5-8.8-5-14.4c3.3,3.1,3.3,3.1,7.4,1.2c2.3-1.1,3.2-0.7,4.5,2.1c0.2-2.3,0.4-4.2,0.5-5.9
		c-0.1,0-0.4-0.1-0.5-0.1c-0.4,0.6-0.7,1.2-1.1,2c-3.4-0.9-6-4.3-10.2-2.6c0.5-1.8,0.9-3.2,1.2-4.5C435.4,110,436,119.1,440.1,125.5
		z"/>
	<path class="st0" d="M454.2,109.6c-1.5,2.5-2.2,5-0.6,7.7c1.4,2.2,3.3,3.1,5.5,2.6c1.1-0.2,2.5-1,3.2-0.6c0.9,0.4,1.2,1.8,1.7,2.9
		c0.5,1.1,0.6,2.3,1.2,3.3c0.9,1.2,1.8,2.5,3.1,3.2c1.2,0.7,2.7-0.2,2.6-1.6c-0.4-2.1-0.9-4.2-3.3-4.9c-0.4-0.5-0.6-1.2-0.9-1.6
		c-3.4-1.4-3.7-1.7-2.8-5.4c0.7-3.1-1.6-6.8-4.7-7.4C457.2,107.6,455.3,107.9,454.2,109.6z M458,109.2c2.3-0.1,4.9,2.5,4.9,4.9
		c0,2.2-2.7,5-4.9,5c-2.1,0-4.1-2.2-4.2-4.7C453.8,111.9,455.9,109.3,458,109.2z"/>
	<path class="st0" d="M474.9,94.2c-8-6.5-19.9-7.5-29-2.6c-3.6,2-6.9,4.3-8.6,8.2l0,0l0,0c-3.2,3.1-3.8,6.9-4.2,10.9
		c1.5-3.7,2.8-7.2,4.3-10.7l0,0.1c0.6-0.6,1.4-1.1,1.8-1.7c7.5-9.3,21.8-11.8,31.8-5.6c3.9,2.5,6.8,5.8,9.6,9.3l0.1-0.1
		C479.9,98.5,477.4,96.3,474.9,94.2z"/>
	<path class="st0" d="M434.3,95c8.1-10.1,24.1-15,36.3-9c1.6,0.7,1.8,0,2-1c-2.9-1.1-5.9-2.1-8.7-3.1c-0.7,0.2-1.6,0.7-2.5,0.9
		c-2.6,0.2-5.2-0.1-7.6,0.2c-8.2,1.1-15.1,5-20.5,11.5c-0.4,0.5-0.5,1.1-0.7,1.6C433.4,96,433.9,95.5,434.3,95z"/>
	<path class="st0" d="M455,140.5c1.2,1.8,2.1,2,3.6,0.2c0.5-0.6,1.4-1.2,2.1-1.5c3.2-1,6.5-1.7,9.7-2.8c1.6-0.6,3.1-2.1,4.5-3.1
		c-0.1-0.2-0.2-0.6-0.4-0.9c-6.9,5.8-14.7,6.8-23.2,4.9C452.7,138.5,454.2,139.2,455,140.5z"/>
	<path class="st0" d="M448.4,123.1c0.4-1,1-2.1,1.7-2.5c1.8-0.9,1.6-2.3,1.8-3.9c-2.8,1.5-5.5,2.8-8.1,4.2c-2,1-2.5,2.2-1.7,4.2
		c0.1,0.5,0.2,1.1,0.4,1.7C445.5,127.1,447.3,125.8,448.4,123.1z"/>
	<path class="st0" d="M431.3,69.5c3.4,2,18.7,4.9,20.3,4.3C445,71.6,438.5,69.1,431.3,69.5z"/>
	<path class="st0" d="M477.5,115.7c0.1-1.8-0.9-2.8-3.2-3.1c-0.5-0.1-1-0.1-2.1-0.1c-0.9,0.1-2.3,0.2-3.6,0.5
		c-0.6,0.1-1.1,0.9-1.2,1.5c-0.1,0.2,0.6,0.7,1.1,1.1c0.4,0.4,1,0.5,1.5,0.7c1.4,0.6,2.6,1.4,3.9,1.6
		C475.9,118.4,477.4,117.3,477.5,115.7z"/>
	<path class="st0" d="M480.8,101.8c0,0,0,0.1,0,0.1c0,0.4,0,0.8,0,1c4.7,10.1,2.9,19.1-4.2,27.5c-0.4,0.4-0.5,0.9-0.7,1.4
		c3.9-2.7,5.8-6.6,7.2-10.8c2.2-6.4,1-12.4-1.5-18.3C481.5,102.3,481,102,480.8,101.8z"/>
	<path class="st0" d="M456.6,122.3c-0.5,1.4-0.7,2.6-1.1,3.8c-0.2,1.2-0.5,2.6-1,3.7c-0.7,1.6,0.1,2.5,1.4,3.1
		c1.4,0.6,2.6,0.1,3.3-1.1C460.8,129.2,459.4,124,456.6,122.3z"/>
	<path class="st0" d="M464.8,107.2c-0.4,0.1-0.5,1.1-0.7,1.7c0.2,0,0.4,0,0.5,0.1l6.9-3.6c0.6-0.2,1.2-0.7,1.6-1.2
		c1.4-1.6,0.7-3.3-1.2-3.9c-1.8-0.6-3.8,0.5-4.5,2.9C466.8,104.9,466.6,106.3,464.8,107.2z"/>
	<path class="st0" d="M459.6,105c1-2.3,1.8-4.7,2.8-7.6c-0.7-1-1.4-2.7-2.5-2.8c-1.6-0.4-2.9,1.1-2.9,2.7c0.1,2.6,0.7,5,1.2,7.6
		C458.2,105,459.6,105.1,459.6,105z"/>
	<path class="st0" d="M464.7,134.1c11.4-1.4,18-16.8,15-23.4C480.2,122.2,475.2,129.8,464.7,134.1z"/>
	<path class="st0" d="M445.6,100.6c0,1.5,0.2,2.9,2.1,3.3c-0.4-1.1-0.7-2.3-1.1-3.4c0.4-0.1,0.6-0.4,1-0.5c1,1.4,2.1,2.7,3.1,4.1
		c-0.1,0.1-0.2,0.4-0.4,0.5c-0.9-0.1-1.7-0.4-2.6-0.6c1.5,1.2,2.8,2.3,4.5,3.2c0,0.1,0.9-0.6,0.9-0.7c-1.5-2.5-2.8-5.2-4.7-7.4
		C447.4,97.9,445.6,99,445.6,100.6z"/>
	<path class="st0" d="M436.2,130c-0.2,0.2-0.5,0.5-0.7,0.7c0.4,0.2,0.6,0.6,1,0.7c0.5,0.2,1.2,0.6,1.5,0.4c1.7-1.6,2.5,0.1,3.3,1
		c1.7,1.7,3.7,2.9,6.4,3.7c-3.4-2.8-6.5-5.4-9.5-7.9C437.6,129,437,129.5,436.2,130z"/>
	<path class="st0" d="M324.1,142.4c-0.4,1.2,1.8,3.2,3.2,2.9c0.7-0.1,1.4-0.9,1.7-1.1c0-1.8-1.7-3.7-2.9-3.3
		C325.3,141.1,324.2,141.8,324.1,142.4z"/>
	<path class="st0" d="M322,147.1c-0.1,0.1-0.2,0.4-0.4,0.6l0.4,0.2c0.6,0.4,1.1,0.9,1.8,1.1c0.7,0.2,1.6,0.1,2.5,0.2
		c-0.1-0.9,0.2-2-0.2-2.7c-0.5-0.6-1.6-1.4-2.5-1.4C323.1,145.1,322.5,146.3,322,147.1z"/>
	<path class="st0" d="M327.5,140.6c1-1,2.2-1.6,2.2-2.1c0.1-1.6-1.2-2-2.6-2c-1.2-0.1-2.6,0.1-2.3,1.5
		C325,138.9,326.4,139.6,327.5,140.6z"/>
	<path class="st0" d="M436.9,127.3c-1.4-5-2.7-9.6-3.9-14.2C432.2,118.2,434,122.8,436.9,127.3z"/>
	<path class="st0" d="M467.5,94.1c3.6,3.3,6.9,6.1,10.1,9.1C475.3,99.3,472.6,95.8,467.5,94.1z"/>
	<path class="st0" d="M483.8,87.8c-2.8-1.8-6.3-1.7-9.5-2.1c0,0.2-0.1,0.5-0.1,0.7c3.2,0.6,6.3,1.4,9.5,2
		C483.8,88.2,483.9,87.9,483.8,87.8z"/>
	<path class="st0" d="M458.3,73.4c-1.7,0.1-3.4,0.2-5.5,0.4C455,75.5,455.9,75.4,458.3,73.4z"/>
	<path class="st0" d="M473.9,87.5c2,1.4,3.7,2.7,5.4,3.9C477.4,88.2,476.3,87.4,473.9,87.5z"/>
	<path class="st0" d="M444.2,97.2c0.1,0.2,0.2,0.5,0.4,0.6c2.1-1.2,4.2-2.6,6.3-3.8c-0.1-0.2-0.2-0.4-0.4-0.6
		C448.4,94.7,446.3,96,444.2,97.2z"/>
	<path class="st0" d="M505.1,156.9c1.8,0.4,3.6-1.2,3.8-3.4c0-0.4,0-0.9,0-1.2c0,0,0.1-0.1,0.4-0.1c-0.5-1.5-1-2.8-1.4-4.3
		c-0.2-1-0.5-2-0.7-2.8c-0.1-0.6-0.6-1.1-0.9-1.6c-0.4,0.5-0.9,0.9-1.1,1.5c-0.6,1.2-1,2.5-1.5,3.7c-0.4,1.2-1.1,2.5-1.4,3.8
		C501.9,154.4,503.3,156.5,505.1,156.9z"/>
	<path class="st0" d="M504.7,136.5c1.4,0.7,3.3-0.6,3.3-2.2c0.1-3.1-0.1-6.3-2-8.8c-0.2-0.1-0.6-0.1-1-0.1c-1,2.7-2.1,5.4-2.6,8.1
		C502.3,134.3,503.6,136,504.7,136.5z"/>
	<path class="st0" d="M412.4,108.9c-0.2,0.2-0.9,0.4-0.9,0.9c-0.9,2.8-1.7,5.6-2.2,8.5c-0.2,1.6,0.4,3.3,2,4.1
		c0.6,0.2,1.7,0,2.2-0.5c1.4-1.4,1.2-3.1,0.7-4.8c0-0.1-0.1-0.1-0.1-0.2C412.7,114.4,412.2,111.9,412.4,108.9z"/>
	<path class="st0" d="M412.2,100.7c2.1-1.4,2.6-4.3,1.4-6.6c-0.9-1.8-1.6-3.8-2.7-6.4c-0.4,0.9-1.2,1.7-1,2.3c0.6,2,0,3.6-0.6,5.4
		c-0.5,1.1-0.5,2.6-0.4,3.9C409,101.2,410.6,101.8,412.2,100.7z"/>
	<path class="st0" d="M506.8,119.2c1.7,0.2,1.7-1.4,2-2.5c0.1-0.5,0.1-1.1,0-1.7c-0.2-2.3-0.6-4.5-1-6.9c-0.1-0.6-0.6-1.1-1.1-2.1
		c-1,2.8-1.7,5-2.3,7.4c-0.2,0.9-0.4,2-0.4,2.9C504.1,118.1,505.4,119.1,506.8,119.2z"/>
	<path class="st0" d="M414,143.2c-0.1-2-0.5-4.1-1.1-5.9c-0.7-2-1.7-3.7-2.7-5.6c-0.1,0.1-0.4,0.2-0.1,0.5c0.7,3.2-0.4,6.1-1.1,9.1
		c-0.2,0.5-0.2,1.4,0,1.7c0.7,0.9,1.5,2.1,2.5,2.3C412.7,145.6,414,144.6,414,143.2z"/>
	<path class="st0" d="M505.6,162.3c-0.9,0.2-1.4,1.2-2,2c0.2,1.7,0.7,2.9,2.2,2.6c1-0.1,2-1.4,2.5-2.3
		C508.8,163.5,506.8,161.9,505.6,162.3z"/>
	<path class="st0" d="M441.9,157.5c0-1.2,0-3.1-2-2.9c-0.9,0-1.6,1-2.9,2c1.4,1.4,2.2,2.1,3.2,3.1
		C440.8,158.9,441.9,158.3,441.9,157.5z"/>
	<path class="st0" d="M412.8,148.9c-0.6,1.1-1.6,2-1.7,3.1c0,0.7,1.1,1.6,1.7,2.3c0.7-0.9,1.8-1.6,2-2.6c0.1-0.7-0.7-1.7-1.1-2.7
		C413.4,148.9,413.2,148.9,412.8,148.9z"/>
	<path class="st0" d="M427,156.5c0.6-0.7,1.8-1.5,1.8-2.2c0-1-1-2-1.6-2.9c-0.2,0-0.6,0-1-0.1c-0.4,0.9-1.2,1.7-1.1,2.3
		C425.4,154.7,426.4,155.6,427,156.5z"/>
	<path class="st0" d="M476,164c0.7,0,1.5-1.5,2.7-2.7c-1.1-0.7-1.8-1.4-2.6-1.6c-1.1-0.2-2,0.4-2,1.6
		C474.1,162.7,474.5,164.1,476,164z"/>
	<path class="st0" d="M463.7,162.4c1.5,0.2,2.1-1.2,2-2.3c-0.1-0.9-1.2-2-2-2.1c-0.6-0.1-1.5,1.1-2.6,2.1
		C462.3,161.2,462.9,162.3,463.7,162.4z"/>
	<path class="st0" d="M455.1,159.1c-0.2-1.1-1.4-2-2.1-2.8c-0.6,0.6-1.2,1.2-2.2,2.2c1,1.1,1.6,2,2.3,2.7
		C453.9,160.5,455.3,159.6,455.1,159.1z"/>
	<path class="st0" d="M497.9,165.6c1.5-0.9,1.7-2,0.7-3.4c-0.4-0.5-0.6-1-1-1.8c-1.6,1-2.1,2.5-2.1,4.1
		C495.5,165.9,496.6,166.4,497.9,165.6z"/>
	<path class="st0" d="M489.6,162.8c-0.2-0.9-1.2-1.6-2-2.3c-0.6,0.7-1.1,1.5-2,2.7c1,0.7,1.6,1.4,2.5,1.8
		C488.7,164.3,489.8,163.4,489.6,162.8z"/>
	<path class="st0" d="M386.9,114.7c1.8,0.9,3.6,2.1,5.5,2.6c1.4,0.2,3.3,0.1,4.2-0.6c0.9-0.7,0.9-2.7,0.6-3.9
		c-0.2-1.6-1.7-2.1-3.4-2.2c-2.2,0.7-4.5,1.5-6.9,2.5c-0.4,0.1-0.6,0.6-0.6,1C386.3,114.2,386.7,114.6,386.9,114.7z"/>
	<path class="st0" d="M367.3,116.6c1.2,1.4,2.7,1.2,4.2,0.5c1.8-0.9,3.8-1.6,6.3-2.7c-1-0.6-1.8-1.5-3.1-2.2c-1.1-0.6-2.5-1-3.7-1.5
		c-1.4-0.6-2.7-1-3.9,0.4C366,112.3,366.2,115.4,367.3,116.6z"/>
	<path class="st0" d="M381.6,133.3c0.6,0,1.6-1.1,2-1.8c1.7-4.1,0.6-7.7-1.8-11.5c-1,2.8-1.8,5.4-2.6,8.1c-0.2,1.1-0.2,2.5,0.1,3.4
		C379.7,132.4,380.8,133.2,381.6,133.3z"/>
	<path class="st0" d="M381.1,106.1c0.1,0.4,0.6,0.7,1,1.1c0.6-1.8,1.2-3.4,1.5-5.3c0.5-1.8,1-3.7,1.2-5.6c0.1-1.6-0.7-2.6-2.3-2.8
		c-1.5-0.1-2.5,0.7-2.7,2.1c-0.2,1-0.2,2-0.1,2.8C380.1,100.9,380.6,103.5,381.1,106.1z"/>
	<path class="st0" d="M367.5,95.2c-0.9,6.5-6.1,10.8-8.3,16.6C364.2,107.3,367,101.8,367.5,95.2z"/>
	<path class="st0" d="M359.5,93.7c1.4-0.1,2.3-0.7,2.2-2.2c0-1.5-1-2.1-2.3-2c-0.9,0.1-1.7,0.4-2.6,0.5c-1.4-0.6-2.2-0.2-1.6,1.1
		C356.1,92.6,357.4,93.9,359.5,93.7z"/>
	<path class="st0" d="M356,100.8c1.5,0.5,4.4-1,4.1-2.1c-0.2-1.1-1.6-2.1-2.7-2.5c-1.5-0.5-3.1-0.4-4.7-0.5
		C352.5,98.2,353.9,100.2,356,100.8z"/>
	<path class="st0" d="M351.4,105.3c0.9-0.2,1.6-1.1,2-1.5c0-2.5-1.7-4.4-3.4-4.1c-0.7,0.1-1.7,1-1.8,1.6
		C347.9,102.8,350.3,105.6,351.4,105.3z"/>
	<path class="st0" d="M346,103c-0.1-0.4-1.1-0.7-1.6-0.6c-0.5,0.1-1.2,0.9-1.2,1.2c0.2,1.2,0.5,2.6,1.1,3.8c0.4,0.5,1.5,1.1,1.8,1
		c0.6-0.2,0.9-1.2,1.2-1.8C347,105.1,346.8,104,346,103z"/>
	<path class="st0" d="M382.6,117.9c1.6,0.1,2-0.9,2-2.5c0.1-1.6-2.1-4.9-3.1-4.4c-1,0.5-1.8,1.7-2.1,2.8
		C379,115.9,380.8,117.7,382.6,117.9z"/>
	<path class="st0" d="M367,81.3c-0.4,0.1-0.6,0.2-1,0.4c0.9,2.6,1.6,5.2,2.5,7.7C369.6,86.2,367.8,83.9,367,81.3z"/>
	<path class="st0" d="M355.4,127.6c-2.7-0.6-4.7,0.4-6.1,2.5c-0.4,0.6-0.9,1.6-0.7,2c0.4,0.6,1.4,0.9,1.5,1c3.2,0,5.4-0.6,6.4-3.2
		C356.8,128.7,356.9,127.8,355.4,127.6z M354.4,130.4c-0.5,0.5-3.2,1.5-3.7,1.1c-0.7-0.5-0.7-1.1-0.2-1.5c1.2-0.9,3.3-1.1,3.7-0.9
		C354.6,129.5,354.9,129.9,354.4,130.4z"/>
	<path class="st0" d="M466.1,219c0,0.1,0,0.4,0,0.6c1.7,1,3.3,0.4,4.9-0.4c0-0.1-0.1-0.4-0.1-0.6C469.3,218.8,467.7,218.9,466.1,219
		z"/>
	<path class="st0" d="M458,117.3c2.1-0.1,2.9-1,2.9-2.9c0-1.8-1.5-3.4-3.1-3.3c-1.2,0.1-2.6,1.8-2.6,3.3
		C455.3,116.1,456.3,117.3,458,117.3z"/>
</g>
<path class="st0" d="M137.3,222.5c0.1,2.9,0.5,4.1-3.8,3.7c-5.8-0.6-8.7-2.6-10.7-7.6c-0.4-0.9-2-1.6-3.2-1.7
	c-1.7-0.5-3.6-0.4-5.6-0.5c-2.8,3.9-2.8,3.9-7.9,2.3c-0.5-0.2-1.1-0.5-1.5-0.4c-8.7,1.9-10.2-5.6-13-10.6c-1.9-3-0.3-6,2.6-8.3
	c1.1-0.8,2.4-1.6,3.9-2.5c-2.4-3.6-3.7-7.2-1.3-11.6c0.3-0.3-1.1-1.8-1.9-2.3c-5-2.3-6.3-7.8-2.2-11.1c4.1-3,4.8-8.3,9-11
	c3.1,1.9,6.7,1.5,10,0.3c4.7-1.4,8.3-2.3,11,3.3c0.9,1.9,4.6,2,4.8,5.2c0.1,2.1,0.5,4.2,0.8,6.5c7.3-0.8,5.4,0.2,8.6,9.3
	c0.2,1,0.1,2.1,0.3,3.3c1.9-0.1,3.6-0.5,5.4-0.3c4.2,0.3,5.4,1.5,6.4,5.7c0.4,1.3,1.1,2.7,2,3.7c3.7,4.6,3.3,6.9-1.8,9.6
	c-0.9,0.4-1.9,0.9-2.8,1.3C149.1,218.1,146.4,222.4,137.3,222.5z M138.2,205c0.3-0.3,0.5-0.7,0.8-1c1.5,0.5,3.2,1.3,4.7,1.8
	c2.7,0.6,6.2-0.9,6.8-2.8c0.8-2.7-1.5-3.6-3-5c-0.8-0.7-1.3-1.7-1.7-2.6c-0.4-1.3-0.4-3.5-1.2-3.9c-1.4-0.6-3.7-0.6-4.8,0.2
	c-2.4,1.6-4.1,3.9-6.6,6.4c-0.1-1-0.7-2.2-0.5-3.2c0.4-2.3,1-4.6,1.8-6.9c1-3.7-0.8-7.8-3.4-8.8c-1.5,1.4-2.5,3.6-3.9,3.8
	c-5.7,0.6-8,4.3-4.9,9.4c0.8,1.3,1.9,2.3,2.5,3.5c0.3,0.7-0.3,1.6-0.3,2.5c-0.8-0.3-1.8-0.2-2.1-0.7c-2.4-3.1-5.8-3.2-9.3-3
	c-3.1,0.2-3.6,0.9-2.1,3.6c0.5,1,1.4,2.1,2.3,2.5c2,1,2,2,1.4,3.8c-0.9,3,0.7,5.4,3.8,6.9c3,1.3,4.7,0.1,6.1-2.5
	c0.4-0.6,0.8-1.5,1.1-2.1c0.3,0.1,0.5,0.2,0.9,0.2c-0.2,2.7,0.4,5.8-0.9,7.9c-2.2,3.4,0.3,5,1.5,7c1.3,2.2,3.7,2.3,5.8,1.3
	c1.4-0.7,2.2-2.6,2.9-3.3c2.2,0,4.4,0.7,5.9-0.1c5-2.9,4.9-8.4,0.2-11.6C140.5,207.1,139.4,206.1,138.2,205z M112.3,168.9
	c-0.3,0.2-0.5,0.3-0.9,0.4c-0.8-0.9-1.8-1.5-2.5-2.4c-1.7-2.2-3.9-2-6.2-1.3c-2.1,0.6-3.2,1.8-3.2,4.1c0.1,0.6-0.8,1.5-1.4,2
	c-0.7,0.8-1.7,1.4-2.6,2.1c0.1,0.2,0.3,0.3,0.5,0.6c-1.3,0-2.6,0-4.7-0.1c1.2,2.4,1.6,5.2,3.1,6c2.4,1.4,5.4,2.7,8.2,0.1
	c0.4-0.4,1.4-0.2,2.2-0.4c0,0.9,0.3,2-0.1,2.4c-0.9,0.8-2.2,1.3-3.5,1.7c-3.6,1.3-5.2,6.6-2.4,8.8c1.4,1.2,3.8,1.6,5.8,1.9
	c0.9,0,1.7-1.3,2.8-1.8c1.2-0.6,2.6-1.3,4-1.5c1.8-0.2,3.5-0.2,5.9-0.3c-1.1-5-1-9.6,2.9-13.1c-4.5-2.7-4.7-2.7-6.4,1.4
	c-0.4,1.3-1.9,2.6-3.1,2.8c-1,0.1-3-1.3-3.1-2.4c-0.2-1.4,0.6-3.1,1-4.6c0.3,0.1,0.5,0.2,1,0.4c0.1,3.4,0.1,3.4,1.9,4
	c0.1-5.2,3.8-7.2,8.2-4.6c1.5,1,2.9,2,4.6,0.2c0.8-1,2-2.5,1.9-3.7c-0.1-1.9-0.5-3.8-3.3-4.2c-0.9-0.2-2.2-1.5-2.5-2.6
	c-1.1-2.7-3.2-3.1-5.6-2.7c-2.6,0.4-3,2.1-2.4,4.4C112.4,167.4,112.3,168.1,112.3,168.9z M104.9,214.2c0.8,0.7,1.1,1.4,1.6,1.6
	c1.4,0.6,2.7,0.8,4,1.3c0.4-1.3,0.9-2.6,0.9-3.9c0.2-1.4,0.2-3.1-0.4-4.3c-1.5-3.1-2.8-7.2-5.5-8.7c-2.6-1.5-6.9-1.8-9.9,0.7
	c-1.2,1-2.5,2.9-2.6,4.4c-0.1,2.4,1.9,2.3,3.7,2.3c0.3,0.1,0.6,0.4,1.3,0.9c-2.4,2-2.2,4.3,0,6.2
	C100.6,216.5,102.7,216.8,104.9,214.2z"/>
<path class="st0" d="M149.2,156.5c0.5,0.3,1.1,0.8,1.8,0.8c0.9,0.1,1.9-0.2,2.5-0.8c0.4-0.2-0.3-1.3-0.4-2c-0.3-1.1-0.3-2.2-0.6-3.2
	c0.5-0.1,1.3-0.3,1.5-0.3c0.8,0.9,1.9,2,2.1,3c0.3,1.3-0.3,2.7-0.4,4.2c0.3,0.2,0.5,0.3,0.8,0.5c0.9-1.2,1.7-2.6,2.8-3.7
	c0.6-0.6,1.3-1.5,2-1.5c0.5-0.1,1.9,0.6,1.8,0.8c-0.1,0.9-0.5,1.7-1.1,2.3c-0.7,0.7-1.5,1.4-2.7,2.7c1.6,0.7,2.7,1.1,3.9,1.8
	c3,1.3,3.4,2.6,2.2,5.5c-1.1,2.3-1.7,4.8-3.1,6.9c-1.6,2.4-4.1,2.5-6.6,0.6c-0.7-0.7-2.1-0.6-3.1-0.7c-2,0-4.2,0-5.1-2.3
	c-0.7-2.2-2.1-4.4-0.3-7.1C148.4,162.1,148.5,159.2,149.2,156.5z M161.4,169.4c0.5-2.4,1.8-4.6,1-5.2c-1.4-1.7-3.6-1-5.2,0.5
	c-0.8,0.6-1.6,1.5-2.9,2.8c-0.4-2-0.4-3.1-1-4.1c-0.3-0.6-2.3-1.1-2.4-0.9c-1,1.7-2.1,3.2-2.6,4.9c-0.8,2.5,1.3,4.7,3.9,4.5
	c1.4-0.1,2.5-0.5,3.2-0.6c1.7,1,2.8,2.1,4.3,2.3c0.9,0.1,2.1-1.3,2.4-2.2C162.2,170.5,161.4,169.4,161.4,169.4z"/>
<path class="st0" d="M171.1,124.5c-0.2,1.5,0.1,2.9-0.6,4.1c-1,2.1-4.6,2.9-5.7,1.4c-0.7-1.1-1-3.9-0.3-4.4c1.4-1.2,3.6-1.2,5.5-1.7
	C170.4,123.8,170.8,124.3,171.1,124.5z"/>
<path class="st0" d="M181.9,147.9c1.9-0.7,3.2-1.3,4.2-1.1c1.5,0.4,2,4.7,0.5,6.8c-0.5,0.8-2.2,0.7-3.5,1.1
	C182.7,152.6,182.4,150.4,181.9,147.9z"/>
<path class="st0" d="M202.9,110.8c-1.3,0.8-2.2,1.4-2.6,1.4c-0.6-0.1-1.2-0.9-1.4-1.5c-0.4-2-0.7-4.2-0.7-6.2c0-0.4,0.9-1.5,1.6-1.5
	c0.5-0.1,1.6,0.7,1.7,1.2C202,106.3,202.4,108.6,202.9,110.8z"/>
<path class="st0" d="M173.9,147.4c-2,0.4-3.3,0.7-4.5,0.9c-0.2-1.6-0.7-3.3-0.4-4.7c0.3-0.9,2.3-1.3,3.5-1.8
	C173,143.6,173.4,145.2,173.9,147.4z"/>
<path class="st0" d="M167.6,181.7c-2.3,0.2-4.3,0.9-5,0.2c-0.9-0.7-1.3-3.2-0.8-4c0.6-1,2.9-1.5,3.9-1
	C166.6,177.3,166.7,179.4,167.6,181.7z"/>
<path class="st0" d="M196.1,143.6c0.1,1.8,0.3,3.3,0.2,3.5c-1.6,0.4-3.3,0.7-4.9,0.7c-0.3,0.1-0.6-1.7-0.8-2.5
	C192.1,144.9,193.7,144.3,196.1,143.6z"/>
<g>
	<path class="st0" d="M273.6,99.7c-4,6.8-9,9.7-14.8,7.9c-6.3-1.9-11.4-6.8-11.1-14.7c0.2-3.4,0.9-6.9,2.1-10.1
		c2.3-5.6,7.6-7.8,13.9-6.2C275,79.3,279.3,89.8,273.6,99.7z M252.5,83.9c-0.5,1.7-1.9,4.9-2.6,8.3c-1.1,6.1,6.9,16.9,15.5,13.2
		c4.4-1.9,8.9-8.9,8.9-14.2c-0.2-5.4-4.2-10.4-9.9-12.2C258.6,77.2,255.9,78,252.5,83.9z"/>
	<path class="st0" d="M250.1,114.5c0.7,0,2.4-1.1,3.8-0.7c2.5,0.8,2.7,4.5,0.9,7.7c-1.1,1.8-2.9,3-5,1.8
		C247.9,122.1,247.7,118.2,250.1,114.5z"/>
	<path class="st0" d="M237.9,73.8c2.1,1.7,5,2.5,3.9,5.6c-0.6,1.9-4.6,1.8-6.7,0.1c-2.1-1.4-2.8-3.2-1.6-5.4
		C234.9,72.1,236.7,72,237.9,73.8z"/>
	<path class="st0" d="M265.1,113.9c2.3,0.2,4,0.1,5.1,0.8c1.2,0.7,2,2.3,2.4,3.6c0.1,1-0.8,2.2-1.2,3.3c-1.3-0.5-2.9-0.8-3.5-1.6
		C266.7,118.1,266.1,116,265.1,113.9z"/>
	<path class="st0" d="M233.2,89.6c0.8,0.5,2.4,1.6,1,3.9c-1.4,2.3-4.4,3-7,1.3c-1.7-1.2-2.7-2.7-1.5-4.7
		C226.7,88,230.1,87.5,233.2,89.6z M228.1,93.3c1.6-0.4,2.8-0.6,3.9-0.9c-0.3-0.6-0.6-1.7-0.8-1.8c-1-0.2-2.2,0-3.3,0.3
		C227.9,90.9,228.1,92.2,228.1,93.3z"/>
	<path class="st0" d="M289.7,79.6c-3.1,0.7-5.2,1.2-7.2,1.6c-0.3-1.5-0.9-3-0.5-4.1c1.1-2.3,3-2.9,5.2-1.2
		C288.1,76.7,288.5,77.8,289.7,79.6z"/>
	<path class="st0" d="M275,61.3c-0.5,1.7-2.5,3.9-1.4,4.7c1.1,0.8,2.9-0.3,3.6-2.4c0.7,3.3-1.3,5-3.1,6.5c-0.4,0.2-2.1-0.3-2.5-1
		C270.1,66.7,271.6,62.9,275,61.3z"/>
	<path class="st0" d="M230.3,104.4c1.1-1.8,4.3-1.7,5.1-1.1c0.9,0.7,1.7,3.2,1.1,4.2c-0.7,1.2-2.7,1.6-4.3,2.4
		C232.5,107.2,229.4,106.1,230.3,104.4z"/>
	<path class="st0" d="M253.3,59.1c0.1,3.6,0.4,6.2,3.7,7.5c0.4-1.8,0.6-3.4,1-5.2c1.8,2.2,1.3,6.6-0.6,7.6c-0.3,0.1-0.6,0.3-0.8,0.2
		c-1.6-1.4-3.4-2.9-4.7-4.5C250.8,63,250.7,61.2,253.3,59.1z"/>
	<path class="st0" d="M287.7,93.8c-0.1-1-0.3-2.2-0.4-3.1c1,0.6,2.5,1,3.2,1.8c0.4,0.5-0.2,2.6-0.7,2.7c-1.2,0.6-3.4,1.3-4.4,0.6
		c-1.2-0.7-1.7-2.8-2.2-4.2c-0.1-0.3,0.7-1.2,1.1-1.1c0.4,0,1,0.6,1.4,1c0.6,0.8,1,1.7,1.6,2.7C287.3,94.1,287.6,94,287.7,93.8z"/>
	<path class="st0" d="M284.9,109.3c-1.3-0.1-2.9,0.3-3.9-0.2c-1-0.6-1.2-2.2-1.6-3.4c1.4-0.1,2.7-0.4,4,0.1c0.9,0.3,1.4,1.7,2,2.7
		C285.3,108.7,285.1,109,284.9,109.3z"/>
</g>
<path class="st0" d="M196,134.2c-2.1,1.3-5,2-3.6,6.2c-2.5-0.8-4.3-1.4-6-1.9c-2.7-0.7-5.6-1.9-8.4,0.3c-0.4,0.2-1.1,0-1.6-0.3
	c-7.4-3.8-18.2-2.8-24.2,2.6c-1.8,1.6-3.5,3.3-2.2,6.1c0.1,0.5-0.9,1.5-1.3,2.2c-0.8-0.5-2.3-1.1-2.2-1.5c0.2-1.9,0.3-4.3,1.4-5.4
	c4.9-5.8,11-9,18.9-8c4.8,0.6,9.6,1.8,14.6,0.2c6.3-2.1,7.9-9,5.2-14.3c-0.3-0.6-1.4-0.6-2.4-0.9c-0.2,1.2-0.4,2.2-0.4,3.3
	s0.4,2.4,0.7,3.8c-1.1,0.3-2.8,1-3.2,0.6c-0.8-0.9-1.1-2.4-1.1-3.8c-0.1-1,0-2,0.7-2.7c1.3-1.5,2.7-3.5,4.3-4c2.6-0.7,3.4,1.8,4.2,4
	c1.7,5.2,0.7,10-3,14.7c1.2-0.2,3,0.2,3.8-0.5c2.7-2.4,5.4-5.1,8-7.6c2.1-2.1,4-4.6,6.1-6.7c0.5-0.4,2,0,3,0.2
	c-0.6,0.7-1.1,1.6-1.7,2.1c-1,1-3.5,0.6-2.4,3.3c0.1,0.3-1.5,1.4-2.7,2.4c1,0.2,1.6,0.3,2.2,0.4c5.4,0.3,7.7,2.5,7.4,7.9
	c-0.1,4.4-4.8,9-8.7,8.8c-3-0.2-5.1-3.4-4.5-6.8c0.2-1.2,0.6-2.6,0.7-3.8c2.1-1,4.8-2.5,6.3,0.3c0.9,1.9,0.2,4.3,0.2,6.6
	c0.2,0.1,0.5,0.3,0.6,0.6c1-1.4,2.6-2.9,2.9-4.6c0.4-1.5,0.1-4-0.9-5s-3.3-1.7-4.7-1.4C199.7,132.1,197.9,133.3,196,134.2z"/>
<path class="st0" d="M611.3,55.2c-0.8,1.4-1.2,2.9-2.1,4.1c-7,7.4-9.9,15.7-8,26c1.9,9.3,5.6,17.3,13.8,22.5
	c1.2,0.8,2.3,1.4,3.3,2.3c-4.1,3.5-7.6,4.7-11.8,2.7c-3.5-1.6-7.4-2.3-10.9-3.9c-6.6-3.1-8.7-9.7-10.7-15.7
	c-1.4-4.3-1.4-8.9-1.2-13.6c0.2-7.8,6.6-19.4,16.7-21.9c3.5-1,6.8-2.1,10.1-3.1C610.7,54.8,611.1,55,611.3,55.2z M603.6,59.5
	c-5.8,0.6-8.9,4.1-11.1,8.3c-1.9,3.9-3.3,8.1-4.7,12.4c-1.6,5-2.1,10.3,0.4,15.3c3.3,6.6,9.3,10.5,16.1,13c1.7,0.6,3.7,0.6,5.4,1
	c-6.2-4.1-6.4-4.3-8.7-11.3c-1-2.7-1.7-5.4-2.3-8.1c-2.7-9.7-2.3-19,3.5-27.5C602.8,61.6,603,60.5,603.6,59.5z M606.9,105.5
	c0.4-0.2,0.8-0.4,1.2-0.6c-1.6-2.3-3.1-4.9-4.7-7.2c-0.2,0.2-0.6,0.4-0.8,0.6C604,100.6,605.5,103.2,606.9,105.5z"/>
<path class="st0" d="M779.5,163.8c0.2,0.2,0.4,0.8,0.5,0.8c1.3,0,2.6-0.1,4.6-0.4c-1.5,1.6-3.6,2.2-2.7,4.2c0,0-0.9,0.3-1.4,0.7
	c-0.9,0.7-1.5,1.7-2.5,2.2c-0.6,0.4-1.6,0.4-2.3,0.7c0.8,3.5,0.8,3.5-1.6,3.8c0.3,0.9,0.5,1.8,1,2.9c-2.8,0.3-4.8,6.1-8.3,0.8
	c0,1.1,0,1.1,3.6,4.3c-3.3,6.5-3.7,6.7-5.9,4.3c-0.1,2.6-2,3.5-3.9,4.5c-1.3,0.5-2.9,1.3-3.5,2.4c-3.1,4.9-5.8,10.1-8.4,15.4
	c3.2-2.3,6.4-4.3,7.4-8.3c0.3-0.9,1.5-1.4,2.1-2.4c2.3-2.9,5.4-5,8.4-7.2c0.2,0.2,0.7,0.7,0.8,0.9c1.5-1.3,3.1-2.5,4.7-3.6
	c0.4,2.6,3.8-3.1,3.6,1.4c3.2,0,6-4.1,9.2-1.6c-2.5,1.6-4.9,3-7.3,4.6c0,0.3,0.1,0.7,0.1,1c1.9,0.6,3.6,1.2,6.1,2
	c-2.1,1.1-5.5-0.5-4.2,2.5c-1.4,0.7-2.6,1.4-3.8,1.6c-1.9,0.3-2.8,2.5-5.1,2.3c-1.4,0-2.8,2.5-4.9,2.1c0,0.8-0.1,1.6,0,2.8
	c-1-0.5-2.1-1-3-1.6c-3.1,3.5-4.1,3.6-7.2,0.8c-1.5,1.9-2.9,3.9-4.5,6.2c4,0.1,8.1-2.5,12,1.6c-8.6,2.6-14.7,9.2-23.9,10.8
	c0.8-2.5,1.4-4.2,2-6.1c1.2-3.6,2.3-7.4,3.7-11c0.3-0.9,1.7-1.2,2.6-2c0.5-0.5,1.1-0.9,1.5-1.4c2-3.5,4.2-7.1,6-10.7
	c0.4-0.8,0.4-2.1,0.1-3.2c-0.6-2.5-1.2-4.6,1.9-6.1c1-0.5,1-2.6,1.7-3.8c1-1.4,0.5-2.4-0.5-3.7c-0.4-0.6-0.5-1.4-0.8-2.4
	c0.8,0,1-0.1,1.1,0c0.9,0.6,1.7,1.1,2.7,1.7c0.1-0.9,0.1-1.9,0.3-2.9c0-1.1-1-3.4,1.9-1.8c0.1,0,1.2-0.6,1.1-0.9
	c-0.6-3.1,3.4-3.9,2.9-7.1c1.2,0.7,1.8,2.9,3.2,1.1c0.2-0.1,2,1.2,3.3,1.7c0.2-0.1,0.4-0.3,0.6-0.4c-0.9-1.1-2-2.1-2.7-3.5
	c-0.5-1.3-0.7-2.8-1-4.2c0.3,0,0.7-0.2,1.1-0.3c0.5,1.3,1,2.4,1.5,3.7c0.1,0,0.5,0,0.6,0c0.6-2.7,1.1-5.3,1.7-8.1
	c1.3,1.4,2.4,2.1,3,3.1c0.5,0.8,0.7,1.8,1,2.9C779.5,161.9,779.5,163,779.5,163.8L779.5,163.8z M757.1,216.2
	c-0.1-0.2-0.3-0.4-0.4-0.8c-4.1-0.4-10.6,3.4-13.3,8.1C748.3,221,752.6,218.6,757.1,216.2z M750.7,212.4c-0.3-0.1-0.5-0.3-0.8-0.4
	c-1.4,1.6-2.7,3.3-3.9,5c0.2,0.2,0.5,0.3,0.6,0.5C747.9,215.9,749.3,214.1,750.7,212.4z"/>
<path class="st0" d="M662.6,96.7c2.6-1.2,5.2-1.6,8.2-0.1c1.9,1.2,3.6,1.5,4.1-1.6c0.1-0.6,1.2-1.5,1.8-1.6c0.9,0.1,2.1,0.6,2.5,1.3
	c0.6,1.5,0.6,3.3,1,4.9c0.2,0.7,0.1,1.6,0.5,2.1c1.9,2.1,3.8,4.3,5.6,6.3c0.1-0.1,0.1-0.6,0.1-0.9c-0.2-1.4,0-2.7,1.9-2.7
	c1.8,0,3.1,0.9,3,3c0,1-0.4,1.9-0.8,2.8c-1.4,2.7-1.2,3.8,1.5,5.5c5.1,3.3,10.7,5,16.6,5.7c0.9,0.1,1.8,0,2.5,0
	c-1.8-2-3.7-3.5-5.8-4.9c-4.8-3.5-8.1-7.9-8.9-13.8c-0.5-3.1-0.1-3.7,3.2-4.5c3.4-0.8,6.3,0.6,8.4,3c0.8,1,1.2,3.1,0.9,4.4
	c-0.4,1.6-3.6,2.3-5.4,1.6c-2.3-1-3.4-3-3-5c0.4-1.6,1.5-2.2,2.6-1.2c1.3,1.1,2,2.7,3.1,4.5c0.3-0.3,1.3-1.2,1.3-1.8
	c0-2.4-2-3.3-3.8-3.5c-1.8-0.2-3.6,0.3-5.4,0.6c-0.1-0.1-0.4,0.9-0.3,1.3c0.7,2.4,1,5.2,2.3,7.2c4.4,5.8,9.9,10.5,17.1,12.4
	c5.8,1.7,10.2,5.3,13.7,9.9c2.5,3.4,3.8,7.8,3.5,12c-0.2,4-1.5,8.1-2.8,12c-1.9,5.5-1.3,10.6,1.8,15.2c1,1.4,1.7,4,4.7,3.1
	c1.9-0.6,4.5,0.8,4.7,2.6c0.2,1-0.3,2.7-1.1,3.4c-1.8,1.4-3.4,0.4-4.9-0.9c-0.6-0.4-1-0.9-1.4-1.6c-1.7-2.7-3.1-5.4-4.8-8.1
	c-1.7-2.9-2.4-6-1.7-9.3c0.9-4.7,2-9.2,3-13.9c1.6-8.4-2-15.5-8.9-19.8c-2.3-1.4-4.5-2.8-7.3-1.2c-2.8,1.6-1.9,4.4-1.8,6.8
	c0,3.1,1.7,5.4,4.2,6.6c1.1,0.7,3.1,0.5,4.4-0.2c0.9-0.6,2.7-1.8,1.5-3.6c-0.8-1.5-1.3-3-2.4-4.3c-0.3-0.3-1.7-0.5-2.2-0.2
	c-0.4,0.5-0.3,1.4-0.6,2.8c2.7-2.1,2.9-2.1,4.6,1.5c-0.6,0.2-1,0.4-1.4,0.6c-1.9,1-3.1,0-4-1.5c-0.8-1.7-1.2-3.4,0.5-4.9
	c1.4-1.3,2.8-0.8,4,0.2c0.9,0.9,1.8,1.8,2.4,2.7c1.8,2.7,1.4,5.4-1.3,8.1c-1.9,2-4.6,2.1-7.2,0.3c-3.9-2.7-5.5-8.7-3.5-13.6
	c1.1-2.7,0.8-3.2-2.1-3.2c-8,0-14.9-3.1-21.4-7.1c-1.5-0.9-2.4-0.6-3.8,0.2c-1.1,0.6-2.6,1.1-3.9,1.1c-0.7,0-1.9-0.8-2.1-1.6
	c-0.2-0.6,0.4-1.9,1.1-2.4c1.2-0.9,2.8-1.5,4.2-2.2c-1.1-3.5-3.2-6.4-6.4-8.4c-1.1,1.1-2.1,2.1-3.2,2.9c-1.8,1.1-3.3,0.6-4.6-0.8
	c-1.2-1.3-0.7-2.6,0.5-3.6c0.5-0.4,0.9-0.9,1.4-1.4c-3.7-2-3.9-1.9-7.4,0.3c-1.5,0.9-3,1.7-4.4,0.1C660,98.5,661.9,97.8,662.6,96.7
	L662.6,96.7z M671.7,103.1c2.7,2.1,3.5,0.7,4.4-0.9c-0.2-0.3-0.2-0.6-0.4-0.8C674.5,101.8,673.3,102.4,671.7,103.1z"/>
<path class="st0" d="M656.4,77.3c0.4-1.1,0.1-2.3,0.7-3.2c0.7-1.1,1.8-2.2,3-2.5c0.7-0.2,2.3,1,2.8,1.9c1,1.6,2,2.5,3.9,3.1
	c2.8,0.8,3.1,2.4,1.7,5c-1.8,3.3-4.7,3-7.7,2.4c-1.3-0.3-2.9-1.3-3.3,1.4c-1.1-1.1-1.9-2.1-2.3-2.7C655.8,80.5,656,78.9,656.4,77.3z
	 M666.2,81.3c0.3-0.3,0.7-1.1,0.5-1.5c-0.1-0.4-1-0.9-1.4-0.8c-2.4,0.8-2.9-0.7-3.2-2.6c0-0.7-0.4-1.3-0.6-1.7
	c-0.8-1.3-1.9-1.5-2.7,0c-1.7,2.6-0.4,5.9,2.1,7.2C663,83.2,664.8,82.6,666.2,81.3z"/>
<path class="st0" d="M650.9,73c0.5,0.6,0.6,1.9,0.3,2.4c-1,1.9-2.4,3.9-3.8,5.6c-1.5,1.9-3.8,2.3-6,1.6c-2.2-0.7-2.6-2.5-2.1-4.6
	c0-0.5-0.3-1.1-0.6-1.5c-1.9-2.8-0.7-6.1,2.6-6.5c2.1-0.1,4.4,0.2,6.1,0.4C649,71.5,650.2,72.1,650.9,73z M640.9,75.7
	c0.4,0.5,0.7,1.3,0.5,1.8c-0.6,1.6,0.3,2.4,1.4,2.9c1.3,0.6,2.6,0.4,3.4-1c1-1.5,2.1-2.9,3-4.4c0.2-0.5,0-1.4-0.3-1.7
	c-1.9-1.4-3.8-1.8-5.8,0.5c-0.4-0.8-0.7-1.3-0.9-1.9C639,73.2,639.1,73.2,640.9,75.7z"/>
<path class="st0" d="M650.3,96.1c0.9-3.1,1.9-6.2,2.7-9.2c-2.5-1.6-4.5-0.9-6.5-0.1c-0.8,0.4-1.8,1.2-1.9,2
	c-0.1,0.6,0.9,1.5,1.6,2.2C647.7,92.6,650.2,93.4,650.3,96.1L650.3,96.1z"/>
<path class="st0" d="M716.5,145.1c-0.2,0.9-1.1,2.5-0.7,2.9c1.3,1.4,3.1,2.7,4.8,3.5c0.3,0.1,2.1-1.4,2.2-2.4
	c0.1-1.6-0.3-3.5-2.7-3.6C719.2,145.6,718.2,145.3,716.5,145.1z"/>
<path class="st0" d="M702.3,126.7c2,0.4,2.5,1.5,1.5,3.3c-1.5,2.9-3.5,3.4-7,1.6c-0.7-0.3-1-1.3-1.3-1.7
	C697,126.8,699.2,126.1,702.3,126.7z M697.9,129c-0.1,0.3,0.3,1.6,0.6,1.7c1.7,0.8,3.1,0.3,3.9-1.6C701,128.2,699.4,127.4,697.9,129
	z"/>
<path class="st0" d="M635.8,96.2c1.3,0.6,2.6-1.1,3.7-1.4c-0.5-1-0.8-2.9-1.5-3.1c-1.5-0.5-3.3-0.1-5-0.2
	C633.9,93.1,634.5,95.6,635.8,96.2z"/>
<path class="st0" d="M720.7,113.8c-1-1.6-1.5-3.1-2.3-3.3c-1-0.3-2.3,0.4-3.5,0.6c0.4,1.2,0.4,2.9,1.2,3.3
	C717,114.8,718.6,114.1,720.7,113.8z"/>
</svg>
