<?xml version="1.0" encoding="utf-8"?>
<!-- Generator: Adobe Illustrator 24.3.0, SVG Export Plug-In . SVG Version: 6.00 Build 0)  -->
<svg version="1.1" id="レイヤー_1" xmlns="http://www.w3.org/2000/svg" xmlns:xlink="http://www.w3.org/1999/xlink" x="0px"
	 y="0px" viewBox="0 0 264 100" style="enable-background:new 0 0 264 100;" xml:space="preserve">
<style type="text/css">
	.st0{fill-rule:evenodd;clip-rule:evenodd;fill:#FFFFFF;}
</style>
<path id="ttl_story" class="st0" d="M31.8,8c0.5-0.9,0.7-1.9,0.7-3c0.1-1-0.3-2-1.2-2.5C30.2,2.1,29,1.9,27.8,2h-1
	c-0.9,0-1.9,0.1-2.8,0.3c-0.1-0.4-0.4-0.6-0.7-0.8c-0.3,0.1-1,0.4-2,0.8c-0.9,0.4-1.9,0.7-2.9,0.8c-0.3,0.4-0.7,0.8-1.1,1.1h-1.5
	C14.4,4.4,13.2,5,12,5.8c-1.5,0.9-3,1.9-4.3,3.1c-1,1-1.9,2.1-2.7,3.4c-0.7,1.2-1.3,2.5-1.6,3.8c-0.4,1.3-0.6,2.7-0.6,4.1
	c-0.1,3.3,1.2,6.6,3.5,9.1c2.3,2.6,6.3,5.1,12,7.8c1.5,0.8,2.2,1.5,2.2,2.1v0.1c2.1,0.4,4.1,1.9,5.9,4.7c1.7,2.5,2.7,5.5,2.7,8.5
	c0,1.8-0.4,3.7-1.3,5.3c-0.7,1.4-1.6,2.7-2.6,4c-1.4,1.5-3.1,2.7-5,3.5c-2.4,1.2-5,2-7.7,2.3s-4.2,0.5-4.6,0.5
	c-1.2-0.1-2.5-0.4-3.7-0.7c-0.6-0.9-1.6-1.4-2.6-1.5H1.4C1,66.4,0.7,67,0.7,67.6c-0.1,1.4,0.2,3,0.8,4.4C2,73,3,73.6,4.1,73.5
	c3.5,0,5.7-0.3,6.9-0.9c0.8-0.5,1.6-0.7,2.5-0.9c0.4,0,0.7,0.1,1.1,0.2c7.4-2.7,12.6-5.7,15.5-9.1s4.3-8.2,4.4-14.4
	c0-1.4-0.3-2.9-0.7-4.2c-0.5-1.5-1.3-2.9-2.1-4.2c-1.2-1.7-2.6-3.3-4.1-4.7c-1.8-1.7-3.1-2.7-3.9-2.8c-0.7-0.1-1.3-0.2-2-0.2
	c-8.9-4.6-13.3-9-13.3-13.2C8,15.6,9.7,12.2,12.6,10c3-2.3,7.1-3.5,12.3-3.5c1.3,0,2.5,0.5,3.4,1.4c0.6,0.6,1.3,1.2,2,1.7
	C31,9.3,31.5,8.7,31.8,8z M76.4,27.2c-0.6,0.3-1.3,0.6-2.1,0.7c-0.3,0-0.5,0-0.8-0.1l-0.6-1.2c-0.2-0.1-0.5-0.1-0.7-0.1
	c-0.6,0-1.2,0.1-1.8,0.3c-0.4,0.2-0.8,0.3-1.2,0.3c-0.3,0-0.7-0.2-0.8-0.4c-0.3-1.3-0.4-2.6-0.3-3.9c0-1.6,0.1-3.2,0.2-4.8
	c0.2-1.6,0.4-3.3,0.7-5s0.6-3.4,1.1-5.1s0.7-2.6,0.7-2.6c0.1-0.1,0.1-0.1,0.2-0.2s0.3-0.2,0.5-0.2s0.3-0.1,0.4-0.3V4.3
	c-0.2-0.3-0.4-0.6-0.5-1c-0.1-0.3-0.2-0.5-0.3-0.8c-0.4-0.2-0.8-0.4-1.2-0.5c-0.7-0.2-1.4-0.4-2-0.4c-0.6,0.2-1.1,0.5-1.4,1
	c-0.7,0.8-1.3,1.7-1.7,2.7c-0.4,0.8-0.6,1.7-0.7,2.6v2c0,2.4-0.1,4.9-0.4,7.3c-0.5,3.7-1,5.9-1.5,6.5s-1.2,1.1-1.9,1.6
	c-0.7,0.4-1.4,0.7-2.2,0.9l-2,0.5h-1.9c-2.3,0-3.6,0.2-4.1,0.5c-0.4,0.2-0.7,0.7-0.7,1.1c0,1.2,3.8,1.9,11.3,2.2l0.2,0.6h0.7
	l0.3-0.6l1,0.3c-0.6,4.6-0.9,9.3-0.9,14c0,2.5,0.1,4.9,0.3,7.1c0.2,1.9,0.4,3.8,0.8,5.6c0.5,1.9,1.3,3.6,2.5,5.1
	c1.1,1.6,2.4,3,3.9,4.3c1.2,1,2.6,1.8,4.1,2.3c0.6,0.2,1.1,0.7,1.4,1.2c0.3,0.1,0.5,0.3,0.7,0.4c0.1,0.1,0.3,0.2,0.5,0.3
	c0,0,0.1,0,0.1-0.1l0,0c1,0.3,2,0.4,3,0.4c0.1,0.2,0.2,0.3,0.4,0.3h0.2c0.6-0.5,1-1.1,1.4-1.7c0.3-0.5,0.7-1.2,1.1-1.9
	c0.4-0.5,0.6-1.1,0.7-1.7c-0.1-0.5-0.5-1-0.9-1.2h-1c-2.7,0-4.3-0.4-5-1.1c-0.6-0.7-1.4-1.3-2.2-1.6c-1-0.5-2-1.2-2.8-2
	c-0.9-0.8-1.6-1.7-2.1-2.8c-0.4-0.9-0.8-2-1.3-3.1c-0.5-1.4-0.8-2.9-0.9-4.4c-0.1-1.8-0.2-3.3-0.2-4.7c0.1-5,0.5-10,1.3-14.9
	c1.3,0.1,2.3,0.2,2.9,0.2l4.6-0.2c1.5,0,3,0.3,4.4,1l0.6-0.2l0.3,0.6c1-0.1,1.8-0.7,2.4-1.5l0.6,0.6c0.7-0.4,1.3-1.1,1.4-1.9
	c-0.1-0.7-0.5-1.3-1.2-1.6c-0.8-0.5-1.8-0.8-2.8-0.7h-0.5c-0.2-0.1-0.4-0.1-0.6-0.2c-0.3-0.1-0.5-0.3-0.6-0.5
	C78.1,26.5,77.2,26.8,76.4,27.2z M103.8,40.5l-1.2,2.8c-0.4,1-0.7,2-0.9,3c-0.2,1.1-0.4,2.2-0.5,3.3c-0.1,1.2-0.2,2.3-0.2,3.5
	c0,3.1,1.1,6.2,3,8.7c2,2.7,4.6,4.8,7.7,6.1c2.6,1.2,5.4,1.9,8.2,2c1.7,0,2.7-0.2,3-0.7c0.1-0.1,0.2-0.1,0.3-0.1
	c0.2,0,1,0.2,2.5,0.5h0.4c7.1,0.2,13.9-2.7,18.8-7.9c5-5.1,7.7-11.9,7.6-19.1c0-3.3-0.3-5.4-0.9-6.4c-1-1.7-2-3.2-3.2-4.7
	c-1-1.2-2.1-2.3-3.4-3.3c-1.2-0.9-2.4-1.6-3.8-2.1c-1.4-0.5-2.9-0.9-4.5-1.1c-1.8-0.2-3.7-0.4-5.5-0.3c-13.2,0-22.3,4.8-27.4,14.5
	L103.8,40.5L103.8,40.5z M144.2,54.1c-2,3.7-4.7,7-8,9.8c-0.3-0.2-0.6-0.3-0.9-0.3c-0.1,0-0.2,0.1-0.3,0.2c-1.6,1.3-4.5,2-8.9,2h-2
	l-0.4,0.1c-0.4,0.1-0.8,0.1-1.2,0.1c-2.1-0.2-4.1-0.8-5.9-1.8c-2.3-1.1-4.4-2.6-6.2-4.4c-1.7-1.8-2.8-4.1-3-6.5
	c-0.3-2.6-0.5-4.3-0.5-5.2c0-3.9,1.2-7.7,3.3-10.9c2.2-3.5,4.5-5.3,7-5.5c0-0.4,0.3-0.8,0.7-0.9l2.5,0.3c0.3,0,0.5,0,0.8-0.2
	c0.3-0.3,0.6-0.7,0.9-1.1c0.2-0.4,0.5-0.7,0.9-1c0.6-0.2,1.2-0.4,1.9-0.5c1.1-0.3,2.3-0.4,3.5-0.4c5.6,0,10.1,1.7,13.5,5
	c3.4,3.3,5.1,7.7,5.1,13.1v1.3C146.8,48.4,145.9,50.7,144.2,54.1z M202.3,31c-0.2-0.7-0.6-1.3-1.3-1.6c-1.8,0.2-3.6,0.6-5.3,1.2
	c-2.6,0.7-5,2-7.1,3.8c-2.1,2-3.8,4.5-4.9,7.2c-0.9-0.2-1.3-0.5-1.3-1v-0.9l-0.1-6c-0.1-2.2,0.2-4.4,0.9-6.4
	c0.4-1.1,0.7-2.2,0.9-3.3v-0.6c-0.1-0.2-0.1-0.4-0.3-0.6c-0.2-0.3-0.3-0.6-0.4-0.7c-0.7-0.4-1.4-0.6-2.2-0.6c-1.1,0.1-2.2,0.4-3.1,1
	c-1.1,0.5-1.8,1.6-1.8,2.8c0,0.1,0,0.5,0.1,1.2c1,7.8,1.5,15.7,1.5,23.6l-0.3,11.5c-0.1,1.3-0.4,2.6-0.8,3.9
	c-0.5,1.2-0.7,2.5-0.8,3.9v0.2c1,0.3,2.1,0.5,3.2,0.5c0.9,0,1.8,0,2.6-0.1l1-1c1.2,0,1.8-0.7,1.8-2.2v-0.4c-0.9-1.4-1.5-3-1.7-4.7
	c-0.3-1.4-0.4-2.9-0.5-4.3c0-0.5,0.2-0.9,0.6-1.2c0.1-0.3,0.1-0.7,0.1-1c0-0.6-0.1-1.1-0.1-1.7c0-1.2,0.3-2.4,0.8-3.5v-1.6
	c0.8-1,1.3-2.2,1.6-3.5c0.6-1.5,1.4-2.9,2.4-4.1c1-1.5,2.3-2.8,3.9-3.6c0.9-0.5,1.9-0.9,2.9-1c1.4,0.2,2.6,0.7,3.8,1.5h1.2
	c0.6-0.5,1-1.2,1.3-2c0.2-0.8,0.5-1.5,0.9-2.1c0.3-0.5,0.6-1,0.7-1.6L202.3,31L202.3,31z M256.7,25.4c-0.5,0-1.1,0.2-1.3,0.7
	c-0.4,1.1-0.7,2.1-0.9,3.2c-0.3,1.6-0.8,3.1-1.3,4.6c-0.6,1.6-1.3,3.1-2.2,4.5c-1,1.6-3.1,6.1-6.3,13.3l-3.8,8.6
	c-0.4-0.3-0.8-0.6-1.2-1c-0.4-0.3-0.7-0.7-1-1.1c-0.3-0.4-0.6-0.9-0.8-1.3c-0.1-0.1-0.5-0.7-1.3-1.9c-0.5-0.7-1-1.5-1.5-2.3
	s-1-1.7-1.4-2.6s-1-1.9-1.5-3.1l-1.5-3.3c-2-4.3-3.6-7.7-4.8-10.1V32l-1.1-3.9c-0.7-2.9-1.3-4.5-1.8-4.7c-0.5-0.3-1.3-0.6-2.2-1
	c-1.4,0.8-2.6,1.9-3.5,3.1c-0.6,0.7-1.2,1.4-1.6,2.3c0,0.2,0.2,0.3,0.7,0.3c0.2,0,0.4,0,0.6-0.1v0.5c0.2,1.2,0.7,2.3,1.6,3.1
	c1.1,1.3,2,2.9,2.6,4.5c0.7,1.7,1.9,4.2,3.5,7.5s3.3,6.8,4.8,10.5c1.3,3.2,2.8,6.3,4.5,9.3c0.3,1,0.5,2,0.6,3
	c0.2,1.7,0.7,2.5,1.4,2.5h0.2c0.3,0,0.6,0.1,0.9,0.2c0,0.3,0.1,0.7,0.3,1c-2.7,5.8-5.9,11.4-9.4,16.7c-1.5,2.3-2.3,3.6-2.3,4.1
	c0,0.3,0.2,0.5,0.4,0.5c-2.4,3.2-3.6,4.9-3.6,5.2c-0.2,0.1-0.3,0.2-0.3,0.4c-0.1,0.4,0.2,0.8,0.6,0.8c0.1,0,0.1,0,0.2,0l0.3-0.1
	c1.5,0,3,0.2,4.4,0.6h0.5c1.1,0.1,2-0.7,2.1-1.7c0-0.1,0-0.2,0-0.4c0.3-2.1,0.8-4.1,1.7-6c1-2.6,3.9-9.3,8.6-20.2
	c0.3-0.5,0.7-0.9,1.3-1l0.3-1.2c1.2-0.8,1.9-2.5,2.2-4.9c0.3-3.1,1.7-6.8,4-11.1l8.1-14.6c3-5.4,4.7-8.2,5.1-8.2
	c1-0.5,1.6-1.4,1.7-2.5c0-0.6-0.7-1.1-2-1.4c-0.9-0.3-1.8-0.4-2.7-0.5c-0.5,0-1,0.2-1.4,0.5L256.7,25.4z"/>
</svg>
