<?xml version="1.0" encoding="utf-8"?>
<!-- Generator: Adobe Illustrator 24.3.0, SVG Export Plug-In . SVG Version: 6.00 Build 0)  -->
<svg version="1.1" id="レイヤー_1" xmlns="http://www.w3.org/2000/svg" xmlns:xlink="http://www.w3.org/1999/xlink" x="0px"
	 y="0px" viewBox="0 0 216 100" style="enable-background:new 0 0 216 100;" xml:space="preserve">
<style type="text/css">
	.st0{fill-rule:evenodd;clip-rule:evenodd;fill:#3B576A;}
</style>
<path id="ttl_days" class="st0" d="M33.4,3.9c-0.3,0-0.6-0.1-0.9-0.2c0-0.2-1.1-0.5-3.5-0.9c-2.8-0.4-5.7-0.5-8.5-0.5
	c-1.1,0-2.2,0.1-3.3,0.2L16,2.7c-0.5,0-1-0.1-1.5-0.2c-0.5-0.1-0.9-0.2-1.4-0.2l-1.3,0.2c-0.6,0.1-1.2,0.2-1.8,0.1
	c-2,0-4-0.5-5.7-1.5L4,2H2.3c0,0.5-0.3,0.9-0.8,1C1.4,3.6,1.4,4.3,1.4,4.9c0,2.2,0.1,4.4,0.3,6.6C1.9,14.2,2,16.9,2,19.6L1.9,34.3
	l0.2,14.9c0.1,6.2-0.5,12.4-1.7,18.5c-0.1,0.6-0.2,1.1-0.3,1.7c0,1.5,0.4,2.3,1.1,2.3h0.3c0.5,0,1.1,0.1,1.6,0.1
	C3.6,71.9,4,72,4.5,72c0.6-0.1,1.2-0.2,1.8-0.5C7,71.2,7.6,70.7,7.9,70h1.4c0.3-0.1,0.6-0.2,0.8-0.4c0.4-0.2,0.8-0.5,1-0.9
	c0.3,0.1,0.6,0.2,0.9,0.2c0.1,0,1.2-0.4,3.5-1.1l4.3-1.4l3.4-2.2c2.8-1.3,5.6-2.8,8.2-4.4c2.4-1.6,4.7-3.3,6.8-5.2
	c2-1.8,3.9-3.7,5.6-5.8c1.6-2,2.9-4.1,4.1-6.3c1.1-2.1,1.9-4.2,2.5-6.5c0.6-2.1,0.8-4.3,0.8-6.5c0.1-5.4-1.4-10.8-4.3-15.4
	C44,9.3,39.7,5.7,34.7,3.7C34.3,3.8,33.8,3.9,33.4,3.9L33.4,3.9L33.4,3.9z M7.8,59.1l0.1-0.4L7.5,34.5C7.5,18,8.6,8.7,10.7,6.6
	c0.4,0.2,0.9,0.3,1.3,0.3h0.4l0.4-1c7,0,12.3,0.4,15.7,1.2c7.1,1.7,12.8,6.9,15.1,13.8c1.2,4.1,1.7,8.4,1.6,12.7
	c0,1.4-0.6,3.8-1.9,7.2c-0.9,2.3-2,4.5-3.4,6.5c-1.4,2.1-3,4-4.8,5.8c-2.9,2.8-4.9,4.4-5.9,4.9c-1.3,0.6-2.6,1.3-3.8,2.1
	c-2.5,1.7-5.2,3-8,4c-2.3,0.8-4.7,1.3-7.1,1.4c-1.2,0-1.9-1.2-1.9-3.6c0-0.4,0.1-0.9,0.2-1.7C8.1,60,7.8,59.6,7.8,59.1L7.8,59.1
	L7.8,59.1z M104.4,43.1c-0.1-0.5-0.5-0.8-1-0.9c-0.6-0.1-1.1-0.5-1.4-0.9v-0.7c0-6.3-1.2-11.1-3.6-14.5c-2.3-3.3-6.2-5.3-10.2-5.1
	c-5.4,0-9.1,0.6-11.2,1.7c-1.8,0-2.9,0.7-3.4,2c-0.4,1.4-0.7,2-0.7,2.1c0,0.7,0.6,1.1,1.6,1.1c1.5,0,3-0.8,3.9-2
	c2.6-0.3,5.3-0.4,7.9-0.4c0.3,0,0.6,0.1,0.9,0.3c0.3,0.1,0.6,0.3,0.9,0.4c6.1,2.1,9.1,6,9.1,11.8c0,1.8-0.2,2.9-0.6,3.4
	c-0.5,0.5-1.1,0.9-1.7,1c-0.9,0.3-1.8,0.5-2.7,0.6c-4.4,0.8-9.1,2.9-14.2,6.5c-5,3.6-7.6,7-7.6,10.3v0.4l-0.1,1.2
	c-0.1,1.1,0.1,2.2,0.5,3.2c0.6,0.8,1.3,1.5,2,2.2c1.1,1,2.4,1.8,3.9,2.2c1.7,0.5,3.4,0.8,5.2,0.8c1.8,0,3.7-0.4,5.4-1
	c3.9-1.5,6-2.2,6.4-2.2c0.1-0.4,0.4-0.8,0.7-1h0.4c0.4,0,0.8-0.1,1.1-0.2l0.6-0.2c0.4,0,0.6,0.9,0.6,2.8c0,1,0,2-0.2,2.9
	c-0.2,0.3-0.5,0.6-0.8,1.1c-0.8,1.4-1.2,3-1.2,4.6c0.1,0.8,0.2,1.6,0.4,2.4h0.3c0.5,0,0.9,0.1,1.3,0.3c0.3,0.2,0.6,0.3,0.9,0.3
	c1.2,0,2.9-1.2,5.2-3.5l-0.1-2.1l0.1-2.4l-0.5-2.6c-0.4-1.5-0.6-3-0.6-4.6c0-0.8,0.1-1.4,0.1-1.8c0.3-0.2,0.5-0.6,0.5-0.9l-0.2-6.6
	c0-3,0-5.3,0.1-6.9c0-1,0.1-1.9,0.4-2.9c0.3-0.4,0.6-0.8,0.9-1.2C104,44,104.3,43.6,104.4,43.1L104.4,43.1L104.4,43.1z M94.7,61.4
	c-1.6,1.6-3.5,2.8-5.6,3.5c-1.3,0.5-2.7,0.8-4.1,0.9c-2.6,0-5.1-0.7-7.2-2.2c-1.9-1.2-3-3.3-3.1-5.5c0-3.1,2.5-6,7.5-8.8h1.3
	c2.7-2,6-3,9.3-2.9c1.7-0.2,3.3,0.8,4,2.3c0.6,1.4,1,2.8,1,4.3c0,2.2-1,4.7-3.1,7.4L94.7,61.4L94.7,61.4z M165.7,25.6
	c-0.5,0-1,0.3-1.3,0.7c-0.4,1.1-0.7,2.1-0.9,3.2c-0.4,1.6-0.8,3.1-1.3,4.6c-0.6,1.6-1.3,3.1-2.1,4.5c-1,1.6-3.1,6.1-6.3,13.3
	l-3.8,8.6c-0.4-0.3-0.9-0.6-1.2-1c-0.8-0.7-1.4-1.5-1.8-2.5c-0.1-0.1-0.5-0.7-1.3-1.9c-0.6-0.7-1.1-1.5-1.6-2.3
	c-0.5-0.8-1-1.7-1.4-2.6c-0.5-0.9-1-1.9-1.5-3.1l-1.5-3.3c-2-4.3-3.6-7.7-4.8-10.1v-1.6l-1.1-3.9c-0.7-2.9-1.3-4.5-1.8-4.7
	c-0.5-0.3-1.3-0.6-2.3-1c-1.3,0.8-2.5,1.9-3.5,3.1c-0.6,0.7-1.1,1.4-1.5,2.3c0,0.2,0.2,0.3,0.6,0.3c0.2,0,0.4,0,0.6-0.1V29
	c0.2,1.2,0.8,2.3,1.6,3.1c1.1,1.3,2.1,2.8,2.7,4.5c0.7,1.7,1.8,4.2,3.5,7.5c1.6,3.3,3.2,6.8,4.8,10.5c1.3,3.2,2.8,6.3,4.5,9.3
	c0.4,1,0.6,2,0.6,3c0.3,1.7,0.7,2.5,1.4,2.5h0.3c0.3,0,0.6,0,0.8,0.2c0,0.3,0.1,0.7,0.3,1c-2.7,5.8-5.8,11.4-9.4,16.7
	c-1.5,2.3-2.3,3.6-2.3,4.1c0,0.3,0.2,0.5,0.5,0.5c-2.4,3.2-3.7,4.9-3.7,5.2c-0.1,0.1-0.2,0.2-0.2,0.4c-0.1,0.4,0.1,0.7,0.5,0.8
	c0.1,0,0.1,0,0.2,0l0.3-0.1c1.5,0,3,0.2,4.4,0.6h0.5c1,0.1,2-0.6,2.1-1.6c0-0.2,0-0.4,0-0.5c0.3-2.1,0.9-4.1,1.7-6
	c1.1-2.6,3.9-9.3,8.7-20.2c0.2-0.5,0.7-0.9,1.2-1l0.3-1.2c1.2-0.8,1.9-2.5,2.2-4.9c0.3-3.1,1.7-6.8,4.1-11.1l8-14.6
	c3-5.4,4.7-8.2,5.2-8.2c0.9-0.5,1.6-1.4,1.7-2.5c0-0.6-0.7-1.1-2-1.4c-0.9-0.3-1.8-0.4-2.7-0.5c-0.5,0-0.9,0.2-1.3,0.5L165.7,25.6z
	 M208.9,42.8c-2.8-1.1-5.6-1.9-8.5-2.6c-4.7-1.1-7.1-3.1-7-6.1c0-2.1,0.7-4,2.1-5.6c1.3-1.7,4.2-2.5,8.6-2.5c2.2,0,4.3,0.9,5.8,2.6
	c0.1-0.1,0.3-0.1,0.4-0.2c0.1-0.1,0.3-0.1,0.4-0.2h0.1c0.5,0.3,0.8,0.8,1.1,1.3c0.5-0.4,0.9-1,1.1-1.7c0.3-1,0.5-2,0.5-3.1
	c0.1-0.8-0.2-1.6-0.8-2.2c-0.3,0.1-0.6,0.2-0.9,0.2l-2.8-0.1c-7.3,0-12.4,1.1-15.4,3.2s-4.4,5.8-4.4,11l0.4,1.5
	c0.5,1.2,1.4,2.2,2.4,3l2.2,2c0.6,0.3,1.2,0.6,1.9,0.6c6.5,2,10.6,3.8,12.5,5.4c1.8,1.5,2.7,3.7,2.7,6c-0.1,2-0.6,3.9-1.5,5.6
	c-0.9,2-2.5,3.6-4.5,4.5c-2.2,0.9-4.5,1.4-6.9,1.3c-2.6,0-4.5-0.5-5.6-1.6l-0.3,0.1c-0.4-0.1-0.8-0.3-1.1-0.5
	c-0.6-0.3-1.2-0.5-1.9-0.5h-0.3c-0.1,0.5-0.1,0.9-0.1,1.4c0,2.1,0.5,3.5,1.5,4.2c1.2,0.8,2.7,1.1,4.1,1.1c1.3,0,2.6-0.2,3.8-0.7
	c1.6-0.1,2.9-0.2,3.7-0.2c4-0.6,7.6-2.8,9.9-6c2.5-3.2,3.9-7.2,3.9-11.3c0-3.2-1.4-6.2-3.9-8.2C212.1,44.3,211.1,43.7,208.9,42.8
	L208.9,42.8z"/>
</svg>
