<?xml version="1.0" encoding="utf-8"?>
<!-- Generator: Adobe Illustrator 24.3.0, SVG Export Plug-In . SVG Version: 6.00 Build 0)  -->
<svg version="1.1" id="レイヤー_1" xmlns="http://www.w3.org/2000/svg" xmlns:xlink="http://www.w3.org/1999/xlink" x="0px"
	 y="0px" viewBox="0 0 380 100" style="enable-background:new 0 0 380 100;" xml:space="preserve">
<style type="text/css">
	.st0{fill-rule:evenodd;clip-rule:evenodd;fill:#FFFFFF;}
</style>
<g id="ttl_meguriya">
	
		<image style="overflow:visible;opacity:0.8;" width="1665" height="519" xlink:href="9325448185B5C3E.png"  transform="matrix(0.24 0 0 0.24 -9.76 -12.32)">
	</image>
	<g>
		<path class="st0" d="M27.1,42.6c0.2,0.5,0.3,1,0.3,1.5c-4.1,3.3-6.6,8-7,13.2c-0.4,3.2,0.3,6.4,2.1,9.1c1.7,2.7,4.5,4.5,7.7,5.1
			c2.6,0.4,5.2-0.5,7-2.4c0.7-0.7,1.3-1.6,1.8-2.5c0.4-0.8,1.3-1.4,2.2-1.5c1.1,1.4,2.4,2.8,3.8,3.9c1.8-0.2,3.3-1.4,4-3.1
			c0.2-0.9-0.2-1.8-1-2.3c-1.3-0.7-2.4-1.7-3.2-2.9c0-0.6,0-1.2,0.2-1.8c1.1-1.7,2.1-3.4,3-5.2c0.8-1.7,1.6-3.5,2.3-5.2
			c0.7-1.8,1.5-3.5,2.5-5.1c0.9-1.6,2.6-2.7,4.5-2.7c8.2-0.3,13.1,3.6,14.8,11.8c-0.1,5.1-3,9.7-7.5,12.1c-1.5,1.1-3,2.1-4.6,3
			s-3.3,1.7-5,2.5c-1.7,0.7-3.1,1.8-4.2,3.3c0.1,0.7,0.7,1.3,1.5,1.3c3.8-0.7,7.5-1.7,11.1-3.1c3.6-1.4,6.9-3.4,9.8-6
			c2.9-2.7,4.4-6.5,4.2-10.4c0-6.4-2.5-12.4-7-16.9c-1.4-0.9-2.8-1.7-4.2-2.4c-1.5-0.6-3-1.1-4.7-1.6C60.1,34,59,33,58.6,31.6
			c0.9-1.8,1.6-3.7,2.1-5.6c0.5-2.5-1-5-3.5-5.7c-2.2-0.2-3.4,0.7-3.4,2.8v1.8c0.4,2.8-0.3,5.7-1.9,8c-7.5,1.6-13.4,4-17.7,7.1
			c-1.4,0.2-2.1-0.5-2.1-2.1c0-1.5-0.3-3-0.9-4.4c-0.5-1.4-1.8-2.1-3.7-2.1c-2.2-0.3-3.7,0.5-4.5,2.3C23.4,37,24.9,40.1,27.1,42.6
			L27.1,42.6L27.1,42.6z M35.3,53.8c1.9,1.4,3,3.6,3.2,5.9c-0.6,1.5-1.5,2.8-2.6,4c-1.1,2-3.6,2.8-5.6,1.8c-0.7-0.4-1.2-0.9-1.6-1.5
			c-0.8-1-1.5-2.1-2-3.3s-0.6-2.5-0.4-3.8c0.1-1,0.3-2,0.5-2.9c0.2-1,0.6-1.8,1.3-2.4c0.6-0.6,1.1-1.2,1.5-1.9
			C31.5,50.9,33.5,52.3,35.3,53.8z M48,40.2c0.5,0.6,0.7,1.4,0.5,2.1c-0.4,1.7-0.9,3.3-1.6,4.9c-0.7,1.6-1.6,3.2-2.5,4.7
			c-0.9,1.5-2.5,2.5-4.3,2.5c-2.4-1.8-4.4-4.1-5.7-6.8l0.1-0.6C38,43.3,42.8,40.9,48,40.2L48,40.2L48,40.2z M138.2,27.6
			c-1.4,4.3-2.7,7.1-3.8,8.3c-1.7,1.7-3.4,3.2-5.3,4.6c-1.9,1.1-4,1.7-6.2,1.9c-2.1,1.3-3.2,3.6-2.9,6c0.3,1.8,1.3,3.5,2.8,4.6
			s2.9,2.3,4.2,3.7l9.8,12.4c2.1,2.3,4.2,4.6,6.4,6.9c2.1,2.2,5,3.6,8,3.7c2-0.2,2.9-1.5,2.8-3.7c-1.5-2.6-3.5-4.8-6-6.5
			c-2.6-1.7-4.9-3.6-7.1-5.8c-2.2-2.1-4.4-4.2-6.8-6.1c-1.2-1.5-2.5-3.1-3.8-4.6c-1.3-1.5-2.1-3.3-2.3-5.2c0.9-1.1,1.9-2.1,3.1-2.9
			c1.2-0.8,2.4-1.7,3.6-2.6c1.2-0.9,2.3-1.9,3.3-2.9c1.5-1.4,3-2.8,4.3-4.4c1.3-1.6,2.7-3.1,4.2-4.6c1.8-1.7,3.1-3.8,3.7-6.2
			c-0.6-1.4-2.3-2.5-5-3.4C141.9,21,139.6,23.3,138.2,27.6L138.2,27.6z M151.6,33c1,1.4,2.2,2.6,3.6,3.7c1.4,1,2.7,2.2,3.9,3.5
			c1.2,1.2,2.7,2,4.3,2.4c1.7-0.9,2-2.3,0.9-4.3c-1.2-2.1-2.9-3.7-5.1-4.7c-2.3-1.1-4.2-2-5.7-2.6C152.5,31.2,151.7,32,151.6,33
			L151.6,33L151.6,33z M158.9,27.4l8.4,8.4c0.4,0.5,1.1,0.8,1.7,0.6c1.3-0.1,2.5-1.1,2.8-2.4c-0.7-2.2-2.1-4.1-3.9-5.5
			c-2-1.3-4.1-2.2-6.4-2.7C160.4,25.8,159.4,26.4,158.9,27.4L158.9,27.4L158.9,27.4z M225.8,21.6c2.1,0.8,3.5,2.8,3.6,5
			c0,1.3-0.1,2.6-0.4,3.9c-4.1,6.8-5.2,12.7-3.1,17.7c0.8,0.2,1.6,0.6,2.3,1.2c0.1,1.6-0.8,3.2-2.3,3.8c-2.2-0.1-4.2-1.6-4.9-3.8
			c-0.8-2.2-1.3-4.4-1.5-6.7c0-2.5,0-5,0.1-7.4c0.1-2.5,0.3-6.3,0.7-11.5C222,22,223.9,21.3,225.8,21.6L225.8,21.6L225.8,21.6z
			 M244.4,17.9c1.8,0.5,3.2,1.8,3.9,3.5c0.8,1.8,1.4,3.7,1.7,5.7c0.3,1.9,0.5,3.9,0.5,6c0.9,6.8,0.8,13.7-0.3,20.4
			c-1.1,5.8-2.8,11.5-4.9,17c-2.1,5.4-6.2,9.3-12.1,11.6c-1,0-2-0.2-2.9-0.7c-1-0.4-1.1-1.2-0.5-2.3c3.9-1.9,7.1-5,9.1-8.8
			c2.2-3.8,3.7-8,4.6-12.3c0.8-4.2,1.4-8.4,1.6-12.7c0.5-5.7,0-11.5-1.5-17.1c-0.9-1.9-1.6-4-2.3-6l-0.3-2.4
			C241.8,18.6,243,17.9,244.4,17.9L244.4,17.9L244.4,17.9z M315.8,35c-1.2,0-2.4-0.1-3.6-0.2c-1.4,0-2.8-0.2-4.1-0.6
			c-1.2-0.3-2.1-1.4-2-2.7c-3.5,0.2-5.3,2.1-5.5,5.7c0.6,2.7,2.2,4.1,4.8,4.2c2.5,0.1,4.9,0.1,7.2,0.1c0.9,0,1.9-0.1,2.8-0.2
			c1.9,0.9,3.5,2.9,4.9,6.3c1.4,3.3,3.1,12.6,5.2,27.9c-0.2,2.2,1.4,4.1,3.6,4.4c1.1-0.1,2.1-1,2.3-2.1c0.3-1.1,0.4-2.3,0.3-3.4
			c-0.7-2.7-1.6-5.3-2.7-7.8c-2.8-9.3-4.1-15.8-3.9-19.6s3-6.1,8.5-7c4.1-0.8,8.4-1.1,12.6-0.8c1.9,0,3.8,0.6,5.3,1.7
			c1.6,1.1,2.4,3.2,1.9,5.1c-0.3,1.8-1.4,3.4-2.9,4.4c-2,1.1-4.3,1.5-6.5,1.2c-2.8-0.2-4.4,0.3-5,1.3c-0.5,1.1,1,2.1,4.7,2.9
			c2.8,0.4,5.6,0.3,8.3-0.5c2.2-0.9,4.1-2.4,5.5-4.3c1.6-2.1,2.4-4.7,2.2-7.3c-0.4-2.5-2-4.7-4.3-5.8s-4.7-1.8-7.2-2l-7.4-0.7
			c-0.9-0.9-0.7-1.6,0.4-2.1s2-1.2,2.7-2.2c0.6-0.9,0.9-1.9,0.7-3c-0.8-3.5-3.5-6.2-7-7.1c-1.3,0.4-2.1,1.7-2,3
			c0.5,1.5,1,3.5,1.7,6.2c0.7,2.6,0,4.2-2.2,4.8s-4.4,0.9-6.6,0.7c-4.4,0.3-6.6-1.7-6.7-6.1c0.1-3-0.1-6.1-0.5-9.1
			c-1.3-1.6-3.3-2.3-6.1-2.1c-2.8,0.3-3.9,1.9-3.4,4.7c0.9,3,2.3,5.7,4.2,8.2c0.5,1,0.8,2.1,0.8,3.3c-0.3,0.4-0.9,0.6-1.4,0.5
			L315.8,35z"/>
	</g>
</g>
</svg>
