<?xml version="1.0" encoding="utf-8"?>
<!-- Generator: Adobe Illustrator 24.3.0, SVG Export Plug-In . SVG Version: 6.00 Build 0)  -->
<svg version="1.1" id="レイヤー_1" xmlns="http://www.w3.org/2000/svg" xmlns:xlink="http://www.w3.org/1999/xlink" x="0px"
	 y="0px" viewBox="0 0 484 100" style="enable-background:new 0 0 484 100;" xml:space="preserve">
<style type="text/css">
	.st0{fill-rule:evenodd;clip-rule:evenodd;fill:#3B576A;}
</style>
<path id="ttl_assemble" class="st0" d="M46.9,15.1c0-0.9-0.3-1.3-0.9-1.3c-0.5,0-1.1,0.5-2,1.6l-0.7-0.3c-1.6,1.4-2.4,2.7-2.4,3.9
	v0.5c0,0.3-0.4,0.5-1.1,0.5v0.2c0,2.3-2.3,6.8-6.8,13.2c-0.3,0.3-1.5,2.6-3.8,6.7c-2.2,4.1-4.9,8.6-8,13.3s-4.6,7.8-4.7,9.2
	c-1.7,2-3.2,4.1-4.4,6.5c-1.3,2.4-2.7,4.7-4.4,6.9c-1.2,1.2-2.2,2.6-2.9,4.2c-0.5,0.9-1.1,1.6-2,2.1c-1,0.7-1.6,1.8-1.7,3
	c0,0.5,0.3,0.9,0.8,0.9c2.3,0.3,4.6,0.9,6.8,1.6h0.1c0.7,0,1.5-0.9,2.3-2.6c0.9-2,1.4-4.1,1.5-6.2c1.6-3.9,4.1-9.3,7.4-16.2l0.7,0.5
	c0.3-0.6,0.8-1.1,1.5-1.2c1.2-0.2,2.4-0.4,3.6-0.8c2-0.5,4-0.8,6-0.8c1,0,1.9,0.1,2.9,0.2c1.5,0.1,3-0.2,4.5-0.6
	c0.2,0.4,0.6,0.7,1.1,0.7c0.1,0,0.7-0.2,2-0.6c2.3-0.5,4.6-0.7,6.9-0.6h1.5l1.5,0.4c1.3,0.2,2,0.5,2,0.7c0.4-0.5,1.1-0.9,1.8-0.9
	c0.8-0.1,1.6,0.2,2.1,0.9c0.1,0.4,0.4,0.8,0.8,1.1c2.1,4.1,3.9,8.4,5.4,12.8c0.8,2.1,1.3,4.4,1.6,6.6L65.7,82
	c-0.1,0.5-0.2,1.1-0.2,1.7s0.3,1.2,0.7,1.7c0.6-0.3,1.9-0.7,3.9-1.3c1.2-0.2,2.4-0.7,3.4-1.4c0.3-0.3,0.5-0.8,0.5-1.2
	c0-1.9-0.9-4.3-2.8-7c-13.8-29.7-22-49-24.6-58C46.8,16.1,46.9,15.6,46.9,15.1L46.9,15.1L46.9,15.1z M48.1,56.5l-1.5,0.1
	c-0.7,0-1.5-0.1-2.2-0.4c-0.1,0.4-0.5,0.7-1,0.7c-0.4,0-0.9-0.1-1.3-0.2c-0.5-0.1-1.1-0.2-1.7-0.2c-1.1,0.1-2.2,0.2-3.3,0.4
	c-1.3,0.2-2.5,0.3-3.8,0.4c-0.7,0-1.3-0.1-2-0.2c-0.7-0.1-1.5-0.2-2.2-0.2L28.2,57c-0.6-0.1-1.1-0.2-1.7-0.4
	c-0.8-0.1-1.4-0.7-1.5-1.5c0-1.1,1.5-4,4.4-8.8s5.6-9.4,7.9-13.9c2.4-4.5,3.9-6.8,4.8-6.8c1.2,0,3.6,4.8,7.4,14.4
	c3.8,9.6,5.7,14.4,5.7,14.5c0,0.8-1.1,1.5-3.4,1.9c-1,0-1.9,0.1-2.8,0.4C48.7,56.5,48.4,56.5,48.1,56.5L48.1,56.5L48.1,56.5z
	 M112.7,57.5c-2.8-1.1-5.6-1.9-8.5-2.6c-4.7-1.1-7.1-3.1-7.1-6.1c0-2.1,0.7-4,2.1-5.6c1.4-1.7,4.3-2.5,8.7-2.5
	c2.2,0,4.3,0.9,5.7,2.6c0.2-0.1,0.3-0.1,0.4-0.2c0.1-0.1,0.3-0.2,0.4-0.2h0.1c0.4,0.4,0.8,0.8,1,1.3c0.6-0.4,1-1,1.1-1.7
	c0.4-1,0.5-2,0.5-3.1c0.1-0.8-0.2-1.6-0.8-2.2c-0.3,0.1-0.6,0.2-1,0.2l-2.7-0.1c-7.3,0-12.4,1.1-15.4,3.2s-4.5,5.8-4.5,11l0.5,1.5
	c0.5,1.2,1.3,2.2,2.4,3l2.2,2c0.6,0.4,1.2,0.6,1.9,0.6c6.4,2,10.6,3.8,12.4,5.4c1.8,1.5,2.8,3.7,2.8,6c-0.1,2-0.6,3.9-1.5,5.6
	c-0.9,2-2.5,3.6-4.6,4.5c-2.2,0.9-4.5,1.4-6.8,1.3c-2.6,0-4.5-0.5-5.6-1.6l-0.3,0.1c-0.4-0.1-0.8-0.3-1.1-0.5
	c-0.6-0.3-1.2-0.5-1.9-0.5h-0.4c-0.1,0.5-0.1,0.9-0.1,1.4c0,2.1,0.5,3.5,1.5,4.2c1.2,0.8,2.7,1.2,4.1,1.1c1.3,0,2.6-0.2,3.8-0.7
	c1.6-0.1,2.8-0.2,3.7-0.2c4-0.6,7.5-2.8,9.9-6c2.5-3.2,3.8-7.2,3.8-11.3c0-3.2-1.4-6.2-3.8-8.2C116,58.9,114.9,58.3,112.7,57.5
	L112.7,57.5z M158.9,57.5c-2.8-1.1-5.6-1.9-8.5-2.6c-4.7-1.1-7.1-3.1-7.1-6.1c0-2.1,0.7-4,2.1-5.6c1.4-1.7,4.3-2.5,8.7-2.5
	c2.2,0,4.3,0.9,5.7,2.6c0.2-0.1,0.3-0.1,0.4-0.2c0.1-0.1,0.3-0.2,0.4-0.2h0.1c0.4,0.4,0.8,0.8,1,1.3c0.6-0.4,1-1,1.1-1.7
	c0.4-1,0.5-2,0.5-3.1c0.1-0.8-0.2-1.6-0.8-2.2c-0.3,0.1-0.6,0.2-1,0.2l-2.7-0.1c-7.3,0-12.4,1.1-15.4,3.2c-3,2.2-4.5,5.8-4.5,11
	l0.5,1.5c0.5,1.2,1.3,2.2,2.4,3l2.2,2c0.6,0.4,1.2,0.6,1.9,0.6c6.4,2,10.6,3.8,12.4,5.4c1.8,1.5,2.8,3.7,2.8,6
	c-0.1,2-0.6,3.9-1.5,5.6c-0.9,2-2.5,3.6-4.6,4.5c-2.2,0.9-4.5,1.4-6.8,1.3c-2.6,0-4.5-0.5-5.6-1.6l-0.3,0.1
	c-0.4-0.1-0.8-0.3-1.1-0.5c-0.6-0.3-1.2-0.5-1.9-0.5h-0.4c-0.1,0.5-0.1,0.9-0.1,1.4c0,2.1,0.5,3.5,1.5,4.2c1.2,0.8,2.7,1.2,4.1,1.1
	c1.3,0,2.6-0.2,3.8-0.7c1.6-0.1,2.8-0.2,3.7-0.2c4-0.6,7.5-2.8,9.9-6c2.5-3.2,3.8-7.2,3.8-11.3c0-3.2-1.4-6.2-3.8-8.2
	C162.2,58.9,161.1,58.3,158.9,57.5L158.9,57.5z M223.8,52.3c-0.1-0.3-0.2-0.6-0.3-0.9c-0.2-0.6-0.3-1.3-0.4-2
	c-0.5-4.7-1.9-7.7-4.3-9.2c-1.9-1.3-4.2-2.1-6.5-2.2c-1.5,0-2.9,0.2-4.3,0.5c-1.3,0.1-2.5,0.5-3.7,1.1l-1.6-0.1
	c-0.7,0-1.4,0.3-1.9,0.8c-0.5,0.4-1,0.7-1.5,1c-2.8,1.6-5.4,3.7-7.6,6c-1.9,2.4-3.4,5.2-4.4,8.2c-1.3,3.3-1.9,6.8-2,10.3
	c0,2.7,0.6,5.3,1.6,7.8c1,2.6,2.8,4.9,5.1,6.6s5.9,3.1,10.8,4.1c3,0.7,6.1,1.3,9.1,1.6h2.6l3.1-0.1l1,0.2c1.3,0,2.5-0.7,3.2-1.7
	c0.9-1.1,1.4-2.5,1.4-4c0-0.8-0.2-1.6-0.6-2.4c-1,0.1-1.9,0.5-2.7,1c-0.5,0.4-1.2,0.7-1.8,0.9h-3.2l-2,0.2c-1.2,0.1-2.5,0.2-3.8,0.2
	c-2.3,0-4.5-0.3-6.7-1c-1.9-0.6-3.8-1.6-5.4-2.8c-2.6-1.9-4-2.9-4.2-3.1c-1-1.5-1.7-3.3-2-5.1c-0.4-1.6-0.6-3.2-0.7-4.8
	c0-1.2,0.2-2.4,0.5-3.6c0.5-0.1,0.9-0.5,1-1s0.5-0.8,0.9-0.8s0.9-0.2,1.3-0.4c2.3-0.5,4.6-0.7,7-0.7l4.8,0.2c1,0,2-0.1,3-0.3
	c0.7-0.1,1.5-0.2,2.3-0.3c0.7,0,1.4,0.1,2,0.2c0.7,0.1,1.4,0.2,2.2,0.2c0.7,0,1.4-0.1,2.1-0.3l0.6,0.6c0.4,0,0.9,0.2,1.2,0.4
	c0.1,0.1,0.3,0.2,0.5,0.3c0.2-0.1,0.3-0.2,0.4-0.3c0.1-0.2,0.4-0.3,0.6-0.3h0.7c1.4,0,2.1-0.3,2.1-0.8c0-0.1,0-0.2-0.1-0.3
	c0.6-0.5,0.9-1.3,0.8-2.1c0-0.4-0.1-0.8-0.4-1.1C223.7,52.8,223.8,52.5,223.8,52.3L223.8,52.3L223.8,52.3z M207.2,41.5
	c0.3,0,0.8,0,1.6,0.1c0.7,0.1,1.3,0.1,1.7,0.1c3.4,0.9,5.5,2.1,6.3,3.6c0.8,1.6,1.2,3.5,1.2,5.3c0,1.9-1.1,2.9-3.3,2.9l-17,0.6h-3.6
	l-0.6-0.2c-0.4-0.1-0.7-0.4-0.7-0.8c0-0.3,0.2-0.7,0.4-0.9c0.3-0.3,0.7-0.9,1.2-1.5s1.2-1.5,1.9-2.3s1.5-1.7,2.2-2.4s1.5-1.4,2.3-2
	c1-0.4,2-0.9,2.8-1.6C204.8,42,206,41.7,207.2,41.5L207.2,41.5L207.2,41.5z M296.3,42c-3.6,0.7-5.6,1.5-6,2.6
	c-1.2,0.2-2.3,0.7-3.3,1.4c-0.6,0.5-1.2,0.9-1.9,1.2c0.1,0.1,0.1,0.1,0.1,0.2c0,0.1,0,0.2-0.1,0.2c0,0,0,0-0.1,0
	c-0.5,0-1-0.2-1.4-0.5c-0.6-0.4-1-0.9-1.2-1.6c-0.7-1.6-1.9-3-3.5-3.8c-1.4-0.8-3-1.2-4.6-1.3c-2.1,0-3.5,0.3-4.3,0.9
	c-0.2,0.1-0.4,0.1-0.6,0.1l-1.6-0.2c-0.7,0.2-1.3,0.5-2,0.8c-1.2,0.6-2.5,1.1-4,1.7c-1.2,0.5-2.5,1-3.6,1.6c-0.5,0.3-1,0.6-1.5,0.8
	c-0.6,0-0.9-0.7-0.9-2.2c0-0.8,0.3-1.6,0.8-2.3c0.1-0.4,0.1-0.7,0.1-1.1c0-1-0.4-1.9-1-2.6c-0.5-0.7-1.3-1.1-2.1-1.1
	c-0.4,0-0.8,0.3-1,0.7c-0.2,0.3-0.5,0.7-0.8,1h-0.9c-0.4,0.7-0.8,1.4-1.2,2.1c-0.3,0.4-0.5,0.9-0.7,1.4c0,0.2-0.1,0.5-0.1,0.7
	c0,0.7,0.2,1.5,0.7,2.1c0.4,0.7,0.7,1.6,0.8,2.4c0,0.4,0,0.7-0.2,1c-0.3,0.4-0.7,0.8-1,1.1c-0.5,0.5-1,1.1-1.4,1.6l0.6,0.3
	c-0.1,0.4-0.2,0.8-0.3,1.2c0,0.4,0.1,0.7,0.3,1.1c1.3,0.7,1.9,1.4,1.9,2.2c0,6.2-0.1,11-0.3,14.6c-0.2,3.5-0.3,5.3-0.3,5.4v0.6
	c0,0.6,0,1.4,0.1,2.4s0.1,1.8,0.1,2.2c0.1,0.8-0.1,1.6-0.5,2.3c0.1,0.5,0.3,1,0.6,1.4l0.6-0.4c0.3,0.4,0.7,0.6,1.1,0.6h0.2
	c0.8-0.1,1.5-0.4,2.2-0.9c1.1-0.8,1.8-1.9,2.1-3.1c-0.7-1.3-1-3.4-1-6.4l-0.6-13.8c0-1.6,0.1-3.3,0.3-4.9c0.1-1.2,0.5-2.4,0.9-3.5
	c0.4-0.9,1-1.8,1.7-2.5c0.8-0.7,1.7-1.4,2.7-1.9c1.2-0.6,2.4-1.1,3.7-1.6c1.1-0.3,2.1-0.8,3.1-1.4c0.5-0.3,1.1-0.6,1.8-0.7
	c0.7-0.1,1.4-0.2,2-0.2c1-0.1,2.1,0.1,3,0.6c0.8,0.5,1.6,1.1,2.3,1.8c0.8,0.7,1.4,1.6,2,2.5c0.5,0.8,0.8,1.7,1,2.6
	c0.2,0.9,0.3,1.7,0.3,2.6v0.8l0.3,2.2c0.2,1.7,0.3,3.5,0.3,5.2c0.1,3.6-0.2,7.1-0.8,10.7c-0.5,2.5-1.2,5-2.1,7.4v0.8
	c0,2.1,0.4,3.4,1.3,3.7c0.6,0.1,1.1,0.4,1.6,0.7c0.6-0.9,1.9-1.5,3.9-1.9c0.5-0.6,0.7-1.3,0.6-2.1l-0.4-11
	c0.1-5.8,0.5-11.7,1.2-17.5c0.3-0.3,0.8-0.5,1.2-0.6c-0.1-0.3-0.2-0.5-0.2-0.8c0-1.2,0.8-2.1,2.5-2.9l6.6-3.1c2.8-1.3,4.9-2,6.4-2
	c1.7,0,3.3,0.2,4.9,0.7c1.2,0.3,2.3,1.1,3,2.2c0.9,1.6,1.5,3.4,2,5.2c0.8,2.7,1.2,5.4,1.1,8.2c0,6.3-2.2,13.7-6.5,22
	c-0.5,0-1,0.2-1.3,0.6v0.3c0,0.3,0.2,0.5,0.3,0.7c-0.8,0.6-1.2,2.2-1.3,4.7c0.6,0.4,1.4,0.6,2.1,0.7l1-0.1l1.1,0.1l2.9-0.3
	c0.3-1.4,0.6-2.7,1-4c-0.1-0.2-0.1-0.3-0.1-0.5c0-1,0.7-3.5,2.1-7.6c1.3-3.6,2.3-7.3,3-11.1c0.5-3.1,0.8-6.3,0.8-9.5
	c0-5.6-1.2-9.7-3.5-12.3s-6-3.9-11.1-3.9l-2.1,0.5c-1.3,0.3-2.6,0.5-4,0.6L296.3,42z M355.1,39.7c-0.7,0-1.2-0.8-1.5-2.3
	c-0.4-2.9-0.5-5.9-0.4-8.9c0-7.6,0.7-13.2,2-16.8c0.2-0.5,0.3-0.7,0.3-0.9c0.1-0.2,0.1-0.4,0.1-0.6c-0.1-1-0.2-1.9-0.5-2.9
	c-0.8-0.6-1.6-1.1-2.5-1.5c-0.3,0-0.7-0.1-1-0.2c-0.3-0.1-0.6-0.2-0.9-0.2c-0.3,0.1-0.6,0.1-0.9,0.2c-0.7,0.2-1.4,0.3-2,0.4
	c-0.8,0.1-1.2,0.8-1.2,1.9c0,0.9,0.1,1.7,0.1,2.6c0.1,0.9,0.1,1.5,0.1,1.8l-0.1,1.1c0.2,0.7,0.5,1.3,1,1.9c1,7.4,1.5,19.7,1.5,36.9
	c0,9.1-0.4,18.3-1.3,27.6v0.1c0,0.4-0.5,0.9-1.4,1.7c-0.6,0.4-1.1,0.9-1.4,1.6c0.1,0.4,0.2,0.7,0.4,1c0.2,0.4,0.4,0.9,0.4,1.4v0.2
	c0.4-0.1,0.8-0.2,1.2-0.2c0.6-0.1,1.2,0.1,1.7,0.5c0.4,0.4,0.9,0.5,1.5,0.5c0.9,0,1.8-0.2,2.5-0.7c0.6-0.3,1-0.8,1-1.4
	c0.5-0.9,1.4-1.4,2.3-1.6l0.6,0.6c1.9-0.9,3.9-1.6,5.9-2.2c0.1,0.1,0.2,0.1,0.3,0.1c0.3-0.1,0.6-0.2,0.9-0.4c0.3-0.2,0.6-0.4,1-0.5
	c1.4-0.3,2.6-0.5,3.7-0.8c1-0.2,2-0.5,3-0.9c0.7-0.2,1.4-0.5,2-0.9c0.5-0.3,1.1-0.6,1.8-1.1c0.2-0.2,0.4-0.4,0.5-0.7
	c0.2-0.4,0.4-0.6,0.8-0.8c7.5-4.9,11.2-11,11.2-18.6c0-2.5-0.5-5-1.4-7.3c-0.7-2.1-2-4-3.8-5.5c-2-1.5-4.2-2.8-6.5-3.8
	c-2.2-0.9-4.6-1.4-6.9-1.6l-7.5-0.6c-1.2,0-2.4,0.2-3.6,0.4c-1.5,0.3-2.3,0.6-2.6,1.1L355.1,39.7L355.1,39.7z M355.2,43.8
	c0.8,0,1.5,0.5,1.8,1.2c1.1-0.8,2.4-1.3,3.8-1.3l3.5,0.2h1.8c4.2,0.1,8.2,1.6,11.3,4.4c3.5,2.9,5.3,6.4,5.3,10.3
	c0,2.3-0.4,4.6-1.3,6.8c-1.2,2.7-2.9,5-5.1,7c-2.4,2.3-5.3,4.1-8.5,5.1c-2.6,0.9-5.3,1.3-8,1.4c-2.3,0-3.9-0.5-4.9-1.6
	c-0.9-1.1-1.4-3.2-1.4-6.3c0-3.7,0.3-12.6,0.9-26.7C354.6,44,354.9,43.8,355.2,43.8L355.2,43.8L355.2,43.8z M419.9,79.8
	c-0.6-1.1-0.9-2.3-1-3.5c-0.1-1.6-0.5-2.6-1-3c0.3-0.3,0.4-0.6,0.4-1l-0.1-0.9l0.2-21.7l-0.1-19.1l0.2-14l-0.2-5.6
	c-0.1-1.4,0.2-2.8,0.7-4.1c0.5-1,1.1-1.9,1.8-2.8c-1-2.7-2.3-4.1-3.7-4.1c-0.9,0-1.7,0.3-2.5,0.8c-0.9,0.6-1.6,1.4-2.1,2.4
	c-0.6,1.3-0.9,2.7-0.9,4.2c0.2,0.3,0.3,0.6,0.4,0.9l-0.2,2.1c0,1.1,0.2,2.2,0.6,3.3v1.9l0.4,10.1l-0.4,7.8l0.6,11.3l-0.1,3.2
	l0.1,3.8v10c0.1,4.7-0.2,9.4-0.7,14c-0.3,0.7-0.5,1.5-0.6,2.3l0.1,1.6v0.9c0,0.9-0.3,1.4-0.8,1.4v0.1c0,1.1,1.3,2.1,3.8,2.8
	c0.6-0.3,1.2-0.6,1.7-1.1c0.2,0.3,0.5,0.5,0.8,0.6c0.4,0,0.8-0.3,1.1-0.6c0.6,0,1.1-0.1,1.5-0.5c0.3-0.6,0.6-1.2,0.8-1.9
	C420.7,81.1,420.4,80.6,419.9,79.8L419.9,79.8z M482.8,52.3c-0.1-0.3-0.2-0.6-0.3-0.9c-0.2-0.6-0.4-1.3-0.4-2
	c-0.5-4.7-1.9-7.7-4.3-9.2c-1.9-1.3-4.2-2.1-6.5-2.2c-1.5,0-2.9,0.2-4.3,0.5c-1.3,0.2-2.5,0.5-3.7,1.1l-1.6-0.1
	c-0.7,0-1.4,0.3-1.9,0.8c-0.5,0.4-1,0.7-1.5,1c-2.8,1.6-5.4,3.7-7.6,6c-1.9,2.4-3.4,5.2-4.5,8.2c-1.3,3.3-1.9,6.8-2,10.3
	c0,2.7,0.6,5.3,1.6,7.8c1,2.6,2.8,4.9,5.1,6.6c2.3,1.7,5.9,3.1,10.7,4.1c3,0.7,6.1,1.3,9.1,1.6h2.6l3.1-0.1l1,0.2
	c1.3,0,2.5-0.7,3.2-1.7c0.9-1.1,1.4-2.5,1.4-4c0-0.8-0.2-1.6-0.6-2.4c-1,0.1-1.9,0.5-2.7,1c-0.5,0.4-1.2,0.7-1.8,0.9h-3.2l-2,0.2
	c-1.2,0.1-2.5,0.2-3.8,0.2c-2.3,0-4.5-0.3-6.7-1c-1.9-0.6-3.8-1.6-5.4-2.8c-2.6-1.9-4-2.9-4.2-3.1c-1-1.5-1.7-3.3-2-5.1
	c-0.4-1.6-0.6-3.2-0.7-4.8c0-1.2,0.2-2.4,0.5-3.6c0.5-0.1,0.9-0.5,1-1s0.5-0.8,0.9-0.8c0.5,0,0.9-0.2,1.3-0.4c2.3-0.5,4.6-0.7,7-0.7
	l4.8,0.2c1,0,2-0.1,3.1-0.3c0.7-0.1,1.5-0.2,2.3-0.3c0.7,0,1.4,0.1,2,0.2c0.7,0.1,1.4,0.2,2.2,0.2c0.7,0,1.4-0.1,2.1-0.3l0.6,0.6
	c0.4,0,0.9,0.2,1.2,0.4c0.1,0.1,0.3,0.2,0.5,0.3c0.2-0.1,0.3-0.2,0.4-0.3c0.1-0.2,0.3-0.3,0.6-0.3h0.7c1.4,0,2.1-0.3,2.1-0.8
	c0-0.1,0-0.2-0.1-0.3c0.6-0.5,0.8-1.3,0.8-2.1c0-0.4-0.1-0.8-0.4-1.1C482.7,52.8,482.8,52.5,482.8,52.3L482.8,52.3L482.8,52.3z
	 M466.2,41.5c0.3,0,0.9,0,1.6,0.1s1.3,0.1,1.7,0.1c3.4,0.9,5.5,2.1,6.3,3.6c0.8,1.6,1.2,3.5,1.2,5.3c0,1.9-1.1,2.9-3.3,2.9l-17,0.6
	h-3.6l-0.6-0.2c-0.4-0.1-0.7-0.4-0.7-0.8c0-0.3,0.2-0.7,0.4-0.9c0.3-0.3,0.7-0.9,1.2-1.5s1.2-1.5,1.9-2.3s1.5-1.7,2.2-2.4
	s1.5-1.4,2.4-2c1-0.4,2-0.9,2.8-1.6C463.8,42,465,41.7,466.2,41.5L466.2,41.5L466.2,41.5z"/>
</svg>
