<?xml version="1.0" encoding="utf-8"?>
<!-- Generator: Adobe Illustrator 24.3.0, SVG Export Plug-In . SVG Version: 6.00 Build 0)  -->
<svg version="1.1" id="レイヤー_1" xmlns="http://www.w3.org/2000/svg" xmlns:xlink="http://www.w3.org/1999/xlink" x="0px"
	 y="0px" viewBox="0 0 202 100" style="enable-background:new 0 0 202 100;" xml:space="preserve">
<style type="text/css">
	.st0{fill-rule:evenodd;clip-rule:evenodd;fill:#3B576A;}
</style>
<path id="ttl_stay" class="st0" d="M31.4,8c0.4-0.9,0.7-1.9,0.7-3c0.2-1-0.4-2-1.3-2.5c-1.1-0.4-2.2-0.6-3.4-0.6h-1.1
	c-0.9,0-1.8,0.1-2.7,0.3c-0.2-0.3-0.4-0.6-0.7-0.8c-0.3,0.1-1,0.4-2.1,0.8C19.9,2.7,18.9,3,17.9,3c-0.6,0.7-0.9,1.1-1,1.1h-1.5
	c-0.8,0-2,0.5-3.8,1.6c-1.5,0.9-3,1.9-4.3,3.1c-1,1-1.9,2.1-2.6,3.4C3.9,13.4,3.4,14.7,3,16c-0.3,1.3-0.5,2.7-0.5,4.1
	c-0.1,3.3,1.1,6.6,3.4,9.1c2.3,2.6,6.3,5.1,12,7.8c1.5,0.8,2.2,1.5,2.2,2.1v0.1c2.2,0.4,4.2,1.9,6,4.7c1.7,2.5,2.7,5.5,2.7,8.5
	c0.1,1.9-0.4,3.7-1.3,5.3c-0.7,1.4-1.6,2.7-2.6,4c-1.4,1.5-3,2.7-4.9,3.5c-2.4,1.2-5,2-7.7,2.3C9.5,67.8,8,68,7.6,68
	c-1.2-0.1-2.4-0.4-3.6-0.7c-0.6-0.9-1.6-1.4-2.7-1.5H1c-0.4,0.5-0.7,1.1-0.7,1.7C0.2,69,0.4,70.6,1,72c0.5,1,1.5,1.6,2.6,1.5
	c3.5,0,5.8-0.3,6.9-0.9c0.8-0.5,1.6-0.8,2.5-0.9c0.3,0,0.7,0.1,1,0.2c7.5-2.7,12.6-5.7,15.5-9.1s4.4-8.2,4.4-14.4
	c0-1.4-0.3-2.9-0.8-4.2c-0.5-1.5-1.2-2.9-2.1-4.2c-1.2-1.7-2.6-3.2-4.1-4.7c-1.8-1.7-3.1-2.7-3.9-2.8c-0.7-0.1-1.3-0.2-2-0.2
	c-8.9-4.6-13.4-9-13.4-13.2c-0.1-3.6,1.6-7.1,4.5-9.3c3-2.3,7.1-3.5,12.3-3.5c1.3,0,2.6,0.5,3.5,1.4c0.6,0.6,1.3,1.2,2,1.7
	C30.6,9.3,31.1,8.7,31.4,8z M75.9,27.2c-0.7,0.3-1.4,0.6-2.1,0.7c-0.2,0-0.5,0-0.7-0.1l-0.6-1.2c-0.3-0.1-0.5-0.1-0.8-0.1
	c-0.6,0-1.2,0.1-1.8,0.3c-0.4,0.1-0.8,0.2-1.2,0.3c-0.4,0-0.7-0.1-0.9-0.4c-0.2-0.3-0.3-1.6-0.3-3.9c0-1.6,0.1-3.2,0.3-4.8
	c0.2-1.6,0.4-3.3,0.7-5s0.6-3.4,1-5.1C69.7,7,70,6.1,70.3,5.2c0-0.1,0.1-0.1,0.1-0.2c0.2-0.1,0.3-0.2,0.5-0.2s0.3-0.1,0.4-0.3V4.3
	c-0.2-0.3-0.4-0.6-0.5-1c-0.1-0.3-0.2-0.5-0.4-0.8C70,2.3,69.6,2.1,69.2,2c-0.6-0.2-1.3-0.4-2-0.4c-0.6,0.2-1.1,0.5-1.5,1
	C65,3.5,64.4,4.4,64,5.4c-0.4,0.8-0.6,1.7-0.7,2.6v2c0,2.4-0.1,4.9-0.4,7.3c-0.5,3.7-0.9,5.9-1.5,6.5c-0.5,0.6-1.2,1.2-1.9,1.6
	s-1.4,0.7-2.2,0.9l-2,0.5h-1.9c-2.3,0-3.7,0.2-4.1,0.5c-0.4,0.2-0.7,0.7-0.7,1.1c0,1.2,3.7,1.9,11.3,2.2l0.2,0.6h0.7l0.3-0.6l1,0.3
	c-0.6,4.6-0.9,9.3-1,14c0,2.5,0.2,4.9,0.4,7.1s0.5,4.1,0.8,5.6c0.5,1.9,1.3,3.6,2.5,5.1c1.1,1.6,2.4,3.1,3.9,4.3
	c1.2,1,2.6,1.8,4.1,2.3c0.6,0.2,1.1,0.7,1.4,1.2c0.2,0.1,0.4,0.2,0.7,0.4c0.1,0.1,0.3,0.2,0.5,0.3l0.1-0.1c1,0.3,2,0.4,3,0.4
	c0.1,0.2,0.2,0.3,0.4,0.3h0.2c0.5-0.5,1-1.1,1.4-1.7c0.3-0.7,0.7-1.3,1.1-1.9c0.4-0.5,0.6-1.1,0.7-1.7c-0.1-0.5-0.4-1-0.9-1.2h-1
	c-2.7,0-4.3-0.4-5-1.1c-0.6-0.7-1.4-1.2-2.2-1.6c-1-0.5-2-1.2-2.8-2c-0.9-0.8-1.6-1.8-2.2-2.8c-0.4-0.9-0.8-2-1.2-3.1
	c-0.5-1.4-0.8-2.9-0.9-4.4c-0.1-1.8-0.2-3.3-0.2-4.7c0.1-5,0.5-10,1.3-14.9c1.3,0.1,2.2,0.2,2.9,0.2l4.6-0.2c1.5,0,3,0.3,4.4,1
	l0.6-0.2l0.2,0.6c1-0.1,1.9-0.6,2.4-1.5l0.6,0.6c0.7-0.4,1.2-1.1,1.3-1.9c0-0.7-0.5-1.3-1.1-1.6c-0.8-0.5-1.8-0.8-2.8-0.7h-0.5
	c-0.2,0-0.4-0.1-0.6-0.2c-0.3,0-0.5-0.2-0.6-0.5C77.7,26.5,76.8,26.8,75.9,27.2z M133.7,42.8c-0.1-0.5-0.5-0.9-1-0.9
	c-0.5-0.1-1-0.5-1.3-0.9v-0.7c0-6.3-1.3-11.1-3.7-14.5c-2.3-3.3-6.1-5.2-10.1-5.1c-5.5,0-9.2,0.6-11.2,1.7c-1.8,0-3,0.7-3.4,2
	c-0.5,1.4-0.8,2-0.8,2.1c0,0.7,0.6,1.1,1.7,1.1c1.5-0.1,3-0.8,3.9-2c2.6-0.3,5.3-0.4,7.9-0.4c0.3,0,0.6,0.1,0.9,0.3
	c0.2,0.2,0.5,0.3,0.8,0.4c6.1,2.1,9.2,6,9.2,11.8c0.1,1.2-0.1,2.3-0.7,3.4c-0.4,0.5-1,0.8-1.6,1c-0.9,0.3-1.9,0.5-2.8,0.6
	c-4.4,0.8-9.1,2.9-14.1,6.5c-5.1,3.6-7.6,7-7.6,10.3v0.4l-0.1,1.2c-0.1,1.1,0,2.2,0.4,3.2c0.6,0.8,1.3,1.6,2.1,2.2
	c1.1,1,2.4,1.8,3.8,2.2c1.7,0.5,3.4,0.8,5.2,0.8c1.9,0,3.7-0.4,5.5-1c3.8-1.5,6-2.2,6.4-2.2c0-0.4,0.3-0.8,0.7-1h0.4
	c0.4,0,0.7-0.1,1.1-0.2c0.2-0.1,0.4-0.2,0.6-0.2c0.4,0,0.6,0.9,0.6,2.8c0.1,1,0,2-0.3,2.9c-0.2,0.3-0.4,0.6-0.8,1.1
	c-0.8,1.4-1.1,3-1.1,4.6c0,0.8,0.1,1.7,0.4,2.4h0.3c0.4,0,0.8,0.1,1.2,0.3c0.3,0.2,0.6,0.3,1,0.3c1.1,0,2.8-1.2,5.2-3.5l-0.1-2.1
	l0.1-2.4l-0.6-2.6c-0.3-1.5-0.5-3-0.5-4.6c0-0.6,0-1.2,0.1-1.8c0.2-0.3,0.4-0.6,0.4-0.9l-0.2-6.6c0-3,0-5.3,0.1-6.9
	c0-1,0.2-1.9,0.4-2.9c0.3-0.4,0.6-0.8,0.9-1.2C133.4,43.8,133.6,43.4,133.7,42.8L133.7,42.8L133.7,42.8z M124.1,61.2
	c-1.6,1.6-3.5,2.8-5.6,3.5c-1.3,0.5-2.7,0.8-4.1,0.9c-2.6,0.1-5.1-0.7-7.2-2.2c-1.9-1.2-3.1-3.2-3.1-5.5c0-3.1,2.5-6,7.5-8.8h1.2
	c2.7-2,6-3,9.4-2.9c1.7-0.2,3.3,0.8,4,2.3c0.6,1.4,0.9,2.8,1,4.3c0,2.2-1.1,4.7-3.1,7.4L124.1,61.2L124.1,61.2z M195.1,25.4
	c-0.5-0.1-1.1,0.2-1.3,0.7c-0.5,1-0.8,2.1-1,3.2c-0.3,1.6-0.7,3.1-1.2,4.6c-0.6,1.6-1.3,3.1-2.2,4.5c-1,1.6-3.1,6.1-6.3,13.3
	l-3.8,8.6c-0.4-0.3-0.8-0.6-1.2-1c-0.3-0.3-0.7-0.7-1-1.1c-0.3-0.4-0.6-0.9-0.8-1.3c-0.1-0.1-0.5-0.7-1.3-1.9
	c-0.5-0.7-1-1.5-1.5-2.3c-0.6-0.8-1.1-1.7-1.5-2.6c-0.4-0.9-0.9-1.9-1.5-3.1l-1.5-3.3c-2-4.3-3.6-7.7-4.8-10.1V32l-1.1-3.9
	c-0.7-2.9-1.3-4.5-1.8-4.7c-0.7-0.4-1.5-0.7-2.2-1c-1.4,0.8-2.6,1.8-3.5,3.1c-0.7,0.7-1.2,1.4-1.6,2.3c0,0.2,0.2,0.3,0.7,0.3
	c0.2,0,0.4,0,0.6-0.1v0.5c0.1,1.2,0.7,2.3,1.6,3.1c1.1,1.4,2,2.9,2.6,4.5c0.7,1.7,1.9,4.2,3.5,7.5c1.7,3.3,3.3,6.8,4.8,10.5
	c1.6,3.7,3.1,6.8,4.5,9.3c0.4,1,0.6,2,0.6,3c0.3,1.7,0.8,2.5,1.5,2.5h0.2c0.3,0,0.6,0.1,0.9,0.2c0,0.3,0.1,0.7,0.3,1
	c-2.7,5.8-5.9,11.4-9.5,16.7c-1.5,2.3-2.2,3.6-2.2,4.1c0,0.3,0.1,0.5,0.4,0.5c-2.4,3.2-3.6,4.9-3.6,5.2c-0.2,0.1-0.3,0.2-0.3,0.4
	c-0.1,0.4,0.2,0.7,0.5,0.8c0.1,0,0.2,0,0.3,0l0.3-0.1c1.5,0,2.9,0.2,4.3,0.6h0.6c1.1,0.1,2-0.7,2.1-1.8c0-0.1,0-0.2,0-0.3
	c0.2-2.1,0.8-4.1,1.6-6c1.1-2.6,4-9.3,8.7-20.2c0.2-0.5,0.7-0.9,1.3-1l0.3-1.2c1.1-0.8,1.9-2.5,2.2-4.9c0.3-3.1,1.6-6.8,4-11.1
	l8.1-14.6c3-5.4,4.7-8.2,5.1-8.2c0.9-0.5,1.6-1.4,1.7-2.5c0-0.6-0.7-1.1-2-1.4c-0.8-0.3-1.7-0.4-2.6-0.5c-0.5,0-1,0.2-1.4,0.5
	L195.1,25.4z"/>
</svg>
