<?xml version="1.0" encoding="utf-8"?>
<!-- Generator: Adobe Illustrator 24.3.0, SVG Export Plug-In . SVG Version: 6.00 Build 0)  -->
<svg version="1.1" id="レイヤー_1" xmlns="http://www.w3.org/2000/svg" xmlns:xlink="http://www.w3.org/1999/xlink" x="0px"
	 y="0px" viewBox="0 0 402 100" style="enable-background:new 0 0 402 100;" xml:space="preserve">
<style type="text/css">
	.st0{fill-rule:evenodd;clip-rule:evenodd;fill:#3B576A;}
</style>
<path id="ttl_nurture" class="st0" d="M61.6,1.7h-1.5l-1-0.1C58,1.5,56.9,1.9,56,2.5C55.2,3.1,54.8,4,54.8,5c0,0.7,0.1,1.4,0.3,2
	s0.3,1.2,0.3,1.9c0,0.6,0,1.3-0.1,1.9c0.1,0.2,0.1,0.4,0.1,0.6c0,0.4-0.1,0.7-0.1,1c-0.1,0.4-0.1,0.8-0.1,1.2c0,0.2,0,0.5,0.1,0.7
	c0.4,0.5,0.6,1.7,0.6,3.5L55.7,25c-0.1,5.5-0.2,9.9-0.2,13.2l0.1,8.5L55.4,53l0.1,3.4c0,0.4-0.1,0.6-0.4,0.6c-0.3,0-0.5-0.1-0.8-0.2
	c-1.3-1-2.6-2.2-3.6-3.5c-2.1-2.2-3.9-4.2-5.4-6s-3-3.6-4.6-5.4l-4.4-5.5c-4.7-5.8-8.8-10.7-12.4-14.5s-5.3-6-5.3-6.3
	c0-0.1,0-0.2,0.1-0.2c-3.3-3.3-6.2-6.9-8.8-10.8C8.3,2.3,7.2,1,6.5,1C5.7,1.2,5.3,1.4,5.2,1.4C5.1,1.5,4.9,1.6,4.8,1.7
	C4.6,1.9,4.4,2.1,4,2.5c-0.3,0.3-0.6,0.6-0.9,1c0.1,0.9,0.1,2.1,0.1,3.6c0,0.8,0,1.6-0.2,2.3l0.4,1.7c0,1.7-0.1,3.4-0.3,5.1
	c-0.2,1.8-0.3,3.7-0.3,5.5c0,0.1,0.1,0.8,0.1,1.9C3,24.7,3,25.5,3,26.1C2.9,27,2.8,28,2.6,28.9c-0.3,2.4-0.5,4.8-0.4,7.2l0.1,7.8
	l-0.2,5.8c0.1,0.8-0.3,1.6-0.9,2.1l-0.1,0.3c0.1,0.5,0.3,1,0.7,1.4c-0.1,1-0.2,2.1-0.3,3.5c0,0.8-0.1,1.7-0.3,2.5
	c-0.1,0.3-0.4,0.5-0.7,0.4c-0.4,2.1-0.6,4.3-0.7,6.5c-0.1,1,0.1,2.1,0.6,3c0.9-0.4,1.9-0.7,2.9-0.9C3.6,68.7,4,69,4.4,69
	c1.6,0.2,3.2-0.5,4.1-1.8v-0.6c0-0.9-0.2-1.9-0.5-2.7c-0.2-0.6-0.4-1.2-0.5-1.8V62c0.4-0.6,0.5-1.3,0.4-2v-1.1l-0.7-1.4
	c-0.6-7.7-0.9-14.6-0.9-20.7c0-4.7,0.2-9.5,0.7-14.2c0.4-3.9,0.8-6.2,1.1-6.8c0.2-0.4,0.5-0.8,1-0.9c0.1,0,3,3.3,8.6,9.9
	s10.8,12.9,15.5,18.9c4.8,6,10.8,12.7,18,20.1v1c2.8,3.6,4.8,5.4,6.1,5.4c0.8,0,1.5-0.6,2.1-1.8c0.6-1.5,1-3.1,0.9-4.7
	c-0.1-1.6-0.4-3.3-0.7-4.9c-0.4-2.1-0.7-4.3-0.7-6.4l0.1-3.7l0-5.2c0-2,0.1-4.5,0.4-7.5s0.4-6.7,0.5-11s0.3-8,0.6-11.1
	c0.3-2.9,0.8-5.8,1.6-8.6L63,2.2C62.5,1.9,62.1,1.8,61.6,1.7L61.6,1.7L61.6,1.7z M120.1,23.4c-0.2,0-0.4,0.1-0.6,0.2
	c-0.3,0.2-0.7,0.4-1.1,0.5c0,1.4,0.2,2.3,0.6,2.6c0.6,0.4,1,1.5,1.2,3.4c0.3,3.7,0.4,7.4,0.4,11.1c0,2-0.1,4-0.4,6
	c-0.2,1.6-0.5,3.2-1,4.8c-0.4,1.2-0.9,2.4-1.6,3.4c-0.6,0.9-2.3,2.3-5.1,4.2c-2,1.4-4.1,2.8-6.3,4c-0.9,0.5-1.9,0.9-2.9,1.1
	l-1.5-0.1l-0.8,0.1c-1.7,0-3.5-1.1-5.2-3.2c-1.8-2.1-2.7-5.5-2.7-10c0.1-2.6,0.4-5.2,0.9-7.8l1.6-10.5c0.3-2.8,1.5-5.5,3.5-7.5
	l1-1.2c-0.3-0.6-0.7-1.1-1.2-1.5h-0.3c-0.6,0-1.2-0.1-1.8-0.3c-0.4-0.2-0.9-0.3-1.4-0.3c-0.8,0.1-1.5,0.3-2.2,0.7
	c-0.6,0.3-1.2,0.6-1.9,0.8c-0.3,0-0.5,0.2-0.5,0.5v0.2l0.4,0.8c0.2,0.4,0.3,0.8,0.3,1.2c0,0.1-0.2,1.5-0.7,4.2s-1.1,7.1-1.9,13.2
	c-0.5,6-0.9,9.6-0.9,10.6c0,2.2,0.3,4.3,0.9,6.4c0.4,1.5,1.1,3,2.1,4.2c0.9,1,2,2,3.1,2.8c0.9,0.8,2,1.3,3.1,1.4
	c0.2,0,2.6-0.4,7.2-1.1c0.6-0.5,1.3-0.8,2-1c3-1.6,5.7-3.6,8.2-5.9c2-1.9,3.5-2.8,4.2-2.8c1,0,1.8,0.7,1.8,1.7l0,0
	c0.2,0.9,0.3,1.8,0.3,2.7c0,0.4-0.1,0.7-0.3,1.1c-0.2,0.5-0.3,1-0.3,1.5c0,0.3,0,0.5,0.1,0.8c-0.2,0.4-0.3,0.9-0.4,1.4
	c0,1.1,0.7,1.7,2,1.7c1.7-0.2,3.4-0.6,5-1.4c-0.3-0.1-0.5-0.8-0.5-2c0-0.4,0.1-1.3,0.2-2.9c0.4-0.1,0.7-0.3,0.8-0.7
	c-0.1-0.3-0.4-0.6-0.7-0.8c-0.4-0.2-0.7-0.6-0.7-1.1c0-0.4-0.2-1.4-0.4-3c-0.2-1.2-0.4-2.3-0.4-3.5c-0.1-1.1,0.2-2.2,0.8-3.2
	c0.4-0.5,0.7-1.1,0.8-1.7c0-0.2,0-0.4-0.1-0.6c-1-1.3-1.6-2.7-1.8-4.3c-0.2-1.6-0.3-3.2-0.4-4.8c0-1.5,0.1-3.1,0.4-4.6
	c0.2-1.7,0.6-3.4,1.1-5l1.6-5.3c0-1.7-0.3-2.5-1-2.5h-0.3l-3,0.6c-0.9,0.2-1.7,0.5-2.4,1C120.9,23.6,120.5,23.5,120.1,23.4
	L120.1,23.4L120.1,23.4z M180.3,30.2c-0.1-0.7-0.6-1.3-1.3-1.6c-1.8,0.2-3.6,0.6-5.3,1.2c-2.6,0.7-5,2-7,3.8c-2.1,2-3.8,4.5-4.9,7.2
	c-0.9-0.2-1.3-0.5-1.3-1v-0.9l-0.1-6c-0.1-2.2,0.2-4.4,0.9-6.4c0.4-1.1,0.7-2.2,0.9-3.3v-0.6c-0.1-0.2-0.1-0.4-0.3-0.6
	c-0.2-0.3-0.3-0.6-0.4-0.7c-0.7-0.4-1.4-0.6-2.2-0.6c-1.1,0.1-2.2,0.4-3.1,1c-1.1,0.5-1.8,1.6-1.8,2.8c0,0.1,0,0.5,0.1,1.2
	c1,7.8,1.5,15.7,1.5,23.6l-0.3,11.5c-0.1,1.3-0.4,2.6-0.8,3.9c-0.4,1.2-0.7,2.5-0.8,3.9v0.2c1,0.3,2.1,0.5,3.2,0.5
	c0.9,0,1.8,0,2.6-0.1l1-1c1.2,0,1.8-0.7,1.8-2.2v-0.4c-0.9-1.4-1.5-3-1.7-4.7c-0.3-1.4-0.4-2.9-0.5-4.3c0-0.5,0.2-0.9,0.6-1.2
	c0.1-0.3,0.1-0.7,0.1-1c0-0.6-0.1-1.1-0.1-1.7c0-1.2,0.3-2.4,0.8-3.5v-1.6c0.8-1,1.3-2.2,1.6-3.5c0.6-1.5,1.4-2.9,2.4-4.1
	c1-1.5,2.3-2.7,3.9-3.6c0.9-0.5,1.9-0.9,2.9-1c1.4,0.2,2.6,0.7,3.8,1.5h1.2c0.6-0.5,1-1.2,1.3-2c0.2-0.8,0.5-1.5,0.9-2.1
	c0.3-0.5,0.6-1,0.7-1.6L180.3,30.2L180.3,30.2z M224.2,26.4c-0.7,0.3-1.4,0.6-2.1,0.7c-0.3,0-0.5,0-0.8-0.1l-0.6-1.2
	c-0.2-0.1-0.5-0.1-0.7-0.1c-0.6,0-1.2,0.1-1.8,0.3c-0.4,0.1-0.8,0.3-1.2,0.3c-0.3,0-0.7-0.2-0.8-0.4c-0.2-0.3-0.3-1.6-0.3-3.9
	c0-1.6,0.1-3.2,0.2-4.8c0.2-1.6,0.4-3.3,0.7-5s0.6-3.4,1.1-5.1s0.7-2.6,0.7-2.6s0.1-0.1,0.2-0.2c0.1-0.1,0.3-0.2,0.5-0.2
	s0.3-0.1,0.4-0.3V3.6c-0.2-0.3-0.4-0.6-0.5-1c-0.1-0.3-0.2-0.5-0.4-0.8c-0.4-0.2-0.8-0.4-1.2-0.5c-0.7-0.2-1.4-0.4-2-0.4
	c-0.6,0.2-1.1,0.5-1.4,1c-0.7,0.8-1.3,1.7-1.7,2.7c-0.4,0.8-0.6,1.7-0.7,2.6v2c0,2.4-0.1,4.9-0.4,7.3c-0.4,3.7-0.9,5.9-1.5,6.5
	c-0.5,0.6-1.2,1.2-1.9,1.6c-0.7,0.4-1.4,0.7-2.2,0.9l-2,0.5h-1.9c-2.3,0-3.6,0.2-4.1,0.5c-0.4,0.2-0.7,0.7-0.7,1.1
	c0,1.2,3.8,1.9,11.3,2.2l0.2,0.6h0.7l0.3-0.6l1,0.3c-0.6,4.6-0.9,9.3-0.9,14c0,2.5,0.1,4.9,0.3,7.1c0.2,1.9,0.4,3.8,0.8,5.6
	c0.5,1.9,1.3,3.6,2.5,5.1c1.1,1.6,2.4,3,3.9,4.3c1.2,1,2.6,1.8,4.1,2.3c0.6,0.2,1.1,0.7,1.4,1.2c0.3,0.1,0.5,0.2,0.7,0.4
	c0.1,0.1,0.3,0.2,0.5,0.3c0,0,0.1,0,0.1-0.1l0,0c1,0.3,2,0.4,3,0.4c0.1,0.2,0.2,0.3,0.4,0.3h0.2c0.5-0.5,1-1.1,1.4-1.7
	c0.3-0.5,0.6-1.2,1.1-1.9c0.4-0.5,0.6-1.1,0.7-1.7c-0.1-0.5-0.5-1-0.9-1.2h-1c-2.7,0-4.3-0.4-5-1.1c-0.6-0.7-1.4-1.3-2.2-1.6
	c-1-0.5-2-1.2-2.8-2c-0.9-0.8-1.6-1.7-2.1-2.8c-0.4-0.9-0.9-2-1.3-3.1c-0.5-1.4-0.8-2.9-0.9-4.4c-0.1-1.8-0.2-3.3-0.2-4.7
	c0.1-5,0.5-10,1.3-14.9c1.3,0.1,2.3,0.2,2.9,0.2L223,30c1.5,0,3,0.3,4.4,1l0.6-0.2l0.3,0.6c1-0.1,1.8-0.7,2.3-1.5l0.6,0.6
	c0.7-0.4,1.3-1.1,1.4-1.9c-0.1-0.7-0.5-1.3-1.2-1.6c-0.8-0.5-1.8-0.8-2.8-0.7h-0.5c-0.2-0.1-0.4-0.1-0.6-0.2
	c-0.3-0.1-0.5-0.3-0.6-0.5C226,25.7,225.1,26,224.2,26.4L224.2,26.4z M285.6,23.4c-0.2,0-0.4,0.1-0.6,0.2c-0.3,0.2-0.7,0.4-1.1,0.5
	c0,1.4,0.2,2.3,0.6,2.6c0.6,0.4,1,1.5,1.2,3.4c0.3,3.7,0.4,7.4,0.4,11.1c0,2-0.1,4-0.3,6c-0.2,1.6-0.5,3.2-1,4.8
	c-0.4,1.2-0.9,2.4-1.6,3.4c-0.6,0.9-2.3,2.3-5.1,4.2c-2,1.4-4.1,2.8-6.3,4c-0.9,0.5-1.9,0.9-2.9,1.1l-1.5-0.1l-0.8,0.1
	c-1.7,0-3.5-1.1-5.2-3.2c-1.8-2.1-2.7-5.5-2.7-10c0.1-2.6,0.4-5.2,0.9-7.8l1.6-10.5c0.5-3.3,1.7-5.8,3.6-7.5l1-1.2
	c-0.3-0.6-0.7-1.1-1.2-1.5h-0.3c-0.6,0-1.2-0.1-1.8-0.3c-0.4-0.2-0.9-0.3-1.4-0.3c-0.8,0.1-1.5,0.3-2.2,0.7
	c-0.6,0.3-1.2,0.6-1.9,0.8c-0.3,0-0.5,0.2-0.5,0.5v0.2l0.4,0.8c0.2,0.4,0.3,0.8,0.4,1.2c0,0.1-0.2,1.5-0.7,4.2
	c-0.5,2.6-1.1,7.1-1.9,13.2c-0.8,6.2-1.2,9.7-1.2,10.8c0,2.2,0.3,4.3,0.9,6.4c0.4,1.5,1.1,3,2.1,4.2c0.9,1,2,2,3.1,2.8
	c0.9,0.8,2,1.2,3.1,1.4c0.2,0,2.6-0.4,7.2-1.1c0.6-0.5,1.3-0.8,2-1c3-1.6,5.7-3.6,8.2-5.9c2.1-1.9,3.5-2.8,4.2-2.8
	c1,0,1.8,0.7,1.8,1.7l0,0c0.2,0.9,0.3,1.8,0.3,2.7c0,0.4-0.1,0.7-0.3,1.1c-0.2,0.5-0.3,1-0.3,1.5c0,0.3,0,0.5,0.1,0.8
	c-0.2,0.5-0.3,0.9-0.3,1.4c0,1.1,0.7,1.7,2,1.7c1.7-0.2,3.4-0.6,5-1.4c-0.3-0.1-0.5-0.8-0.5-2c0-0.4,0.1-1.3,0.2-2.9
	c0.4-0.1,0.7-0.3,0.8-0.7c-0.1-0.3-0.4-0.6-0.7-0.8c-0.4-0.2-0.7-0.6-0.7-1.1c0-0.4-0.2-1.4-0.4-3c-0.2-1.2-0.4-2.3-0.4-3.5
	c-0.1-1.1,0.2-2.2,0.8-3.2c0.4-0.5,0.7-1.1,0.8-1.7c0-0.2,0-0.4-0.1-0.6c-1-1.3-1.6-2.7-1.8-4.3c-0.2-1.6-0.3-3.2-0.3-4.8
	c0-1.5,0.1-3.1,0.3-4.6c0.3-1.7,0.6-3.4,1.1-5l1.6-5.3c0-1.7-0.3-2.5-1-2.5H292l-3,0.6c-0.9,0.2-1.7,0.5-2.4,1
	C286.4,23.6,286,23.5,285.6,23.4L285.6,23.4L285.6,23.4z M347.8,30.2c-0.2-0.7-0.6-1.3-1.3-1.6c-1.8,0.2-3.6,0.6-5.3,1.2
	c-2.6,0.7-5,2-7,3.8c-2.1,2-3.8,4.5-4.9,7.2c-0.9-0.2-1.3-0.5-1.3-1v-0.9l-0.1-6c-0.1-2.2,0.2-4.4,0.9-6.4c0.4-1.1,0.7-2.2,0.9-3.3
	v-0.6c-0.1-0.2-0.1-0.4-0.3-0.6c-0.2-0.3-0.3-0.6-0.4-0.7c-0.7-0.4-1.4-0.6-2.2-0.6c-1.1,0.1-2.2,0.4-3.1,1
	c-1.1,0.5-1.8,1.6-1.8,2.8c0,0.1,0,0.5,0.1,1.2c1,7.8,1.5,15.7,1.5,23.6l-0.3,11.5c-0.1,1.3-0.4,2.6-0.8,3.9
	c-0.5,1.2-0.7,2.5-0.8,3.9v0.2c1,0.3,2.1,0.5,3.2,0.5c0.9,0,1.8,0,2.6-0.1l1-1c1.2,0,1.8-0.7,1.8-2.2v-0.4c-0.9-1.4-1.5-3-1.7-4.7
	c-0.3-1.4-0.4-2.9-0.5-4.3c0-0.5,0.2-0.9,0.6-1.2c0.1-0.3,0.1-0.7,0.1-1c0-0.6-0.1-1.1-0.1-1.7c0-1.2,0.3-2.4,0.8-3.5v-1.6
	c0.8-1,1.3-2.2,1.6-3.5c0.6-1.5,1.4-2.9,2.4-4.1c1-1.5,2.3-2.7,3.9-3.6c0.9-0.5,1.9-0.9,2.9-1c1.4,0.2,2.6,0.7,3.8,1.5h1.2
	c0.6-0.5,1-1.2,1.3-2c0.2-0.8,0.5-1.5,0.9-2.1c0.3-0.5,0.6-1,0.7-1.6L347.8,30.2L347.8,30.2z M401.8,36.7c-0.1-0.3-0.2-0.6-0.3-0.9
	c-0.2-0.6-0.4-1.3-0.4-2c-0.5-4.7-1.9-7.7-4.3-9.2c-1.9-1.3-4.2-2.1-6.5-2.2c-1.5,0-2.9,0.2-4.3,0.5c-1.3,0.1-2.5,0.5-3.7,1.1
	l-1.6-0.1c-0.7,0-1.4,0.3-1.9,0.8c-0.5,0.4-1,0.7-1.5,1c-2.8,1.6-5.4,3.7-7.6,6c-1.9,2.4-3.5,5.2-4.5,8.2c-1.3,3.3-1.9,6.8-2,10.3
	c0,2.7,0.6,5.3,1.6,7.8c1,2.6,2.8,4.9,5.1,6.6c2.3,1.7,5.9,3.1,10.7,4.1c3,0.7,6.1,1.3,9.1,1.6h2.6l3.1-0.1l1,0.2
	c1.3,0,2.5-0.7,3.2-1.7c0.9-1.1,1.4-2.5,1.4-4c0-0.8-0.2-1.6-0.6-2.4c-1,0.1-1.9,0.5-2.7,1c-0.5,0.4-1.2,0.7-1.8,0.9h-3.2l-2,0.2
	c-1.2,0.1-2.5,0.2-3.8,0.2c-2.3,0-4.5-0.3-6.7-1c-1.9-0.6-3.8-1.6-5.4-2.8c-2.6-1.9-4-2.9-4.2-3.1c-1-1.5-1.7-3.3-2-5.1
	c-0.4-1.6-0.6-3.2-0.7-4.8c0-1.2,0.2-2.4,0.5-3.6c0.5-0.1,0.9-0.5,1-1s0.5-0.8,0.9-0.8s0.9-0.2,1.3-0.4c2.3-0.5,4.6-0.7,7-0.7
	l4.8,0.2c1,0,2-0.1,3-0.3c0.7-0.1,1.5-0.2,2.3-0.3c0.7,0,1.4,0.1,2,0.2c0.7,0.1,1.4,0.2,2.2,0.2c0.7,0,1.4-0.1,2.1-0.3l0.6,0.6
	c0.4,0,0.9,0.2,1.2,0.4c0.1,0.1,0.3,0.2,0.5,0.3c0.2-0.1,0.3-0.2,0.4-0.3c0.1-0.2,0.3-0.3,0.6-0.3h0.7c1.4,0,2.1-0.3,2.1-0.8
	c0-0.1,0-0.2-0.1-0.3c0.6-0.5,0.8-1.3,0.8-2.1c0-0.4-0.1-0.8-0.4-1.1C401.7,37.1,401.7,36.9,401.8,36.7L401.8,36.7L401.8,36.7z
	 M385.2,25.9c0.3,0,0.9,0,1.6,0.1s1.3,0.1,1.7,0.1c3.4,0.9,5.5,2.1,6.3,3.6c0.8,1.6,1.2,3.5,1.2,5.3c0,1.9-1.1,2.9-3.3,2.9l-17,0.6
	H372l-0.6-0.2c-0.4-0.1-0.7-0.4-0.7-0.8c0-0.3,0.2-0.7,0.4-0.9c0.3-0.3,0.7-0.9,1.2-1.5s1.2-1.5,1.9-2.3s1.4-1.7,2.2-2.4
	c0.7-0.7,1.5-1.4,2.4-2c1-0.4,1.9-0.9,2.8-1.6C382.7,26.3,383.9,26.1,385.2,25.9L385.2,25.9L385.2,25.9z"/>
</svg>
