<?xml version="1.0" encoding="utf-8"?>
<!-- Generator: Adobe Illustrator 22.1.0, SVG Export Plug-In . SVG Version: 6.00 Build 0)  -->
<svg version="1.1" id="レイヤー_1" xmlns="http://www.w3.org/2000/svg" xmlns:xlink="http://www.w3.org/1999/xlink" x="0px"
	 y="0px" viewBox="0 0 42 20" style="enable-background:new 0 0 42 20;" xml:space="preserve">
<style type="text/css">
	.st0{enable-background:new    ;}
	.st1{fill:#412820;}
</style>
<g id="header_order" transform="translate(-1156 -753)">
	<g class="st0">
		<path class="st1" d="M1165.9,757.6c0.4,0,0.8,0.4,1.4,1.2c0.5,0.8,0.8,1.7,0.8,2.7c0,0.5,0,1-0.1,1.4s-0.2,0.9-0.4,1.2
			c-0.4,0.8-0.7,1.4-0.9,1.6c-0.4,0.5-0.8,1-1.3,1.3c-0.5,0.3-0.9,0.6-1.4,0.7c-0.5,0.2-1,0.2-1.6,0.2c-1.4,0-2.2-0.1-2.3-0.4
			c-0.1,0-0.3-0.1-0.5-0.2c-0.2-0.1-0.3-0.1-0.3-0.1l-0.2-0.2c-0.2,0-0.3-0.1-0.3-0.1c-0.5-0.3-0.9-0.8-1.2-1.4
			c-0.3-0.6-0.4-1.4-0.4-2.5c0-0.8,0.3-1.8,0.9-2.9c0-0.1,0.1-0.2,0.1-0.3c0-0.1,0.1-0.2,0.2-0.3c0.1-0.1,0.1-0.1,0.2-0.2
			c0.4-0.5,0.7-0.8,0.8-0.9c0.1-0.1,0.3-0.2,0.6-0.3s0.5-0.3,0.6-0.4c0-0.1,0.1-0.1,0.1-0.1c0.1,0,0.1,0,0.1,0l0.1,0
			c0,0,0.1-0.1,0.1-0.1s0.1-0.1,0.1-0.1c0,0,0.2-0.1,0.6-0.2c0.4-0.1,0.6-0.2,0.7-0.2c0.1,0,0.3,0,0.7-0.1l0.5-0.1
			c0.1,0,0.3,0,0.4,0.1c0.2,0,0.3,0.1,0.3,0.1C1165.1,757.3,1165.7,757.5,1165.9,757.6z M1166.2,765.4c0.6-1.1,0.9-2.2,0.9-3.1
			c0-0.7-0.1-1.2-0.2-1.8c-0.2-0.5-0.4-1-0.7-1.3c-0.3-0.4-0.6-0.7-1-0.9c-0.4-0.2-0.9-0.4-1.5-0.4c-0.6-0.1-1-0.1-1.1-0.1
			c0,0-0.1,0-0.1,0.1s-0.1,0.1-0.2,0.2c-0.1,0-0.2,0-0.3,0l-0.3,0c-0.2,0-0.3,0.1-0.4,0.2c0,0,0,0,0,0c0,0,0,0-0.1-0.1l-0.1,0.1v0.1
			c0,0,0,0-0.1-0.1c0,0,0-0.1-0.1-0.1h0c-0.5,0.2-0.8,0.3-0.9,0.4c-0.1,0-0.2,0.1-0.3,0.1c-0.1,0.1-0.2,0.2-0.3,0.3
			c-0.1,0.2-0.2,0.3-0.3,0.4c-0.1,0.1-0.2,0.2-0.2,0.2c-0.1,0.1-0.1,0.2-0.1,0.3c-0.3,0.2-0.5,0.7-0.6,1.2c-0.2,0.6-0.2,1.2-0.2,1.8
			c0,0.6,0.1,1.1,0.3,1.6s0.4,0.8,0.6,0.9v0.2c0.2,0.2,0.3,0.4,0.5,0.5c0.2,0.2,0.4,0.3,0.8,0.4c0.3,0.1,0.6,0.2,0.9,0.3
			s0.5,0.1,0.8,0.2c0.3,0,0.6,0.1,0.9,0.1c0.2,0,0.3,0,0.4,0l0.6-0.1c0.2,0,0.3-0.1,0.4-0.1c0,0,0.2-0.1,0.4-0.2l0.6-0.3
			c0.1,0,0.1-0.1,0.1-0.1c0,0,0-0.1,0-0.1v-0.1c0-0.1,0.1-0.1,0.3-0.2c0.2-0.1,0.3-0.2,0.4-0.2c0.1-0.1,0.2-0.1,0.2-0.2
			C1166.2,765.5,1166.2,765.5,1166.2,765.4z"/>
		<path class="st1" d="M1174.9,762c0,0.1,0,0.1-0.1,0.3c-0.1,0.1-0.1,0.2-0.1,0.3c0,0.1-0.1,0.2-0.2,0.3h-0.2
			c-0.3-0.2-0.5-0.2-0.6-0.2c-0.1,0-0.2,0.1-0.5,0.2c-0.2,0.1-0.4,0.3-0.6,0.6c-0.2,0.3-0.3,0.5-0.4,0.7c0,0.2-0.1,0.4-0.2,0.6v0.3
			c-0.1,0.3-0.1,0.4-0.1,0.6s0,0.2,0,0.3c0,0.1,0,0.1,0,0.2c-0.1,0.1-0.1,0.1-0.1,0.2c0,0.1,0,0.4,0.1,0.7s0.1,0.6,0.3,0.8v0.1
			c0,0.2-0.1,0.4-0.3,0.4l-0.2,0.2c-0.1,0-0.3,0-0.4,0c-0.2,0-0.4,0-0.5-0.1v0c0-0.1,0-0.3,0.1-0.6s0.1-0.5,0.1-0.6l0-1.8
			c0-1.4-0.1-2.7-0.2-3.8c0-0.1,0-0.2,0-0.2c0-0.2,0.1-0.3,0.3-0.5c0.2-0.1,0.4-0.2,0.5-0.2c0.1,0,0.2,0,0.4,0.1c0,0,0,0.1,0.1,0.1
			c0,0.1,0,0.1,0,0.1v0.1c0,0.1,0,0.3-0.1,0.5c-0.1,0.3-0.1,0.6-0.1,1l0,1v0.1c0,0.1,0.1,0.1,0.2,0.2c0.2-0.5,0.5-0.9,0.8-1.1
			s0.7-0.5,1.1-0.6c0.4-0.1,0.7-0.2,0.9-0.2C1174.9,761.7,1174.9,761.8,1174.9,762L1174.9,762z"/>
		<path class="st1" d="M1182.8,769l-0.7,1h-0.2c-0.1-0.1-0.2-0.1-0.3-0.1c-0.1-0.1-0.1-0.4-0.2-0.6c0.1-0.2,0.1-0.3,0.1-0.5l0-0.9
			c0-0.3-0.1-0.6-0.2-0.9c0,0-0.1,0-0.1,0c-0.1,0-0.1,0-0.1,0c-0.5,0.4-1,0.6-1.3,0.7s-0.7,0.2-1.1,0.2c-0.6,0-1.1-0.1-1.5-0.4
			s-0.7-0.6-0.8-1.1c-0.1-0.4-0.2-0.8-0.2-1c0-0.4,0-0.7,0.1-0.9s0.1-0.4,0.3-0.7s0.3-0.6,0.4-0.8c0.1-0.2,0.3-0.4,0.6-0.7
			s0.6-0.5,1-0.7c0.3-0.1,0.7-0.2,1-0.4s0.6-0.2,0.7-0.3l0,0.1c0.2-0.1,0.4-0.2,0.6-0.2h0c0.1,0,0.2-0.1,0.2-0.3
			c0-0.7,0-1.4-0.1-2.1s-0.1-1.2-0.1-1.2s-0.1-0.1-0.2-0.2c0-0.1,0-0.2,0-0.4c0-0.4,0.1-0.6,0.4-0.6c0.2-0.2,0.4-0.2,0.5-0.2
			c0.1,0,0.2,0,0.3,0.1s0.2,0.1,0.2,0.1s0,0,0,0.1c0,0,0,0.1-0.1,0.3c0,0.2-0.1,0.3-0.1,0.4c-0.1,0.1-0.2,0.2-0.2,0.4l0,0.4
			c0,0.8,0,1.5,0.1,1.9s0.1,0.7,0.1,0.8c0,0,0,0.1,0,0.1c0,0,0,0.1,0,0.1c0,0.1,0,0.2,0.1,0.3l0.1,0c0,0.1,0.1,0.1,0.2,0.2
			c0.2,0.1,0.4,0.2,0.3,0.3c0,0.2,0,0.3-0.1,0.4h-0.1c-0.1,0-0.1,0-0.2,0.1c-0.1,0-0.1,0.1-0.2,0.1c0,0-0.1,0-0.1,0c0,0,0,0,0,0
			c-0.1,0-0.1,0.5-0.1,1.5c0,0.6,0,1.3,0.1,2.1c0.1,0.1,0.2,0.2,0.2,0.3c0,0.2,0,0.4,0,0.5c0,0.2,0,0.5,0.1,0.8s0.1,0.6,0.1,0.7
			l0,0.2c0,0,0,0.1,0.1,0.1c0,0,0.1,0,0.1,0.1v0l0,0.1L1182.8,769z M1180.9,761.7c-0.1,0-0.2,0-0.4-0.1l-0.3,0c-0.1,0-0.2,0-0.3,0
			l-0.2,0h-0.4c-0.7,0.2-1.3,0.6-1.8,1.3c-0.5,0.6-0.7,1.3-0.7,1.9c0,0.7,0.2,1.2,0.6,1.6s0.9,0.6,1.6,0.6c0.5,0,1-0.1,1.4-0.2
			c0.4-0.2,0.7-0.3,0.7-0.6c0.1-0.2,0.1-0.7,0.1-1.4c0-0.7-0.1-1.8-0.2-3.1c-0.2-0.1-0.2-0.1-0.3-0.1V761.7z"/>
		<path class="st1" d="M1191.2,763c0,0,0.1,0.1,0.1,0.2c0,0.2,0,0.3-0.1,0.3c0,0,0,0,0,0c0,0.1-0.1,0.1-0.3,0.1h-0.1
			c0,0-0.1,0-0.1,0.1s-0.1,0.1-0.1,0.1c0,0,0,0-0.1,0s-0.1-0.1-0.2-0.1l-0.1-0.1c-0.1,0-0.2,0-0.3,0c-0.1,0-0.2,0-0.3,0
			s-0.3,0-0.3,0c-0.1,0-0.2,0-0.4,0s-0.3,0-0.5,0l-0.8,0c-0.4,0-0.8,0-1.1,0.1c0,0-0.1,0-0.2,0.1s-0.1,0.1-0.1,0.1s-0.1,0.1-0.2,0.2
			c-0.1,0.2-0.1,0.4-0.1,0.6c0,0.1,0,0.4,0.1,0.8s0.2,0.7,0.3,0.8c0,0,0.3,0.2,0.7,0.5c0.3,0.2,0.6,0.3,0.9,0.4s0.7,0.2,1.1,0.2
			c0.2,0,0.4,0,0.6,0l0.3,0h0.5c0.1,0,0.1,0,0.3-0.1s0.3-0.1,0.4-0.2c0.1,0.1,0.1,0.3,0.1,0.4c0,0.2-0.1,0.5-0.2,0.6
			s-0.3,0.3-0.5,0.3l-0.2,0l-0.5,0h-0.4c-0.2,0-0.7-0.1-1.5-0.2s-1.3-0.4-1.7-0.7s-0.6-0.6-0.8-1.1s-0.3-0.8-0.3-1.2
			c0-0.5,0.1-1.1,0.3-1.7s0.4-1,0.7-1.3s0.7-0.6,1.2-1c0.1,0,0.1-0.1,0.2-0.2s0.2-0.1,0.3-0.1l0.3,0c0.1-0.1,0.3-0.1,0.6-0.2
			s0.5-0.1,0.7-0.1c0.3,0,0.7,0.1,1,0.4s0.6,0.7,0.7,1.5c0,0.1,0,0.2,0.1,0.3s0,0.1,0,0.1C1191.3,762.9,1191.3,763,1191.2,763z
			 M1188,761.3c0,0-0.2,0.1-0.4,0.3c-0.1,0.1-0.3,0.2-0.4,0.3s-0.2,0.2-0.4,0.4s-0.2,0.3-0.3,0.4s-0.2,0.2-0.2,0.2s-0.1,0.1-0.1,0.1
			c0,0.1,0,0.1,0.1,0.1l0.1,0h0.6l2.7-0.1c0.3,0,0.5-0.2,0.5-0.5c0-0.3-0.1-0.6-0.2-0.8s-0.5-0.4-1-0.6c-0.1,0-0.2,0-0.3,0
			s-0.2,0-0.2,0C1188.6,761.2,1188.4,761.2,1188,761.3z"/>
		<path class="st1" d="M1198,762c0,0.1,0,0.1-0.1,0.3c-0.1,0.1-0.1,0.2-0.1,0.3c0,0.1-0.1,0.2-0.2,0.3h-0.2
			c-0.3-0.2-0.5-0.2-0.6-0.2c-0.1,0-0.2,0.1-0.5,0.2c-0.2,0.1-0.4,0.3-0.6,0.6c-0.2,0.3-0.3,0.5-0.4,0.7c0,0.2-0.1,0.4-0.2,0.6v0.3
			c-0.1,0.3-0.1,0.4-0.1,0.6s0,0.2,0,0.3c0,0.1,0,0.1,0,0.2c-0.1,0.1-0.1,0.1-0.1,0.2c0,0.1,0,0.4,0.1,0.7s0.1,0.6,0.3,0.8v0.1
			c0,0.2-0.1,0.4-0.3,0.4l-0.2,0.2c-0.1,0-0.3,0-0.4,0c-0.2,0-0.4,0-0.5-0.1v0c0-0.1,0-0.3,0.1-0.6s0.1-0.5,0.1-0.6l0-1.8
			c0-1.4-0.1-2.7-0.2-3.8c0-0.1,0-0.2,0-0.2c0-0.2,0.1-0.3,0.3-0.5c0.2-0.1,0.4-0.2,0.5-0.2c0.1,0,0.2,0,0.4,0.1c0,0,0,0.1,0.1,0.1
			c0,0.1,0,0.1,0,0.1v0.1c0,0.1,0,0.3-0.1,0.5c-0.1,0.3-0.1,0.6-0.1,1l0,1v0.1c0,0.1,0.1,0.1,0.2,0.2c0.2-0.5,0.5-0.9,0.8-1.1
			s0.7-0.5,1.1-0.6c0.4-0.1,0.7-0.2,0.9-0.2C1197.9,761.7,1198,761.8,1198,762L1198,762z"/>
	</g>
</g>
</svg>
