<?xml version="1.0" encoding="utf-8"?>
<!-- Generator: Adobe Illustrator 22.1.0, SVG Export Plug-In . SVG Version: 6.00 Build 0)  -->
<svg version="1.1" id="レイヤー_1" xmlns="http://www.w3.org/2000/svg" xmlns:xlink="http://www.w3.org/1999/xlink" x="0px"
	 y="0px" viewBox="0 0 292.5 73" style="enable-background:new 0 0 292.5 73;" xml:space="preserve">
<style type="text/css">
	.st0{enable-background:new    ;}
	.st1{fill:#B29D93;}
</style>
<g id="ttl_order" transform="translate(-494 -5898)">
	<g class="st0">
		<path class="st1" d="M598.3,5915.8c1.3-0.1,2.9,1.3,4.8,4.2c1.9,2.9,2.8,6.1,2.8,9.6c0,1.8-0.2,3.4-0.5,5s-0.8,3-1.5,4.3
			c-1.4,2.9-2.4,4.8-3,5.6c-1.3,1.9-2.8,3.4-4.4,4.6c-1.6,1.1-3.3,2-5,2.5c-1.7,0.5-3.6,0.8-5.8,0.8c-5.1,0-7.8-0.4-8.2-1.3
			c-0.4-0.1-0.9-0.3-1.6-0.6c-0.7-0.2-1.1-0.4-1.2-0.5l-0.7-0.9c-0.6-0.2-1-0.2-1-0.2c-1.9-1.2-3.3-2.8-4.2-4.9
			c-0.9-2.1-1.3-5-1.3-8.8c0-2.9,1-6.4,3-10.3c0.1-0.3,0.2-0.6,0.3-1c0.1-0.4,0.3-0.7,0.7-1c0.3-0.3,0.5-0.5,0.6-0.7
			c1.5-1.7,2.5-2.8,2.7-3.2c0.3-0.4,0.9-0.8,2-1.2c1-0.4,1.7-0.9,2.1-1.5c0.1-0.2,0.3-0.2,0.5-0.2c0.2,0,0.4,0.1,0.5,0.1l0.2-0.1
			c0.1-0.2,0.3-0.3,0.4-0.5s0.2-0.2,0.3-0.2c0.1,0,0.8-0.2,2.1-0.7c1.3-0.5,2.1-0.7,2.3-0.6c0.2,0,1,0,2.4-0.2l1.8-0.3
			c0.4,0,0.9,0.1,1.5,0.2c0.6,0.1,1,0.2,1.2,0.3C595.3,5914.6,597.4,5915.1,598.3,5915.8z M599.1,5943c2.2-4,3.3-7.7,3.3-11
			c0-2.3-0.3-4.3-0.8-6.1c-0.5-1.8-1.3-3.3-2.3-4.6c-1-1.3-2.2-2.3-3.5-3c-1.3-0.8-3.1-1.3-5.2-1.5c-2.1-0.3-3.3-0.4-3.7-0.4
			c-0.1,0-0.2,0.1-0.5,0.3s-0.5,0.4-0.7,0.7c-0.2,0.1-0.5,0.2-0.9,0.2l-0.9-0.1c-0.7,0-1.2,0.3-1.5,0.8c0,0-0.1,0.1-0.2,0.1
			c-0.1,0-0.2-0.1-0.2-0.3l-0.4,0.2v0.4c-0.1,0-0.1-0.1-0.2-0.2c-0.1-0.1-0.2-0.2-0.2-0.2H581c-1.7,0.6-2.7,1.1-3,1.5
			c-0.4,0.2-0.8,0.3-1,0.3c-0.2,0.2-0.6,0.6-1,1.2c-0.4,0.6-0.8,1-1.1,1.4c-0.3,0.3-0.6,0.6-0.8,0.8c-0.3,0.2-0.4,0.6-0.4,1.2
			c-0.9,0.9-1.7,2.3-2.3,4.3c-0.6,2-0.8,4.2-0.8,6.3c0,2,0.3,3.8,0.9,5.4c0.6,1.6,1.3,2.6,2.2,3.1v0.6c0.6,0.7,1.2,1.3,1.8,1.8
			c0.6,0.6,1.6,1.1,2.8,1.5c1.2,0.4,2.3,0.8,3.1,1s1.8,0.5,2.8,0.6c1,0.2,2.1,0.2,3.1,0.2c0.6,0,1.1,0,1.5-0.1l1.9-0.5
			c0.6-0.1,1-0.2,1.4-0.3c0.1,0,0.6-0.3,1.4-0.8l2-1.1c0.2-0.1,0.3-0.2,0.4-0.3c0.1-0.1,0.2-0.3,0.2-0.5v-0.2
			c0.1-0.2,0.4-0.4,1.1-0.8c0.6-0.3,1.1-0.6,1.5-0.8c0.4-0.2,0.5-0.4,0.5-0.7C599.2,5943.3,599.2,5943.1,599.1,5943z"/>
		<path class="st1" d="M631,5930.8c0,0.2-0.1,0.5-0.4,0.9c-0.3,0.4-0.4,0.8-0.5,1.2c-0.1,0.4-0.3,0.8-0.7,1.1h-0.7
			c-0.9-0.6-1.6-0.8-2.1-0.8c-0.3,0-0.9,0.2-1.6,0.6s-1.5,1.1-2.2,2c-0.7,1-1.1,1.7-1.3,2.3c-0.1,0.6-0.4,1.3-0.9,2v0.9
			c-0.3,0.9-0.5,1.5-0.4,2s0.1,0.7,0.1,0.9c0,0.2,0,0.4-0.1,0.6c-0.2,0.2-0.3,0.4-0.3,0.7c0,0.5,0.1,1.3,0.3,2.4s0.5,2,0.9,2.6v0.2
			c0,0.8-0.3,1.2-1,1.2l-0.5,0.5c-0.5,0-0.9,0.1-1.5,0.1c-0.7,0-1.3-0.1-1.8-0.3v-0.1c0-0.5,0.2-1.2,0.5-2.2
			c0.3-0.9,0.5-1.7,0.5-2.2l0.2-6.4c0-5-0.3-9.4-0.8-13.2c-0.1-0.4-0.1-0.6-0.1-0.7c0-0.7,0.3-1.2,1-1.6c0.7-0.4,1.2-0.5,1.7-0.5
			c0.4,0,0.8,0.1,1.2,0.3c0,0.1,0.1,0.2,0.2,0.4c0.1,0.2,0.2,0.3,0.2,0.4v0.3c0,0.3-0.2,0.9-0.5,1.8c-0.3,0.9-0.5,2.2-0.5,3.6
			l0.1,3.4v0.5c0,0.3,0.2,0.5,0.7,0.6c0.8-1.7,1.7-3,2.7-4c1.1-1,2.4-1.7,4-2.1s2.6-0.7,3-0.7c0.5,0.3,0.7,0.6,0.7,0.9V5930.8z"/>
		<path class="st1" d="M659.6,5955.4l-2.5,3.4h-0.7c-0.3-0.2-0.6-0.3-0.9-0.3c-0.2-0.5-0.5-1.2-0.7-2.2c0.2-0.6,0.3-1.1,0.3-1.6
			l0.1-3.1c0-1.2-0.2-2.3-0.6-3.2c-0.1,0.1-0.3,0.1-0.5,0.1c-0.2,0-0.4,0.1-0.5,0.1c-1.8,1.3-3.3,2.1-4.6,2.5s-2.5,0.5-3.8,0.5
			c-2,0-3.8-0.5-5.3-1.4c-1.5-1-2.5-2.2-2.9-3.7c-0.5-1.5-0.7-2.7-0.7-3.6c0-1.4,0.1-2.4,0.2-3c0.1-0.6,0.5-1.4,1-2.5
			c0.6-1.1,1-2,1.4-2.7c0.3-0.7,1-1.5,2.1-2.4c1-0.9,2.2-1.8,3.5-2.5c1.1-0.3,2.3-0.8,3.5-1.3c1.3-0.6,2.1-0.9,2.6-0.9l0.2,0.4
			c0.8-0.5,1.5-0.7,2.2-0.7h0.1c0.5,0,0.7-0.4,0.7-1.1c0-2.3-0.1-4.8-0.3-7.4s-0.4-4-0.5-4.3c-0.1-0.3-0.4-0.5-0.8-0.7
			c-0.1-0.3-0.2-0.8-0.2-1.2c0-1.4,0.5-2.1,1.4-2.1c0.9-0.6,1.5-0.9,1.9-0.9c0.3,0,0.6,0.2,1,0.5c0.4,0.3,0.6,0.5,0.7,0.5
			c0.1,0,0.1,0.1,0.1,0.3c0,0.1-0.1,0.4-0.2,0.9c-0.2,0.5-0.2,1-0.3,1.5c-0.4,0.3-0.5,0.7-0.5,1.4l0.1,1.4c0,2.8,0.1,5.1,0.3,6.8
			s0.3,2.6,0.3,2.7c0,0.1,0,0.2-0.1,0.4s-0.1,0.3-0.1,0.4c0,0.3,0.1,0.7,0.4,1.1l0.4-0.2c0.1,0.3,0.3,0.4,0.8,0.5
			c0.9,0.2,1.3,0.6,1.2,1.1c-0.1,0.6-0.2,1-0.2,1.4h-0.2c-0.2,0-0.4,0.1-0.7,0.2c-0.3,0.1-0.5,0.2-0.6,0.2c-0.1,0-0.3,0-0.4-0.1
			c0,0,0-0.1-0.1-0.1c-0.2,0-0.3,1.8-0.3,5.4c0,2.2,0.2,4.6,0.5,7.4c0.3,0.4,0.5,0.8,0.7,1.1c-0.1,0.7-0.2,1.3-0.2,1.9
			c0,0.7,0.1,1.6,0.2,2.8s0.2,1.9,0.2,2.4l-0.1,0.7c0,0.1,0.1,0.3,0.3,0.3c0.2,0.1,0.3,0.1,0.3,0.2v0.1l-0.1,0.4L659.6,5955.4z
			 M652.9,5930.1c-0.4-0.1-0.8-0.2-1.2-0.2l-1.2-0.1c-0.3,0-0.7,0.1-1.2,0.2l-0.6,0.2h-1.2c-2.5,0.8-4.5,2.3-6.1,4.5
			c-1.6,2.2-2.5,4.5-2.5,6.7c0,2.3,0.7,4.2,2.1,5.7c1.4,1.5,3.2,2.2,5.4,2.2c1.9,0,3.5-0.3,5-0.8c1.5-0.6,2.3-1.2,2.6-2
			c0.3-0.8,0.4-2.4,0.4-4.8c0-2.6-0.2-6.2-0.5-10.9c-0.5-0.2-0.8-0.3-0.9-0.3V5930.1z"/>
		<path class="st1" d="M690.3,5934.5c0.1,0.1,0.2,0.4,0.2,0.6c0,0.5-0.1,0.9-0.4,1.2c0,0,0.1,0.1,0.1,0.2c0,0.3-0.4,0.4-1.2,0.4
			h-0.4c-0.1,0-0.2,0.1-0.3,0.2c-0.1,0.1-0.2,0.2-0.2,0.2c0,0-0.1-0.1-0.3-0.2c-0.2-0.1-0.4-0.2-0.7-0.2l-0.3-0.3
			c-0.4,0.1-0.8,0.2-1.2,0.2c-0.3,0-0.7,0-1.2-0.1c-0.5-0.1-0.9-0.1-1.1-0.1c-0.2,0-0.6,0.1-1.3,0.2c-0.6,0.1-1.2,0.2-1.7,0.2
			l-2.7-0.1c-1.4,0-2.7,0.1-3.9,0.4c-0.2,0.1-0.4,0.2-0.7,0.2c-0.3,0-0.5,0.2-0.5,0.4s-0.2,0.4-0.6,0.6c-0.2,0.7-0.3,1.4-0.3,2
			c0,0.5,0.1,1.4,0.4,2.7c0.3,1.3,0.6,2.3,1.1,2.8c0.1,0.1,0.9,0.7,2.4,1.8c0.9,0.7,1.9,1.2,3,1.6c1.1,0.4,2.3,0.5,3.8,0.5
			c0.6,0,1.3,0,2.1-0.1l1.1-0.1h1.8c0.2,0,0.5-0.2,1-0.5c0.5-0.3,1-0.5,1.5-0.6c0.2,0.5,0.3,1,0.3,1.3c0,0.9-0.3,1.6-0.8,2.2
			s-1.1,1-1.8,1l-0.6-0.1l-1.7,0.1h-1.5c-0.7,0-2.4-0.3-5.1-0.9c-2.7-0.6-4.7-1.3-6-2.3c-1.3-0.9-2.2-2.2-2.8-3.7s-0.9-3-0.9-4.4
			c0-1.9,0.4-3.8,1.1-5.8c0.7-2,1.6-3.5,2.5-4.6c0.9-1.1,2.3-2.2,4.2-3.4c0.2-0.1,0.5-0.3,0.8-0.6c0.4-0.3,0.7-0.4,1.1-0.4l0.9,0.1
			c0.4-0.3,1.1-0.5,2.1-0.6c1-0.2,1.8-0.3,2.4-0.3c1.1,0,2.3,0.4,3.7,1.2c1.3,0.8,2.1,2.5,2.4,5.1c0.1,0.5,0.1,0.8,0.2,1.1
			c0.1,0.3,0.2,0.4,0.2,0.5C690.4,5934.3,690.4,5934.4,690.3,5934.5z M679.1,5928.5c-0.1,0.2-0.6,0.5-1.6,0.9
			c-0.5,0.3-0.9,0.7-1.3,1.1c-0.4,0.4-0.8,0.9-1.2,1.4c-0.4,0.5-0.8,0.9-1.1,1.3s-0.5,0.7-0.7,0.9s-0.2,0.4-0.2,0.5
			c0,0.2,0.1,0.3,0.4,0.4l0.4,0.1h2l9.5-0.4c1.2,0,1.8-0.5,1.8-1.6c0-1.1-0.2-2.1-0.7-3c-0.4-0.8-1.6-1.5-3.5-2
			c-0.2,0-0.5,0-0.9-0.1c-0.4,0-0.7-0.1-0.9-0.1C681,5928.1,680.3,5928.2,679.1,5928.5z"/>
		<path class="st1" d="M715.1,5930.8c0,0.2-0.1,0.5-0.4,0.9c-0.3,0.4-0.4,0.8-0.5,1.2c-0.1,0.4-0.3,0.8-0.7,1.1h-0.7
			c-0.9-0.6-1.6-0.8-2.1-0.8c-0.3,0-0.9,0.2-1.6,0.6s-1.5,1.1-2.2,2c-0.7,1-1.1,1.7-1.3,2.3c-0.1,0.6-0.4,1.3-0.9,2v0.9
			c-0.3,0.9-0.5,1.5-0.4,2s0.1,0.7,0.1,0.9c0,0.2,0,0.4-0.1,0.6c-0.2,0.2-0.3,0.4-0.3,0.7c0,0.5,0.1,1.3,0.3,2.4s0.5,2,0.9,2.6v0.2
			c0,0.8-0.3,1.2-1,1.2l-0.5,0.5c-0.5,0-0.9,0.1-1.5,0.1c-0.7,0-1.3-0.1-1.8-0.3v-0.1c0-0.5,0.2-1.2,0.5-2.2
			c0.3-0.9,0.5-1.7,0.5-2.2l0.2-6.4c0-5-0.3-9.4-0.8-13.2c-0.1-0.4-0.1-0.6-0.1-0.7c0-0.7,0.3-1.2,1-1.6c0.7-0.4,1.2-0.5,1.7-0.5
			c0.4,0,0.8,0.1,1.2,0.3c0,0.1,0.1,0.2,0.2,0.4c0.1,0.2,0.2,0.3,0.2,0.4v0.3c0,0.3-0.2,0.9-0.5,1.8c-0.3,0.9-0.5,2.2-0.5,3.6
			l0.1,3.4v0.5c0,0.3,0.2,0.5,0.7,0.6c0.8-1.7,1.7-3,2.7-4c1.1-1,2.4-1.7,4-2.1s2.6-0.7,3-0.7c0.5,0.3,0.7,0.6,0.7,0.9V5930.8z"/>
	</g>
	<path id="パス_10" class="st1" d="M527.2,5942.4c-1.7-3-1.7-6.3,1.1-8.7c1.1-0.9,4.4-0.9,4.8,0c1.2,1.8,1.7,4,1.3,6.1
		C534.2,5942.1,532.4,5942.6,527.2,5942.4z"/>
	<path id="パス_13" class="st1" d="M753.3,5932.3c1.7,3,1.7,6.3-1.1,8.7c-1.1,0.9-4.4,0.9-4.8,0c-1.2-1.8-1.7-4-1.3-6.1
		C746.4,5932.5,748.1,5932,753.3,5932.3z"/>
	<path id="パス_11" class="st1" d="M506.4,5940.5c-0.1,0.2-0.3,0.4-0.5,0.5c-3.1,1.5-6.4,2.7-9.6,0.7c-2-1.5-2.9-9.8-1.6-12.4
		c1.1-2.2,4.7-2.9,8.9-2.4c2.7,0.5,2.9,2.4,2.9,4.5V5940.5z M497.1,5929.9c0.5,3.6,0.9,6.7,1.5,10.2c2-0.5,3.3-0.7,4.9-1.3
		c-0.2-3.1-0.4-5.8-0.5-8.9H497.1z"/>
	<path id="パス_12" class="st1" d="M774.1,5933.1c0.1-0.2,0.3-0.4,0.5-0.5c3.1-1.5,6.4-2.7,9.6-0.7c2,1.5,2.9,9.8,1.6,12.4
		c-1.1,2.2-4.7,2.9-8.9,2.4c-2.7-0.5-2.9-2.4-2.9-4.5V5933.1z M783.4,5943.7c-0.5-3.6-0.9-6.7-1.5-10.2c-2,0.5-3.3,0.7-4.9,1.3
		c0.2,3.1,0.4,5.8,0.5,8.9H783.4z"/>
</g>
</svg>
