<?xml version="1.0" encoding="utf-8"?>
<!-- Generator: Adobe Illustrator 22.1.0, SVG Export Plug-In . SVG Version: 6.00 Build 0)  -->
<svg version="1.1" id="レイヤー_1" xmlns="http://www.w3.org/2000/svg" xmlns:xlink="http://www.w3.org/1999/xlink" x="0px"
	 y="0px" viewBox="0 0 322.8 73" style="enable-background:new 0 0 322.8 73;" xml:space="preserve">
<style type="text/css">
	.st0{enable-background:new    ;}
	.st1{fill:#B29D93;}
</style>
<g id="ttl_feature" transform="translate(-640 -3213)">
	<g class="st0">
		<path class="st1" d="M651.6,3229.9l9.1-0.2l2.5,0.1c0.4,0,1.1-0.1,2.1-0.3c1-0.2,1.8-0.3,2.3-0.3c1.3,0,1.9,0.6,1.9,1.7
			c0,0.2-0.1,0.5-0.2,0.7c-0.1,0.2-0.2,0.4-0.4,0.5c-0.2,0.2-0.4,0.3-0.6,0.3l-0.8,0.1c-0.4,0-0.7,0-1,0c-0.1,0-0.3,0-0.6-0.1
			c-2.8-0.6-6-0.8-9.4-0.8c-0.7,0-1.7,0-2.9,0.1c-1.2,0-1.9,0.1-2.1,0.2c-0.2,0.1-0.4,0.2-0.6,0.3c-0.5,2.3-0.8,4.2-0.8,5.5v0.3
			c-0.2,1.4-0.4,2.6-0.4,3.5c0,0.7,0.1,1.2,0.2,1.6l0.3,1.2c0.1,0.4,0.2,0.7,0.5,0.9c0.2,0.3,0.5,0.4,0.9,0.4l0.7-0.1
			c0.3,0,0.5,0.1,0.5,0.2c0.1,0.2,0.6,0.2,1.6,0.2c0.6,0,1.2,0,1.8-0.1c0.6-0.1,1-0.1,1.3,0c0.3,0,0.5,0.1,0.7,0.1
			c0.5,0,1-0.1,1.3-0.4l1.4,0.1c0.3-0.2,1.4-0.3,3.1-0.4c0.3,0.3,0.5,0.8,0.5,1.2c0,0.5-0.2,1-0.6,1.4c-0.4,0.4-1.6,0.7-3.7,0.7
			c-0.9,0-2.3-0.1-4.3-0.3c-2-0.2-3.6-0.3-4.8-0.3c-0.7,0.4-1,0.7-1,1c0,0.1,0,0.1,0.1,0.2c-0.5,1.7-0.7,3.7-0.7,5.8l0.2,4.6
			c0,0.7-0.1,1.1-0.3,1.2c0.2,0.5,0.4,1.2,0.6,2.2c0.2,1,0.3,1.8,0.3,2.3c0,0.6-0.1,1-0.4,1.3c-0.3,0.3-0.5,0.4-0.7,0.4
			c-0.2,0-0.3-0.1-0.5-0.3c-0.2,0.2-0.5,0.4-1,0.6c-0.1,0-0.4-0.1-0.8-0.2c-0.7-0.2-1.1-0.6-1.1-1.4c0-0.2,0-0.5,0.1-0.8l0.1-0.5
			l-0.1-0.9c0-0.1,0.1-0.3,0.2-0.6c0.1-0.3,0.2-0.6,0.2-0.8c0.2-1.9,0.3-4,0.3-6.4l-0.1-4.2l0.2-12.5c0-2.4-0.1-4-0.2-5
			c-0.1-0.9-0.2-1.6-0.2-1.9c0-0.7,0.1-1.5,0.4-2.3c0.7-0.2,1.5-0.4,2.3-0.5l0.2-0.4l0.4,0.2l0.4-0.1
			C650.2,3229.1,650.8,3229.4,651.6,3229.9z"/>
		<path class="st1" d="M696.2,3249.5c0.1,0.1,0.2,0.4,0.2,0.6c0,0.5-0.1,0.9-0.4,1.2c0,0,0.1,0.1,0.1,0.2c0,0.3-0.4,0.4-1.2,0.4
			h-0.4c-0.1,0-0.2,0.1-0.3,0.2c-0.1,0.1-0.2,0.2-0.2,0.2c0,0-0.1-0.1-0.3-0.2c-0.2-0.1-0.4-0.2-0.7-0.2l-0.3-0.3
			c-0.4,0.1-0.8,0.2-1.2,0.2c-0.3,0-0.7,0-1.2-0.1c-0.5-0.1-0.9-0.1-1.1-0.1c-0.2,0-0.6,0.1-1.3,0.2c-0.6,0.1-1.2,0.2-1.7,0.2
			l-2.7-0.1c-1.4,0-2.7,0.1-3.9,0.4c-0.2,0.1-0.4,0.2-0.7,0.2c-0.3,0-0.5,0.2-0.5,0.4s-0.2,0.4-0.6,0.6c-0.2,0.7-0.3,1.4-0.3,2
			c0,0.5,0.1,1.4,0.4,2.7c0.3,1.3,0.6,2.3,1.1,2.8c0.1,0.1,0.9,0.7,2.4,1.8c0.9,0.7,1.9,1.2,3,1.6c1.1,0.4,2.3,0.5,3.8,0.5
			c0.6,0,1.3,0,2.1-0.1l1.1-0.1h1.8c0.2,0,0.5-0.2,1-0.5c0.5-0.3,1-0.5,1.5-0.6c0.2,0.5,0.3,1,0.3,1.3c0,0.9-0.3,1.6-0.8,2.2
			s-1.1,1-1.8,1l-0.6-0.1l-1.7,0.1h-1.5c-0.7,0-2.4-0.3-5.1-0.9c-2.7-0.6-4.7-1.3-6-2.3c-1.3-0.9-2.2-2.2-2.8-3.7s-0.9-3-0.9-4.4
			c0-1.9,0.4-3.8,1.1-5.8c0.7-2,1.6-3.5,2.5-4.6c0.9-1.1,2.3-2.2,4.2-3.4c0.2-0.1,0.5-0.3,0.8-0.6c0.4-0.3,0.7-0.4,1.1-0.4l0.9,0.1
			c0.4-0.3,1.1-0.5,2.1-0.6c1-0.2,1.8-0.3,2.4-0.3c1.1,0,2.3,0.4,3.7,1.2c1.3,0.8,2.1,2.5,2.4,5.1c0.1,0.5,0.1,0.8,0.2,1.1
			c0.1,0.3,0.2,0.4,0.2,0.5C696.3,3249.3,696.2,3249.4,696.2,3249.5z M684.9,3243.5c-0.1,0.2-0.6,0.5-1.6,0.9
			c-0.5,0.3-0.9,0.7-1.3,1.1c-0.4,0.4-0.8,0.9-1.2,1.4c-0.4,0.5-0.8,0.9-1.1,1.3s-0.5,0.7-0.7,0.9s-0.2,0.4-0.2,0.5
			c0,0.2,0.1,0.3,0.4,0.4l0.4,0.1h2l9.5-0.4c1.2,0,1.8-0.5,1.8-1.6c0-1.1-0.2-2.1-0.7-3c-0.4-0.8-1.6-1.5-3.5-2
			c-0.2,0-0.5,0-0.9-0.1c-0.4,0-0.7-0.1-0.9-0.1C686.8,3243.1,686.1,3243.2,684.9,3243.5z"/>
		<path class="st1" d="M722.2,3252.2c0,0.1-0.1,0.3-0.4,0.6c-0.2,0.3-0.4,0.5-0.5,0.7c-0.1,0.2-0.2,0.7-0.2,1.6
			c-0.1,0.9-0.1,2.1-0.1,3.8l0.1,3.7c0,0.2-0.1,0.4-0.2,0.5c0,0.2-0.1,0.5-0.1,1c0,0.7,0.1,1.5,0.3,2.6l0.3,1.4l-0.1,1.3l0.1,1.2
			c-1.3,1.3-2.3,2-2.9,2c-0.1,0-0.3-0.1-0.5-0.2c-0.3-0.1-0.5-0.2-0.7-0.2h-0.2c-0.1-0.5-0.2-1-0.2-1.4c0-0.9,0.2-1.8,0.6-2.6
			c0.2-0.3,0.4-0.5,0.5-0.6c0.1-0.1,0.2-0.7,0.2-1.6c0-1-0.1-1.6-0.3-1.6c0,0-0.2,0-0.3,0.1c-0.2,0.1-0.4,0.1-0.6,0.1h-0.2
			c-0.2,0.1-0.4,0.3-0.4,0.6c-0.2,0-1.4,0.4-3.6,1.2c-1.1,0.4-2.1,0.5-3.1,0.5c-1.1,0-2-0.1-2.9-0.4c-0.9-0.3-1.6-0.7-2.2-1.3
			c-0.6-0.6-1-1-1.1-1.2c-0.2-0.3-0.3-0.9-0.3-1.8l0.1-0.7v-0.2c0-1.8,1.4-3.7,4.3-5.7c2.8-2,5.5-3.2,7.9-3.6
			c0.7-0.1,1.2-0.2,1.5-0.3c0.4-0.1,0.7-0.3,0.9-0.6s0.4-0.9,0.4-1.9c0-3.2-1.7-5.5-5.1-6.6c-0.1,0-0.3-0.1-0.5-0.2
			s-0.4-0.2-0.5-0.2c-1.8,0-3.2,0.1-4.4,0.2c-0.7,0.7-1.4,1.1-2.2,1.1c-0.6,0-0.9-0.2-0.9-0.6c0,0,0.1-0.4,0.4-1.2
			c0.3-0.8,0.9-1.1,1.9-1.1c1.1-0.6,3.2-0.9,6.3-0.9c2.4,0,4.3,0.9,5.7,2.8c1.3,1.9,2,4.6,2,8.1v0.4c0.1,0.2,0.4,0.4,0.8,0.5
			C722,3251.8,722.2,3251.9,722.2,3252.2L722.2,3252.2z M716.8,3261.9c1.1-1.5,1.7-2.9,1.7-4.2c0-0.7-0.2-1.6-0.6-2.4
			c-0.4-0.9-1.1-1.3-2.2-1.3c-2.2,0-3.9,0.5-5.2,1.6h-0.7c-2.8,1.5-4.2,3.2-4.2,4.9c0,1.2,0.6,2.2,1.7,3.1c1.2,0.8,2.5,1.2,4,1.2
			c0.4,0,1.2-0.2,2.3-0.5c1.1-0.3,2.2-1,3.1-1.9V3261.9z"/>
		<path class="st1" d="M745.5,3242.9c0,0.1,0.1,0.2,0.3,0.3c0.2,0.1,0.3,0.1,0.3,0.1h0.3c0.6,0,1.1,0.1,1.6,0.4
			c0.4,0.3,0.7,0.6,0.7,0.9c0,0.4-0.3,0.7-0.8,1.1l-0.3-0.4c-0.3,0.5-0.7,0.7-1.3,0.8l-0.2-0.3l-0.3,0.1c-0.8-0.4-1.6-0.5-2.5-0.5
			l-2.6,0.1c-0.4,0-0.9,0-1.6-0.1c-0.5,3.5-0.7,6.3-0.7,8.4c0,0.7,0,1.6,0.1,2.6s0.2,1.8,0.5,2.4c0.2,0.6,0.5,1.2,0.7,1.7
			c0.2,0.5,0.6,1.1,1.2,1.6c0.6,0.5,1.1,0.9,1.6,1.1c0.5,0.2,0.9,0.5,1.3,0.9c0.4,0.4,1.3,0.6,2.8,0.6h0.5c0.3,0.3,0.5,0.5,0.5,0.7
			c0,0.2-0.1,0.5-0.4,0.9c-0.3,0.4-0.5,0.8-0.6,1.1c-0.2,0.3-0.4,0.6-0.8,1h-0.1c-0.1,0-0.2-0.1-0.2-0.2c-0.6,0-1.2-0.1-1.7-0.2
			c0,0,0,0.1-0.1,0.1c0,0-0.1-0.1-0.3-0.2c-0.1-0.1-0.3-0.2-0.4-0.2c-0.1-0.3-0.4-0.5-0.8-0.7c-0.8-0.3-1.6-0.7-2.3-1.3
			c-0.7-0.6-1.4-1.4-2.2-2.4c-0.7-1-1.2-2-1.4-2.9c-0.2-0.9-0.3-1.9-0.5-3.2c-0.1-1.2-0.2-2.5-0.2-4c0-2.4,0.2-5,0.5-7.8l-0.6-0.2
			l-0.2,0.4h-0.4l-0.1-0.4c-4.2-0.2-6.3-0.6-6.3-1.2c0-0.2,0.1-0.4,0.4-0.6c0.3-0.2,1-0.3,2.3-0.3h1.1l1.1-0.3
			c0.4-0.1,0.8-0.3,1.2-0.5c0.4-0.2,0.8-0.5,1.1-0.9c0.3-0.3,0.6-1.6,0.8-3.6c0.2-1.3,0.2-2.6,0.2-4.1v-1.1c0-0.3,0.1-0.8,0.4-1.5
			c0.3-0.6,0.6-1.1,0.9-1.5c0.4-0.4,0.6-0.5,0.8-0.5c0.4,0,0.7,0.1,1.1,0.2c0.4,0.1,0.6,0.2,0.7,0.3s0.1,0.2,0.2,0.4
			c0.1,0.2,0.2,0.4,0.3,0.5v0.1c0,0.1-0.1,0.1-0.2,0.2c-0.1,0-0.2,0.1-0.3,0.1c0,0-0.1,0.1-0.1,0.1c0,0-0.2,0.5-0.4,1.5
			c-0.2,0.9-0.4,1.9-0.6,2.8c-0.2,0.9-0.3,1.9-0.4,2.8c-0.1,0.9-0.1,1.8-0.1,2.7c0,1.3,0.1,2,0.2,2.2s0.3,0.2,0.5,0.2
			c0.1,0,0.3-0.1,0.7-0.2c0.4-0.1,0.7-0.2,1-0.2c0.2,0,0.3,0,0.4,0.1l0.3,0.7c0.1,0,0.3,0.1,0.4,0.1c0.2,0,0.6-0.1,1.2-0.4
			S745.1,3243,745.5,3242.9z"/>
		<path class="st1" d="M775.7,3242c0.3-0.2,0.8-0.4,1.3-0.5l1.7-0.4h0.2c0.4,0,0.5,0.5,0.5,1.4l-0.9,3c-0.3,1-0.5,1.9-0.6,2.8
			c-0.1,0.9-0.2,1.8-0.2,2.6c0,0.8,0.1,1.7,0.2,2.7c0.1,0.9,0.5,1.7,1,2.4c0,0.1,0.1,0.2,0.1,0.4c0,0.2-0.2,0.5-0.5,0.9
			c-0.3,0.4-0.5,1-0.5,1.8c0,0.4,0.1,1.1,0.2,2c0.2,0.9,0.2,1.5,0.2,1.7c0,0.2,0.1,0.4,0.4,0.6c0.3,0.2,0.4,0.3,0.4,0.4
			c0,0.1-0.1,0.3-0.4,0.4c-0.1,0.9-0.1,1.4-0.1,1.6c0,0.7,0.1,1,0.3,1.1c-1.3,0.5-2.2,0.8-2.8,0.8c-0.7,0-1.1-0.3-1.1-0.9
			c0-0.2,0.1-0.4,0.2-0.8c-0.1-0.1-0.1-0.3-0.1-0.4c0-0.3,0-0.6,0.2-0.8c0.1-0.2,0.2-0.4,0.2-0.6c0-0.4-0.1-0.9-0.2-1.5s-0.4-1-1-1
			c-0.4,0-1.2,0.5-2.4,1.6c-1.7,1.5-3.3,2.6-4.6,3.3c-0.6,0.2-0.9,0.4-1.1,0.6c-2.6,0.4-3.9,0.6-4,0.6c-0.5,0-1-0.3-1.8-0.8
			c-0.7-0.5-1.3-1-1.8-1.5c-0.4-0.5-0.8-1.3-1.2-2.4c-0.3-1.1-0.5-2.3-0.5-3.6c0-0.6,0.2-2.6,0.7-6c0.5-3.4,0.8-5.9,1.1-7.4
			c0.3-1.5,0.4-2.3,0.4-2.3c0-0.1-0.1-0.4-0.2-0.7l-0.2-0.4v-0.1c0-0.1,0.1-0.2,0.3-0.3s0.5-0.2,1-0.5c0.5-0.3,0.9-0.4,1.2-0.4
			c0.1,0,0.4,0.1,0.8,0.2c0.4,0.1,0.7,0.2,1,0.2h0.2c0.3,0.3,0.6,0.6,0.7,0.8l-0.6,0.7c-1,0.9-1.7,2.4-2,4.2l-0.9,5.9
			c-0.3,2-0.5,3.5-0.5,4.4c0,2.6,0.5,4.4,1.5,5.6c1,1.2,2,1.8,2.9,1.8l0.5-0.1l0.8,0.1c0.3,0,0.8-0.2,1.6-0.6c0.8-0.4,2-1.1,3.5-2.2
			s2.5-1.8,2.8-2.4c0.3-0.5,0.6-1.1,0.9-1.9c0.3-0.8,0.4-1.7,0.6-2.7c0.1-1,0.2-2.1,0.2-3.3c0-3.1-0.1-5.1-0.2-6.2s-0.4-1.7-0.7-1.9
			c-0.2-0.2-0.4-0.7-0.4-1.4c0.3-0.1,0.5-0.2,0.6-0.3c0.1-0.1,0.2-0.1,0.3-0.1C775.2,3241.7,775.4,3241.8,775.7,3242z"/>
		<path class="st1" d="M806.5,3245.8c0,0.2-0.1,0.5-0.4,0.9c-0.3,0.4-0.4,0.8-0.5,1.2c-0.1,0.4-0.3,0.8-0.7,1.1h-0.7
			c-0.9-0.6-1.6-0.8-2.1-0.8c-0.3,0-0.9,0.2-1.6,0.6c-0.7,0.4-1.5,1.1-2.2,2c-0.7,1-1.1,1.7-1.3,2.3c-0.1,0.6-0.4,1.3-0.9,2v0.9
			c-0.3,0.9-0.5,1.5-0.4,2s0.1,0.7,0.1,0.9c0,0.2,0,0.4-0.1,0.6c-0.2,0.2-0.3,0.4-0.3,0.7c0,0.5,0.1,1.3,0.3,2.4s0.5,2,0.9,2.6v0.2
			c0,0.8-0.3,1.2-1,1.2l-0.5,0.5c-0.5,0-0.9,0.1-1.5,0.1c-0.7,0-1.3-0.1-1.8-0.3v-0.1c0-0.5,0.2-1.2,0.5-2.2
			c0.3-0.9,0.5-1.7,0.5-2.2l0.2-6.4c0-5-0.3-9.4-0.8-13.2c-0.1-0.4-0.1-0.6-0.1-0.7c0-0.7,0.3-1.2,1-1.6c0.7-0.4,1.2-0.5,1.7-0.5
			c0.4,0,0.8,0.1,1.2,0.3c0,0.1,0.1,0.2,0.2,0.4c0.1,0.2,0.2,0.3,0.2,0.4v0.3c0,0.3-0.2,0.9-0.5,1.8c-0.3,0.9-0.5,2.2-0.5,3.6
			l0.1,3.4v0.5c0,0.3,0.2,0.5,0.7,0.6c0.8-1.7,1.7-3,2.7-4c1.1-1,2.4-1.7,4-2.1c1.6-0.4,2.6-0.7,3-0.7c0.5,0.3,0.7,0.6,0.7,0.9
			V3245.8z"/>
		<path class="st1" d="M833.2,3249.5c0.1,0.1,0.2,0.4,0.2,0.6c0,0.5-0.1,0.9-0.4,1.2c0,0,0.1,0.1,0.1,0.2c0,0.3-0.4,0.4-1.2,0.4
			h-0.4c-0.1,0-0.2,0.1-0.3,0.2c-0.1,0.1-0.2,0.2-0.2,0.2c0,0-0.1-0.1-0.3-0.2c-0.2-0.1-0.4-0.2-0.7-0.2l-0.3-0.3
			c-0.4,0.1-0.8,0.2-1.2,0.2c-0.3,0-0.7,0-1.2-0.1c-0.5-0.1-0.9-0.1-1.1-0.1c-0.2,0-0.6,0.1-1.3,0.2c-0.6,0.1-1.2,0.2-1.7,0.2
			l-2.7-0.1c-1.4,0-2.7,0.1-3.9,0.4c-0.2,0.1-0.4,0.2-0.7,0.2c-0.3,0-0.5,0.2-0.5,0.4s-0.2,0.4-0.6,0.6c-0.2,0.7-0.3,1.4-0.3,2
			c0,0.5,0.1,1.4,0.4,2.7c0.3,1.3,0.6,2.3,1.1,2.8c0.1,0.1,0.9,0.7,2.4,1.8c0.9,0.7,1.9,1.2,3,1.6c1.1,0.4,2.3,0.5,3.8,0.5
			c0.6,0,1.3,0,2.1-0.1l1.1-0.1h1.8c0.2,0,0.5-0.2,1-0.5c0.5-0.3,1-0.5,1.5-0.6c0.2,0.5,0.3,1,0.3,1.3c0,0.9-0.3,1.6-0.8,2.2
			s-1.1,1-1.8,1l-0.6-0.1l-1.7,0.1h-1.5c-0.7,0-2.4-0.3-5.1-0.9c-2.7-0.6-4.7-1.3-6-2.3c-1.3-0.9-2.2-2.2-2.8-3.7s-0.9-3-0.9-4.4
			c0-1.9,0.4-3.8,1.1-5.8c0.7-2,1.6-3.5,2.5-4.6c0.9-1.1,2.3-2.2,4.2-3.4c0.2-0.1,0.5-0.3,0.8-0.6c0.4-0.3,0.7-0.4,1.1-0.4l0.9,0.1
			c0.4-0.3,1.1-0.5,2.1-0.6c1-0.2,1.8-0.3,2.4-0.3c1.1,0,2.3,0.4,3.7,1.2c1.3,0.8,2.1,2.5,2.4,5.1c0.1,0.5,0.1,0.8,0.2,1.1
			c0.1,0.3,0.2,0.4,0.2,0.5C833.4,3249.3,833.3,3249.4,833.2,3249.5z M822,3243.5c-0.1,0.2-0.6,0.5-1.6,0.9
			c-0.5,0.3-0.9,0.7-1.3,1.1c-0.4,0.4-0.8,0.9-1.2,1.4c-0.4,0.5-0.8,0.9-1.1,1.3s-0.5,0.7-0.7,0.9s-0.2,0.4-0.2,0.5
			c0,0.2,0.1,0.3,0.4,0.4l0.4,0.1h2l9.5-0.4c1.2,0,1.8-0.5,1.8-1.6c0-1.1-0.2-2.1-0.7-3c-0.4-0.8-1.6-1.5-3.5-2
			c-0.2,0-0.5,0-0.9-0.1c-0.4,0-0.7-0.1-0.9-0.1C823.9,3243.1,823.2,3243.2,822,3243.5z"/>
	</g>
	<path id="パス_15" class="st1" d="M887.8,3267c-0.3-1.5-0.8-3-1.5-4.4c-0.9-1.4-1.8-2.8-2.9-4c9.1-0.6,18.1-2.1,26.8-4.3
		c0.6-0.2,1.1-0.5,1.4-1c1.4,0.3,2.7,0.9,3.9,1.8c2.5,2.4,4.9,5,7.1,7.7c0.6,0.7,1,1.5,1.6,2.1c0.9,0.9,2.1,1.7,3.2,0.7
		c0.6-0.7,0.5-2.1,0.5-3.3c-0.1-0.5-0.4-0.9-0.8-1.3c-1.7-2.5-4.1-4.5-6.9-5.7c-2.2-1-4.3-2-6.4-3.2c1.9-0.6,6.8-3.7,8.5-4.3
		c1.8-0.6,3.6-0.9,5.4-1c0.8,0.2,1.7,0.3,2.6,0.2c3.3-0.3,6.6-0.9,9.9-1.2c4.2-0.4,4.1-0.4,5,3.7c1.1,4.8,5,7.2,8.6,10.2
		c1.5-3.3,0-5.8-1.4-8.6c0.5,0.3,1,0.5,1.6,0.7c1,0.5,2.1,1,2.6-0.2c0.2-0.9-0.1-1.9-0.7-2.6c-0.8-1-1.7-2-2.6-2.9
		c2.8,1,5.6,2.1,8.4,3.1c-2.8-2.7-6.5-4.2-10.4-4.2c-2.6-0.2-5.2,0-7.8-0.1c-1.7,0-3.5-0.3-5.5-0.4c0.4-3.8,0.2-7.2-2.8-9.8
		c-3.2,3.5-1.2,7.1-1.1,10.8c-1.5,0.6-2.3,0.6-2.7-1.2c-0.3-1.4-0.7-2.7-1.4-3.9c-0.6-0.6-1.4-1-2.3-0.9c-0.8,0.4-1.3,1.2-1.4,2
		c0.2,1.3,0.6,2.7,1.2,3.9c0,0.1-4.2,1.3-7.6,2.7c-1.4,0.4-2.8,1.1-4,2c-0.7,0.6-1.5,1.2-2.3,1.7c-0.3-3,0.2-5.3,2.2-7.4
		c1.4-1.6,2.4-3.5,2.9-5.5c0.9-2.5,0-4.2-2.8-5.8c-2.4,2.9-1.9,6.5-2.7,9.8c-0.7,3.4-1.6,6.7-2.5,10.2c-7.6,1.8-20.5,4.7-27.6,3.3
		c0.4-0.3,0.9-0.6,1.4-0.7c2.5-1.1,5.1-2.1,7.4-3.3c0.6-0.6,1-1.4,0.9-2.3c0-0.4-1.2-0.9-1.9-1c-5.1,0.3-10.5-0.1-13.7,5.1
		c-3.4-0.2-6.8-1.2-9.7-3.1c1.7-1,3.6-1.6,5.2-2.5c0.7-0.3,1-1.5,1.5-2.2c-0.7-0.4-1.5-1.2-2.2-1.1c-2.6,0.2-5.2,0.6-7.7,1.1
		c-2,0.5-3.8,1.1-4.9,3.3c-0.2,0.6-1.4,0.9-2.3,1.1c-1,0.1-2,0.1-3,0c0.9,2.7,2.7,4.2,5.4,4.2c2.3-0.1,4.6-0.7,6.9-1
		c1.1-0.2,2.1-0.3,3.2-0.2c2.7,0.8,5.3,1.8,7.9,2.8c1.2,4.8,4.2,8.2,7.2,11.6c0.3,0.4,1.2,0.8,1.6,0.5
		C887.2,3268.3,887.8,3267.5,887.8,3267z M927.1,3264.4c-3.6-1.2-3.5-5.1-5.8-6.7C923.6,3259.4,926.5,3260.6,927.1,3264.4z
		 M952.5,3256.5c-2.6-2.3-5.9-4.2-5.7-8.5C949.1,3250.7,952.8,3252.3,952.5,3256.5z M936,3237.5l0.5,6.2
		C934.8,3241.7,934.6,3240.4,936,3237.5z M915.3,3241.6c0.4-2,0.7-4.2,1.1-6.6c1.7,2.5,1.8,2.6-0.5,6.6
		C915.7,3241.6,915.6,3241.5,915.3,3241.6z M863.6,3248.6c2.8-1.9,5.7-1.9,8.7-1.8C869.7,3248,867.2,3250.1,863.6,3248.6z
		 M879.9,3254.2c2.9-4,7.1-3.6,11.2-3.5C887.8,3252.9,884.2,3254.5,879.9,3254.2L879.9,3254.2z M880.5,3259.5
		c0.3-0.2,0.6-0.3,0.9-0.6c1.9,2.2,4.4,4.2,5.2,7.2c-0.3,0.2-0.4,0.3-0.7,0.5C884,3264.2,882.2,3261.8,880.5,3259.5L880.5,3259.5z"
		/>
</g>
</svg>
