<?xml version="1.0" encoding="utf-8"?>
<!-- Generator: Adobe Illustrator 22.1.0, SVG Export Plug-In . SVG Version: 6.00 Build 0)  -->
<svg version="1.1" id="レイヤー_1" xmlns="http://www.w3.org/2000/svg" xmlns:xlink="http://www.w3.org/1999/xlink" x="0px"
	 y="0px" viewBox="0 0 214.3 73" style="enable-background:new 0 0 214.3 73;" xml:space="preserve">
<style type="text/css">
	.st0{enable-background:new    ;}
	.st1{fill:#B29D93;}
</style>
<g id="ttl_story" transform="translate(-80 -879)">
	<g class="st0">
		<path class="st1" d="M98.7,899.5c-0.2-0.1-0.6-0.4-1.1-1c-0.5-0.5-1.2-0.8-1.9-0.8c-2.9,0-5.2,0.7-6.9,2c-1.7,1.3-2.5,3-2.5,5.2
			c0,2.3,2.5,4.8,7.5,7.4c0.3,0,0.7,0,1.1,0.1c0.4,0.1,1.1,0.6,2.2,1.6c1,1,1.8,1.9,2.3,2.6c0.5,0.8,0.9,1.6,1.2,2.4
			s0.4,1.6,0.4,2.4c0,3.5-0.8,6.1-2.4,8c-1.6,1.9-4.5,3.6-8.7,5.1c-0.2-0.1-0.4-0.1-0.6-0.1c-0.3,0-0.8,0.2-1.4,0.5
			c-0.6,0.3-1.9,0.5-3.8,0.5c-0.7,0-1.2-0.3-1.5-0.9c-0.3-0.6-0.4-1.4-0.4-2.6c0-0.3,0.1-0.6,0.4-1h0.2c0.5,0,1,0.3,1.5,0.8
			c1.1,0.3,1.8,0.4,2.1,0.4c0.2,0,1.1-0.1,2.6-0.3c1.5-0.2,3-0.6,4.3-1.3c1.4-0.7,2.3-1.3,2.8-1.9c0.5-0.6,1-1.4,1.4-2.2
			c0.5-0.9,0.7-1.9,0.7-3c0-1.7-0.5-3.2-1.5-4.8c-1-1.5-2.1-2.4-3.3-2.6V916c0-0.3-0.4-0.7-1.2-1.2c-3.2-1.5-5.5-2.9-6.7-4.3
			c-1.3-1.4-1.9-3.1-1.9-5.1c0-0.8,0.1-1.5,0.3-2.3c0.2-0.7,0.5-1.5,0.9-2.1c0.4-0.7,0.9-1.3,1.5-1.9c0.6-0.6,1.4-1.2,2.4-1.7
			c1-0.6,1.7-0.9,2.1-0.9h0.8c0.1,0,0.3-0.2,0.6-0.6c0.5,0,1-0.2,1.6-0.4c0.6-0.3,1-0.4,1.1-0.5c0.2,0.1,0.3,0.3,0.4,0.5
			c0.5-0.1,1-0.2,1.6-0.2h0.6c0.8,0,1.5,0.1,1.9,0.3c0.5,0.2,0.7,0.7,0.7,1.4c0,0.6-0.1,1.1-0.4,1.7C99.3,899.2,99,899.4,98.7,899.5
			z"/>
		<path class="st1" d="M122.6,908.9c0,0.1,0.1,0.2,0.3,0.3c0.2,0.1,0.3,0.1,0.3,0.1h0.3c0.6,0,1.1,0.1,1.6,0.4
			c0.4,0.3,0.7,0.6,0.7,0.9c0,0.4-0.3,0.7-0.8,1.1l-0.3-0.4c-0.3,0.5-0.7,0.7-1.3,0.8l-0.2-0.3l-0.3,0.1c-0.8-0.4-1.6-0.5-2.5-0.5
			l-2.6,0.1c-0.4,0-0.9,0-1.6-0.1c-0.5,3.5-0.7,6.3-0.7,8.4c0,0.7,0,1.6,0.1,2.6s0.2,1.8,0.5,2.4c0.2,0.6,0.5,1.2,0.7,1.7
			c0.2,0.5,0.6,1.1,1.2,1.6c0.6,0.5,1.1,0.9,1.6,1.1c0.5,0.2,0.9,0.5,1.3,0.9c0.4,0.4,1.3,0.6,2.8,0.6h0.5c0.3,0.3,0.5,0.5,0.5,0.7
			c0,0.2-0.1,0.5-0.4,0.9c-0.3,0.4-0.5,0.8-0.6,1.1c-0.2,0.3-0.4,0.6-0.8,1h-0.1c-0.1,0-0.2-0.1-0.2-0.2c-0.6,0-1.2-0.1-1.7-0.2
			c0,0,0,0.1-0.1,0.1c0,0-0.1-0.1-0.3-0.2c-0.1-0.1-0.3-0.2-0.4-0.2c-0.1-0.3-0.4-0.5-0.8-0.7c-0.8-0.3-1.6-0.7-2.3-1.3
			c-0.7-0.6-1.4-1.4-2.2-2.4c-0.7-1-1.2-2-1.4-2.9c-0.2-0.9-0.3-1.9-0.5-3.2c-0.1-1.2-0.2-2.5-0.2-4c0-2.4,0.2-5,0.5-7.8l-0.6-0.2
			l-0.2,0.4h-0.4l-0.1-0.4c-4.2-0.2-6.3-0.6-6.3-1.2c0-0.2,0.1-0.4,0.4-0.6c0.3-0.2,1-0.3,2.3-0.3h1.1l1.1-0.3
			c0.4-0.1,0.8-0.3,1.2-0.5c0.4-0.2,0.8-0.5,1.1-0.9c0.3-0.3,0.6-1.6,0.8-3.6c0.2-1.3,0.2-2.6,0.2-4.1v-1.1c0-0.3,0.1-0.8,0.4-1.5
			c0.3-0.6,0.6-1.1,0.9-1.5c0.4-0.4,0.6-0.5,0.8-0.5c0.4,0,0.7,0.1,1.1,0.2c0.4,0.1,0.6,0.2,0.7,0.3s0.1,0.2,0.2,0.4
			c0.1,0.2,0.2,0.4,0.3,0.5v0.1c0,0.1-0.1,0.1-0.2,0.2c-0.1,0-0.2,0.1-0.3,0.1c0,0-0.1,0.1-0.1,0.1c0,0-0.2,0.5-0.4,1.5
			c-0.2,0.9-0.4,1.9-0.6,2.8c-0.2,0.9-0.3,1.9-0.4,2.8c-0.1,0.9-0.1,1.8-0.1,2.7c0,1.3,0.1,2,0.2,2.2s0.3,0.2,0.5,0.2
			c0.1,0,0.3-0.1,0.7-0.2c0.4-0.1,0.7-0.2,1-0.2c0.2,0,0.3,0,0.4,0.1l0.3,0.7c0.1,0,0.3,0.1,0.4,0.1c0.2,0,0.6-0.1,1.2-0.4
			S122.2,909,122.6,908.9z"/>
		<path class="st1" d="M133.1,916.1c2.8-5.4,8-8.1,15.3-8.1c1.1,0,2.2,0.1,3.1,0.2c0.9,0.1,1.7,0.3,2.5,0.6s1.5,0.7,2.1,1.2
			c0.7,0.5,1.3,1.1,1.9,1.8c0.6,0.7,1.2,1.6,1.8,2.6c0.3,0.5,0.5,1.7,0.5,3.6c0,4.2-1.4,7.7-4.3,10.7c-2.8,2.9-6.3,4.4-10.5,4.4
			h-0.2c-0.9-0.2-1.3-0.3-1.4-0.3c-0.1,0-0.1,0-0.2,0.1c-0.2,0.3-0.7,0.4-1.7,0.4c-1.3,0-2.8-0.4-4.6-1.1c-1.8-0.7-3.2-1.9-4.3-3.4
			s-1.7-3.1-1.7-4.8c0-0.7,0-1.3,0.1-2c0.1-0.6,0.2-1.3,0.3-1.9c0.1-0.6,0.3-1.2,0.5-1.7l0.7-1.6V916.1z M157.2,920.6v-0.7
			c0-3-1-5.5-2.9-7.3c-1.9-1.9-4.4-2.8-7.6-2.8c-0.7,0-1.3,0.1-1.9,0.2c-0.6,0.2-0.9,0.3-1,0.3c-0.1,0-0.3,0.2-0.5,0.6
			c-0.2,0.3-0.4,0.5-0.5,0.6c-0.1,0.1-0.2,0.1-0.4,0.1l-1.4-0.2c-0.2,0-0.3,0.2-0.4,0.5c-1.4,0.1-2.7,1.1-3.9,3.1
			c-1.2,2-1.8,4-1.8,6.1c0,0.5,0.1,1.4,0.3,2.9c0.2,1.5,0.7,2.7,1.7,3.6c0.9,1,2.1,1.8,3.5,2.5c1.4,0.7,2.5,1,3.3,1
			c0.2,0,0.4,0,0.7-0.1l0.2-0.1h1.1c2.4,0,4.1-0.4,5-1.1c0.1-0.1,0.1-0.1,0.2-0.1c0.1,0,0.3,0.1,0.5,0.2c2-1.7,3.5-3.6,4.5-5.5
			C156.8,922.5,157.2,921.3,157.2,920.6z"/>
		<path class="st1" d="M184.9,911.8c0,0.2-0.1,0.5-0.4,0.9c-0.3,0.4-0.4,0.8-0.5,1.2c-0.1,0.4-0.3,0.8-0.7,1.1h-0.7
			c-0.9-0.6-1.6-0.8-2.1-0.8c-0.3,0-0.9,0.2-1.6,0.6c-0.7,0.4-1.5,1.1-2.2,2c-0.7,1-1.1,1.7-1.3,2.3c-0.1,0.6-0.4,1.3-0.9,2v0.9
			c-0.3,0.9-0.5,1.5-0.4,2s0.1,0.7,0.1,0.9c0,0.2,0,0.4-0.1,0.6c-0.2,0.2-0.3,0.4-0.3,0.7c0,0.5,0.1,1.3,0.3,2.4s0.5,2,0.9,2.6v0.2
			c0,0.8-0.3,1.2-1,1.2l-0.5,0.5c-0.5,0-0.9,0.1-1.5,0.1c-0.7,0-1.3-0.1-1.8-0.3v-0.1c0-0.5,0.2-1.2,0.5-2.2
			c0.3-0.9,0.5-1.7,0.5-2.2l0.2-6.4c0-5-0.3-9.4-0.8-13.2c-0.1-0.4-0.1-0.6-0.1-0.7c0-0.7,0.3-1.2,1-1.6c0.7-0.4,1.2-0.5,1.7-0.5
			c0.4,0,0.8,0.1,1.2,0.3c0,0.1,0.1,0.2,0.2,0.4c0.1,0.2,0.2,0.3,0.2,0.4v0.3c0,0.3-0.2,0.9-0.5,1.8c-0.3,0.9-0.5,2.2-0.5,3.6
			l0.1,3.4v0.5c0,0.3,0.2,0.5,0.7,0.6c0.8-1.7,1.7-3,2.7-4c1.1-1,2.4-1.7,4-2.1c1.6-0.4,2.6-0.7,3-0.7c0.5,0.3,0.7,0.6,0.7,0.9
			V911.8z"/>
		<path class="st1" d="M212.4,908.4c0.2-0.2,0.5-0.3,0.8-0.3c0.3,0,0.8,0.1,1.5,0.3c0.7,0.2,1.1,0.4,1.1,0.8c0,0.5-0.3,1-1,1.4
			c-0.2,0-1.2,1.5-2.9,4.6l-4.5,8.2c-1.3,2.4-2.1,4.5-2.3,6.2c-0.2,1.4-0.6,2.3-1.2,2.8l-0.2,0.7c-0.3,0.1-0.5,0.2-0.7,0.5
			c-2.6,6.1-4.3,9.9-4.8,11.3c-0.6,1.4-0.9,2.6-0.9,3.3c0,0.8-0.4,1.2-1.2,1.2h-0.3c-0.6-0.2-1.4-0.3-2.4-0.3l-0.2,0.1
			c-0.3,0-0.4-0.2-0.4-0.5c0-0.1,0.1-0.2,0.2-0.2c0-0.1,0.7-1.1,2-2.9c-0.2-0.1-0.2-0.2-0.2-0.3c0-0.2,0.4-1,1.3-2.3
			c2.1-3.2,3.9-6.4,5.3-9.4c-0.1-0.2-0.2-0.3-0.2-0.5c-0.1-0.1-0.3-0.1-0.5-0.1h-0.1c-0.4,0-0.6-0.5-0.8-1.4
			c-0.1-0.9-0.3-1.5-0.3-1.7c-0.8-1.4-1.7-3.1-2.5-5.2c-0.9-2.1-1.8-4-2.7-5.9c-0.9-1.9-1.6-3.3-2-4.2c-0.4-1-0.9-1.8-1.5-2.5
			c-0.6-0.7-0.9-1.3-0.9-1.8V910c-0.1,0-0.2,0.1-0.3,0.1c-0.3,0-0.4-0.1-0.4-0.2s0.3-0.5,0.9-1.3c0.6-0.7,1.2-1.3,2-1.7
			c0.5,0.2,1,0.4,1.3,0.5c0.3,0.1,0.6,1,1,2.7l0.6,2.2v0.9c0.7,1.3,1.6,3.2,2.7,5.6l0.8,1.8c0.3,0.6,0.6,1.2,0.8,1.7
			c0.3,0.5,0.5,1,0.8,1.5s0.6,0.9,0.9,1.3c0.5,0.6,0.7,1,0.7,1c0.1,0.3,0.3,0.5,0.5,0.8c0.2,0.2,0.4,0.4,0.6,0.6
			c0.2,0.2,0.4,0.4,0.7,0.5l2.1-4.8c1.8-4.1,3-6.6,3.5-7.5c0.5-0.9,0.9-1.7,1.2-2.5c0.3-0.8,0.5-1.6,0.7-2.6
			c0.2-0.9,0.4-1.5,0.5-1.8c0.1-0.3,0.4-0.4,0.7-0.4L212.4,908.4z"/>
	</g>
	<path id="パス_5" class="st1" d="M275.6,919.9c-1.9,0.8-4.4,1.1-3.7,4.8c-2-0.9-3.5-1.7-4.8-2.3c-2.2-0.9-4.5-2.2-7.1-0.8
		c-0.3,0.2-0.9-0.1-1.3-0.4c-5.7-4.1-15-4.5-20.7-0.6c-1.7,1.1-3.3,2.4-2.5,4.9c0.1,0.5-0.9,1.2-1.3,1.7c-0.6-0.5-1.8-1.2-1.7-1.5
		c0.4-1.6,0.7-3.6,1.8-4.4c4.8-4.3,10.3-6.3,16.8-4.5c4,1,7.9,2.6,12.2,1.9c5.6-1,7.7-6.6,6-11.4c-0.2-0.6-1.1-0.7-1.9-1.1
		c-0.3,0.9-0.6,1.8-0.7,2.8c-0.1,1.1,0,2.2,0.2,3.2c-0.9,0.1-2.5,0.5-2.8,0.1c-0.5-1-0.7-2.2-0.5-3.3c0-0.8,0.3-1.6,0.9-2.2
		c1.3-1.1,2.7-2.7,4.1-2.8c2.3-0.3,2.7,1.9,3,3.8c0.8,4.6-0.6,8.5-4.2,12c1,0,2.5,0.5,3.3,0.1c2.6-1.7,5.1-3.7,7.6-5.5
		c2-1.5,3.9-3.4,5.9-4.9c0.4-0.3,1.7,0.3,2.5,0.5c-0.6,0.5-1.1,1.2-1.7,1.6c-1,0.7-3,0.1-2.4,2.5c0,0.2-1.4,1-2.6,1.7
		c0.8,0.2,1.3,0.4,1.8,0.6c4.5,0.8,6.2,3,5.3,7.5c-0.6,3.7-5.1,7-8.3,6.4c-2.5-0.5-3.9-3.5-3-6.3c0.4-1,0.7-2.1,1-3.1
		c1.9-0.6,4.3-1.6,5.2,1c0.6,1.7-0.4,3.7-0.6,5.5c0.2,0.1,0.3,0.3,0.4,0.5c1-1.1,2.5-2.2,2.9-3.5c0.6-1.4,0.5-3-0.2-4.3
		c-1-1.1-2.4-1.7-3.8-1.7C279.1,918.6,277.3,919.2,275.6,919.9z"/>
</g>
</svg>
