<?xml version="1.0" encoding="utf-8"?>
<!-- Generator: Adobe Illustrator 22.1.0, SVG Export Plug-In . SVG Version: 6.00 Build 0)  -->
<svg version="1.1" id="レイヤー_1" xmlns="http://www.w3.org/2000/svg" xmlns:xlink="http://www.w3.org/1999/xlink" x="0px"
	 y="0px" viewBox="0 0 334 229.6" style="enable-background:new 0 0 334 229.6;" xml:space="preserve">
<style type="text/css">
	.st0{enable-background:new    ;}
	.st1{fill:#FFFFFF;}
</style>
<g id="ttl_main" transform="translate(-471.212 -243.273)">
	<g transform="matrix(1, 0, 0, 1, 471.21, 243.27)">
		<g class="st0">
			<path class="st1" d="M29.1,81.3c0,0.3,0,0.5-0.1,0.8c-0.3,0.2-0.5,0.4-0.6,0.6c-0.1,0.2-0.2,0.9-0.5,1.9c-0.3,1-0.5,3.1-0.6,6.2
				c-0.2,3.1-0.2,5.4-0.2,6.9v7l-0.1,17c0,2.5,0,5.4,0.1,8.6c0.1,3.2,0.2,5.1,0.4,5.6c0.2,0.6,0.4,1,0.6,1.2
				c-0.1,1.8-0.5,2.7-1.4,2.7l-0.8-0.1c-0.1,0-0.4,0.1-0.8,0.2c-0.4,0.1-0.8,0.2-1.2,0.2c-0.5,0-1-0.2-1.3-0.7
				c-0.4-0.5-0.6-1-0.6-1.8c0-0.2,0.1-0.4,0.2-0.7c0.6,0,0.9-4.9,0.9-14.6L23,99.5l0.4-12.3l-0.3-2c-0.2-1.4-0.3-2.6-0.3-3.5
				c0-0.5,0.1-1.1,0.2-1.7c1.9-1,3.2-1.4,3.9-1.4c0.3,0,0.6,0.1,0.9,0.4c0.2,0.3,0.6,0.8,1.1,1.8c0.2,0,0.2,0.1,0.2,0.2V81.3z
				 M48.9,108.7c-0.2-0.1-0.4-0.1-0.7-0.1c-0.4,0-0.7,0-0.9,0.1c-0.2,0.1-1.2,1-3,2.8l-5.3,5.1c-1.7,1.7-3,3-3.8,3.9
				c-0.8,0.9-1.2,1.5-1.2,1.8c0,0.4,1.3,1.4,3.9,3l6.3,4.2c2,1.3,3.7,2.3,5,2.9c1.3,0.6,2.6,1,3.8,1.1c0.7,0.1,1.5,0.6,2.3,1.6
				c0.5,0.5,0.7,1.1,0.7,1.6c0,0.6-0.3,1.1-0.9,1.5c-0.6,0.4-1,0.7-1.1,0.8c-0.4,1-1.1,1.5-2,1.5c-0.2,0-0.6-0.1-1-0.2v-0.1
				c0-0.3-0.4-0.8-1.3-1.6c-0.9-0.8-2.4-1.9-4.4-3.4c-2-1.4-5.1-3.4-9.2-6c-4.1-2.6-6.3-3.8-6.5-3.9l-1.1-0.1c0-1.9,0.8-3.6,2.3-5
				c1-0.2,1.8-0.8,2.3-1.8c0.1,0.1,0.2,0.1,0.3,0.1c0.2,0,0.5-0.2,0.8-0.6c0.4-0.4,1.1-1.2,2.3-2.4s2.2-2.2,3-3.1
				c0.8-0.8,1.5-1.7,2.1-2.6l1.5-2.1c0.4-0.6,0.8-1.3,1.2-2.3c0.4,0,1-0.3,1.7-1s1.4-1,2-1h0.2c0.2,0.2,0.4,0.2,0.6,0.2h0.3
				c0.6,0.4,0.9,1.1,0.9,1.9C50,106.9,49.6,107.9,48.9,108.7z"/>
			<path class="st1" d="M85.2,118.9c0,0.2-0.2,0.5-0.5,0.9c-0.4,0.4-0.6,0.7-0.7,1c-0.1,0.3-0.2,1-0.3,2.3c-0.1,1.2-0.1,3.1-0.1,5.5
				l0.2,5.3c0,0.3-0.1,0.5-0.4,0.7c-0.1,0.3-0.1,0.8-0.1,1.4c0,1,0.2,2.2,0.5,3.7l0.4,2.1l-0.1,1.9l0.1,1.7
				c-1.9,1.9-3.3,2.8-4.2,2.8c-0.1,0-0.4-0.1-0.7-0.3c-0.4-0.2-0.7-0.3-1-0.3H78c-0.2-0.7-0.3-1.4-0.3-2c0-1.3,0.3-2.5,0.9-3.7
				c0.3-0.4,0.5-0.7,0.6-0.9c0.1-0.2,0.2-1,0.2-2.3c0-1.5-0.2-2.2-0.5-2.2c-0.1,0-0.2,0.1-0.5,0.2c-0.3,0.1-0.6,0.2-0.9,0.2h-0.3
				c-0.3,0.2-0.5,0.5-0.6,0.8c-0.3,0-2,0.6-5.1,1.8c-1.5,0.5-3,0.8-4.4,0.8c-1.5,0-2.9-0.2-4.1-0.6c-1.2-0.4-2.3-1-3.1-1.8
				c-0.8-0.8-1.4-1.4-1.6-1.8c-0.2-0.4-0.4-1.2-0.4-2.5l0.1-1v-0.3c0-2.6,2-5.3,6.1-8.2c4-2.9,7.8-4.6,11.3-5.2
				c0.9-0.2,1.7-0.3,2.2-0.5c0.5-0.2,1-0.4,1.3-0.8s0.5-1.3,0.5-2.7c0-4.6-2.4-7.8-7.3-9.5c-0.2-0.1-0.4-0.2-0.6-0.3
				s-0.5-0.2-0.7-0.2c-2.5,0-4.6,0.1-6.3,0.3c-0.9,1.1-2,1.6-3.1,1.6c-0.9,0-1.3-0.3-1.3-0.9c0,0,0.2-0.6,0.6-1.7
				c0.4-1.1,1.3-1.6,2.7-1.6c1.6-0.9,4.6-1.3,9-1.3c3.5,0,6.2,1.4,8.1,4.1c1.9,2.7,2.9,6.6,2.9,11.6v0.5c0.2,0.3,0.6,0.6,1.1,0.7
				C84.9,118.2,85.2,118.5,85.2,118.9L85.2,118.9z M77.5,132.7c1.6-2.2,2.5-4.2,2.5-5.9c0-1.1-0.3-2.2-0.8-3.5
				c-0.5-1.2-1.6-1.9-3.2-1.9c-3.1,0-5.6,0.8-7.5,2.3h-1c-4,2.2-6,4.6-6,7c0,1.7,0.8,3.2,2.5,4.4c1.7,1.2,3.6,1.8,5.8,1.8
				c0.6,0,1.7-0.2,3.3-0.7c1.6-0.5,3.1-1.4,4.5-2.8V132.7z"/>
			<path class="st1" d="M114.8,106.1c1.7-0.3,3.1-0.4,4.3-0.4c7.1,0,10.6,4.4,10.6,13.3c0,4.9-0.8,10.6-2.4,17.1
				c-0.7,2.8-1.1,4.6-1.1,5.6c0,0.2,0.1,0.4,0.2,0.6c-0.3,1.6-1.3,2.4-2.9,2.4c-0.9,0-1.8-0.3-2.6-0.8c-0.8-0.5-1.2-1.1-1.2-1.6
				c0-0.9,0.5-1.9,1.6-3.2s2.1-3.8,3-7.5c0.9-3.7,1.4-7.4,1.4-11.2c0-7.7-3.2-11.5-9.5-11.5c-2.5,0-4.8,0.5-7,1.5
				c-2.2,1-3.4,2.1-3.7,3.4c-0.2,0.3-0.6,0.5-1.1,0.8c-0.4,0.2-0.7,0.4-0.7,0.6c-0.1,0.2-0.2,2.1-0.4,5.9c-0.2,3.8-0.3,6.6-0.3,8.6
				v1.8c0,1,0.2,1.8,0.5,2.7c0.3,0.8,0.5,1.3,0.5,1.4l-0.1,1.4c0,0.9-0.2,1.5-0.4,2.1c-0.3,0.5-0.7,0.8-1.2,0.8h-0.2l-0.2,0.5
				c-0.3-0.1-0.5-0.2-0.7-0.2c-0.4,0-0.8,0.2-1.4,0.6h-0.2c-0.3,0-0.7-0.3-1.3-1c-0.9,0-1.3-0.3-1.3-1c0-0.6,0.2-1.1,0.5-1.4
				c0.3,0,0.7-1.7,1.2-5.1c0.4-3.4,0.7-7.8,0.7-13c0-6.8-0.6-10.7-1.7-11.7l-0.1-0.7c0-1,0.6-1.7,1.7-2c0.5-0.1,0.9-0.5,1.3-1.1
				c0.4-0.6,0.8-0.9,1.2-0.9h0.1c0.5-0.1,1-0.2,1.3-0.4c0.4-0.2,0.6-0.3,0.6-0.3c0.4,0,0.5,0.5,0.5,1.5c0,0.8-0.2,1.7-0.5,2.7
				c-0.3,1-0.5,1.6-0.5,1.9c0,0.4,0.1,0.7,0.4,1c0.3,0.3,0.6,0.4,1,0.4h0.2c0.7-0.7,1.1-1.1,1.2-1.1h0.1c2.5,0,4.4-0.5,5.7-1.5
				c0.2,0,0.5-0.1,0.9-0.1c0.3-0.1,0.6-0.1,0.7-0.1C114.4,106.5,114.8,106.2,114.8,106.1z"/>
			<path class="st1" d="M165.5,118.9c0,0.2-0.2,0.5-0.5,0.9c-0.4,0.4-0.6,0.7-0.7,1c-0.1,0.3-0.2,1-0.3,2.3
				c-0.1,1.2-0.1,3.1-0.1,5.5l0.2,5.3c0,0.3-0.1,0.5-0.4,0.7c-0.1,0.3-0.1,0.8-0.1,1.4c0,1,0.2,2.2,0.5,3.7l0.4,2.1l-0.1,1.9
				l0.1,1.7c-1.9,1.9-3.3,2.8-4.2,2.8c-0.1,0-0.4-0.1-0.7-0.3c-0.4-0.2-0.7-0.3-1-0.3h-0.2c-0.2-0.7-0.3-1.4-0.3-2
				c0-1.3,0.3-2.5,0.9-3.7c0.3-0.4,0.5-0.7,0.6-0.9c0.1-0.2,0.2-1,0.2-2.3c0-1.5-0.2-2.2-0.5-2.2c-0.1,0-0.2,0.1-0.5,0.2
				c-0.3,0.1-0.6,0.2-0.9,0.2h-0.3c-0.3,0.2-0.5,0.5-0.6,0.8c-0.3,0-2,0.6-5.1,1.8c-1.5,0.5-3,0.8-4.4,0.8c-1.5,0-2.9-0.2-4.1-0.6
				c-1.2-0.4-2.3-1-3.1-1.8c-0.8-0.8-1.4-1.4-1.6-1.8c-0.2-0.4-0.4-1.2-0.4-2.5l0.1-1v-0.3c0-2.6,2-5.3,6.1-8.2
				c4-2.9,7.8-4.6,11.3-5.2c0.9-0.2,1.7-0.3,2.2-0.5c0.5-0.2,1-0.4,1.3-0.8s0.5-1.3,0.5-2.7c0-4.6-2.4-7.8-7.3-9.5
				c-0.2-0.1-0.4-0.2-0.6-0.3s-0.5-0.2-0.7-0.2c-2.5,0-4.6,0.1-6.3,0.3c-0.9,1.1-2,1.6-3.1,1.6c-0.9,0-1.3-0.3-1.3-0.9
				c0,0,0.2-0.6,0.6-1.7c0.4-1.1,1.3-1.6,2.7-1.6c1.6-0.9,4.6-1.3,9-1.3c3.5,0,6.2,1.4,8.1,4.1c1.9,2.7,2.9,6.6,2.9,11.6v0.5
				c0.2,0.3,0.6,0.6,1.1,0.7C165.2,118.2,165.5,118.5,165.5,118.9L165.5,118.9z M157.8,132.7c1.6-2.2,2.5-4.2,2.5-5.9
				c0-1.1-0.3-2.2-0.8-3.5c-0.5-1.2-1.6-1.9-3.2-1.9c-3.1,0-5.6,0.8-7.5,2.3h-1c-4,2.2-6,4.6-6,7c0,1.7,0.8,3.2,2.5,4.4
				c1.7,1.2,3.6,1.8,5.8,1.8c0.6,0,1.7-0.2,3.3-0.7c1.6-0.5,3.1-1.4,4.5-2.8V132.7z"/>
			<path class="st1" d="M195.1,106.1c1.7-0.3,3.1-0.4,4.3-0.4c7.1,0,10.6,4.4,10.6,13.3c0,4.9-0.8,10.6-2.4,17.1
				c-0.7,2.8-1.1,4.6-1.1,5.6c0,0.2,0.1,0.4,0.2,0.6c-0.3,1.6-1.3,2.4-2.9,2.4c-0.9,0-1.8-0.3-2.6-0.8c-0.8-0.5-1.2-1.1-1.2-1.6
				c0-0.9,0.5-1.9,1.6-3.2s2.1-3.8,3-7.5c0.9-3.7,1.4-7.4,1.4-11.2c0-7.7-3.2-11.5-9.5-11.5c-2.5,0-4.8,0.5-7,1.5
				c-2.2,1-3.4,2.1-3.7,3.4c-0.2,0.3-0.6,0.5-1.1,0.8c-0.4,0.2-0.7,0.4-0.7,0.6c-0.1,0.2-0.2,2.1-0.4,5.9c-0.2,3.8-0.3,6.6-0.3,8.6
				v1.8c0,1,0.2,1.8,0.5,2.7c0.3,0.8,0.5,1.3,0.5,1.4l-0.1,1.4c0,0.9-0.2,1.5-0.4,2.1c-0.3,0.5-0.7,0.8-1.2,0.8h-0.2l-0.2,0.5
				c-0.3-0.1-0.5-0.2-0.7-0.2c-0.4,0-0.8,0.2-1.4,0.6h-0.2c-0.3,0-0.7-0.3-1.3-1c-0.9,0-1.3-0.3-1.3-1c0-0.6,0.2-1.1,0.5-1.4
				c0.3,0,0.7-1.7,1.2-5.1c0.4-3.4,0.7-7.8,0.7-13c0-6.8-0.6-10.7-1.7-11.7l-0.1-0.7c0-1,0.6-1.7,1.7-2c0.5-0.1,0.9-0.5,1.3-1.1
				c0.4-0.6,0.8-0.9,1.2-0.9h0.1c0.5-0.1,1-0.2,1.3-0.4c0.4-0.2,0.6-0.3,0.6-0.3c0.4,0,0.5,0.5,0.5,1.5c0,0.8-0.2,1.7-0.5,2.7
				c-0.3,1-0.5,1.6-0.5,1.9c0,0.4,0.1,0.7,0.4,1c0.3,0.3,0.6,0.4,1,0.4h0.2c0.7-0.7,1.1-1.1,1.2-1.1h0.1c2.5,0,4.4-0.5,5.7-1.5
				c0.2,0,0.5-0.1,0.9-0.1c0.3-0.1,0.6-0.1,0.7-0.1C194.8,106.5,195.1,106.2,195.1,106.1z"/>
			<path class="st1" d="M221.6,115.9c4.1-7.7,11.4-11.6,21.9-11.6c1.6,0,3.1,0.1,4.4,0.3s2.5,0.5,3.6,0.9c1.1,0.4,2.1,1,3,1.7
				s1.8,1.6,2.7,2.6c0.9,1,1.7,2.3,2.6,3.8c0.5,0.8,0.7,2.5,0.7,5.1c0,6-2,11.1-6.1,15.3c-4,4.2-9.1,6.3-15,6.3h-0.3
				c-1.2-0.3-1.9-0.4-2-0.4c-0.1,0-0.2,0-0.2,0.1c-0.2,0.4-1,0.5-2.4,0.5c-1.8,0-4-0.5-6.5-1.6c-2.5-1.1-4.6-2.7-6.2-4.9
				c-1.6-2.2-2.4-4.5-2.4-6.9c0-0.9,0-1.9,0.1-2.8c0.1-0.9,0.2-1.8,0.4-2.7c0.2-0.8,0.4-1.6,0.7-2.4l0.9-2.2V115.9z M256,122.3v-1
				c0-4.3-1.4-7.8-4.1-10.5c-2.7-2.6-6.3-4-10.8-4c-1,0-1.9,0.1-2.8,0.3s-1.4,0.4-1.5,0.4c-0.1,0.1-0.4,0.3-0.7,0.8
				c-0.3,0.5-0.6,0.8-0.7,0.9c-0.1,0.1-0.3,0.1-0.6,0.1l-2-0.2c-0.3,0-0.5,0.2-0.6,0.7c-2,0.2-3.8,1.6-5.6,4.4
				c-1.7,2.8-2.6,5.7-2.6,8.7c0,0.7,0.1,2,0.4,4.1c0.3,2.1,1.1,3.8,2.4,5.2c1.4,1.4,3,2.5,4.9,3.5c1.9,1,3.5,1.5,4.7,1.5
				c0.3,0,0.6,0,0.9-0.1l0.4-0.1h1.6c3.5,0,5.9-0.5,7.1-1.6c0.1-0.1,0.2-0.2,0.2-0.2c0.2,0,0.4,0.1,0.7,0.2c2.9-2.5,5-5.1,6.4-7.8
				C255.3,125.1,256,123.2,256,122.3z"/>
			<path class="st1" d="M277.4,137.8c-0.2,0.8-0.4,1.3-0.6,1.5c-0.2,0.2-0.6,0.3-1.2,0.4c-0.3,0.3-0.6,0.5-0.9,0.5
				c-0.2,0-0.4-0.2-0.7-0.5c-0.3,0.3-0.8,0.6-1.3,0.9c-2-0.6-3-1.3-3-2.2v-0.1c0.4,0,0.6-0.4,0.6-1.1v-0.7l-0.1-1.3
				c0-0.2,0.2-0.8,0.5-1.8c0.4-2.8,0.6-6.5,0.6-11.2v-8l-0.1-3l0.1-2.6l-0.5-9l0.3-6.2l-0.3-8.1v-1.5c-0.3-0.9-0.5-1.8-0.5-2.6
				l0.2-1.7c0-0.2-0.1-0.4-0.3-0.7c0-1.4,0.2-2.5,0.7-3.3c0.5-0.8,1-1.5,1.7-1.9c0.7-0.4,1.3-0.7,2-0.7c1.1,0,2.1,1.1,2.9,3.3
				c-0.6,0.8-1.1,1.5-1.4,2.2c-0.4,0.7-0.5,1.8-0.5,3.3l0.2,4.5l-0.2,11.2l0.1,15.3l-0.2,17.4l0.1,0.7c0,0.4-0.1,0.7-0.3,0.8
				c0.4,0.3,0.6,1.1,0.8,2.4c0.1,1.3,0.4,2.2,0.8,2.8C277.1,137.1,277.3,137.6,277.4,137.8z"/>
			<path class="st1" d="M313.2,118.9c0,0.2-0.2,0.5-0.5,0.9c-0.4,0.4-0.6,0.7-0.7,1c-0.1,0.3-0.2,1-0.3,2.3
				c-0.1,1.2-0.1,3.1-0.1,5.5l0.2,5.3c0,0.3-0.1,0.5-0.4,0.7c-0.1,0.3-0.1,0.8-0.1,1.4c0,1,0.2,2.2,0.5,3.7l0.4,2.1l-0.1,1.9
				l0.1,1.7c-1.9,1.9-3.3,2.8-4.2,2.8c-0.1,0-0.4-0.1-0.7-0.3c-0.4-0.2-0.7-0.3-1-0.3h-0.2c-0.2-0.7-0.3-1.4-0.3-2
				c0-1.3,0.3-2.5,0.9-3.7c0.3-0.4,0.5-0.7,0.6-0.9c0.1-0.2,0.2-1,0.2-2.3c0-1.5-0.2-2.2-0.5-2.2c-0.1,0-0.2,0.1-0.5,0.2
				c-0.3,0.1-0.6,0.2-0.9,0.2h-0.3c-0.3,0.2-0.5,0.5-0.6,0.8c-0.3,0-2,0.6-5.1,1.8c-1.5,0.5-3,0.8-4.4,0.8c-1.5,0-2.9-0.2-4.1-0.6
				c-1.2-0.4-2.3-1-3.1-1.8c-0.8-0.8-1.4-1.4-1.6-1.8c-0.2-0.4-0.4-1.2-0.4-2.5l0.1-1v-0.3c0-2.6,2-5.3,6.1-8.2
				c4-2.9,7.8-4.6,11.3-5.2c0.9-0.2,1.7-0.3,2.2-0.5c0.5-0.2,1-0.4,1.3-0.8s0.5-1.3,0.5-2.7c0-4.6-2.4-7.8-7.3-9.5
				c-0.2-0.1-0.4-0.2-0.6-0.3s-0.5-0.2-0.7-0.2c-2.5,0-4.6,0.1-6.3,0.3c-0.9,1.1-2,1.6-3.1,1.6c-0.9,0-1.3-0.3-1.3-0.9
				c0,0,0.2-0.6,0.6-1.7c0.4-1.1,1.3-1.6,2.7-1.6c1.6-0.9,4.6-1.3,9-1.3c3.5,0,6.2,1.4,8.1,4.1c1.9,2.7,2.9,6.6,2.9,11.6v0.5
				c0.2,0.3,0.6,0.6,1.1,0.7C312.9,118.2,313.2,118.5,313.2,118.9L313.2,118.9z M305.5,132.7c1.6-2.2,2.5-4.2,2.5-5.9
				c0-1.1-0.3-2.2-0.8-3.5c-0.5-1.2-1.6-1.9-3.2-1.9c-3.1,0-5.6,0.8-7.5,2.3h-1c-4,2.2-6,4.6-6,7c0,1.7,0.8,3.2,2.5,4.4
				c1.7,1.2,3.6,1.8,5.8,1.8c0.6,0,1.7-0.2,3.3-0.7c1.6-0.5,3.1-1.4,4.5-2.8V132.7z"/>
		</g>
	</g>
	<g transform="matrix(1, 0, 0, 1, 471.21, 243.27)">
		<g class="st0">
			<path class="st1" d="M54.9,27c1.7,0.6,3,1.3,3.7,2.1s1.1,1.9,1.1,3.4c0,2-1,3.7-3,5.2h-0.3c-0.2,0.2-0.4,0.3-0.5,0.5
				c-0.2,0.1-0.3,0.2-0.3,0.2c0,0-0.1,0-0.1-0.1c0,0-0.1,0.1-0.3,0.2s-0.7,0.2-1.4,0.3s-1,0.2-1,0.2c-0.2,0-0.3,0-0.3,0l-0.3,0.3
				l-0.4-0.1c-0.1,0.1-0.3,0.1-0.4,0.1s-0.2,0-0.3-0.1c-0.2,0-0.7,0-1.3,0.1s-1.1,0-1.4,0.1c0.1-0.1,0.1-0.3,0.1-0.6l0-0.5l0.2-1.6
				c0.1-0.5,0.1-1.1,0.1-1.6s0-1.1,0.1-1.6s0-1.1,0-1.8v-1l0.1-5.8c0-1.8-0.1-3.2-0.2-4s-0.2-1.4-0.2-1.6c0-0.6,0.4-0.9,1.1-0.9
				l0.3-0.3c0.3,0.2,0.5,0.3,0.8,0.4c1.8,0.1,3.2,0.3,4.2,0.5c1,0.2,1.7,0.7,2.2,1.3s0.8,1.5,0.8,2.5v0.2
				C57.5,24.3,56.5,25.7,54.9,27z M52.8,38.2c0.1,0,0.2,0,0.4,0c0.6,0,1.3-0.3,2.1-0.8c0.8-0.5,1.5-1.2,2-2.1
				c0.5-0.9,0.7-1.8,0.7-2.8c0-1.2-0.5-2.2-1.5-3c-1-0.9-2.3-1.3-4-1.4c-0.1,0-0.2,0.2-0.4,0.3C52,28.2,51.7,28,51.4,28
				c-0.6,0-0.9,0.5-0.9,1.5l0,1.2c0,0.2,0,0.6-0.1,0.9c-0.1,0.4-0.1,0.6-0.1,0.8c0,0.2,0,0.4,0.1,0.8c0,0.4,0.1,0.6,0.1,0.8
				c0,0.3,0,0.6-0.1,1.1c0,0.5-0.1,0.8-0.1,1c0,0.1,0,0.3,0.1,0.6l0.1,0.4l-0.1,0.4c0,0.5,0.3,0.7,0.9,0.7c0.2,0,0.4,0,0.7,0.1
				s0.4,0.1,0.6,0.1L52.8,38.2z M52.8,26.5c0.1,0,0.2,0,0.3,0l0.4,0c0.2,0,0.7-0.4,1.4-1.1c0.7-0.7,1-1.5,1-2.3c0-0.3,0-0.6-0.1-0.9
				s-0.1-0.5-0.3-0.8c-0.1-0.3-0.3-0.5-0.4-0.7s-0.4-0.4-0.6-0.6s-0.4-0.3-0.5-0.3l-1.4-0.4c-0.5-0.1-0.8-0.2-0.9-0.2
				c-0.5,0-0.9,0.2-1.1,0.7c-0.2,0.5-0.2,1.2-0.2,2.4l0.1,3.1c0,0.7,0,1.1,0.1,1.3c0.1,0.2,0.2,0.3,0.4,0.3l0.2,0l0.4,0.1
				c0.2,0,0.4-0.1,0.5-0.3l0.3,0l0.3,0L52.8,26.5z"/>
			<path class="st1" d="M66.6,38.2c-0.1,0.3-0.2,0.5-0.2,0.6s-0.2,0.1-0.5,0.1c-0.1,0.1-0.2,0.2-0.3,0.2c-0.1,0-0.2-0.1-0.2-0.2
				c-0.1,0.1-0.3,0.2-0.5,0.3c-0.8-0.2-1.1-0.5-1.1-0.8v0c0.2,0,0.2-0.1,0.2-0.4v-0.3l0-0.5c0-0.1,0.1-0.3,0.2-0.7
				c0.1-1,0.2-2.4,0.2-4.2v-3l0-1.1l0-1l-0.2-3.4l0.1-2.3l-0.1-3v-0.6c-0.1-0.3-0.2-0.7-0.2-1l0.1-0.6c0-0.1,0-0.2-0.1-0.3
				c0-0.5,0.1-0.9,0.3-1.3c0.2-0.3,0.4-0.5,0.6-0.7s0.5-0.2,0.7-0.2c0.4,0,0.8,0.4,1.1,1.2c-0.2,0.3-0.4,0.6-0.5,0.8
				c-0.1,0.3-0.2,0.7-0.2,1.2l0.1,1.7l-0.1,4.2l0,5.7l-0.1,6.5l0,0.3c0,0.2,0,0.3-0.1,0.3c0.1,0.1,0.2,0.4,0.3,0.9s0.1,0.8,0.3,1.1
				S66.5,38.1,66.6,38.2z"/>
			<path class="st1" d="M81.4,25.6c0.2-0.1,0.4-0.2,0.7-0.3l0.9-0.2h0.1c0.2,0,0.3,0.2,0.3,0.7l-0.5,1.6c-0.2,0.5-0.3,1-0.3,1.5
				s-0.1,0.9-0.1,1.4c0,0.4,0,0.9,0.1,1.4c0.1,0.5,0.2,0.9,0.5,1.3c0,0,0,0.1,0,0.2c0,0.1-0.1,0.3-0.2,0.5c-0.2,0.2-0.2,0.6-0.2,1
				c0,0.2,0,0.6,0.1,1c0.1,0.5,0.1,0.8,0.1,0.9c0,0.1,0.1,0.2,0.2,0.3c0.1,0.1,0.2,0.2,0.2,0.2c0,0.1-0.1,0.1-0.2,0.2
				c0,0.5-0.1,0.8-0.1,0.9c0,0.4,0,0.6,0.1,0.6c-0.7,0.3-1.2,0.4-1.5,0.4c-0.4,0-0.6-0.2-0.6-0.5c0-0.1,0-0.2,0.1-0.4
				c0-0.1,0-0.1,0-0.2c0-0.2,0-0.3,0.1-0.4s0.1-0.2,0.1-0.3c0-0.2,0-0.5-0.1-0.8S81,36,80.7,36c-0.2,0-0.6,0.3-1.3,0.8
				c-0.9,0.8-1.7,1.4-2.5,1.8c-0.3,0.1-0.5,0.2-0.6,0.3c-1.4,0.2-2.1,0.3-2.2,0.3c-0.2,0-0.6-0.1-0.9-0.4c-0.4-0.3-0.7-0.6-0.9-0.8
				s-0.4-0.7-0.6-1.3c-0.2-0.6-0.3-1.2-0.3-1.9c0-0.3,0.1-1.4,0.4-3.2c0.2-1.8,0.4-3.2,0.6-4c0.1-0.8,0.2-1.2,0.2-1.3
				c0-0.1,0-0.2-0.1-0.4l-0.1-0.2v-0.1c0-0.1,0-0.1,0.1-0.1c0.1,0,0.3-0.1,0.6-0.2s0.5-0.2,0.6-0.2c0.1,0,0.2,0,0.4,0.1
				c0.2,0.1,0.4,0.1,0.5,0.1h0.1c0.2,0.1,0.3,0.3,0.4,0.5l-0.3,0.4c-0.6,0.5-0.9,1.3-1.1,2.3l-0.5,3.1c-0.2,1.1-0.3,1.9-0.3,2.3
				c0,1.4,0.3,2.4,0.8,3s1.1,1,1.6,1l0.2,0l0.4,0c0.1,0,0.4-0.1,0.9-0.3c0.4-0.2,1.1-0.6,1.9-1.2c0.8-0.6,1.3-1,1.5-1.3
				s0.3-0.6,0.5-1s0.2-0.9,0.3-1.4s0.1-1.1,0.1-1.8c0-1.6,0-2.7-0.1-3.3c-0.1-0.6-0.2-0.9-0.4-1c-0.1-0.1-0.2-0.4-0.2-0.8
				c0.2-0.1,0.3-0.1,0.3-0.2c0.1,0,0.1-0.1,0.2-0.1C81.1,25.5,81.3,25.5,81.4,25.6z"/>
			<path class="st1" d="M98.4,29.6c0.1,0.1,0.1,0.2,0.1,0.3c0,0.3-0.1,0.5-0.2,0.6c0,0,0,0,0,0.1c0,0.2-0.2,0.2-0.6,0.2h-0.2
				c-0.1,0-0.1,0-0.2,0.1s-0.1,0.1-0.1,0.1c0,0-0.1,0-0.1-0.1s-0.2-0.1-0.4-0.1l-0.2-0.2c-0.2,0.1-0.4,0.1-0.6,0.1
				c-0.2,0-0.4,0-0.7-0.1s-0.5-0.1-0.6-0.1c-0.1,0-0.3,0-0.7,0.1s-0.7,0.1-0.9,0.1l-1.4-0.1c-0.8,0-1.5,0.1-2.1,0.2
				c-0.1,0-0.2,0.1-0.4,0.1s-0.3,0.1-0.3,0.2c0,0.1-0.1,0.2-0.3,0.3c-0.1,0.4-0.1,0.8-0.1,1.1c0,0.3,0.1,0.7,0.2,1.5
				s0.3,1.2,0.6,1.5c0.1,0.1,0.5,0.4,1.3,0.9c0.5,0.4,1,0.7,1.6,0.8c0.6,0.2,1.3,0.3,2,0.3c0.3,0,0.7,0,1.1-0.1l0.6-0.1h1
				c0.1,0,0.3-0.1,0.5-0.3s0.5-0.3,0.8-0.3c0.1,0.3,0.2,0.5,0.2,0.7c0,0.5-0.1,0.9-0.4,1.2s-0.6,0.5-1,0.5l-0.3-0.1l-0.9,0h-0.8
				c-0.4,0-1.3-0.2-2.7-0.5s-2.5-0.7-3.2-1.2s-1.2-1.2-1.5-2c-0.3-0.8-0.5-1.6-0.5-2.3c0-1,0.2-2,0.6-3.1c0.4-1,0.8-1.9,1.3-2.4
				s1.3-1.2,2.3-1.8c0.1,0,0.2-0.1,0.4-0.3s0.4-0.2,0.6-0.2l0.5,0c0.2-0.1,0.6-0.3,1.1-0.3c0.5-0.1,1-0.1,1.3-0.1
				c0.6,0,1.2,0.2,2,0.7s1.1,1.4,1.3,2.8c0,0.2,0.1,0.4,0.1,0.6c0.1,0.2,0.1,0.2,0.1,0.3C98.4,29.5,98.4,29.6,98.4,29.6z M92.3,26.4
				c-0.1,0.1-0.3,0.2-0.8,0.5c-0.2,0.2-0.5,0.4-0.7,0.6s-0.4,0.5-0.7,0.7c-0.2,0.3-0.4,0.5-0.6,0.7s-0.3,0.4-0.4,0.5
				c-0.1,0.1-0.1,0.2-0.1,0.3c0,0.1,0.1,0.2,0.2,0.2l0.2,0.1h1.1l5.1-0.2c0.7,0,1-0.3,1-0.9c0-0.6-0.1-1.1-0.4-1.6
				c-0.2-0.5-0.9-0.8-1.9-1.1c-0.1,0-0.3,0-0.5,0s-0.4,0-0.5,0C93.3,26.2,93,26.3,92.3,26.4z"/>
			<path class="st1" d="M127.8,19.1c-2.3,3.6-4.6,8.1-7.1,13.6l-2.2,4.9v0.2c0,0.4-0.1,0.7-0.4,1.1c-0.2,0.4-0.5,0.6-0.8,0.6
				c-0.2,0.2-0.6,0.3-1.3,0.3c-0.3,0-0.5-0.1-0.5-0.4l-0.7-2.3c-1.1-3.8-2-6.7-2.7-8.7c-0.7-2-1.3-3.6-1.8-4.7
				c-0.5-1.1-0.8-1.7-0.9-1.8v-0.3c-0.6-0.8-0.8-1.2-0.8-1.3c0-0.1,0.1-0.2,0.4-0.3s0.4-0.2,0.5-0.3l0.6-0.4c0.2,0,0.4-0.1,0.5-0.2
				l0.4,0.2c0.1,0.8,0.4,1.7,0.7,2.8l1,3c0.3,1,0.6,1.8,0.8,2.4c0.3,0.9,0.6,1.8,0.8,2.7c0.3,1.1,0.6,2,0.9,2.6l0.6,1.6
				c0.2,0.5,0.4,0.8,0.6,1.1c0.2,0.4,0.5,0.7,0.8,1c0.3-0.2,0.5-0.4,0.8-0.7s0.5-0.7,0.7-1.3l4.3-9.5c0.7-1.6,1.2-2.8,1.5-3.6
				c0.3-0.8,0.5-1.3,0.5-1.6c0-0.1,0-0.1,0-0.1c0-0.6,0.3-1,0.9-1h0.1c0.1,0,0.3-0.1,0.5-0.2c0.2-0.1,0.4-0.2,0.6-0.2
				C127.6,18.4,127.8,18.6,127.8,19.1z"/>
			<path class="st1" d="M132.3,38.9c0,0.1-0.2,0.2-0.6,0.3c-0.4,0.2-0.7,0.3-0.8,0.3h-0.1c-0.1,0-0.2,0-0.4,0.1
				c-0.2,0-0.3,0.1-0.3,0.1c-0.2,0-0.4-0.1-0.5-0.2c-0.1-0.1-0.2-0.2-0.2-0.3c0-0.2,0-0.5,0.1-1s0.2-0.8,0.4-1
				c0.1-0.6,0.1-1.8,0.1-3.4l-0.1-5.3l0-0.9c0-0.1-0.1-0.3-0.2-0.5s-0.2-0.6-0.2-1c0-0.2,0.1-0.4,0.2-0.5c0.1-0.1,0.4-0.2,0.8-0.4
				l0.8-0.4c0,0,0.1,0,0.2,0c0.2,0,0.4,0.4,0.4,1.1c0,0.4-0.1,1.5-0.2,3.3c-0.2,1.8-0.2,3.3-0.2,4.4c0,0.6,0,1.2,0.1,1.8
				c0,0.6,0.1,1,0.1,1.3s0.1,0.6,0.3,0.8c0.3,0.5,0.4,1,0.4,1.4C132.2,38.9,132.2,38.9,132.3,38.9z M131.6,20.3
				c0.2,0.1,0.4,0.3,0.8,0.4s0.5,0.4,0.5,0.6c0,0.2-0.1,0.4-0.4,0.7s-0.5,0.4-0.8,0.4c-0.3,0-0.6-0.2-0.9-0.5s-0.5-0.5-0.5-0.6
				c0-0.2,0.1-0.4,0.4-0.6S131.3,20.3,131.6,20.3L131.6,20.3z"/>
			<path class="st1" d="M139.9,38.2c-0.1,0.3-0.2,0.5-0.2,0.6s-0.2,0.1-0.5,0.1c-0.1,0.1-0.2,0.2-0.3,0.2c-0.1,0-0.2-0.1-0.2-0.2
				c-0.1,0.1-0.3,0.2-0.5,0.3c-0.8-0.2-1.1-0.5-1.1-0.8v0c0.2,0,0.2-0.1,0.2-0.4v-0.3l0-0.5c0-0.1,0.1-0.3,0.2-0.7
				c0.1-1,0.2-2.4,0.2-4.2v-3l0-1.1l0-1l-0.2-3.4l0.1-2.3l-0.1-3v-0.6c-0.1-0.3-0.2-0.7-0.2-1l0.1-0.6c0-0.1,0-0.2-0.1-0.3
				c0-0.5,0.1-0.9,0.3-1.3c0.2-0.3,0.4-0.5,0.6-0.7s0.5-0.2,0.7-0.2c0.4,0,0.8,0.4,1.1,1.2c-0.2,0.3-0.4,0.6-0.5,0.8
				c-0.1,0.3-0.2,0.7-0.2,1.2l0.1,1.7l-0.1,4.2l0,5.7l-0.1,6.5l0,0.3c0,0.2,0,0.3-0.1,0.3c0.1,0.1,0.2,0.4,0.3,0.9s0.1,0.8,0.3,1.1
				S139.9,38.1,139.9,38.2z"/>
			<path class="st1" d="M147.6,38.2c-0.1,0.3-0.2,0.5-0.2,0.6s-0.2,0.1-0.5,0.1c-0.1,0.1-0.2,0.2-0.3,0.2c-0.1,0-0.2-0.1-0.2-0.2
				c-0.1,0.1-0.3,0.2-0.5,0.3c-0.8-0.2-1.1-0.5-1.1-0.8v0c0.2,0,0.2-0.1,0.2-0.4v-0.3l0-0.5c0-0.1,0.1-0.3,0.2-0.7
				c0.1-1,0.2-2.4,0.2-4.2v-3l0-1.1l0-1l-0.2-3.4l0.1-2.3l-0.1-3v-0.6c-0.1-0.3-0.2-0.7-0.2-1l0.1-0.6c0-0.1,0-0.2-0.1-0.3
				c0-0.5,0.1-0.9,0.3-1.3c0.2-0.3,0.4-0.5,0.6-0.7s0.5-0.2,0.7-0.2c0.4,0,0.8,0.4,1.1,1.2c-0.2,0.3-0.4,0.6-0.5,0.8
				c-0.1,0.3-0.2,0.7-0.2,1.2l0.1,1.7l-0.1,4.2l0,5.7l-0.1,6.5l0,0.3c0,0.2,0,0.3-0.1,0.3c0.1,0.1,0.2,0.4,0.3,0.9s0.1,0.8,0.3,1.1
				S147.6,38.1,147.6,38.2z"/>
			<path class="st1" d="M161,31.1c0,0.1-0.1,0.2-0.2,0.3s-0.2,0.3-0.3,0.4s-0.1,0.4-0.1,0.9s0,1.1,0,2.1l0.1,2c0,0.1,0,0.2-0.1,0.3
				c0,0.1,0,0.3,0,0.5c0,0.4,0.1,0.8,0.2,1.4l0.2,0.8l0,0.7l0,0.6c-0.7,0.7-1.2,1.1-1.6,1.1c0,0-0.1,0-0.3-0.1s-0.3-0.1-0.4-0.1
				h-0.1c-0.1-0.3-0.1-0.5-0.1-0.7c0-0.5,0.1-0.9,0.3-1.4c0.1-0.1,0.2-0.2,0.2-0.3s0.1-0.4,0.1-0.9c0-0.6-0.1-0.8-0.2-0.8
				c0,0-0.1,0-0.2,0.1s-0.2,0.1-0.3,0.1H158c-0.1,0.1-0.2,0.2-0.2,0.3c-0.1,0-0.8,0.2-1.9,0.7c-0.6,0.2-1.1,0.3-1.6,0.3
				c-0.6,0-1.1-0.1-1.6-0.2s-0.8-0.4-1.2-0.7s-0.5-0.5-0.6-0.7s-0.1-0.5-0.1-1l0-0.4v-0.1c0-1,0.8-2,2.3-3.1
				c1.5-1.1,2.9-1.7,4.3-1.9c0.4-0.1,0.6-0.1,0.8-0.2c0.2-0.1,0.4-0.2,0.5-0.3s0.2-0.5,0.2-1c0-1.7-0.9-2.9-2.8-3.5
				c-0.1,0-0.1-0.1-0.2-0.1s-0.2-0.1-0.3-0.1c-0.9,0-1.7,0-2.4,0.1c-0.4,0.4-0.7,0.6-1.2,0.6c-0.3,0-0.5-0.1-0.5-0.3
				c0,0,0.1-0.2,0.2-0.6s0.5-0.6,1-0.6c0.6-0.3,1.7-0.5,3.4-0.5c1.3,0,2.3,0.5,3,1.5s1.1,2.5,1.1,4.4v0.2c0.1,0.1,0.2,0.2,0.4,0.3
				S161,30.9,161,31.1L161,31.1z M158.1,36.3c0.6-0.8,0.9-1.6,0.9-2.2c0-0.4-0.1-0.8-0.3-1.3s-0.6-0.7-1.2-0.7
				c-1.2,0-2.1,0.3-2.8,0.9h-0.4c-1.5,0.8-2.3,1.7-2.3,2.6c0,0.7,0.3,1.2,0.9,1.6s1.3,0.7,2.2,0.7c0.2,0,0.6-0.1,1.2-0.3
				s1.2-0.5,1.7-1V36.3z"/>
			<path class="st1" d="M175.9,24.6c-0.2,1.1-0.3,2.8-0.3,5.2c0,0.8,0,2,0.1,3.7c0.1,1.7,0.1,3.1,0.1,4.4c0,2.4-0.2,4.4-0.7,5.9
				S174.3,46,174,46l-0.1,0c-0.3,0.7-0.9,1.2-1.9,1.5c-1,0.2-1.8,0.4-2.2,0.4c-0.2,0-0.5,0-0.9-0.1s-0.7-0.1-0.8-0.1
				c-0.2,0-0.3,0-0.4,0c-0.1,0.1-0.3,0.2-0.4,0.2c-0.1,0-0.2,0-0.3-0.1c-0.1,0.1-0.2,0.2-0.5,0.2l-0.3,0c0,0-0.1,0-0.2,0
				s-0.2,0-0.2,0c-0.1,0-0.2-0.1-0.4-0.2s-0.2-0.3-0.2-0.6c0-0.2,0-0.4,0.1-0.6s0.1-0.4,0.1-0.5v-0.3c0-0.1,0.1-0.3,0.2-0.4h0.1
				c0.2,0,0.5,0.1,1,0.4c1,0.6,2.1,0.9,3.2,0.9c0.8,0,1.5-0.2,2-0.5c0.6,0,0.9-0.2,1-0.6c0.2-0.1,0.5-0.6,0.9-1.5
				c0.4-0.9,0.6-2.3,0.6-4.2v-0.4c-0.1-0.3-0.4-0.4-0.8-0.4c-0.2,0-0.4,0-0.7,0.1s-0.5,0.1-0.8,0.1c-0.4,0-1-0.1-1.9-0.2
				c-0.8-0.1-1.5-0.2-1.9-0.3c-0.5-0.1-1-0.4-1.7-0.8s-1.1-0.8-1.4-1.2s-0.5-0.9-0.7-1.4s-0.3-1.1-0.3-1.7c0-1.1,0.3-2.2,0.9-3.2
				c0.6-1,1.5-1.8,2.6-2.5c0.1,0,0.2-0.1,0.3-0.2c0.2-0.3,1-0.6,2.3-0.9l1.7-0.5h0c0.1,0,0.7-0.2,1.8-0.6l0.2,0.2
				c0.1-0.2,0.1-0.5,0.1-1v-0.7h0.3C175.2,24.1,175.8,24.3,175.9,24.6z M173.1,36.9c0,0.1,0.1,0.2,0.3,0.2c0.6,0,0.8-0.6,0.8-1.9
				l-0.2-6.7l0.1-0.5c0-0.7-0.5-1-1.4-1c-0.7,0-1.5,0.1-2.5,0.4s-1.8,0.7-2.6,1.5c-0.8,0.7-1.3,1.4-1.6,2.1s-0.4,1.4-0.4,2
				c0,0.9,0.3,1.7,0.9,2.3s1.3,1.2,2.1,1.6s2.1,0.6,3.6,0.6c0.1,0,0.2,0,0.3-0.1S172.9,37.2,173.1,36.9z"/>
			<path class="st1" d="M190.9,29.6c0.1,0.1,0.1,0.2,0.1,0.3c0,0.3-0.1,0.5-0.2,0.6c0,0,0,0,0,0.1c0,0.2-0.2,0.2-0.6,0.2h-0.2
				c-0.1,0-0.1,0-0.2,0.1s-0.1,0.1-0.1,0.1c0,0-0.1,0-0.1-0.1s-0.2-0.1-0.4-0.1l-0.2-0.2c-0.2,0.1-0.4,0.1-0.6,0.1
				c-0.2,0-0.4,0-0.7-0.1s-0.5-0.1-0.6-0.1c-0.1,0-0.3,0-0.7,0.1s-0.7,0.1-0.9,0.1l-1.4-0.1c-0.8,0-1.5,0.1-2.1,0.2
				c-0.1,0-0.2,0.1-0.4,0.1s-0.3,0.1-0.3,0.2c0,0.1-0.1,0.2-0.3,0.3c-0.1,0.4-0.1,0.8-0.1,1.1c0,0.3,0.1,0.7,0.2,1.5
				s0.3,1.2,0.6,1.5c0.1,0.1,0.5,0.4,1.3,0.9c0.5,0.4,1,0.7,1.6,0.8c0.6,0.2,1.3,0.3,2,0.3c0.3,0,0.7,0,1.1-0.1l0.6-0.1h1
				c0.1,0,0.3-0.1,0.5-0.3s0.5-0.3,0.8-0.3c0.1,0.3,0.2,0.5,0.2,0.7c0,0.5-0.1,0.9-0.4,1.2s-0.6,0.5-1,0.5l-0.3-0.1l-0.9,0h-0.8
				c-0.4,0-1.3-0.2-2.7-0.5s-2.5-0.7-3.2-1.2s-1.2-1.2-1.5-2c-0.3-0.8-0.5-1.6-0.5-2.3c0-1,0.2-2,0.6-3.1c0.4-1,0.8-1.9,1.3-2.4
				s1.3-1.2,2.3-1.8c0.1,0,0.2-0.1,0.4-0.3s0.4-0.2,0.6-0.2l0.5,0c0.2-0.1,0.6-0.3,1.1-0.3c0.5-0.1,1-0.1,1.3-0.1
				c0.6,0,1.2,0.2,2,0.7s1.1,1.4,1.3,2.8c0,0.2,0.1,0.4,0.1,0.6c0.1,0.2,0.1,0.2,0.1,0.3C190.9,29.5,190.9,29.6,190.9,29.6z
				 M184.8,26.4c-0.1,0.1-0.3,0.2-0.8,0.5c-0.2,0.2-0.5,0.4-0.7,0.6s-0.4,0.5-0.7,0.7c-0.2,0.3-0.4,0.5-0.6,0.7s-0.3,0.4-0.4,0.5
				c-0.1,0.1-0.1,0.2-0.1,0.3c0,0.1,0.1,0.2,0.2,0.2L182,30h1.1l5.1-0.2c0.7,0,1-0.3,1-0.9c0-0.6-0.1-1.1-0.4-1.6
				c-0.2-0.5-0.9-0.8-1.9-1.1c-0.1,0-0.3,0-0.5,0s-0.4,0-0.5,0C185.8,26.2,185.5,26.3,184.8,26.4z"/>
			<path class="st1" d="M203.1,32.6c0,0,0.1-0.3,0.3-0.8c0.1-0.5,0.1-1.2,0.1-2.1l0-1.7l0.1-3.1c0-1.6,0-2.7-0.1-3.4
				s-0.1-1.1-0.1-1.1c0-0.1,0-0.2,0-0.3c0-0.1,0-0.2,0-0.3l0-0.3c0-0.3,0.2-0.6,0.7-0.7c0.4-0.1,1.4-0.2,2.7-0.2
				c1.3,0,2.4,0.1,3.4,0.3c1,0.2,1.8,0.5,2.5,0.9s1.2,0.8,1.5,1.3s0.5,0.9,0.7,1.3c0.1,0.4,0.2,1.1,0.2,2c0,0.7-0.1,1.2-0.3,1.7
				s-0.6,1.1-1.1,2s-1.1,1.5-1.8,2.1c-0.7,0.6-1.4,1-2.2,1.4s-1.6,0.6-2.6,0.7c-0.7,0.1-1.2,0.3-1.5,0.5s-0.4,0.7-0.4,1.5
				c0,0.3,0,0.7,0.1,1.1c0.1,0.4,0.1,0.8,0.1,1.3l0,0.7c0,0.2,0,0.4,0.1,0.7l0.1,0.4v0.2c0,0.2,0,0.3-0.1,0.3
				c-0.1,0-0.2,0.1-0.5,0.1s-0.5,0.1-0.8,0.2s-0.4,0.1-0.4,0.1c0,0-0.2,0-0.3-0.1s-0.3-0.1-0.5-0.2s-0.2-0.1-0.2-0.2
				c0-0.1,0.1-0.2,0.3-0.4c0.2-0.2,0.3-0.4,0.3-0.6v-0.1c0-0.4,0.1-0.8,0.2-1.2s0.1-0.9,0.1-1.5c0-0.4,0-0.8-0.1-1.2
				c0-0.4-0.1-0.7-0.1-0.7c0-0.1-0.1-0.1-0.2-0.2C203.1,32.7,203.1,32.6,203.1,32.6L203.1,32.6z M205.3,31.4
				c0.8-0.1,1.5-0.3,2.2-0.5c0.7-0.2,1.3-0.4,1.9-0.7s1-0.5,1.2-0.8s0.6-0.6,0.9-0.9s0.6-0.7,0.8-0.9c0.1-0.2,0.2-0.6,0.4-1
				c0.2-0.4,0.3-0.8,0.3-1.2s0.1-0.8,0.1-1.3c0-1.1-0.3-1.9-0.8-2.4s-1.1-1-1.8-1.4s-1.7-0.7-3.1-0.7h-1c-0.5,0-0.8,0.1-1,0.3
				c-0.2,0.2-0.3,0.6-0.3,1.2l0.1,2.3l0,2.5v3.3C205.3,30.1,205.3,30.8,205.3,31.4z"/>
			<path class="st1" d="M226.5,27.7c0,0.1-0.1,0.3-0.2,0.5c-0.1,0.2-0.2,0.4-0.3,0.6c0,0.2-0.2,0.4-0.4,0.6h-0.4
				c-0.5-0.3-0.9-0.5-1.1-0.5c-0.2,0-0.5,0.1-0.9,0.3s-0.8,0.6-1.2,1.1c-0.4,0.5-0.6,0.9-0.7,1.2c0,0.3-0.2,0.7-0.5,1.1v0.5
				c-0.2,0.5-0.3,0.8-0.2,1c0,0.2,0,0.4,0,0.5c0,0.1,0,0.2,0,0.3c-0.1,0.1-0.2,0.2-0.2,0.4c0,0.2,0.1,0.7,0.2,1.3s0.3,1.1,0.5,1.4
				v0.1c0,0.4-0.2,0.7-0.5,0.7l-0.3,0.3c-0.2,0-0.5,0-0.8,0c-0.4,0-0.7,0-1-0.1v-0.1c0-0.3,0.1-0.6,0.2-1.2s0.2-0.9,0.2-1.2l0.1-3.4
				c0-2.7-0.1-5-0.4-7.1c0-0.2,0-0.3,0-0.4c0-0.4,0.2-0.7,0.5-0.8s0.7-0.3,0.9-0.3c0.2,0,0.5,0.1,0.7,0.2c0,0,0.1,0.1,0.1,0.2
				s0.1,0.2,0.1,0.2v0.2c0,0.1-0.1,0.5-0.3,1s-0.3,1.2-0.3,1.9l0,1.8v0.3c0,0.1,0.1,0.2,0.4,0.3c0.4-0.9,0.9-1.6,1.5-2.1
				s1.3-0.9,2.1-1.1s1.4-0.4,1.6-0.4c0.3,0.2,0.4,0.3,0.4,0.5V27.7z"/>
			<path class="st1" d="M228.4,30c1.5-2.9,4.3-4.4,8.2-4.4c0.6,0,1.2,0,1.6,0.1s0.9,0.2,1.3,0.3c0.4,0.2,0.8,0.4,1.1,0.6
				c0.4,0.3,0.7,0.6,1,1c0.3,0.4,0.7,0.9,1,1.4c0.2,0.3,0.3,0.9,0.3,1.9c0,2.2-0.8,4.1-2.3,5.7c-1.5,1.6-3.4,2.4-5.6,2.4H235
				c-0.5-0.1-0.7-0.1-0.8-0.1c0,0-0.1,0-0.1,0c-0.1,0.1-0.4,0.2-0.9,0.2c-0.7,0-1.5-0.2-2.5-0.6c-0.9-0.4-1.7-1-2.3-1.8
				s-0.9-1.7-0.9-2.6c0-0.4,0-0.7,0.1-1s0.1-0.7,0.2-1c0.1-0.3,0.2-0.6,0.3-0.9l0.4-0.8V30z M241.3,32.4V32c0-1.6-0.5-2.9-1.5-3.9
				c-1-1-2.4-1.5-4-1.5c-0.4,0-0.7,0-1,0.1s-0.5,0.1-0.6,0.2s-0.1,0.1-0.3,0.3c-0.1,0.2-0.2,0.3-0.3,0.3s-0.1,0.1-0.2,0.1l-0.7-0.1
				c-0.1,0-0.2,0.1-0.2,0.3c-0.7,0.1-1.4,0.6-2.1,1.7c-0.7,1-1,2.1-1,3.3c0,0.2,0,0.8,0.1,1.5s0.4,1.4,0.9,2s1.1,1,1.9,1.3
				c0.7,0.4,1.3,0.5,1.8,0.5c0.1,0,0.2,0,0.4,0l0.1,0h0.6c1.3,0,2.2-0.2,2.7-0.6c0,0,0.1-0.1,0.1-0.1c0.1,0,0.2,0,0.3,0.1
				c1.1-0.9,1.9-1.9,2.4-2.9S241.3,32.7,241.3,32.4z"/>
			<path class="st1" d="M249.2,47c-0.1,0.1-0.2,0.3-0.4,0.4c-0.2,0.2-0.3,0.2-0.3,0.2c-0.1,0-0.1,0-0.1,0s-0.1,0-0.1,0
				c0,0-0.1,0-0.2,0.1s-0.2,0.1-0.3,0.1c-0.2,0-0.4,0-0.6-0.1s-0.4-0.1-0.4-0.2c0,0,0-0.1,0.1-0.2c0.1-0.1,0.1-0.2,0.1-0.3v-0.2
				l0.1-1.8c0.3-3.8,0.4-7,0.4-9.6c0-0.9,0-1.9-0.1-2.9l-0.2-2.6c0-0.7-0.1-1.3-0.1-1.6s-0.1-0.7-0.1-1.1c-0.1-0.4-0.1-0.6-0.1-0.8
				c0-0.3,0.1-0.5,0.2-0.7c0.1-0.2,0.4-0.4,0.8-0.5l0.6-0.2l0.4,0c0.6,0,0.9,0.2,0.9,0.5c0,0,0,0.1-0.1,0.2s-0.1,0.3-0.1,0.4h-0.1
				c-0.4,0-0.6,1-0.8,3s-0.2,5.1-0.2,9.5c0,2.6,0.1,4.7,0.3,6.1L249,46L249.2,47z M248.8,20.3c0.2,0.1,0.4,0.3,0.8,0.4
				c0.3,0.2,0.5,0.3,0.5,0.6c0,0.2-0.1,0.5-0.4,0.7s-0.5,0.4-0.8,0.4s-0.6-0.2-0.9-0.5s-0.5-0.5-0.5-0.6c0-0.2,0.1-0.4,0.4-0.6
				S248.5,20.3,248.8,20.3L248.8,20.3z"/>
			<path class="st1" d="M264.3,29.6c0.1,0.1,0.1,0.2,0.1,0.3c0,0.3-0.1,0.5-0.2,0.6c0,0,0,0,0,0.1c0,0.2-0.2,0.2-0.6,0.2h-0.2
				c-0.1,0-0.1,0-0.2,0.1s-0.1,0.1-0.1,0.1c0,0-0.1,0-0.1-0.1s-0.2-0.1-0.4-0.1l-0.2-0.2c-0.2,0.1-0.4,0.1-0.6,0.1
				c-0.2,0-0.4,0-0.7-0.1s-0.5-0.1-0.6-0.1c-0.1,0-0.3,0-0.7,0.1s-0.7,0.1-0.9,0.1l-1.4-0.1c-0.8,0-1.5,0.1-2.1,0.2
				c-0.1,0-0.2,0.1-0.4,0.1s-0.3,0.1-0.3,0.2c0,0.1-0.1,0.2-0.3,0.3c-0.1,0.4-0.1,0.8-0.1,1.1c0,0.3,0.1,0.7,0.2,1.5
				s0.3,1.2,0.6,1.5c0.1,0.1,0.5,0.4,1.3,0.9c0.5,0.4,1,0.7,1.6,0.8c0.6,0.2,1.3,0.3,2,0.3c0.3,0,0.7,0,1.1-0.1l0.6-0.1h1
				c0.1,0,0.3-0.1,0.5-0.3s0.5-0.3,0.8-0.3c0.1,0.3,0.2,0.5,0.2,0.7c0,0.5-0.1,0.9-0.4,1.2s-0.6,0.5-1,0.5l-0.3-0.1l-0.9,0h-0.8
				c-0.4,0-1.3-0.2-2.7-0.5s-2.5-0.7-3.2-1.2s-1.2-1.2-1.5-2c-0.3-0.8-0.5-1.6-0.5-2.3c0-1,0.2-2,0.6-3.1c0.4-1,0.8-1.9,1.3-2.4
				s1.3-1.2,2.3-1.8c0.1,0,0.2-0.1,0.4-0.3s0.4-0.2,0.6-0.2l0.5,0c0.2-0.1,0.6-0.3,1.1-0.3c0.5-0.1,1-0.1,1.3-0.1
				c0.6,0,1.2,0.2,2,0.7s1.1,1.4,1.3,2.8c0,0.2,0.1,0.4,0.1,0.6c0.1,0.2,0.1,0.2,0.1,0.3C264.4,29.5,264.3,29.6,264.3,29.6z
				 M258.3,26.4c-0.1,0.1-0.3,0.2-0.8,0.5c-0.2,0.2-0.5,0.4-0.7,0.6s-0.4,0.5-0.7,0.7c-0.2,0.3-0.4,0.5-0.6,0.7s-0.3,0.4-0.4,0.5
				c-0.1,0.1-0.1,0.2-0.1,0.3c0,0.1,0.1,0.2,0.2,0.2l0.2,0.1h1.1l5.1-0.2c0.7,0,1-0.3,1-0.9c0-0.6-0.1-1.1-0.4-1.6
				c-0.2-0.5-0.9-0.8-1.9-1.1c-0.1,0-0.3,0-0.5,0s-0.4,0-0.5,0C259.3,26.2,258.9,26.3,258.3,26.4z"/>
			<path class="st1" d="M276.9,36.8c0.5,0.3,0.7,0.7,0.7,1.1c0,0.6-0.2,0.9-0.5,0.9H277c-0.1,0-0.4,0.1-0.9,0.2s-1.1,0.2-1.8,0.2
				h-0.4l-1,0.1c-0.4,0-0.7,0-1.1-0.1c-0.2-0.1-0.5-0.2-1.1-0.4s-1-0.3-1.2-0.5c-0.2-0.1-0.5-0.3-0.8-0.6c-0.3-0.3-0.6-0.6-0.9-1
				s-0.5-0.7-0.6-1.1s-0.3-0.8-0.4-1.2s-0.1-0.9-0.1-1.3c0-1.4,0.2-2.5,0.7-3.5c0.5-1,1.3-1.8,2.4-2.6c0.2-0.1,0.4-0.2,0.7-0.4
				s0.5-0.4,0.7-0.4c0.2-0.1,0.7-0.2,1.6-0.3s1.7-0.2,2.6-0.2h0.5c0.2,0,0.4-0.1,0.6-0.1c0.5,0,0.7,0.2,0.7,0.6c0,0.1,0,0.2,0,0.3
				s0,0.2,0,0.3l0,1.1c-0.2,0-0.3,0.1-0.3,0.1c-0.2,0-0.5-0.1-0.9-0.2c-0.4-0.3-0.7-0.5-0.9-0.5h-0.2c-0.1,0-0.4,0-0.8-0.1
				s-0.8-0.1-1.1-0.1c-0.3,0-0.6,0.1-1,0.4c-0.1-0.1-0.2-0.1-0.3-0.1h-0.1c0,0-0.1,0-0.2,0.1c-0.3,0.3-0.8,0.6-1.3,0.7
				c-0.4,0.2-0.8,0.5-1.1,1.1s-0.6,1-0.9,1.3c-0.1,0.6-0.1,1.2-0.1,1.7c0,1.2,0.1,2,0.4,2.6s0.6,1,1.1,1.4s0.8,0.7,1,1h0.4
				c0.1,0.3,0.3,0.4,0.7,0.4c0.2,0,0.5,0,0.9,0.1s0.7,0.1,0.9,0.1l0.4,0h0.3c0.5,0,0.9,0,1.1-0.1s0.6-0.2,0.9-0.2
				S276.8,37,276.9,36.8z"/>
			<path class="st1" d="M286.8,26.1c0,0.1,0.1,0.1,0.2,0.2c0.1,0,0.2,0.1,0.2,0.1h0.2c0.3,0,0.6,0.1,0.8,0.2
				c0.2,0.1,0.4,0.3,0.4,0.5c0,0.2-0.1,0.4-0.4,0.6l-0.2-0.2c-0.1,0.2-0.4,0.4-0.7,0.5l-0.1-0.2l-0.2,0.1c-0.4-0.2-0.9-0.3-1.3-0.3
				l-1.4,0.1c-0.2,0-0.5,0-0.9-0.1c-0.3,1.9-0.4,3.4-0.4,4.5c0,0.4,0,0.9,0.1,1.4s0.1,1,0.3,1.3c0.1,0.3,0.3,0.6,0.4,0.9
				s0.3,0.6,0.6,0.8c0.3,0.3,0.6,0.5,0.8,0.6s0.5,0.3,0.7,0.5s0.7,0.3,1.5,0.3h0.3c0.2,0.1,0.3,0.3,0.3,0.4c0,0.1-0.1,0.3-0.2,0.5
				s-0.3,0.4-0.3,0.6s-0.2,0.3-0.4,0.5h-0.1c0,0-0.1,0-0.1-0.1c-0.3,0-0.6,0-0.9-0.1c0,0,0,0,0,0s-0.1,0-0.1-0.1s-0.1-0.1-0.2-0.1
				c-0.1-0.1-0.2-0.3-0.4-0.4c-0.4-0.2-0.8-0.4-1.2-0.7c-0.4-0.3-0.8-0.7-1.2-1.3c-0.4-0.6-0.7-1.1-0.8-1.5s-0.2-1-0.2-1.7
				c-0.1-0.7-0.1-1.4-0.1-2.1c0-1.3,0.1-2.7,0.3-4.2l-0.3-0.1l-0.1,0.2h-0.2l-0.1-0.2c-2.3-0.1-3.4-0.3-3.4-0.7
				c0-0.1,0.1-0.2,0.2-0.3c0.1-0.1,0.6-0.2,1.2-0.2h0.6l0.6-0.1c0.2,0,0.4-0.1,0.7-0.3s0.4-0.3,0.6-0.5s0.3-0.8,0.4-1.9
				c0.1-0.7,0.1-1.4,0.1-2.2v-0.6c0-0.2,0.1-0.4,0.2-0.8s0.3-0.6,0.5-0.8s0.3-0.3,0.4-0.3c0.2,0,0.4,0,0.6,0.1
				c0.2,0.1,0.3,0.1,0.4,0.2s0.1,0.1,0.1,0.2c0,0.1,0.1,0.2,0.1,0.3v0.1c0,0,0,0.1-0.1,0.1s-0.1,0-0.1,0.1s0,0-0.1,0.1
				s-0.1,0.3-0.2,0.8s-0.2,1-0.3,1.5s-0.2,1-0.2,1.5s-0.1,1-0.1,1.5c0,0.7,0,1.1,0.1,1.2s0.1,0.1,0.2,0.1c0,0,0.2,0,0.4-0.1
				c0.2-0.1,0.4-0.1,0.5-0.1c0.1,0,0.2,0,0.2,0l0.2,0.4c0.1,0,0.1,0,0.2,0c0.1,0,0.3-0.1,0.6-0.2C286.3,26.2,286.6,26.1,286.8,26.1z
				"/>
		</g>
	</g>
	<g transform="matrix(1, 0, 0, 1, 471.21, 243.27)">
		<g class="st0">
			<path class="st1" d="M73.7,160.2c0.3,0.1,0.5,0.2,0.7,0.5s0.2,0.5,0.2,0.8c0,0.4-0.2,0.6-0.6,0.7v0.1c0,0.4-0.3,0.7-0.9,0.8
				c-0.2-0.3-0.6-0.4-1-0.4c-0.1,0-0.2,0.1-0.3,0.3c-0.3-0.1-0.5-0.1-0.7-0.1c-0.6,0-0.9,0.1-1,0.4h-0.4c-0.9,0-1.4,0.2-1.6,0.5
				c-0.1,0.1-0.4,0.2-0.9,0.5c-0.5,0.3-0.9,0.5-1.2,0.8c-0.3,0.3-0.7,0.8-1.1,1.5c-0.5,0.7-0.9,1.6-1.3,2.6
				c-0.4,1.1-0.7,1.9-0.8,2.7c-0.1,0.7-0.3,1.5-0.5,2.5s-0.3,1.5-0.3,1.6c0,1.2,0.3,1.8,1,1.8c0.1,0,0.2,0,0.3,0
				c0.1,0.2,0.3,0.3,0.4,0.3c0.1,0,0.1,0,0.2,0s0.3,0,0.5,0s0.4,0,0.6,0c0.3,0,0.8-0.1,1.6-0.2c0.7-0.2,1.3-0.2,1.8-0.2
				c0.1,0,0.2,0,0.5,0.1c0.3,0,0.4,0.1,0.4,0.2c0,0.1,0.1,0.4,0.1,0.7h0c-0.1,0-0.4,0.2-0.7,0.6c-0.1-0.1-0.1-0.2-0.3-0.3
				c-0.1,0.2-0.3,0.3-0.5,0.3c-0.2,0-0.6,0-1.3-0.1c-0.7-0.1-1.3-0.1-1.7-0.1c-0.2,0-0.4,0-0.6,0c-0.3,0-0.5,0-0.6,0
				c-0.1,0-0.3,0-0.6-0.1c-0.1,0.1-0.2,0.1-0.3,0.1c-0.1,0-0.2,0-0.3-0.1c0,0.1-0.1,0.2-0.2,0.2l-0.1,0c-0.2,0-0.3,1.5-0.3,4.4v2.2
				c0,1.3,0.1,2.8,0.3,4.5s0.3,2.6,0.3,2.8c0.1,0.2,0.2,0.4,0.4,0.6c0,0.1,0,0.2,0,0.4c0,0.2,0.1,0.5,0.2,0.9s0.2,0.6,0.2,0.8v0.1
				c-0.4,0.3-0.8,0.6-1.3,0.9c-0.2,0.4-0.6,0.6-0.9,0.6h-0.1c-0.1-0.1-0.3-0.3-0.5-0.6c-0.2-0.3-0.4-0.4-0.6-0.4l-0.2,0
				c-0.2-0.4-0.3-0.6-0.3-0.8c0-0.1,0.1-0.2,0.3-0.5c0.2-0.3,0.3-0.7,0.3-1.2l0-0.4l0.1-1.8c0.1-1.4,0.1-2.7,0.1-4.1
				c0-1.4-0.1-2.8-0.2-4.3c-0.1-1.5-0.2-2.4-0.2-2.8l0-0.8c0-0.1-0.2-0.2-0.5-0.2c0,0-0.1,0-0.3,0c-0.1,0-0.2,0-0.3,0
				c-0.1,0-0.2,0-0.3,0c-0.1,0-0.2,0.1-0.2,0.3c-0.1-0.2-0.2-0.3-0.3-0.3l-0.4,0c0,0-0.1-0.1-0.2-0.2v0c0-0.2,0.1-0.4,0.4-0.5
				c0.3-0.2,0.5-0.3,0.6-0.4h0.4c0.2-0.1,0.3-0.3,0.3-0.5h0.2c0.2,0,0.4-0.1,0.5-0.3c0.1-0.2,0.3-0.7,0.4-1.7s0.2-1.7,0.3-2.3
				c0.4-2.1,1-3.8,1.7-5.3c0.7-1.4,1.4-2.5,2-3.2c0.6-0.7,1.4-1.4,2.3-2c0.9-0.6,1.6-0.9,1.9-0.9H69c0.4-0.4,0.9-0.6,1.5-0.6
				l0.5-0.4C72.7,160.6,73.5,160.4,73.7,160.2z"/>
			<path class="st1" d="M71,183.6c2-3.9,5.7-5.8,11-5.8c0.8,0,1.6,0,2.2,0.1c0.6,0.1,1.2,0.2,1.8,0.5c0.5,0.2,1.1,0.5,1.5,0.8
				c0.5,0.4,0.9,0.8,1.4,1.3c0.4,0.5,0.9,1.1,1.3,1.9c0.2,0.4,0.4,1.2,0.4,2.5c0,3-1,5.5-3,7.6c-2,2.1-4.5,3.1-7.5,3.1h-0.2
				c-0.6-0.1-1-0.2-1-0.2c-0.1,0-0.1,0-0.1,0c-0.1,0.2-0.5,0.3-1.2,0.3c-0.9,0-2-0.3-3.3-0.8c-1.3-0.5-2.3-1.3-3.1-2.4
				c-0.8-1.1-1.2-2.2-1.2-3.5c0-0.5,0-0.9,0.1-1.4c0-0.5,0.1-0.9,0.2-1.3c0.1-0.4,0.2-0.8,0.4-1.2l0.5-1.1V183.6z M88.2,186.7v-0.5
				c0-2.2-0.7-3.9-2-5.2c-1.4-1.3-3.2-2-5.4-2c-0.5,0-1,0.1-1.4,0.2c-0.4,0.1-0.7,0.2-0.7,0.2c-0.1,0-0.2,0.2-0.3,0.4
				c-0.2,0.2-0.3,0.4-0.4,0.4c-0.1,0-0.2,0.1-0.3,0.1l-1-0.1c-0.1,0-0.2,0.1-0.3,0.4c-1,0.1-1.9,0.8-2.8,2.2
				c-0.9,1.4-1.3,2.8-1.3,4.4c0,0.3,0.1,1,0.2,2.1c0.1,1,0.5,1.9,1.2,2.6c0.7,0.7,1.5,1.3,2.5,1.8c1,0.5,1.8,0.7,2.4,0.7
				c0.2,0,0.3,0,0.5-0.1l0.2-0.1H80c1.7,0,2.9-0.3,3.6-0.8c0.1-0.1,0.1-0.1,0.1-0.1c0.1,0,0.2,0,0.4,0.1c1.4-1.2,2.5-2.5,3.2-3.9
				C87.9,188.1,88.2,187.2,88.2,186.7z"/>
			<path class="st1" d="M105.6,180.5c0,0.1-0.1,0.3-0.3,0.7c-0.2,0.3-0.3,0.6-0.4,0.9c-0.1,0.3-0.2,0.5-0.5,0.8H104
				c-0.7-0.4-1.2-0.6-1.5-0.6c-0.2,0-0.6,0.1-1.2,0.4c-0.5,0.3-1,0.8-1.5,1.5c-0.5,0.7-0.8,1.2-1,1.7c-0.1,0.4-0.3,0.9-0.6,1.4v0.6
				c-0.2,0.6-0.4,1.1-0.3,1.4s0.1,0.5,0.1,0.7c0,0.2,0,0.3,0,0.4c-0.2,0.2-0.2,0.3-0.2,0.5c0,0.3,0.1,0.9,0.2,1.7s0.4,1.4,0.7,1.9
				v0.2c0,0.6-0.2,0.9-0.7,0.9l-0.4,0.4c-0.3,0-0.7,0-1.1,0c-0.5,0-0.9-0.1-1.3-0.2v-0.1c0-0.4,0.1-0.9,0.3-1.5s0.3-1.2,0.3-1.5
				l0.1-4.6c0-3.6-0.2-6.7-0.6-9.4c0-0.3-0.1-0.4-0.1-0.5c0-0.5,0.2-0.9,0.7-1.1c0.5-0.3,0.9-0.4,1.2-0.4c0.3,0,0.6,0.1,0.9,0.2
				c0,0.1,0.1,0.1,0.1,0.3c0.1,0.1,0.1,0.2,0.1,0.3v0.2c0,0.2-0.1,0.6-0.3,1.3c-0.2,0.7-0.3,1.5-0.3,2.6l0,2.4v0.4
				c0,0.2,0.2,0.3,0.5,0.4c0.5-1.2,1.2-2.2,2-2.9s1.7-1.2,2.8-1.5c1.1-0.3,1.8-0.5,2.1-0.5c0.3,0.2,0.5,0.4,0.5,0.6V180.5z"/>
			<path class="st1" d="M143.3,169c-3,4.8-6.2,10.8-9.4,18.1l-2.9,6.5v0.3c0,0.5-0.2,0.9-0.5,1.4c-0.3,0.5-0.7,0.7-1.1,0.8
				c-0.2,0.2-0.8,0.4-1.7,0.4c-0.4,0-0.6-0.2-0.7-0.5l-0.9-3.1c-1.5-5.1-2.7-8.9-3.6-11.6c-0.9-2.7-1.7-4.8-2.4-6.2
				c-0.7-1.5-1.1-2.3-1.2-2.4v-0.4c-0.8-1.1-1.1-1.6-1.1-1.7c0-0.1,0.2-0.2,0.5-0.4s0.5-0.3,0.7-0.4l0.8-0.5c0.3,0,0.5-0.1,0.7-0.3
				l0.5,0.3c0.2,1,0.5,2.3,0.9,3.7l1.4,4c0.5,1.3,0.8,2.4,1.1,3.2c0.4,1.3,0.8,2.5,1.1,3.6c0.4,1.5,0.8,2.7,1.1,3.5l0.9,2.1
				c0.3,0.6,0.5,1.1,0.8,1.5c0.3,0.5,0.7,0.9,1.1,1.3c0.4-0.2,0.7-0.5,1-0.9s0.6-1,1-1.7L137,177c1-2.1,1.6-3.7,2.1-4.8
				s0.6-1.7,0.6-2.1c0-0.1,0-0.2,0-0.2c0-0.8,0.4-1.3,1.2-1.3h0.2c0.2,0,0.4-0.1,0.7-0.3c0.3-0.2,0.6-0.3,0.8-0.3
				C143,168.1,143.3,168.4,143.3,169z"/>
			<path class="st1" d="M156.8,185c0,0.1-0.1,0.2-0.3,0.4s-0.3,0.3-0.4,0.5c-0.1,0.1-0.1,0.5-0.2,1.1s-0.1,1.5-0.1,2.7l0.1,2.6
				c0,0.1-0.1,0.3-0.2,0.4c0,0.1,0,0.4,0,0.7c0,0.5,0.1,1.1,0.2,1.8l0.2,1l0,1l0,0.8c-0.9,0.9-1.6,1.4-2.1,1.4c-0.1,0-0.2,0-0.4-0.1
				c-0.2-0.1-0.4-0.1-0.5-0.1h-0.1c-0.1-0.4-0.2-0.7-0.2-1c0-0.6,0.1-1.2,0.4-1.8c0.1-0.2,0.3-0.3,0.3-0.4c0.1-0.1,0.1-0.5,0.1-1.2
				c0-0.7-0.1-1.1-0.2-1.1c0,0-0.1,0-0.2,0.1s-0.3,0.1-0.4,0.1h-0.2c-0.2,0.1-0.3,0.2-0.3,0.4c-0.2,0-1,0.3-2.6,0.9
				c-0.8,0.3-1.5,0.4-2.2,0.4c-0.8,0-1.5-0.1-2.1-0.3c-0.6-0.2-1.1-0.5-1.5-0.9c-0.4-0.4-0.7-0.7-0.8-0.9c-0.1-0.2-0.2-0.6-0.2-1.3
				l0-0.5v-0.2c0-1.3,1-2.7,3-4.1c2-1.4,3.9-2.3,5.7-2.6c0.5-0.1,0.8-0.2,1.1-0.2c0.3-0.1,0.5-0.2,0.7-0.4s0.3-0.6,0.3-1.3
				c0-2.3-1.2-3.9-3.7-4.7c-0.1,0-0.2-0.1-0.3-0.2s-0.3-0.1-0.4-0.1c-1.3,0-2.3,0.1-3.2,0.2c-0.5,0.5-1,0.8-1.6,0.8
				c-0.4,0-0.6-0.1-0.6-0.4c0,0,0.1-0.3,0.3-0.8c0.2-0.5,0.6-0.8,1.4-0.8c0.8-0.4,2.3-0.7,4.5-0.7c1.7,0,3.1,0.7,4.1,2
				c1,1.4,1.4,3.3,1.4,5.8v0.3c0.1,0.2,0.3,0.3,0.5,0.4C156.6,184.7,156.8,184.8,156.8,185L156.8,185z M152.9,192
				c0.8-1.1,1.2-2.1,1.2-3c0-0.5-0.1-1.1-0.4-1.7c-0.3-0.6-0.8-0.9-1.6-0.9c-1.5,0-2.8,0.4-3.8,1.2h-0.5c-2,1.1-3,2.3-3,3.5
				c0,0.9,0.4,1.6,1.2,2.2c0.8,0.6,1.8,0.9,2.9,0.9c0.3,0,0.8-0.1,1.6-0.4c0.8-0.2,1.6-0.7,2.2-1.4V192z"/>
			<path class="st1" d="M166.6,194.5c-0.1,0.4-0.2,0.7-0.3,0.8c-0.1,0.1-0.3,0.2-0.6,0.2c-0.2,0.2-0.3,0.2-0.4,0.2
				c-0.1,0-0.2-0.1-0.3-0.2c-0.2,0.2-0.4,0.3-0.7,0.4c-1-0.3-1.5-0.7-1.5-1.1v0c0.2,0,0.3-0.2,0.3-0.6v-0.4l0-0.6
				c0-0.1,0.1-0.4,0.2-0.9c0.2-1.4,0.3-3.2,0.3-5.6v-4l0-1.5l0-1.3l-0.2-4.5l0.2-3.1l-0.2-4v-0.8c-0.2-0.4-0.3-0.9-0.3-1.3l0.1-0.8
				c0-0.1-0.1-0.2-0.2-0.4c0-0.7,0.1-1.3,0.3-1.7c0.2-0.4,0.5-0.7,0.8-0.9s0.7-0.3,1-0.3c0.6,0,1,0.5,1.5,1.6
				c-0.3,0.4-0.5,0.8-0.7,1.1c-0.2,0.4-0.3,0.9-0.3,1.6l0.1,2.2l-0.1,5.6l0,7.6l-0.1,8.7l0,0.4c0,0.2-0.1,0.3-0.2,0.4
				c0.2,0.2,0.3,0.6,0.4,1.2s0.2,1.1,0.4,1.4C166.4,194.2,166.6,194.4,166.6,194.5z"/>
			<path class="st1" d="M186.5,183.1c0.1,0.1,0.2,0.3,0.2,0.4c0,0.4-0.1,0.7-0.3,0.8c0,0,0,0.1,0,0.1c0,0.2-0.3,0.3-0.8,0.3h-0.3
				c-0.1,0-0.2,0-0.2,0.1s-0.1,0.1-0.2,0.1c0,0-0.1,0-0.2-0.1c-0.1-0.1-0.3-0.1-0.5-0.2l-0.2-0.2c-0.3,0.1-0.6,0.1-0.8,0.1
				c-0.2,0-0.5,0-0.9-0.1s-0.6-0.1-0.8-0.1c-0.1,0-0.4,0-0.9,0.1c-0.5,0.1-0.9,0.1-1.2,0.1l-1.9-0.1c-1,0-2,0.1-2.8,0.3
				c-0.1,0.1-0.3,0.1-0.5,0.1c-0.2,0-0.4,0.1-0.4,0.3s-0.2,0.3-0.4,0.4c-0.1,0.5-0.2,1-0.2,1.4c0,0.3,0.1,1,0.3,1.9s0.5,1.6,0.8,2
				c0.1,0.1,0.6,0.5,1.7,1.2c0.7,0.5,1.4,0.9,2.2,1.1c0.8,0.3,1.7,0.4,2.7,0.4c0.4,0,0.9,0,1.5-0.1l0.8-0.1h1.3
				c0.1,0,0.4-0.1,0.7-0.4c0.4-0.2,0.7-0.4,1.1-0.4c0.2,0.4,0.2,0.7,0.2,1c0,0.6-0.2,1.1-0.6,1.6s-0.8,0.7-1.3,0.7l-0.4-0.1l-1.2,0
				h-1.1c-0.5,0-1.7-0.2-3.7-0.6c-1.9-0.4-3.4-1-4.3-1.6c-0.9-0.7-1.6-1.6-2-2.6s-0.6-2.1-0.6-3.1c0-1.4,0.3-2.7,0.8-4.1
				c0.5-1.4,1.1-2.5,1.8-3.3s1.7-1.6,3-2.4c0.1-0.1,0.3-0.2,0.6-0.4c0.3-0.2,0.5-0.3,0.8-0.3l0.6,0c0.3-0.2,0.8-0.3,1.5-0.5
				c0.7-0.1,1.3-0.2,1.7-0.2c0.8,0,1.7,0.3,2.6,0.9c0.9,0.6,1.5,1.8,1.7,3.7c0,0.3,0.1,0.6,0.2,0.8c0.1,0.2,0.1,0.3,0.1,0.3
				C186.6,182.9,186.6,183,186.5,183.1z M178.5,178.8c-0.1,0.1-0.4,0.3-1.1,0.6c-0.3,0.2-0.6,0.5-0.9,0.8c-0.3,0.3-0.6,0.6-0.9,1
				c-0.3,0.3-0.5,0.7-0.8,0.9s-0.4,0.5-0.5,0.6s-0.2,0.3-0.2,0.4c0,0.1,0.1,0.2,0.3,0.3l0.3,0.1h1.4l6.8-0.3c0.9,0,1.3-0.4,1.3-1.2
				c0-0.8-0.2-1.5-0.5-2.1c-0.3-0.6-1.2-1.1-2.5-1.4c-0.2,0-0.4,0-0.7,0c-0.3,0-0.5,0-0.6,0C179.9,178.5,179.4,178.6,178.5,178.8z"
				/>
			<path class="st1" d="M200.1,178.6c0.8-0.1,1.6-0.2,2.1-0.2c3.5,0,5.3,2.2,5.3,6.6c0,2.5-0.4,5.3-1.2,8.5
				c-0.4,1.4-0.5,2.3-0.5,2.8c0,0.1,0,0.2,0.1,0.3c-0.2,0.8-0.6,1.2-1.4,1.2c-0.5,0-0.9-0.1-1.3-0.4c-0.4-0.3-0.6-0.5-0.6-0.8
				c0-0.4,0.3-1,0.8-1.6s1-1.9,1.5-3.7c0.5-1.8,0.7-3.7,0.7-5.6c0-3.8-1.6-5.8-4.7-5.8c-1.2,0-2.4,0.3-3.5,0.8
				c-1.1,0.5-1.7,1.1-1.9,1.7c-0.1,0.1-0.3,0.3-0.5,0.4c-0.2,0.1-0.3,0.2-0.4,0.3c0,0.1-0.1,1.1-0.2,3c-0.1,1.9-0.2,3.3-0.2,4.3v0.9
				c0,0.5,0.1,0.9,0.2,1.3c0.2,0.4,0.2,0.6,0.2,0.7l0,0.7c0,0.4-0.1,0.8-0.2,1c-0.2,0.3-0.3,0.4-0.6,0.4h-0.1l-0.1,0.3
				c-0.2-0.1-0.3-0.1-0.3-0.1c-0.2,0-0.4,0.1-0.7,0.3h-0.1c-0.1,0-0.4-0.2-0.7-0.5c-0.4,0-0.6-0.2-0.6-0.5c0-0.3,0.1-0.5,0.3-0.7
				c0.2,0,0.4-0.9,0.6-2.6c0.2-1.7,0.3-3.9,0.3-6.5c0-3.4-0.3-5.4-0.8-5.8l0-0.4c0-0.5,0.3-0.8,0.9-1c0.2-0.1,0.4-0.2,0.6-0.5
				c0.2-0.3,0.4-0.4,0.6-0.4h0c0.3,0,0.5-0.1,0.7-0.2c0.2-0.1,0.3-0.1,0.3-0.1c0.2,0,0.3,0.3,0.3,0.8c0,0.4-0.1,0.8-0.2,1.3
				s-0.2,0.8-0.2,0.9c0,0.2,0.1,0.4,0.2,0.5s0.3,0.2,0.5,0.2h0.1c0.4-0.4,0.6-0.5,0.6-0.5h0.1c1.2,0,2.2-0.3,2.8-0.8
				c0.1,0,0.3,0,0.4-0.1c0.2,0,0.3,0,0.3,0C199.9,178.8,200.1,178.7,200.1,178.6z"/>
			<path class="st1" d="M222.3,178.4c0,0.1,0.1,0.1,0.2,0.2c0.1,0.1,0.2,0.1,0.2,0.1h0.2c0.4,0,0.8,0.1,1.1,0.3s0.5,0.4,0.5,0.7
				c0,0.3-0.2,0.5-0.5,0.8l-0.2-0.3c-0.2,0.3-0.5,0.5-0.9,0.6l-0.1-0.2l-0.2,0.1c-0.6-0.3-1.2-0.4-1.8-0.4l-1.8,0.1
				c-0.3,0-0.7,0-1.2-0.1c-0.3,2.5-0.5,4.5-0.5,6c0,0.5,0,1.2,0.1,1.9c0.1,0.7,0.2,1.3,0.3,1.7c0.2,0.5,0.3,0.9,0.5,1.2
				c0.2,0.4,0.5,0.8,0.9,1.1c0.4,0.4,0.8,0.6,1.1,0.8c0.3,0.2,0.6,0.4,0.9,0.7c0.3,0.3,0.9,0.4,2,0.4h0.4c0.2,0.2,0.4,0.4,0.4,0.5
				c0,0.1-0.1,0.4-0.3,0.7c-0.2,0.3-0.3,0.6-0.4,0.8c-0.1,0.2-0.3,0.4-0.6,0.7h-0.1c-0.1,0-0.1,0-0.2-0.1c-0.5,0-0.9-0.1-1.2-0.2
				c0,0,0,0,0,0c0,0-0.1,0-0.2-0.1c-0.1-0.1-0.2-0.1-0.3-0.2c-0.1-0.2-0.3-0.3-0.6-0.5c-0.6-0.2-1.1-0.5-1.6-0.9
				c-0.5-0.4-1-1-1.6-1.7c-0.5-0.7-0.9-1.4-1-2.1s-0.2-1.4-0.3-2.3c-0.1-0.9-0.1-1.8-0.1-2.8c0-1.7,0.1-3.6,0.4-5.6l-0.4-0.1
				l-0.1,0.3h-0.3l-0.1-0.3c-3-0.1-4.5-0.4-4.5-0.9c0-0.2,0.1-0.3,0.3-0.5c0.2-0.1,0.7-0.2,1.7-0.2h0.8l0.8-0.2
				c0.3-0.1,0.6-0.2,0.9-0.4c0.3-0.2,0.5-0.4,0.8-0.6s0.4-1.1,0.6-2.6c0.1-0.9,0.2-1.9,0.2-2.9v-0.8c0-0.2,0.1-0.6,0.3-1.1
				c0.2-0.5,0.4-0.8,0.7-1.1c0.3-0.3,0.5-0.4,0.6-0.4c0.3,0,0.5,0,0.8,0.1c0.3,0.1,0.4,0.2,0.5,0.2s0.1,0.1,0.1,0.3
				c0.1,0.2,0.1,0.3,0.2,0.4v0.1c0,0.1,0,0.1-0.1,0.1s-0.2,0.1-0.2,0.1c0,0,0,0.1-0.1,0.1s-0.1,0.4-0.3,1.1c-0.2,0.7-0.3,1.4-0.4,2
				s-0.2,1.3-0.3,2c-0.1,0.7-0.1,1.3-0.1,1.9c0,0.9,0,1.4,0.1,1.5s0.2,0.2,0.3,0.2c0.1,0,0.2,0,0.5-0.1c0.3-0.1,0.5-0.1,0.7-0.1
				c0.1,0,0.2,0,0.3,0l0.2,0.5c0.1,0,0.2,0,0.3,0c0.1,0,0.4-0.1,0.8-0.3S222,178.4,222.3,178.4z"/>
			<path class="st1" d="M232.1,195.5c0,0.1-0.3,0.2-0.8,0.5c-0.6,0.2-0.9,0.3-1.1,0.3H230c-0.1,0-0.3,0-0.5,0.1
				c-0.2,0.1-0.3,0.1-0.4,0.1c-0.2,0-0.5-0.1-0.7-0.3s-0.3-0.3-0.3-0.4c0-0.3,0.1-0.7,0.2-1.3c0.1-0.6,0.3-1,0.5-1.3
				c0.1-0.8,0.2-2.4,0.2-4.6l-0.2-7.1l0-1.2c0-0.1-0.1-0.4-0.3-0.7s-0.3-0.8-0.3-1.3c0-0.3,0.1-0.5,0.2-0.6c0.2-0.1,0.5-0.3,1.1-0.6
				l1.1-0.5c0.1,0,0.1,0,0.2,0c0.3,0,0.5,0.5,0.5,1.5c0,0.6-0.1,2.1-0.3,4.5c-0.2,2.4-0.3,4.4-0.3,5.8c0,0.8,0,1.6,0.1,2.4
				c0,0.7,0.1,1.3,0.1,1.7c0.1,0.4,0.2,0.7,0.4,1.1c0.4,0.7,0.5,1.3,0.5,1.8C232,195.4,232,195.5,232.1,195.5z M231.2,170.6
				c0.2,0.2,0.5,0.3,1,0.6s0.7,0.5,0.7,0.8c0,0.3-0.2,0.6-0.5,0.9c-0.3,0.3-0.7,0.5-1,0.5c-0.4,0-0.8-0.2-1.2-0.6
				c-0.4-0.4-0.6-0.7-0.6-0.7c0-0.2,0.2-0.5,0.5-0.9C230.4,170.8,230.8,170.6,231.2,170.6L231.2,170.6z"/>
			<path class="st1" d="M247.2,178.6c0.8-0.1,1.6-0.2,2.1-0.2c3.5,0,5.3,2.2,5.3,6.6c0,2.5-0.4,5.3-1.2,8.5
				c-0.4,1.4-0.5,2.3-0.5,2.8c0,0.1,0,0.2,0.1,0.3c-0.2,0.8-0.6,1.2-1.4,1.2c-0.5,0-0.9-0.1-1.3-0.4c-0.4-0.3-0.6-0.5-0.6-0.8
				c0-0.4,0.3-1,0.8-1.6s1-1.9,1.5-3.7c0.5-1.8,0.7-3.7,0.7-5.6c0-3.8-1.6-5.8-4.7-5.8c-1.2,0-2.4,0.3-3.5,0.8
				c-1.1,0.5-1.7,1.1-1.9,1.7c-0.1,0.1-0.3,0.3-0.5,0.4c-0.2,0.1-0.3,0.2-0.4,0.3c0,0.1-0.1,1.1-0.2,3c-0.1,1.9-0.2,3.3-0.2,4.3v0.9
				c0,0.5,0.1,0.9,0.2,1.3c0.2,0.4,0.2,0.6,0.2,0.7l0,0.7c0,0.4-0.1,0.8-0.2,1c-0.2,0.3-0.3,0.4-0.6,0.4h-0.1l-0.1,0.3
				c-0.2-0.1-0.3-0.1-0.3-0.1c-0.2,0-0.4,0.1-0.7,0.3h-0.1c-0.1,0-0.4-0.2-0.7-0.5c-0.4,0-0.6-0.2-0.6-0.5c0-0.3,0.1-0.5,0.3-0.7
				c0.2,0,0.4-0.9,0.6-2.6c0.2-1.7,0.3-3.9,0.3-6.5c0-3.4-0.3-5.4-0.8-5.8l0-0.4c0-0.5,0.3-0.8,0.9-1c0.2-0.1,0.4-0.2,0.6-0.5
				c0.2-0.3,0.4-0.4,0.6-0.4h0c0.3,0,0.5-0.1,0.7-0.2c0.2-0.1,0.3-0.1,0.3-0.1c0.2,0,0.3,0.3,0.3,0.8c0,0.4-0.1,0.8-0.2,1.3
				s-0.2,0.8-0.2,0.9c0,0.2,0.1,0.4,0.2,0.5s0.3,0.2,0.5,0.2h0.1c0.4-0.4,0.6-0.5,0.6-0.5h0.1c1.2,0,2.2-0.3,2.8-0.8
				c0.1,0,0.3,0,0.4-0.1c0.2,0,0.3,0,0.3,0C247,178.8,247.1,178.7,247.2,178.6z"/>
			<path class="st1" d="M274.6,183.1c0.1,0.1,0.2,0.3,0.2,0.4c0,0.4-0.1,0.7-0.3,0.8c0,0,0,0.1,0,0.1c0,0.2-0.3,0.3-0.8,0.3h-0.3
				c-0.1,0-0.2,0-0.2,0.1s-0.1,0.1-0.2,0.1c0,0-0.1,0-0.2-0.1c-0.1-0.1-0.3-0.1-0.5-0.2l-0.2-0.2c-0.3,0.1-0.6,0.1-0.8,0.1
				c-0.2,0-0.5,0-0.9-0.1s-0.6-0.1-0.8-0.1c-0.1,0-0.4,0-0.9,0.1c-0.5,0.1-0.9,0.1-1.2,0.1l-1.9-0.1c-1,0-2,0.1-2.8,0.3
				c-0.1,0.1-0.3,0.1-0.5,0.1c-0.2,0-0.4,0.1-0.4,0.3s-0.2,0.3-0.4,0.4c-0.1,0.5-0.2,1-0.2,1.4c0,0.3,0.1,1,0.3,1.9s0.5,1.6,0.8,2
				c0.1,0.1,0.6,0.5,1.7,1.2c0.7,0.5,1.4,0.9,2.2,1.1c0.8,0.3,1.7,0.4,2.7,0.4c0.4,0,0.9,0,1.5-0.1l0.8-0.1h1.3
				c0.1,0,0.4-0.1,0.7-0.4c0.4-0.2,0.7-0.4,1.1-0.4c0.2,0.4,0.2,0.7,0.2,1c0,0.6-0.2,1.1-0.6,1.6s-0.8,0.7-1.3,0.7l-0.4-0.1l-1.2,0
				h-1.1c-0.5,0-1.7-0.2-3.7-0.6c-1.9-0.4-3.4-1-4.3-1.6c-0.9-0.7-1.6-1.6-2-2.6s-0.6-2.1-0.6-3.1c0-1.4,0.3-2.7,0.8-4.1
				c0.5-1.4,1.1-2.5,1.8-3.3s1.7-1.6,3-2.4c0.1-0.1,0.3-0.2,0.6-0.4c0.3-0.2,0.5-0.3,0.8-0.3l0.6,0c0.3-0.2,0.8-0.3,1.5-0.5
				c0.7-0.1,1.3-0.2,1.7-0.2c0.8,0,1.7,0.3,2.6,0.9c0.9,0.6,1.5,1.8,1.7,3.7c0,0.3,0.1,0.6,0.2,0.8c0.1,0.2,0.1,0.3,0.1,0.3
				C274.7,182.9,274.6,183,274.6,183.1z M266.6,178.8c-0.1,0.1-0.4,0.3-1.1,0.6c-0.3,0.2-0.6,0.5-0.9,0.8c-0.3,0.3-0.6,0.6-0.9,1
				c-0.3,0.3-0.5,0.7-0.8,0.9s-0.4,0.5-0.5,0.6s-0.2,0.3-0.2,0.4c0,0.1,0.1,0.2,0.3,0.3l0.3,0.1h1.4l6.8-0.3c0.9,0,1.3-0.4,1.3-1.2
				c0-0.8-0.2-1.5-0.5-2.1c-0.3-0.6-1.2-1.1-2.5-1.4c-0.2,0-0.4,0-0.7,0c-0.3,0-0.5,0-0.6,0C267.9,178.5,267.4,178.6,266.6,178.8z"
				/>
		</g>
	</g>
</g>
</svg>
